<svg width="54" height="51" viewBox="0 0 54 51" fill="none" xmlns="http://www.w3.org/2000/svg">
<path d="M28.8276 13.2927C28.4807 14.2828 28.2918 15.3496 28.2918 16.4616C28.2918 21.653 32.4108 25.8616 37.4919 25.8616C38.5802 25.8616 39.6244 25.6685 40.5934 25.314M28.8276 13.2927C30.1004 9.66033 33.4991 7.06157 37.4919 7.06157C42.573 7.06157 46.6921 11.2701 46.6921 16.4616C46.6921 20.5411 44.1486 24.0136 40.5934 25.314M28.8276 13.2927C27.6341 13.0008 26.3883 12.8462 25.1071 12.8462C21.9976 12.8462 19.3065 13.6241 16.8549 15.1987M40.5934 25.314C40.8791 26.5335 41.0304 27.8064 41.0304 29.1154C41.0304 36.4214 36.317 42.6026 29.8276 44.6578M16.8549 15.1987C15.6139 14.1008 13.9953 13.4366 12.2248 13.4366C8.31627 13.4366 5.14777 16.6739 5.14777 20.6673C5.14777 23.5925 6.84786 26.112 9.29358 27.2506M16.8549 15.1987C12.8584 17.7654 9.88979 22.2018 9.29358 27.2506M9.29358 27.2506C9.22115 27.8639 9.18374 28.4863 9.18374 29.1154C9.18374 34.7808 12.018 39.7698 16.3168 42.6831M16.3168 42.6831C16.7564 46.2451 19.7323 49 23.3378 49C26.2413 49 28.7364 47.2136 29.8276 44.6578M16.3168 42.6831C16.2798 42.3838 16.2608 42.0788 16.2608 41.7692C16.2608 37.7758 19.4293 34.5385 23.3378 34.5385C27.2464 34.5385 30.4149 37.7758 30.4149 41.7692C30.4149 42.7962 30.2054 43.7731 29.8276 44.6578M13.0763 8.50773L15.5532 2M13.0763 8.50773C15.1994 6.82054 21.1441 3.66312 27.9381 4.53081M13.0763 8.50773L19.4456 9.23076M48.313 28.6593L52 34.5385M48.313 28.6593C48.3963 31.4061 46.3384 45.7461 37.1382 48.2769M48.313 28.6593L43.9885 33.4915M10.488 47.1938L3.65404 47.2356M10.488 47.1938C8.1712 45.7977 1.04557 39.2384 2.10705 30.9231M10.488 47.1938L8.80193 40.8767" stroke="#E03854" stroke-width="3.8" stroke-linecap="round" stroke-linejoin="round"/>
</svg>
