<svg width="57" height="57" viewBox="0 0 57 57" fill="none" xmlns="http://www.w3.org/2000/svg">
<g id="Group 34831">
<g id="Group 34830">
<path id="Ellipse 649" d="M46.636 46.2934L46.6212 46.3064L46.6069 46.32C45.0587 47.7962 43.3462 48.498 41.4819 48.6033C39.5917 48.7101 37.4836 48.206 35.18 47.1544C30.5564 45.0435 25.3924 40.8431 20.0605 35.665C14.7558 30.5133 10.6588 25.2564 8.61627 20.5935C6.5771 15.9382 6.68149 12.1544 9.22789 9.51051C10.9756 7.95817 12.7948 7.19123 14.6895 7.02196C16.6105 6.85034 18.6856 7.28682 20.9259 8.26941C25.435 10.247 30.3976 14.3371 35.7372 19.5228C41.0411 24.6738 45.3332 30.1511 47.4772 35.0066C49.6321 39.8868 49.4933 43.7762 46.636 46.2934Z" stroke="#332F30" stroke-width="2"/>
<path id="Ellipse 650" d="M46.8954 9.55239L46.9084 9.56723L46.9219 9.58154C48.3921 11.1354 49.0873 12.8506 49.1854 14.7154C49.2849 16.6059 48.7727 18.7121 47.7122 21.0116C45.5834 25.6271 41.3632 30.7748 36.1646 36.0866C30.9924 41.3714 25.7197 45.4482 21.049 47.4727C16.3858 49.4938 12.6025 49.3749 9.96845 46.8183C8.42287 45.0645 7.66296 43.2425 7.501 41.3471C7.3368 39.4255 7.78128 37.3521 8.77251 35.1155C10.7675 30.6141 14.8767 25.6674 20.083 20.3478C25.2544 15.0638 30.7482 10.7928 35.612 8.6676C40.5005 6.53155 44.3893 6.68541 46.8954 9.55239Z" stroke="#332F30" stroke-width="2"/>
</g>
<circle id="Ellipse 651" cx="28.1171" cy="28.1171" r="3.83417" fill="#332F30"/>
</g>
</svg>
