<svg xmlns="http://www.w3.org/2000/svg" width="66" height="66" viewBox="0 0 66 66" fill="none">
  <circle cx="33" cy="33" r="33" fill="#E03854"/>
  <path fill-rule="evenodd" clip-rule="evenodd" d="M38.1982 18.0904V21.0406C38.1982 26.2045 34.0281 30.3907 28.884 30.3907H26.7179V45.3943H30.6022C32.4245 45.3943 34.1721 46.121 35.4606 47.4145C35.8364 47.7917 36.3461 48.0036 36.8775 48.0036H45.4547C46.2322 48.0036 46.8626 47.3708 46.8626 46.5902C46.8626 45.8096 46.2322 45.1768 45.4547 45.1768H44.2633C43.6651 45.1768 43.1803 44.6901 43.1803 44.0896C43.1803 43.4892 43.6651 43.0024 44.2633 43.0024H45.4547C45.5968 43.0024 45.7369 43.0107 45.8747 43.0269C45.9488 43.0109 46.0256 43.0024 46.1045 43.0024H48.2706C48.9285 43.0024 49.4619 42.467 49.4619 41.8065C49.4619 41.146 48.9285 40.6105 48.2706 40.6105H44.2633C43.6651 40.6105 43.1803 40.1238 43.1803 39.5233C43.1803 38.9228 43.6651 38.4361 44.2633 38.4361H50.2201C50.9977 38.4361 51.628 37.8033 51.628 37.0227C51.628 36.2421 50.9977 35.6093 50.2201 35.6093H43.8301C43.2319 35.6093 42.747 35.1225 42.747 34.5221C42.747 33.9216 43.2319 33.4349 43.8301 33.4349H49.8951C50.7326 33.4349 51.4114 32.7534 51.4114 31.9128C51.4114 31.0721 50.7326 30.3907 49.8951 30.3907H39.2813C38.6831 30.3907 38.1982 29.9039 38.1982 29.3034C38.1982 28.703 38.6831 28.2162 39.2813 28.2162H41.2308V21.8958C41.2308 20.036 39.9338 18.4803 38.1982 18.0904ZM43.3969 28.2162V21.8958C43.3969 18.5413 40.6879 15.8219 37.3462 15.8219C36.6205 15.8219 36.0321 16.4125 36.0321 17.1411V21.0406C36.0321 25.0036 32.8318 28.2162 28.884 28.2162H13.2881C12.69 28.2162 12.2051 28.703 12.2051 29.3034V46.4815C12.2051 47.082 12.69 47.5687 13.2881 47.5687H30.6022C31.85 47.5687 33.0467 48.0663 33.929 48.952C34.711 49.737 35.7716 50.1781 36.8775 50.1781H45.4547C47.4286 50.1781 49.0287 48.5717 49.0287 46.5902C49.0287 46.0764 48.9211 45.5878 48.7273 45.1459C50.3655 44.9223 51.628 43.5124 51.628 41.8065C51.628 41.3169 51.524 40.8516 51.337 40.4318C52.7639 39.961 53.7941 38.6126 53.7941 37.0227C53.7941 35.977 53.3484 35.0357 52.6374 34.3799C53.2219 33.7256 53.5775 32.8609 53.5775 31.9128C53.5775 29.8712 51.9289 28.2162 49.8951 28.2162H43.3969ZM24.5518 45.3943V30.3907H14.3712V45.3943H24.5518ZM20.6529 41.6977C20.4136 41.6977 20.2196 41.8925 20.2196 42.1326C20.2196 42.3728 20.4136 42.5675 20.6529 42.5675C20.8921 42.5675 21.0861 42.3728 21.0861 42.1326C21.0861 41.8925 20.8921 41.6977 20.6529 41.6977ZM18.0535 42.1326C18.0535 40.6915 19.2173 39.5233 20.6529 39.5233C22.0884 39.5233 23.2522 40.6915 23.2522 42.1326C23.2522 43.5737 22.0884 44.742 20.6529 44.742C19.2173 44.742 18.0535 43.5737 18.0535 42.1326Z" fill="white"/>
</svg>