<svg width="40" height="38" viewBox="0 0 40 38" fill="none" xmlns="http://www.w3.org/2000/svg">
<g id="Group 34864">
<path id="Vector" d="M38.2012 28.0174V5.60356C38.2012 3.37517 36.3814 1.72246 34.1716 1.90815H34.0602C30.1605 2.24241 24.2367 4.22939 20.9313 6.30921L20.6156 6.51348C20.0771 6.84774 19.1857 6.84774 18.6472 6.51348L18.1829 6.23493C14.8775 4.17368 8.97228 2.20527 5.07261 1.88959C2.8628 1.70389 1.06152 3.37517 1.06152 5.58499V28.0174C1.06152 29.8001 2.50997 31.4714 4.29268 31.6942L4.8312 31.7685C8.86086 32.307 15.0818 34.3497 18.6472 36.2995L18.7215 36.3367C19.2228 36.6152 20.0213 36.6152 20.5042 36.3367C24.0696 34.3683 30.309 32.307 34.3573 31.7685L34.9701 31.6942C36.7528 31.4714 38.2012 29.8001 38.2012 28.0174Z" stroke="#332F30" stroke-width="2" stroke-linecap="round" stroke-linejoin="round"/>
<path id="Vector_2" d="M19.6314 7.12744V34.9822" stroke="#332F30" stroke-width="2" stroke-linecap="round" stroke-linejoin="round"/>
<path id="Vector_3" d="M11.7392 12.6982H7.56097" stroke="#332F30" stroke-width="2" stroke-linecap="round" stroke-linejoin="round"/>
<path id="Vector_4" d="M13.1319 18.269H7.56097" stroke="#332F30" stroke-width="2" stroke-linecap="round" stroke-linejoin="round"/>
</g>
</svg>
