<svg width="34" height="54" viewBox="0 0 34 54" fill="none" xmlns="http://www.w3.org/2000/svg">
<path d="M4.73005 51.455L5.59263 49.7621L4.73005 51.455ZM2.54497 49.27L4.23788 48.4074L2.54497 49.27ZM31.455 49.27L29.7621 48.4074L31.455 49.27ZM29.27 51.455L28.4074 49.7621L29.27 51.455ZM31.3175 9.63624L30.4549 11.3292L31.3175 9.63624ZM31.8638 10.1825L30.1708 11.0451L31.8638 10.1825ZM2.68251 9.63624L3.54509 11.3292L2.68251 9.63624ZM2.13624 10.1825L3.82915 11.0451L2.13624 10.1825ZM2 0.1C0.950659 0.1 0.1 0.950659 0.1 2C0.1 3.04934 0.950659 3.9 2 3.9V0.1ZM32 3.9C33.0493 3.9 33.9 3.04934 33.9 2C33.9 0.950659 33.0493 0.1 32 0.1V3.9ZM32 21.4C33.0493 21.4 33.9 20.5493 33.9 19.5C33.9 18.4507 33.0493 17.6 32 17.6V21.4ZM32 43.9C33.0493 43.9 33.9 43.0493 33.9 42C33.9 40.9507 33.0493 40.1 32 40.1V43.9ZM4 11.4H30V7.6H4V11.4ZM30.1 11.5V44H33.9V11.5H30.1ZM24 50.1H10V53.9H24V50.1ZM3.9 44V11.5H0.1V44H3.9ZM10 50.1C8.56852 50.1 7.60917 50.0985 6.87073 50.0382C6.15447 49.9797 5.81492 49.8754 5.59263 49.7621L3.86747 53.1479C4.71473 53.5797 5.61003 53.7478 6.56129 53.8256C7.49037 53.9015 8.63122 53.9 10 53.9V50.1ZM0.1 44C0.1 45.3688 0.0985224 46.5096 0.174431 47.4387C0.252152 48.39 0.42035 49.2853 0.852055 50.1325L4.23788 48.4074C4.12462 48.1851 4.02033 47.8455 3.96181 47.1293C3.90148 46.3908 3.9 45.4315 3.9 44H0.1ZM5.59263 49.7621C5.00933 49.4649 4.53509 48.9907 4.23788 48.4074L0.852055 50.1325C1.51358 51.4309 2.56915 52.4864 3.86747 53.1479L5.59263 49.7621ZM30.1 44C30.1 45.4315 30.0985 46.3908 30.0382 47.1293C29.9797 47.8455 29.8754 48.1851 29.7621 48.4074L33.1479 50.1325C33.5796 49.2853 33.7478 48.39 33.8256 47.4387C33.9015 46.5096 33.9 45.3688 33.9 44H30.1ZM24 53.9C25.3688 53.9 26.5096 53.9015 27.4387 53.8256C28.39 53.7478 29.2853 53.5797 30.1325 53.1479L28.4074 49.7621C28.1851 49.8754 27.8455 49.9797 27.1293 50.0382C26.3908 50.0985 25.4315 50.1 24 50.1V53.9ZM29.7621 48.4074C29.4649 48.9907 28.9907 49.4649 28.4074 49.7621L30.1325 53.1479C31.4309 52.4864 32.4864 51.4309 33.1479 50.1325L29.7621 48.4074ZM30 11.4C30.1794 11.4 30.3163 11.4 30.4337 11.4019C30.5512 11.4037 30.622 11.4071 30.6663 11.4107C30.7572 11.4182 30.6337 11.4203 30.4549 11.3292L32.1801 7.94333C31.7339 7.71599 31.3017 7.64997 30.9757 7.62334C30.672 7.59852 30.3187 7.6 30 7.6V11.4ZM33.9 11.5C33.9 11.1813 33.9015 10.828 33.8767 10.5243C33.85 10.1983 33.784 9.76611 33.5567 9.31993L30.1708 11.0451C30.0797 10.8663 30.0819 10.7428 30.0893 10.8337C30.0929 10.878 30.0963 10.9488 30.0981 11.0663C30.1 11.1837 30.1 11.3206 30.1 11.5H33.9ZM30.4549 11.3292C30.3326 11.2668 30.2332 11.1674 30.1708 11.0451L33.5567 9.31993C33.2547 8.72722 32.7728 8.24533 32.1801 7.94333L30.4549 11.3292ZM4 7.6C3.68132 7.6 3.32804 7.59852 3.02428 7.62334C2.69834 7.64997 2.26611 7.71599 1.81993 7.94333L3.54509 11.3292C3.3663 11.4203 3.24278 11.4182 3.33372 11.4107C3.37804 11.4071 3.44875 11.4037 3.56626 11.4019C3.68372 11.4 3.82064 11.4 4 11.4V7.6ZM3.9 11.5C3.9 11.3206 3.90005 11.1837 3.90189 11.0663C3.90374 10.9488 3.9071 10.878 3.91072 10.8337C3.91815 10.7428 3.92025 10.8663 3.82915 11.0451L0.443329 9.31993C0.215988 9.76611 0.149971 10.1983 0.12334 10.5243C0.0985224 10.828 0.1 11.1813 0.1 11.5H3.9ZM1.81993 7.94333C1.22722 8.24533 0.745331 8.72722 0.443329 9.31993L3.82915 11.0451C3.76684 11.1674 3.6674 11.2668 3.54509 11.3292L1.81993 7.94333ZM2 3.9H32V0.1H2V3.9ZM32 17.6H14.5V21.4H32V17.6ZM10.1 22V39.5H13.9V22H10.1ZM14.5 43.9H32V40.1H14.5V43.9ZM10.1 39.5C10.1 41.9301 12.0699 43.9 14.5 43.9V40.1C14.1686 40.1 13.9 39.8314 13.9 39.5H10.1ZM14.5 17.6C12.0699 17.6 10.1 19.5699 10.1 22H13.9C13.9 21.6686 14.1686 21.4 14.5 21.4V17.6Z" fill="#E03854"/>
</svg>
