<svg width="54" height="53" viewBox="0 0 54 53" fill="none" xmlns="http://www.w3.org/2000/svg">
<path d="M27 6.92017C27 4.11781 29.1324 1.69552 31.942 2.0312C35.5628 2.46381 39.5513 3.91463 41.0285 7.57151M27 6.92017C27 4.11781 24.8676 1.69552 22.058 2.0312C18.4372 2.46381 14.4487 3.91463 12.9715 7.57151M27 6.92017V47.3943M41.0285 7.57151C43.8342 14.5174 46.6399 11.7389 49.4455 15.9064C52.2512 20.074 49.4455 22.8523 49.4455 27.0198M41.0285 7.57151C41.9637 10.3498 42.7119 17.0178 38.2228 21.4631M49.4455 27.0198C49.4455 31.1873 54.0951 33.3105 50.8484 38.1332C48.0427 42.3007 44.6494 40.1042 42.4313 42.3007C39.6256 45.079 41.0285 46.4682 36.8199 49.2465C33.6212 51.3582 30.4226 51.3299 28.4557 50.3815C27.3641 49.8551 27 48.5966 27 47.3943M49.4455 27.0198C48.9779 28.872 46.6399 32.5765 41.0285 32.5765M27 47.3943C27 48.5966 26.6359 49.8551 25.5443 50.3815C23.5775 51.3299 20.3788 51.3582 17.1801 49.2465C12.9715 46.4682 14.3744 45.079 11.5687 42.3007C9.35059 40.1042 5.9573 42.3007 3.15161 38.1332C-0.0951302 33.3105 4.55446 31.1873 4.55446 27.0198M12.9715 7.57151C10.1658 14.5174 7.36015 11.7389 4.55446 15.9064C1.74876 20.074 4.55446 22.8523 4.55446 27.0198M12.9715 7.57151C12.0363 10.3498 11.2881 17.0178 15.7772 21.4631M4.55446 27.0198C5.02207 28.872 7.36015 32.5765 12.9715 32.5765" stroke="#E03854" stroke-width="3.8" stroke-linecap="round"/>
</svg>
