<svg xmlns="http://www.w3.org/2000/svg" width="104" height="104" viewBox="0 0 104 104" fill="none">
  <path d="M95.74 51.8281C95.74 76.291 75.9631 96.116 51.5596 96.116C27.1561 96.116 7.37927 76.291 7.37927 51.8281C7.37927 27.3652 27.1561 7.54028 51.5596 7.54028C75.9631 7.54028 95.74 27.3652 95.74 51.8281Z" fill="white"/>
  <path d="M63.0811 37.2478H40.1291V60.2557H63.0811V37.2478Z" fill="#2B3984"/>
  <path d="M51.7413 0.234985C23.3159 0.234985 0.273132 23.3338 0.273132 51.8283C0.273132 80.3229 23.3159 103.422 51.7413 103.422C80.1667 103.422 103.209 80.3229 103.209 51.8283C103.209 23.3338 80.1667 0.234985 51.7413 0.234985ZM62.809 87.9316V80.6867C62.809 80.3229 62.5066 80.0198 62.1438 80.0198H41.1573C40.7945 80.0198 40.4921 80.3229 40.4921 80.6867V87.8709C25.4931 83.0208 14.6673 68.7129 14.6673 51.8283C14.6673 45.311 16.3002 39.1574 19.1428 33.8222C21.7736 28.9114 25.4326 24.6373 29.8174 21.3634C35.9561 16.7558 43.5463 14.0276 51.7715 14.0276C59.9665 14.0276 67.5869 16.7558 73.7256 21.3634C78.1406 24.6676 81.7996 28.9114 84.4003 33.8222C87.2428 39.1877 88.8757 45.311 88.8757 51.8283C88.8455 68.7735 77.8987 83.1421 62.809 87.9316Z" fill="#2B3984"/>
  <path d="M85.7437 33.9665H17.8855C20.6199 29.0572 24.5487 24.7842 29.1376 21.5114H74.5544C76.346 22.7841 78.1689 24.3903 79.8976 26.0873C82.6949 29.0875 84.1721 31.4209 85.7437 33.9665Z" fill="#2B3984"/>
  <path d="M37.6797 25.2136V27.0931H39.857V27.9418H37.6797V29.8819H40.1291V30.7307H36.6516V24.3649H40.1291V25.2136H37.6797Z" fill="white"/>
  <path d="M44.6047 28.1237C44.7861 28.0934 45.028 28.0025 45.1792 27.9115C46.7819 26.8203 45.9655 24.9711 45.0583 24.6377C44.7861 24.4861 44.393 24.3649 44.0301 24.3649H41.5807V30.761H42.6391V28.2147H43.3951L44.9071 30.7913H46.1469L44.6047 28.1237ZM42.6693 25.244H44.1208C44.7256 25.3652 44.9675 25.8805 44.9675 26.2746C44.9373 26.8203 44.6954 27.275 43.9999 27.3053H42.6693V25.244Z" fill="white"/>
  <path d="M51.7112 24.3649V25.244H50.0178V30.7913H48.9896V25.244H47.2357V24.3649H51.7112Z" fill="white"/>
  <path d="M54.0091 24.3649H52.8903V30.7913H54.0091V24.3649Z" fill="white"/>
  <path d="M56.6403 25.2129V27.0923H58.7268V27.9714H56.6403V30.7905H55.5214V24.3944H59.2712V25.2129H56.6403Z" fill="white"/>
  <path d="M61.5692 24.3649H60.4806V30.7913H61.5692V24.3649Z" fill="white"/>
  <path d="M64.2304 25.2136V27.0931H66.3774V27.9418H64.2304V29.9122H66.6496V30.761H63.0813V24.3649H66.6496V25.2136H64.2304Z" fill="white"/>
  <path d="M73.4533 26.7293C73.2416 25.4865 72.3949 24.9105 71.7901 24.6377C71.397 24.4558 70.9131 24.3649 70.3386 24.3649H68.1613V30.761H70.3386C71.8203 30.7913 72.4251 30.185 72.909 29.7C73.1811 29.3363 73.7859 28.4572 73.4533 26.7293ZM71.4877 29.5485C71.0946 29.8819 70.0362 29.8213 70.0362 29.8213H69.1592V25.2136H70.3386C71.0039 25.2743 71.3365 25.4258 71.6087 25.6683C72.5763 26.3655 72.9392 28.5178 71.4877 29.5485Z" fill="white"/>
  <path d="M35.2303 28.8801C35.0791 29.4257 34.6558 29.9107 34.2022 30.2442C33.6579 30.6382 33.0228 30.8504 32.2366 30.8504C31.6016 30.8504 31.0573 30.6989 30.5432 30.4261C30.0593 30.1229 29.6662 29.7592 29.4243 29.2438C29.1522 28.7588 29.0312 28.2132 29.0312 27.6069C29.0312 27.0006 29.1521 26.455 29.4545 25.9397C29.9989 24.7271 31.3597 24.2421 32.2366 24.3028C34.172 24.2421 35.1094 25.6972 35.2001 26.2731L33.9603 26.3034C33.5974 25.5456 32.4483 24.8484 31.1177 25.5456C30.8153 25.7578 30.5432 26.0609 30.392 26.4247C30.271 26.6369 30.2105 26.8794 30.1803 27.1522C30.1501 27.3038 30.1501 27.4553 30.1501 27.6372C30.1501 27.7585 30.1501 27.8797 30.1803 28.001C30.2105 28.3041 30.3013 28.5769 30.4222 28.8498C31.3294 30.4867 33.6276 30.0017 33.9603 28.9407H35.2303V28.8801Z" fill="white"/>
  <path d="M16.2541 20.3184L15.3711 21.2753L20.0995 25.66L20.9825 24.7032L16.2541 20.3184Z" fill="white"/>
  <path d="M20.5943 21.9694L21.441 21.0297C21.7737 21.3025 22.1063 21.4237 22.4087 21.4237C22.7111 21.4237 23.0135 21.2722 23.3159 20.9993C23.6183 20.7265 23.7997 20.4537 23.83 20.1506C23.8602 19.8778 23.7997 19.6656 23.6485 19.4837C23.5578 19.3624 23.4066 19.3018 23.2857 19.2715C23.1345 19.2412 22.9833 19.2715 22.7413 19.3624C22.5901 19.4231 22.2877 19.6049 21.7737 19.8474C21.1386 20.1809 20.6246 20.3628 20.2617 20.3628C19.7476 20.3628 19.294 20.1809 18.9614 19.8171C18.7497 19.5746 18.5985 19.2715 18.538 18.938C18.4775 18.6046 18.538 18.2711 18.6892 17.9074C18.8404 17.5739 19.1126 17.2102 19.4754 16.8767C20.0802 16.3311 20.6548 16.0583 21.1689 16.028C21.7132 16.028 22.197 16.2098 22.5901 16.6645L21.7132 17.6346C21.441 17.4224 21.1991 17.3314 20.9572 17.3617C20.7153 17.3617 20.4734 17.5133 20.2012 17.7558C19.929 17.9983 19.7476 18.2711 19.6871 18.5137C19.6569 18.6955 19.6871 18.8168 19.8081 18.938C19.8988 19.0593 20.05 19.1199 20.2012 19.0896C20.4129 19.0896 20.806 18.9077 21.3806 18.6046C21.9551 18.3015 22.4087 18.0893 22.7413 17.9983C23.074 17.9074 23.4066 17.9074 23.709 17.9983C24.0114 18.0893 24.3138 18.2711 24.586 18.5743C24.8279 18.8471 24.9791 19.1805 25.0698 19.5443C25.1303 19.9081 25.0698 20.3021 24.9186 20.6659C24.7372 21.0297 24.465 21.4237 24.0416 21.7875C23.4369 22.3331 22.8623 22.606 22.2877 22.6363C21.683 22.6666 21.1386 22.4544 20.5943 21.9694Z" fill="white"/>
  <path d="M25.0094 16.5735C24.6768 16.0279 24.4651 15.5125 24.3744 15.0275C24.3139 14.6638 24.3442 14.3303 24.4046 13.9666C24.4651 13.6028 24.6163 13.2997 24.7978 13.0268C25.0397 12.6631 25.4025 12.3599 25.8259 12.0568C26.6424 11.5718 27.4286 11.4202 28.2149 11.6021C29.0011 11.8143 29.6966 12.3296 30.2409 13.239C30.7852 14.1181 30.9969 14.9669 30.8155 15.755C30.6643 16.5432 30.1804 17.2101 29.364 17.7254C28.5475 18.2407 27.7613 18.3923 26.975 18.2104C26.219 17.9982 25.5537 17.4526 25.0094 16.5735ZM26.0981 15.846C26.4912 16.4523 26.9145 16.8463 27.3984 16.9676C27.8822 17.1192 28.3358 17.0282 28.7894 16.7554C29.2128 16.4826 29.4849 16.0885 29.5756 15.6035C29.6664 15.1185 29.5152 14.5425 29.0918 13.9059C28.6987 13.2694 28.2753 12.9056 27.7915 12.754C27.3077 12.6328 26.8541 12.6934 26.4005 12.9662C25.9469 13.239 25.6747 13.6331 25.584 14.1181C25.5538 14.6638 25.7049 15.2094 26.0981 15.846Z" fill="white"/>
  <path d="M38.7686 13.3296L37.6194 13.6934L36.1679 9.26765C35.8655 9.81329 35.4724 10.268 34.9583 10.6621L34.5955 9.6011C34.8676 9.3889 35.1398 9.08577 35.4119 8.69169C35.6841 8.29762 35.8051 7.90355 35.8353 7.47916L36.7727 7.17603L38.7686 13.3296Z" fill="white"/>
  <path d="M43.2438 12.1785L42.9717 10.9053L40.4013 11.451L40.1594 10.39L42.004 5.78238L43.0019 5.57019L43.8789 9.60187L44.6651 9.41999L44.907 10.481L44.1208 10.6628L44.3929 11.936L43.2438 12.1785ZM42.7297 9.84438L42.2459 7.69213L41.2782 10.1475L42.7297 9.84438Z" fill="white"/>
  <path d="M47.417 4.90278C48.0218 4.81184 48.5358 4.99372 48.9592 5.3878C49.443 5.87281 49.7757 6.69127 49.9269 7.90381C50.0781 9.11634 49.9874 9.99543 49.6547 10.6017C49.3523 11.0867 48.8987 11.3595 48.2939 11.4505C47.6589 11.5414 47.1448 11.3595 46.6912 10.9351C46.2376 10.5108 45.9352 9.66198 45.784 8.44945C45.6328 7.23691 45.7235 6.35783 46.0864 5.78187C46.3283 5.26654 46.7819 4.99372 47.417 4.90278ZM47.5379 5.93344C47.3867 5.96375 47.2658 6.02438 47.1751 6.11532C47.0843 6.23657 46.9936 6.41845 46.9634 6.66096C46.9029 6.99441 46.9331 7.54005 47.0541 8.26757C47.1448 9.0254 47.2658 9.54073 47.3565 9.81355C47.4775 10.0864 47.5984 10.2683 47.7194 10.3289C47.8403 10.4198 47.9915 10.4501 48.1427 10.4198C48.2939 10.4198 48.4149 10.3289 48.5056 10.2379C48.6266 10.1167 48.687 9.93481 48.7173 9.6923C48.7475 9.35885 48.7475 8.84352 48.6266 8.08569C48.5358 7.32785 48.4149 6.84284 48.3242 6.57002C48.2032 6.2972 48.0822 6.11532 47.9613 6.05469C47.8403 5.93344 47.6891 5.90313 47.5379 5.93344Z" fill="white"/>
  <path d="M53.8279 4.47795C54.463 4.50826 54.9166 4.72045 55.2794 5.17515C55.6725 5.7208 55.8842 6.59988 55.8237 7.81242C55.7935 9.02495 55.5516 9.90404 55.1282 10.4194C54.7654 10.8438 54.2815 11.0559 53.6465 11.0256C53.0114 10.9953 52.5276 10.7528 52.1647 10.2678C51.8019 9.78279 51.6204 8.9037 51.6507 7.69116C51.6809 6.47863 51.9228 5.59954 52.3462 5.08421C52.7393 4.65983 53.2231 4.44763 53.8279 4.47795ZM53.7977 5.5086C53.6465 5.5086 53.5255 5.53892 53.4046 5.62986C53.2836 5.7208 53.1929 5.90268 53.1324 6.14518C53.0417 6.44832 52.9812 6.99396 52.951 7.75179C52.9207 8.50963 52.951 9.02495 53.0114 9.29777C53.0719 9.57059 53.1626 9.78279 53.2836 9.87373C53.4046 9.96467 53.5255 10.0253 53.6767 10.0253C53.8279 10.0253 53.9489 9.99498 54.0698 9.90404C54.1908 9.8131 54.2815 9.63122 54.342 9.38871C54.4327 9.08558 54.4932 8.53994 54.5234 7.7821C54.5537 7.02427 54.5234 6.50894 54.463 6.23612C54.4025 5.93299 54.3118 5.75111 54.1908 5.66017C54.1001 5.56923 53.9489 5.5086 53.7977 5.5086Z" fill="white"/>
  <path d="M60.0272 11.7237L58.8176 11.5115L59.6643 6.93416C59.1502 7.26761 58.5756 7.4798 57.9406 7.57074L58.1523 6.47946C58.4849 6.44915 58.878 6.29758 59.3014 6.08539C59.7248 5.87319 60.0272 5.57006 60.2388 5.2063L61.2368 5.38818L60.0272 11.7237Z" fill="white"/>
  <path d="M65.7122 13.4211L66.1658 12.2692L67.3149 12.7239L66.8613 13.8758L65.7122 13.4211ZM66.9823 10.2382L67.4359 9.0863L68.585 9.541L68.1314 10.6929L66.9823 10.2382Z" fill="white"/>
  <path d="M75.4491 17.3615L74.8141 18.3315L71.1853 15.9671C71.4575 15.6337 71.7901 15.3608 72.2135 15.1486C72.6066 14.9668 73.2718 14.7849 74.2093 14.603C74.9653 14.4817 75.4189 14.3605 75.6306 14.2696C75.9027 14.1483 76.1144 13.9967 76.2656 13.7845C76.4168 13.542 76.4773 13.3298 76.4168 13.1176C76.3866 12.9055 76.2353 12.7539 76.0237 12.6023C75.8422 12.4811 75.6306 12.4204 75.4189 12.4811C75.2072 12.5114 74.9955 12.6933 74.7838 12.9964L73.8162 12.2082C74.2395 11.6929 74.6931 11.3898 75.177 11.3595C75.6608 11.3292 76.1446 11.4504 76.6285 11.7839C77.1728 12.1173 77.4752 12.5417 77.5961 13.0267C77.7171 13.5117 77.6264 13.9664 77.3542 14.3908C77.203 14.6333 76.9913 14.8455 76.7797 14.9971C76.568 15.1486 76.2656 15.3002 75.933 15.4215C75.691 15.5124 75.3282 15.573 74.8141 15.664C74.3 15.7549 73.9674 15.8155 73.8162 15.8458C73.665 15.8762 73.544 15.9368 73.423 15.9974L75.4491 17.3615Z" fill="white"/>
  <path d="M81.5276 15.4213C82.0114 15.8154 82.2231 16.3004 82.2231 16.8764C82.1929 17.5433 81.7998 18.3617 81.0135 19.3014C80.2273 20.2411 79.5015 20.7565 78.8362 20.908C78.2919 21.0293 77.7779 20.8777 77.294 20.4836C76.8102 20.0896 76.5985 19.5742 76.5985 18.968C76.6288 18.3617 77.0219 17.5736 77.8081 16.6338C78.5943 15.6941 79.3201 15.1788 79.9854 15.0272C80.5297 14.8757 81.0438 14.9969 81.5276 15.4213ZM80.8623 16.1791C80.7414 16.0882 80.6204 16.0276 80.4692 16.0276C80.318 16.0276 80.1366 16.0882 79.9249 16.2398C79.6527 16.4217 79.2899 16.8157 78.806 17.3917C78.3222 17.9676 78.0198 18.392 77.8988 18.6648C77.7779 18.9377 77.7174 19.1499 77.7476 19.2711C77.7779 19.4227 77.8383 19.5439 77.9593 19.6349C78.0803 19.7258 78.2012 19.7864 78.3524 19.7864C78.5036 19.7864 78.6851 19.7258 78.8967 19.5742C79.1689 19.3924 79.5318 18.9983 80.0156 18.4223C80.4994 17.8464 80.8018 17.422 80.9228 17.1492C81.0438 16.8764 81.1043 16.6945 81.074 16.5429C81.0438 16.4217 80.9833 16.3004 80.8623 16.1791Z" fill="white"/>
  <path d="M82.0115 24.8485L81.1648 23.9391L84.5516 20.7562C83.9468 20.7259 83.3421 20.544 82.7675 20.2409L83.584 19.483C83.8864 19.6346 84.2795 19.7559 84.7331 19.8468C85.2169 19.9074 85.6403 19.8771 86.0032 19.6952L86.6987 20.4227L82.0115 24.8485Z" fill="white"/>
  <path d="M84.8841 25.6066L85.7308 26.516C85.5191 26.6978 85.4284 26.9403 85.3982 27.1525C85.3679 27.395 85.4284 27.6072 85.5493 27.7891C85.7005 28.0013 85.9122 28.0923 86.1844 28.1226C86.4565 28.1529 86.7589 28.0316 87.0916 27.7588C87.394 27.5163 87.5754 27.2738 87.6359 27.001C87.6964 26.7281 87.6359 26.4856 87.4545 26.2734C87.2428 26.0006 86.9404 25.8187 86.517 25.7884L86.0634 24.9093L89.1176 23.3937L91.0832 26.0006L90.176 26.6978L88.7547 24.8487L87.7569 25.364C88.029 25.4853 88.2709 25.6975 88.4221 25.9097C88.7548 26.3341 88.8757 26.8494 88.785 27.395C88.6943 27.9407 88.3919 28.3954 87.908 28.7895C87.4847 29.1229 87.0008 29.2745 86.4868 29.2745C85.7912 29.2745 85.2167 29.0017 84.7631 28.3954C84.4002 27.9104 84.249 27.4254 84.249 26.9403C84.3095 26.425 84.4909 26.0006 84.8841 25.6066Z" fill="white"/>
  <path d="M55.6424 42.9161C54.5235 41.461 52.951 40.6729 50.8343 40.6729C47.4172 40.6729 44.6351 43.1889 44.6351 46.2505C44.6351 49.0394 46.9333 51.3735 49.9271 51.7676L51.4391 53.5864C50.9552 53.6773 50.4714 53.7379 49.9573 53.7379C45.8447 53.7379 42.5183 50.6157 42.5183 46.7355C42.5183 42.8857 45.8447 39.7332 49.9573 39.7332C52.437 39.7332 54.6445 40.8851 55.8843 42.7039C56.1867 43.0979 55.7331 43.0979 55.6424 42.9161Z" fill="white"/>
  <path d="M53.0114 55.4656C52.4974 55.5565 51.9531 55.6172 51.4087 55.6172C47.9916 55.6172 45.0281 53.7377 43.5464 51.0095C44.9374 53.0102 47.3566 54.3137 50.0782 54.3137C50.7132 54.3137 51.3483 54.2531 51.9228 54.1015L53.0114 55.4656Z" fill="#D6B169"/>
  <path d="M50.1387 51.161C50.1387 51.161 50.5016 51.3126 51.2878 52.2826C51.2878 52.2826 53.3139 55.3443 55.1283 56.7084C55.1283 56.7084 56.9124 58.4363 60.1179 58.3756C60.1179 58.3756 57.1544 58.0119 55.3097 56.0718C54.4328 55.2837 52.5277 52.798 51.8624 52.1008C51.3483 51.5248 50.8645 50.9792 50.4714 50.676L50.1387 51.161Z" fill="#D9B06C"/>
  <path d="M50.683 50.5538C50.683 50.5538 51.8623 51.4632 52.7695 52.5544C52.7695 52.5544 55.1282 55.6161 56.0959 56.3133C56.6402 56.7377 58.2429 58.1018 61.0855 58.1018C59.3013 57.3743 58.8175 57.0408 57.5777 55.9799C56.61 55.1917 54.9468 52.9788 53.7674 51.8572C53.7674 51.8572 52.2555 50.2506 51.0156 50.0081C51.0156 49.9778 50.7435 50.4931 50.683 50.5538Z" fill="#D9B06C"/>
  <path d="M51.2578 49.7974C51.2578 49.7974 52.2254 50.1006 52.9814 50.6765C53.7072 51.2222 54.4632 51.9497 56.2171 53.8594C57.0033 54.7688 58.4851 56.9211 61.2369 57.6789C60.3297 57.3152 59.1806 56.6483 57.2452 54.3748C57.2452 54.3748 55.2192 51.5859 53.435 50.434C52.8605 50.1006 52.2859 49.6459 51.4392 49.5549L51.2578 49.7974Z" fill="#D9B06C"/>
  <path d="M60.2993 47.0086C60.2993 48.5242 59.9062 49.9489 59.1805 51.1918C58.6966 52.0103 58.0918 52.7681 57.3661 53.4047L55.8238 51.9496C56.3379 51.4343 56.7613 50.828 57.0939 50.1915C57.608 49.1911 57.9104 48.0695 57.9104 46.8873C57.9104 42.7647 54.4026 39.4302 50.0783 39.4302C47.8708 39.4302 45.8749 40.279 44.4537 41.6734C46.0866 39.703 48.5965 38.4299 51.4088 38.4299C56.3379 38.3996 60.2993 42.2494 60.2993 47.0086Z" fill="#D6B169"/>
  <path d="M41.8533 57.9207C43.9701 56.7991 46.0566 52.3733 46.5404 51.6155C48.3548 48.9176 51.2578 49.5239 51.2578 49.5239C50.0482 51.1608 49.1108 53.3737 48.6875 54.0406C48.6875 54.0406 47.1452 56.981 45.2704 57.7994C45.2704 57.7994 43.7281 58.5876 42.5185 58.3754L42.0952 58.3147L42.4581 57.9813L41.8533 57.9207Z" fill="white"/>
  <path d="M42.9721 58.5574C42.8209 58.5574 42.6697 58.5574 42.4882 58.5271L42.0649 58.4968C42.0044 58.4968 41.9439 58.4361 41.9439 58.4058C41.9137 58.3452 41.9439 58.2846 41.9741 58.2239L42.0951 58.133L41.8229 58.1027C41.7625 58.1027 41.702 58.0421 41.6717 57.9814C41.6415 57.9208 41.702 57.8299 41.7625 57.7996C43.4256 56.9205 45.1493 53.7982 45.9658 52.2825C46.1472 51.9491 46.2984 51.6763 46.3892 51.5247C48.2338 48.7662 51.2275 49.3724 51.2577 49.3724C51.3182 49.3724 51.3485 49.4331 51.3787 49.4634C51.409 49.524 51.3787 49.5846 51.3485 49.6149C50.5018 50.7365 49.8062 52.1613 49.3224 53.1313C49.1107 53.5557 48.9293 53.9195 48.8083 54.1316C48.7479 54.2529 47.2056 57.1024 45.3308 57.9511C45.3005 57.9814 44.1212 58.5574 42.9721 58.5574ZM42.4882 58.1936H42.5487C43.728 58.3755 45.2098 57.648 45.2098 57.648C46.9939 56.8295 48.5362 53.9801 48.5362 53.9498C48.6571 53.7376 48.8386 53.4041 49.0502 52.9797C49.5038 52.0703 50.1691 50.7365 50.9554 49.6453C50.2296 49.5543 48.0826 49.5543 46.6613 51.7066C46.5706 51.8278 46.4194 52.1006 46.2379 52.4341C45.4819 53.8285 43.9397 56.6477 42.3068 57.7996H42.458C42.5184 57.7996 42.5789 57.8602 42.6092 57.8905C42.6394 57.9511 42.6092 58.0118 42.5789 58.0724L42.4882 58.1936Z" fill="#131015"/>
  <path d="M42.1856 58.4966C42.1553 58.4966 42.1251 58.4966 42.0949 58.4966C42.0041 58.4966 41.9437 58.436 41.9437 58.3148C41.9437 58.2238 42.0344 58.1632 42.0949 58.1632C42.5182 58.1632 43.0021 58.0723 43.5161 57.8601C44.3326 57.5266 45.0584 57.0113 45.6934 56.2838C46.2679 55.6472 47.1147 54.5559 47.9916 52.919C48.0521 52.7977 49.5641 50.1605 50.8342 49.4026C50.9249 49.342 51.0156 49.3723 51.0458 49.4633C51.0761 49.5542 51.0761 49.6451 50.9854 49.6755C49.7758 50.3727 48.294 53.0402 48.2638 53.0706C47.3868 54.7378 46.5099 55.8594 45.9353 56.496C45.27 57.2538 44.4838 57.7994 43.6371 58.1329C43.1532 58.3754 42.6392 58.4966 42.1856 58.4966Z" fill="#131015"/>
  <path d="M42.488 58.1332C42.4275 58.1332 42.367 58.1029 42.3368 58.0423C42.3065 57.9513 42.3367 57.8604 42.3972 57.8301C43.5463 57.2541 44.3023 56.2235 44.3326 56.2235C45.5119 54.7078 46.3889 53.0709 46.7215 52.4343C46.8727 52.1615 47.0542 51.7977 47.2961 51.4643C48.6266 49.7061 50.4108 49.3726 50.9551 49.4029C51.0458 49.4029 51.1063 49.4939 51.1063 49.5848C51.1063 49.6758 51.0458 49.7364 50.9249 49.7364C50.5317 49.7061 48.8081 50.0092 47.538 51.6765C47.2961 51.9796 47.1146 52.313 46.9937 52.5859C46.661 53.2224 45.7841 54.8897 44.5745 56.4357C44.5443 56.466 43.758 57.5269 42.5484 58.1332C42.5484 58.1332 42.5182 58.1332 42.488 58.1332Z" fill="#131015"/>
  <path d="M43.1532 90.7501C44.2116 92.0536 47.3868 96.3581 48.4754 99.2075C51.7413 92.6295 54.977 88.2947 60.3596 83.2627C52.7695 86.6275 48.4452 93.2661 48.4452 93.2661L43.1532 90.7501Z" fill="#D7B364"/>
  <path d="M42.2464 74.5633V74.0783C43.0628 73.9571 43.0628 73.8055 42.8814 73.2296C42.7604 72.8355 42.5488 72.2292 42.3673 71.7139H39.8574C39.7062 72.1383 39.5248 72.6233 39.4038 73.0477C39.1317 73.8661 39.4341 73.9874 40.4622 74.0783V74.5633H37.287V74.0783C38.1035 73.9874 38.3152 73.8358 38.7386 72.7445L41.3997 65.8937L42.0045 65.7725C42.8209 68.0763 43.6979 70.4407 44.5446 72.6536C45.0284 73.8964 45.1192 73.9874 45.9659 74.0783V74.5633H42.2464ZM41.1275 68.2278C40.7646 69.1676 40.4018 70.077 40.0691 71.047H42.0952L41.1275 68.2278Z" fill="#2B3987"/>
  <path d="M51.076 65.7725C53.4348 65.7725 55.3701 67.561 55.3701 70.1679C55.3701 72.987 53.4045 74.7755 50.9853 74.7755C48.4149 74.7755 46.5703 72.8355 46.5703 70.2892C46.6006 67.9853 48.1428 65.7725 51.076 65.7725ZM50.8946 66.3484C49.5943 66.3484 48.6266 67.6822 48.6266 70.0163C48.6266 72.2595 49.4733 74.1693 51.2272 74.1693C52.4368 74.1693 53.4045 72.9567 53.4045 70.5317C53.3743 67.8944 52.3764 66.3484 50.8946 66.3484ZM51.832 73.7146C53.465 75.018 54.7955 75.9274 55.733 76.3215L55.612 76.7156C55.0375 76.7762 54.0698 76.7459 53.5859 76.5943C52.4671 76.2609 51.1365 75.1999 50.0479 74.2905L51.832 73.7146Z" fill="#2B3987"/>
  <path d="M64.926 72.2891C64.7446 72.956 64.4119 73.9564 64.2003 74.4111C63.8676 74.502 62.8092 74.7445 61.8416 74.7445C58.3942 74.7445 56.973 72.4407 56.973 70.3491C56.973 67.6209 58.999 65.7415 62.0835 65.7415C63.2024 65.7415 64.2003 66.0143 64.5027 66.0446C64.5631 66.6812 64.6539 67.6512 64.7446 68.2272L64.2305 68.3181C63.9583 67.2874 63.5652 66.8024 62.9 66.5296C62.5976 66.4083 62.1137 66.3477 61.7811 66.3477C59.9062 66.3477 58.9688 67.9543 58.9688 70.046C58.9688 72.471 60.1784 74.1079 61.9323 74.1079C63.0209 74.1079 63.7164 73.532 64.4119 72.0769L64.926 72.2891Z" fill="#2B3987"/>
</svg>