<svg xmlns="http://www.w3.org/2000/svg" width="104" height="104" viewBox="0 0 104 104" fill="none">
  <path d="M96.5574 51.2029C96.5574 75.6361 76.7678 95.437 52.3485 95.437C27.9292 95.437 8.13965 75.6361 8.13965 51.2029C8.13965 26.7696 27.9292 6.96875 52.3485 6.96875C76.7678 6.99903 96.5574 26.7999 96.5574 51.2029Z" fill="white"/>
  <path d="M63.0602 37.4871H40.0934V60.467H63.0602V37.4871Z" fill="#2B3984"/>
  <path d="M51.7129 0.519531C23.2692 0.519531 0.211548 23.5903 0.211548 52.0503C0.211548 80.5103 23.2692 103.581 51.7129 103.581C80.1567 103.581 103.214 80.5103 103.214 52.0503C103.214 23.5903 80.1567 0.519531 51.7129 0.519531ZM62.7878 88.1097V80.8736C62.7878 80.5103 62.4852 80.2075 62.1221 80.2075H41.1222C40.759 80.2075 40.4565 80.5103 40.4565 80.8736V88.0492C25.4478 83.2049 14.615 68.9144 14.615 52.0503C14.615 45.5408 16.249 39.3947 19.0934 34.0357C21.7259 29.1309 25.3873 24.8619 29.7749 21.592C35.9176 16.99 43.5126 14.2651 51.7432 14.2651C59.9434 14.2651 67.5688 16.99 73.7115 21.592C78.1293 24.8922 81.7907 29.1309 84.393 34.0357C87.2374 39.3947 88.8714 45.5106 88.8714 52.0503C88.8411 68.9749 77.8872 83.326 62.7878 88.1097Z" fill="#2B3984"/>
  <path d="M85.2189 34.2113H18.3536C21.0481 29.3079 24.9194 25.0402 29.4411 21.7712H74.1934C75.9587 23.0425 77.755 24.6467 79.4584 26.3417C82.2458 29.3382 83.7014 31.6688 85.2189 34.2113Z" fill="#2B3984"/>
  <path d="M37.6123 25.4676V27.3448H39.791V28.1925H37.6123V30.0999H40.0936V30.978H36.6138V24.6199H40.0936V25.4676H37.6123Z" fill="white"/>
  <path d="M44.5417 28.3742C44.7233 28.3439 44.9653 28.2531 45.1166 28.1622C46.7204 27.0723 45.9336 25.2254 45.0259 24.8924C44.7535 24.741 44.3601 24.6199 43.997 24.6199H41.546V31.0082H42.6354V28.465H43.3918L44.9048 31.0385H46.1455L44.5417 28.3742ZM42.6354 25.4979H44.0878C44.693 25.619 44.935 26.1337 44.935 26.5273C44.9048 27.0723 44.6325 27.5264 43.9668 27.5567H42.6354V25.4979Z" fill="white"/>
  <path d="M51.6826 24.6199V25.4979H49.9578V31.0385H48.9593V25.4979H47.2042V24.6199H51.6826Z" fill="white"/>
  <path d="M53.9827 24.6199H52.8632V31.0385H53.9827V24.6199Z" fill="white"/>
  <path d="M56.5848 25.4676V27.3448H58.703V28.1925H56.5848V31.0385H55.4955V24.6199H59.2477V25.4676H56.5848Z" fill="white"/>
  <path d="M61.5475 24.6199H60.4581V31.0385H61.5475V24.6199Z" fill="white"/>
  <path d="M64.2103 25.4676V27.3448H66.3587V28.1925H64.2103V30.1605H66.631V31.0082H63.0604V24.6199H66.631V25.4676H64.2103Z" fill="white"/>
  <path d="M73.4393 26.9812C73.2275 25.7701 72.3802 25.1646 71.775 24.9224C71.3817 24.7407 70.8975 24.6499 70.3225 24.6499H68.1439V31.0383H70.3225C71.8053 31.0685 72.4105 30.463 72.8946 29.9786C73.1367 29.585 73.7419 28.707 73.4393 26.9812ZM71.4724 29.7969C71.079 30.13 70.02 30.0694 70.02 30.0694H69.1424V25.4674H70.3225C70.9883 25.5279 71.3211 25.6793 71.5935 25.9215C72.5618 26.6179 72.9249 28.7675 71.4724 29.7969Z" fill="white"/>
  <path d="M35.1916 29.131C35.0403 29.7062 34.6166 30.1604 34.1627 30.4934C33.6181 30.887 32.9826 31.099 32.1959 31.099C31.5604 31.099 31.0158 30.9476 30.5014 30.6751C30.0172 30.3723 29.6238 29.9787 29.3817 29.4943C29.1094 29.0099 28.9884 28.4649 28.9884 27.8594C28.9884 27.2538 29.1094 26.7089 29.412 26.1941C29.9567 24.9831 31.3184 24.4987 32.1959 24.5592C34.1325 24.4987 35.0705 25.9217 35.1613 26.5272L33.9206 26.5575C33.5575 25.8006 32.4077 25.1042 31.0763 25.8006C30.7737 26.0125 30.5014 26.3153 30.3501 26.6786C30.229 26.8905 30.1685 27.1327 30.1382 27.4052C30.108 27.5566 30.108 27.7383 30.108 27.8896C30.108 28.0107 30.108 28.1319 30.1382 28.253C30.1685 28.5557 30.2593 28.8282 30.3803 29.1007C31.2881 30.7356 33.5878 30.2512 33.9206 29.1915H35.1916V29.131Z" fill="white"/>
  <path d="M16.1955 20.5843L15.3123 21.5403L20.045 25.9178L20.9282 24.9618L16.1955 20.5843Z" fill="white"/>
  <path d="M20.546 22.2282L21.3933 21.2896C21.7261 21.5621 22.059 21.6832 22.3616 21.6529C22.6642 21.6529 22.9668 21.5015 23.2694 21.229C23.572 20.9565 23.7535 20.6841 23.7838 20.3813C23.814 20.1088 23.7535 19.8969 23.6022 19.7152C23.5115 19.5941 23.3601 19.5335 23.2391 19.5033C23.0878 19.473 22.9365 19.5335 22.6944 19.6244C22.5431 19.6849 22.2405 19.8666 21.7261 20.1088C21.0907 20.4418 20.5763 20.6235 20.2132 20.6235C19.6987 20.6235 19.2449 20.4418 18.912 20.0785C18.7002 19.8363 18.5489 19.5335 18.4884 19.2005C18.4279 18.8675 18.4884 18.5344 18.6397 18.1711C18.791 17.8381 19.0633 17.4747 19.4264 17.1417C20.0316 16.5967 20.6065 16.3242 21.1209 16.2939C21.6656 16.2939 22.1498 16.4756 22.5431 16.8995L21.6353 17.8078C21.363 17.5958 21.1209 17.505 20.8789 17.5353C20.6368 17.5353 20.3947 17.6867 20.1224 17.9289C19.85 18.1711 19.6685 18.4436 19.608 18.6858C19.5777 18.8675 19.608 18.9886 19.729 19.1097C19.8198 19.2308 19.9711 19.2913 20.1224 19.2611C20.3342 19.2611 20.7276 19.0794 21.3025 18.7766C21.8774 18.4436 22.3313 18.2619 22.6642 18.1711C22.997 18.0803 23.3299 18.0803 23.6325 18.1711C23.9351 18.2619 24.2376 18.4739 24.51 18.7463C24.752 19.0188 24.9034 19.3519 24.9941 19.7152C25.0547 20.0785 24.9941 20.4721 24.8428 20.8354C24.6613 21.1988 24.389 21.5621 23.9653 21.9557C23.3601 22.5006 22.7852 22.8034 22.2103 22.8034C21.6354 22.9245 21.0907 22.6823 20.546 22.2282Z" fill="white"/>
  <path d="M24.9337 16.8386C24.6008 16.2936 24.389 15.7789 24.2983 15.2945C24.2377 14.9312 24.268 14.5981 24.3285 14.2348C24.389 13.8715 24.5403 13.5687 24.7219 13.2962C24.964 12.9329 25.3271 12.6302 25.7507 12.3274C26.5677 11.8127 27.3545 11.6613 28.1412 11.8732C28.9279 12.0852 29.6239 12.5999 30.1686 13.5082C30.7132 14.3862 30.9251 15.2339 30.7435 16.0211C30.5922 16.8083 30.108 17.4744 29.291 17.9588C28.474 18.4735 27.6873 18.6249 26.9006 18.4433C26.1441 18.2313 25.4783 17.7166 24.9337 16.8386ZM26.0533 16.112C26.4467 16.7175 26.8703 17.1111 27.3544 17.2322C27.8386 17.3836 28.2925 17.2927 28.7464 17.0203C29.17 16.7478 29.4423 16.3542 29.5331 15.8698C29.6239 15.3853 29.4726 14.8101 29.0489 14.1743C28.6556 13.5385 28.232 13.1751 27.7478 13.0238C27.2637 12.9026 26.8098 12.9632 26.3559 13.2357C25.902 13.5385 25.6297 13.9018 25.5389 14.3862C25.5086 14.9009 25.6599 15.4762 26.0533 16.112Z" fill="white"/>
  <path d="M38.0358 13.8107L37.6122 12.5694L35.1007 13.4171L34.7678 12.3877L36.1295 7.63431L37.1281 7.30127L38.4292 11.1767L39.1857 10.9345L39.5186 11.9639L38.7621 12.2061L39.1555 13.4171L38.0358 13.8107ZM37.2794 11.5703L36.5834 9.48118L35.8874 12.0244L37.2794 11.5703Z" fill="white"/>
  <path d="M40.6686 11.2977L41.8487 10.9041C41.9395 11.1766 42.0908 11.3582 42.3026 11.4793C42.5144 11.6005 42.7263 11.6307 42.9381 11.6005C43.1801 11.5399 43.392 11.3885 43.513 11.1463C43.634 10.9041 43.6643 10.5711 43.5735 10.1775C43.4827 9.78386 43.3314 9.51137 43.1196 9.35999C42.9078 9.2086 42.6657 9.14805 42.3934 9.2086C42.0605 9.29943 41.7579 9.51137 41.5461 9.87469L40.5476 9.93524L40.4568 6.54426L43.634 5.8479L43.8761 6.96814L41.6067 7.45256L41.6369 8.57279C41.879 8.39114 42.1513 8.23975 42.4237 8.20948C42.9683 8.08837 43.4525 8.20948 43.9063 8.51224C44.3602 8.81501 44.6629 9.29943 44.7839 9.90496C44.9049 10.4197 44.8444 10.9041 44.6326 11.3885C44.3603 12.0243 43.8458 12.4179 43.1196 12.5996C42.5447 12.7207 42.0303 12.6601 41.6067 12.4482C41.1528 12.1757 40.8502 11.8124 40.6686 11.2977Z" fill="white"/>
  <path d="M48.2332 5.06074C48.8384 5.00019 49.3528 5.15157 49.7764 5.54517C50.2606 6.02959 50.5631 6.84706 50.7144 8.05812C50.8657 9.26919 50.7447 10.1472 50.4119 10.7527C50.1093 11.2372 49.6553 11.5097 49.0502 11.5702C48.4147 11.661 47.9003 11.4794 47.4464 11.0252C47.0228 10.6014 46.7202 9.75361 46.5689 8.54255C46.4176 7.33149 46.5386 6.45346 46.8715 5.87821C47.1438 5.42406 47.5977 5.15157 48.2332 5.06074ZM48.3542 6.09014C48.2029 6.12042 48.0819 6.18097 47.9608 6.2718C47.87 6.39291 47.7793 6.57457 47.749 6.81678C47.6885 7.14983 47.7188 7.6948 47.8096 8.42144C47.9003 9.17836 47.9911 9.69306 48.1121 9.96555C48.2332 10.238 48.324 10.4197 48.4753 10.4803C48.5963 10.5711 48.7476 10.6014 48.8989 10.5711C49.0502 10.5711 49.1712 10.4803 49.262 10.3894C49.383 10.2683 49.4435 10.0867 49.4738 9.84444C49.5343 9.5114 49.5041 8.9967 49.4133 8.23978C49.3225 7.48287 49.2317 6.96817 49.1107 6.69568C48.9897 6.42319 48.8686 6.24153 48.7476 6.18097C48.6266 6.09014 48.5055 6.05987 48.3542 6.09014Z" fill="white"/>
  <path d="M54.8904 4.78874C55.5258 4.81902 55.9797 5.09151 56.3126 5.54566C56.706 6.09064 56.8573 6.96866 56.7967 8.21C56.7362 9.42106 56.4639 10.2991 56.01 10.7835C55.6469 11.2074 55.1325 11.389 54.5273 11.3588C53.8918 11.3285 53.4077 11.056 53.0446 10.5413C52.6815 10.0266 52.5604 9.17885 52.6209 7.93751C52.6815 6.72644 52.9538 5.8787 53.4077 5.364C53.7708 4.9704 54.2549 4.75847 54.8904 4.78874ZM54.8299 5.81815C54.6786 5.81815 54.5575 5.84842 54.4365 5.93925C54.3154 6.03008 54.2247 6.18147 54.1339 6.42368C54.0431 6.72644 53.9523 7.27142 53.9221 8.02834C53.8918 8.78525 53.8918 9.29996 53.9524 9.57244C54.0129 9.87521 54.1036 10.0569 54.2247 10.1477C54.3457 10.2385 54.4668 10.2991 54.6181 10.2991C54.7694 10.2991 54.9207 10.2688 55.0417 10.178C55.1627 10.0871 55.2535 9.93576 55.3443 9.69355C55.435 9.39079 55.5258 8.84581 55.5561 8.08889C55.5864 7.33198 55.5863 6.81727 55.5258 6.51451C55.4653 6.24202 55.3746 6.03008 55.2838 5.93925C55.1022 5.8787 54.9812 5.81815 54.8299 5.81815Z" fill="white"/>
  <path d="M60.882 12.176L59.6717 11.9338L60.6399 7.39227C60.0953 7.72531 59.5203 7.90697 58.8849 7.96753L59.127 6.87757C59.4598 6.84729 59.8532 6.72618 60.2768 6.51425C60.7005 6.30231 61.0333 6.02982 61.2451 5.6665L62.2134 5.87844L60.882 12.176Z" fill="white"/>
  <path d="M66.5403 14.0224L67.0244 12.8719L68.1743 13.3563L67.6902 14.4766L66.5403 14.0224ZM67.8717 10.8737L68.3559 9.75342L69.5057 10.2378L69.0216 11.3884L67.8717 10.8737Z" fill="white"/>
  <path d="M76.1929 18.1709L75.5574 19.1095L71.9868 16.6874C72.2592 16.3543 72.6223 16.0818 73.0157 15.9002C73.4393 15.7185 74.105 15.5369 75.043 15.4157C75.7995 15.2946 76.2837 15.2038 76.4652 15.113C76.7376 14.9919 76.9494 14.8405 77.1006 14.6286C77.2519 14.4166 77.3125 14.1744 77.2822 13.9927C77.2519 13.7808 77.1309 13.5991 76.8889 13.4478C76.677 13.2964 76.4652 13.2661 76.2534 13.2964C76.0416 13.3267 75.8298 13.5083 75.5877 13.7808L74.6497 12.9936C75.1035 12.4789 75.5575 12.2064 76.0416 12.1761C76.5257 12.1459 77.0099 12.2973 77.494 12.6303C78.0084 12.9936 78.3413 13.4175 78.4321 13.9019C78.5531 14.3863 78.4623 14.8405 78.1597 15.2644C78.0084 15.5066 77.7966 15.7185 77.5546 15.8699C77.3125 16.0213 77.0401 16.1727 76.677 16.2635C76.4349 16.3543 76.0718 16.4149 75.5574 16.4754C75.043 16.5663 74.7102 16.5965 74.5589 16.6571C74.4076 16.6874 74.2865 16.7479 74.1655 16.8085L76.1929 18.1709Z" fill="white"/>
  <path d="M82.7895 16.7781C83.2434 17.202 83.4552 17.6864 83.4249 18.2616C83.3946 18.9277 82.971 19.7149 82.154 20.6232C81.337 21.5315 80.6108 22.0462 79.9451 22.137C79.4004 22.2279 78.886 22.0765 78.4321 21.6526C77.9782 21.2287 77.7664 20.714 77.7967 20.1085C77.8269 19.503 78.2506 18.7158 79.0978 17.8075C79.9148 16.8992 80.641 16.3845 81.3068 16.2937C81.8212 16.2028 82.3356 16.3542 82.7895 16.7781ZM82.0935 17.535C81.9725 17.4442 81.8514 17.3836 81.7001 17.3836C81.5488 17.3836 81.3673 17.4442 81.1554 17.5956C80.8831 17.7772 80.4897 18.1405 79.9753 18.7158C79.4609 19.2608 79.1584 19.6846 79.0071 19.9571C78.886 20.2296 78.8255 20.4113 78.8558 20.5627C78.886 20.714 78.9466 20.8352 79.0676 20.926C79.1886 21.0168 79.3096 21.0774 79.4609 21.0774C79.6122 21.0774 79.7938 21.0168 80.0056 20.8957C80.278 20.714 80.6713 20.3507 81.1857 19.7755C81.7001 19.2305 82.0027 18.8066 82.154 18.5341C82.275 18.2616 82.3356 18.08 82.3053 17.9286C82.2751 17.7772 82.2146 17.6258 82.0935 17.535Z" fill="white"/>
  <path d="M83.0013 26.2239L82.1843 25.3156L85.6641 22.2274C85.0589 22.1669 84.4538 21.9852 83.9091 21.6522L84.7563 20.8953C85.0589 21.0769 85.4221 21.198 85.9062 21.2889C86.3904 21.3797 86.814 21.3494 87.1771 21.198L87.8428 21.9549L83.0013 26.2239Z" fill="white"/>
  <path d="M87.9033 26.8296C87.8125 26.4966 87.8427 26.1938 87.9638 25.9516C88.0545 25.7094 88.2361 25.4975 88.4782 25.3158C88.8715 25.0433 89.2952 24.9525 89.7491 25.013C90.203 25.1039 90.5963 25.4066 90.9594 25.8911C91.3226 26.3755 91.4738 26.8599 91.4133 27.3141C91.3528 27.7682 91.141 28.1315 90.7476 28.404C90.5055 28.5857 90.2332 28.6765 89.9609 28.6765C89.6885 28.6765 89.4162 28.616 89.1439 28.4646C89.2346 28.8279 89.2347 29.1912 89.1136 29.494C88.9926 29.7968 88.811 30.0692 88.5084 30.2812C88.0243 30.6142 87.5099 30.7656 86.9955 30.6748C86.4811 30.5839 86.0272 30.2812 85.6641 29.7665C85.3312 29.282 85.1496 28.7976 85.1799 28.3132C85.2102 27.7379 85.4825 27.2535 85.9969 26.8902C86.2692 26.6783 86.6021 26.5572 86.9349 26.5269C87.2375 26.5269 87.5704 26.6177 87.9033 26.8296ZM86.7534 27.8288C86.4811 28.0407 86.3298 28.2526 86.2692 28.4949C86.2087 28.7371 86.2692 28.9793 86.4205 29.1912C86.5718 29.4032 86.7534 29.5243 86.9955 29.5545C87.2376 29.5848 87.5099 29.494 87.7822 29.282C88.0243 29.1004 88.1756 28.8885 88.2361 28.6462C88.2966 28.404 88.2361 28.1618 88.0848 27.9499C87.9033 27.7077 87.6914 27.5866 87.4493 27.5866C87.177 27.6168 86.9652 27.7077 86.7534 27.8288ZM89.0834 26.3149C88.8716 26.4663 88.7808 26.6177 88.7505 26.8296C88.7203 27.0113 88.7808 27.2232 88.9018 27.4049C89.0229 27.5866 89.2044 27.7077 89.3859 27.7379C89.5675 27.7682 89.7793 27.7077 89.9911 27.5563C90.1727 27.4352 90.2937 27.2535 90.324 27.0719C90.3542 26.8902 90.2938 26.6783 90.1727 26.4966C90.0517 26.3149 89.8701 26.1938 89.6583 26.1636C89.4465 26.1333 89.2649 26.1938 89.0834 26.3149Z" fill="white"/>
  <path d="M55.6165 43.1483C54.4969 41.695 52.9234 40.9078 50.8052 40.9078C47.3859 40.9078 44.602 43.4208 44.602 46.4787C44.602 49.2642 46.9017 51.5955 49.8974 51.989L51.4104 53.8056C50.9262 53.8965 50.4421 53.957 49.9277 53.957C45.8124 53.957 42.4839 50.8385 42.4839 46.9631C42.4839 43.118 45.8124 39.9692 49.9277 39.9692C52.409 39.9692 54.6179 41.1198 55.8585 42.9363C56.1611 43.3299 55.7072 43.3299 55.6165 43.1483Z" fill="white"/>
  <path d="M52.984 55.6831C52.4695 55.7739 51.9249 55.8345 51.3802 55.8345C47.9609 55.8345 44.9955 53.9573 43.5128 51.2324C44.9047 53.2307 47.3255 54.5326 50.0488 54.5326C50.6842 54.5326 51.3197 54.472 51.8946 54.3206L52.984 55.6831Z" fill="#D6B169"/>
  <path d="M50.1094 51.3841C50.1094 51.3841 50.4725 51.5355 51.2592 52.5043C51.2592 52.5043 53.2866 55.5623 55.1021 56.9247C55.1021 56.9247 56.8875 58.6505 60.095 58.5899C60.095 58.5899 57.1296 58.2266 55.2837 56.2889C54.4062 55.5017 52.4999 53.019 51.8342 52.3227C51.3198 51.7474 50.8356 51.2024 50.4422 50.8997L50.1094 51.3841Z" fill="#D9B06C"/>
  <path d="M50.6542 50.7792C50.6542 50.7792 51.8343 51.6875 52.7421 52.7774C52.7421 52.7774 55.1023 55.8354 56.0706 56.5317C56.6153 56.9556 58.219 58.318 61.0634 58.318C59.2781 57.5914 58.794 57.2584 57.5533 56.1987C56.585 55.4115 54.9208 53.2013 53.7406 52.0811C53.7406 52.0811 52.2277 50.4764 50.987 50.2342C50.987 50.2039 50.7147 50.7186 50.6542 50.7792Z" fill="#D9B06C"/>
  <path d="M51.2289 50.0215C51.2289 50.0215 52.1972 50.3243 52.9537 50.8995C53.6799 51.4445 54.4364 52.1712 56.1914 54.0786C56.9781 54.9869 58.4609 57.1365 61.2145 57.8632C60.3067 57.4998 59.1569 56.8337 57.2203 54.563C57.2203 54.563 55.1929 51.7776 53.4076 50.627C52.8326 50.294 52.2577 49.8399 51.4104 49.749L51.2289 50.0215Z" fill="#D9B06C"/>
  <path d="M60.2763 47.2362C60.2763 48.75 59.883 50.173 59.1567 51.4143C58.6726 52.2318 58.0674 52.9887 57.3412 53.6245L55.7979 52.1713C56.3124 51.6566 56.736 51.051 57.0688 50.4152C57.5832 49.4161 57.8858 48.2959 57.8858 47.1151C57.8858 42.9975 54.3757 39.667 50.0486 39.667C47.8397 39.667 45.8426 40.5148 44.4204 41.9075C46.0544 39.9092 48.5659 38.6679 51.3801 38.6679C56.2821 38.6376 60.2763 42.4828 60.2763 47.2362Z" fill="#D6B169"/>
  <path d="M41.8184 58.1353C43.9365 57.015 46.0244 52.5947 46.5086 51.8377C48.2939 49.1431 51.229 49.7487 51.229 49.7487C50.0186 51.3836 49.0806 53.5938 48.657 54.2599C48.657 54.2599 47.1138 57.1967 45.2377 58.0142C45.2377 58.0142 43.6944 58.8014 42.4841 58.5894L42.0604 58.5591L42.4236 58.2261L41.8184 58.1353Z" fill="white"/>
  <path d="M42.938 58.7718C42.7867 58.7718 42.6354 58.7718 42.4538 58.7415L42.0302 58.7112C41.9697 58.7112 41.9092 58.6507 41.9092 58.5901C41.8789 58.5296 41.9092 58.469 41.9697 58.4085L42.0605 58.3176L41.7881 58.2873C41.7276 58.2873 41.6671 58.2268 41.6368 58.1662C41.6066 58.1057 41.6671 58.0149 41.7276 57.9846C43.3919 57.1066 45.1166 53.9881 45.9337 52.4742C46.1152 52.1412 46.2665 51.8687 46.3573 51.7173C48.2031 48.9622 51.1988 49.5677 51.229 49.5677C51.2895 49.5677 51.3198 49.6282 51.3501 49.6585C51.3804 49.7191 51.3501 49.7796 51.3198 49.8099C50.4725 50.9301 49.7766 52.3531 49.2924 53.2917C49.0806 53.7156 48.8991 54.0789 48.778 54.2908C48.7175 54.4119 47.1743 57.2579 45.2982 58.1057C45.268 58.1965 44.0879 58.7718 42.938 58.7718ZM42.4538 58.4085H42.5144C43.6945 58.5901 45.1772 57.8635 45.1772 57.8635C46.9625 57.046 48.5057 54.2 48.5057 54.1697C48.6267 53.9578 48.8083 53.6247 49.0201 53.2009C49.474 52.2926 50.1397 50.9604 50.9265 49.8704C50.2002 49.7796 48.0518 49.7796 46.6296 51.9293C46.5389 52.0504 46.3876 52.3229 46.206 52.6559C45.4495 54.0486 43.9063 56.8643 42.2723 58.0149H42.4236C42.4841 58.0149 42.5446 58.0754 42.5749 58.1057C42.6051 58.1662 42.5749 58.2268 42.5446 58.2873L42.4538 58.4085Z" fill="#131015"/>
  <path d="M42.1513 58.7112C42.121 58.7112 42.0907 58.7112 42.0605 58.7112C41.9697 58.7112 41.9092 58.6506 41.9092 58.5295C41.9092 58.4387 41.9697 58.3782 42.0908 58.3782C42.5144 58.3782 42.9986 58.2873 43.513 58.0754C44.33 57.7423 45.0561 57.2276 45.6916 56.501C46.2665 55.8652 47.1138 54.7752 47.9913 53.1403C48.0519 53.0192 49.5648 50.3851 50.8357 49.6282C50.9265 49.5979 51.0172 49.5979 51.0475 49.6888C51.0778 49.7796 51.0778 49.8704 50.987 49.9007C49.7766 50.5971 48.2939 53.2614 48.2637 53.2917C47.3861 54.9569 46.5086 56.0469 45.9337 56.7129C45.268 57.4699 44.4812 58.0148 43.634 58.3782C43.0893 58.5901 42.6051 58.7112 42.1513 58.7112Z" fill="#131015"/>
  <path d="M42.4537 58.3481C42.3932 58.3481 42.3327 58.3178 42.3024 58.2573C42.2721 58.1664 42.3024 58.0756 42.3629 58.0453C43.5128 57.4701 44.2693 56.4407 44.2995 56.4407C45.4796 54.9268 46.3571 53.2919 46.69 52.6561C46.8413 52.3836 47.0228 52.0203 47.2649 51.6872C48.5963 49.9312 50.3817 49.6284 50.9263 49.6284C51.0171 49.6284 51.0776 49.7193 51.0776 49.8101C51.0776 49.9009 51.0171 49.9615 50.896 49.9615C50.5027 49.9312 48.7779 50.2339 47.507 51.8992C47.2649 52.2019 47.0834 52.535 46.9624 52.8075C46.6295 53.4433 45.752 55.1085 44.5416 56.6526C44.5113 56.6829 43.7246 57.7425 42.5142 58.3481C42.484 58.3481 42.484 58.3481 42.4537 58.3481Z" fill="#131015"/>
  <path d="M43.1194 90.9253C44.1785 92.2272 47.3557 96.4962 48.445 99.3725C51.713 92.8025 54.9508 88.4729 60.3369 83.447C52.7419 86.8077 48.4148 93.4383 48.4148 93.4383L43.1194 90.9253Z" fill="#D7B364"/>
  <path d="M42.2117 74.7578V74.2733C43.0287 74.1522 43.0287 74.0008 42.8471 73.4256C42.7261 73.032 42.5142 72.4265 42.3327 71.9118H39.8212C39.6699 72.3053 39.4883 72.82 39.3673 73.2439C39.095 74.0614 39.3976 74.1825 40.4264 74.2733V74.7578H37.2491V74.2733C38.0661 74.1825 38.2779 74.0614 38.7016 72.9412L41.3644 66.0986L41.9696 65.9775C42.7866 68.2786 43.6641 70.6401 44.5114 72.8503C44.9955 74.0917 45.0863 74.1825 45.9336 74.2733V74.7578H42.2117ZM41.0921 68.4299C40.729 69.3685 40.3658 70.2768 40.033 71.2457H42.0604L41.0921 68.4299Z" fill="#2B3987"/>
  <path d="M51.0473 65.9775C53.4075 65.9775 55.3441 67.7639 55.3441 70.3676C55.3441 73.1834 53.3773 74.9697 50.9565 74.9697C48.3845 74.9697 46.5387 73.032 46.5387 70.4888C46.5387 68.1877 48.1122 65.9775 51.0473 65.9775ZM50.8355 66.5528C49.5344 66.5528 48.5661 67.885 48.5661 70.2163C48.5661 72.4567 49.4133 74.3642 51.1684 74.3642C52.3787 74.3642 53.347 73.1531 53.347 70.731C53.347 68.0969 52.3485 66.5528 50.8355 66.5528ZM51.8038 73.91C53.4378 75.2119 54.7692 76.1202 55.7073 76.5138L55.5862 76.9074C55.0113 76.9679 54.043 76.9377 53.5588 76.7863C52.4392 76.4532 51.1078 75.3936 50.0185 74.4853L51.8038 73.91Z" fill="#2B3987"/>
  <path d="M64.906 72.4567C64.7244 73.1228 64.3915 74.1219 64.1797 74.5761C63.8469 74.6669 62.7878 74.9091 61.8195 74.9091C58.3699 74.9091 56.9478 72.6081 56.9478 70.519C56.9478 67.7941 58.9751 65.9473 62.0616 65.9473C63.1812 65.9473 64.1797 66.2198 64.4823 66.25C64.5429 66.8858 64.6336 67.8547 64.7244 68.4299L64.21 68.5208C63.9377 67.4914 63.5443 67.0069 62.8786 66.7345C62.576 66.6134 62.0919 66.5528 61.759 66.5528C59.8829 66.5528 58.9449 68.1575 58.9449 70.2163C58.9449 72.6384 60.1552 74.2733 61.9103 74.2733C62.9996 74.2733 63.6956 73.6981 64.3916 72.2448L64.906 72.4567Z" fill="#2B3987"/>
</svg>