<svg xmlns="http://www.w3.org/2000/svg" width="104" height="104" viewBox="0 0 104 104" fill="none">
  <path d="M96.4961 50.9476C96.4961 75.3808 76.7065 95.1817 52.2872 95.1817C27.868 95.1817 8.07837 75.3808 8.07837 50.9476C8.07837 26.5144 27.868 6.7135 52.2872 6.7135C76.7065 6.7135 96.4961 26.5144 96.4961 50.9476Z" fill="white"/>
  <path d="M63.6646 37.2024H40.6978V60.1823H63.6646V37.2024Z" fill="#2B3984"/>
  <path d="M52.3173 0.234985C23.8735 0.234985 0.815918 23.3058 0.815918 51.7658C0.815918 80.2258 23.8735 103.297 52.3173 103.297C80.761 103.297 103.819 80.2258 103.819 51.7658C103.819 23.3058 80.761 0.234985 52.3173 0.234985ZM63.3922 87.8252V80.5891C63.3922 80.2258 63.0896 79.923 62.7265 79.923H41.7265C41.3634 79.923 41.0608 80.2258 41.0608 80.5891V87.7646C26.0522 82.9204 15.2194 68.6298 15.2194 51.7658C15.2194 45.2563 16.8534 39.1101 19.6978 33.7512C22.3303 28.8464 25.9917 24.5774 30.3793 21.3075C36.5219 16.7055 44.117 13.9806 52.3476 13.9806C60.5781 13.9806 68.1732 16.7055 74.3158 21.3075C78.7337 24.6076 82.395 28.8464 84.9973 33.7512C87.8417 39.1101 89.4757 45.226 89.4757 51.7658C89.4455 68.7206 78.4916 83.0415 63.3922 87.8252Z" fill="#2B3984"/>
  <path d="M86.3413 33.9263H18.4393C21.1755 29.0229 25.1069 24.7551 29.6987 21.4862H75.1449C76.9375 22.7575 78.7617 24.3616 80.4915 26.0566C83.2906 29.0531 84.7688 31.3838 86.3413 33.9263Z" fill="#2B3984"/>
  <path d="M38.2469 25.2126V27.0595H40.4256V27.9375H38.2469V29.8449H40.6979V30.723H37.2181V24.3346H40.6979V25.2126H38.2469Z" fill="white"/>
  <path d="M45.1762 28.0889C45.3578 28.0586 45.5998 27.9678 45.7511 27.877C47.3549 26.787 46.5681 24.9401 45.6603 24.6071C45.388 24.4557 44.9947 24.3346 44.6315 24.3346H42.1805V30.723H43.2699V28.1797H44.0264L45.5393 30.7532H46.7799L45.1762 28.0889ZM43.2396 25.2126H44.692C45.2972 25.3337 45.5393 25.8484 45.5393 26.242C45.5091 26.787 45.2367 27.2411 44.571 27.2714H43.2396V25.2126Z" fill="white"/>
  <path d="M52.287 24.3346V25.2126H50.5924V30.7532H49.5636V25.2126H47.8086V24.3346H52.287Z" fill="white"/>
  <path d="M54.5869 24.3346H53.4673V30.7532H54.5869V24.3346Z" fill="white"/>
  <path d="M57.2194 25.213V27.0598H59.3073V27.9379H57.2194V30.7536H56.0999V24.3652H59.852V25.213H57.2194Z" fill="white"/>
  <path d="M62.1517 24.3346H61.0623V30.7532H62.1517V24.3346Z" fill="white"/>
  <path d="M64.8146 25.213V27.0598H66.963V27.9379H64.8146V29.8756H67.2354V30.7233H63.6648V24.3652H67.2354V25.213H64.8146Z" fill="white"/>
  <path d="M74.0435 26.6965C73.8014 25.4855 72.9541 24.8799 72.3792 24.6377C71.9858 24.4561 71.5017 24.3652 70.9268 24.3652H68.7481V30.7536H70.9268C72.4095 30.7839 73.0147 30.1783 73.4988 29.6939C73.7712 29.3003 74.3763 28.4223 74.0435 26.6965ZM72.0766 29.5123C71.6833 29.8453 70.6242 29.7847 70.6242 29.7847H69.7467V25.213H70.9268C71.5925 25.2735 71.8951 25.3946 72.1977 25.6671C73.1962 26.3635 73.5291 28.4829 72.0766 29.5123Z" fill="white"/>
  <path d="M35.7959 28.8462C35.6446 29.4214 35.221 29.8756 34.7671 30.2086C34.2224 30.6022 33.587 30.8142 32.8003 30.8142C32.1648 30.8142 31.6201 30.6628 31.1057 30.3903C30.6216 30.0875 30.2282 29.6939 29.9861 29.2095C29.7138 28.7251 29.5928 28.1801 29.5928 27.5746C29.5928 26.969 29.7138 26.4241 29.9861 25.9094C30.5308 24.6983 31.8925 24.2139 32.77 24.2744C34.7066 24.2139 35.6446 25.6369 35.7354 26.2424L34.4948 26.2727C34.1317 25.5158 32.9818 24.8194 31.6504 25.5158C31.3176 25.7277 31.0755 26.0305 30.9242 26.3938C30.8032 26.6057 30.7426 26.8479 30.7124 27.1204C30.6821 27.2718 30.6821 27.4232 30.6821 27.6049C30.6821 27.726 30.6821 27.8471 30.7124 27.9682C30.7426 28.2709 30.8334 28.5434 30.9544 28.8159C31.8622 30.4509 34.1619 29.9664 34.4948 28.9067H35.7959V28.8462Z" fill="white"/>
  <path d="M16.7963 20.3068L15.9131 21.2628L20.6458 25.6403L21.529 24.6844L16.7963 20.3068Z" fill="white"/>
  <path d="M21.1502 21.9436L21.9975 21.005C22.3303 21.2775 22.6632 21.3986 22.9658 21.3986C23.2684 21.3986 23.571 21.2472 23.8736 20.9748C24.1762 20.7023 24.3577 20.4298 24.388 20.127C24.4182 19.8545 24.3577 19.6123 24.2064 19.4609C24.1156 19.3398 23.9643 19.2793 23.8433 19.249C23.692 19.2187 23.5407 19.2793 23.2986 19.3701C23.1473 19.4307 22.8447 19.6123 22.3303 19.8545C21.6949 20.1876 21.1805 20.3692 20.8174 20.3692C20.303 20.3692 19.8491 20.1876 19.5162 19.8242C19.3044 19.582 19.1531 19.2793 19.0926 18.9462C19.0321 18.6132 19.0926 18.2801 19.2439 17.9168C19.3952 17.5838 19.6675 17.2205 20.0306 16.8874C20.6358 16.3424 21.1805 16.0699 21.7252 16.0397C22.2698 16.0397 22.754 16.2213 23.1473 16.6452L22.2396 17.5535C21.9672 17.3416 21.7251 17.2507 21.4831 17.281C21.241 17.281 20.9989 17.4324 20.7266 17.6746C20.4543 17.9168 20.2727 18.1893 20.2122 18.4315C20.1819 18.6132 20.2122 18.7343 20.3332 18.8554C20.424 18.9765 20.5753 19.0371 20.7266 19.0068C20.9384 19.0068 21.3318 18.8251 21.9067 18.5224C22.4816 18.1893 22.9355 18.0077 23.2684 17.9168C23.6012 17.826 23.9341 17.826 24.2367 17.9168C24.5393 18.0077 24.8419 18.1893 25.1142 18.4921C25.3563 18.7646 25.5076 19.0976 25.5983 19.4609C25.6589 19.8242 25.5983 20.2178 25.447 20.5812C25.2655 20.9445 24.9932 21.3078 24.5695 21.7014C23.9644 22.2464 23.3894 22.5189 22.8145 22.5491C22.2396 22.64 21.6949 22.428 21.1502 21.9436Z" fill="white"/>
  <path d="M25.5679 16.5843C25.2351 16.0394 25.0232 15.5246 24.9325 15.0402C24.8719 14.6769 24.9022 14.3439 24.9627 13.9805C25.0232 13.6172 25.1745 13.3145 25.3561 13.042C25.5982 12.6786 25.9613 12.3759 26.3849 12.0731C27.2019 11.5584 27.9887 11.407 28.7754 11.619C29.5621 11.8309 30.2581 12.3456 30.8028 13.2539C31.3474 14.1319 31.5593 14.9797 31.3777 15.7669C31.2264 16.5541 30.7423 17.2201 29.9253 17.7046C29.1083 18.2193 28.3215 18.3706 27.5348 18.189C26.7783 17.9771 26.1126 17.4321 25.5679 16.5843ZM26.6572 15.8274C27.0506 16.4329 27.4742 16.8265 27.9584 16.9476C28.4425 17.099 28.8964 17.0082 29.3503 16.7357C29.7739 16.4632 30.0463 16.0696 30.1371 15.5852C30.2278 15.1008 30.0766 14.5255 29.6529 13.8897C29.2596 13.2539 28.8359 12.8906 28.3518 12.7392C27.8979 12.6181 27.4137 12.6786 26.9598 12.9511C26.5059 13.2539 26.2336 13.6172 26.1428 14.1016C26.1126 14.6466 26.2639 15.1916 26.6572 15.8274Z" fill="white"/>
  <path d="M39.9414 11.8909L40.3045 12.9808L36.2195 14.3433C36.1287 13.9194 36.1287 13.4652 36.2195 13.0414C36.3103 12.5872 36.5826 11.9514 37.0365 11.1339C37.3996 10.4679 37.6114 10.0137 37.6719 9.80177C37.7627 9.49901 37.7627 9.25679 37.6719 9.01458C37.5811 8.74209 37.4601 8.56043 37.2483 8.4696C37.0667 8.37877 36.8549 8.37877 36.6128 8.43933C36.3708 8.49988 36.1892 8.65126 36.0984 8.8632C36.0077 9.07514 36.0077 9.31735 36.0984 9.68067L34.8881 9.95316C34.7368 9.28707 34.7973 8.74209 35.0696 8.3485C35.3419 7.9549 35.7656 7.65214 36.3103 7.47048C36.9154 7.25854 37.4298 7.25854 37.8837 7.47048C38.3376 7.68241 38.6402 8.01545 38.7915 8.49988C38.8823 8.77237 38.9126 9.04486 38.9126 9.34762C38.9126 9.65039 38.8218 9.95316 38.7007 10.2862C38.61 10.5284 38.4587 10.8615 38.1863 11.3156C37.9443 11.7698 37.7627 12.0725 37.7022 12.2239C37.6417 12.3753 37.6114 12.4964 37.5811 12.6175L39.9414 11.8909Z" fill="white"/>
  <path d="M40.3349 7.5914L40.0928 6.47116L44.2081 5.56287L44.3897 6.44089C44.1173 6.86476 43.8753 7.40974 43.6634 8.1061C43.4516 8.80246 43.3306 9.5291 43.3003 10.286C43.2701 11.0429 43.3306 11.6787 43.4516 12.2237L42.3018 12.4962C42.1202 11.6182 42.1202 10.6796 42.2715 9.71076C42.4228 8.74191 42.6951 7.83361 43.0885 6.98587L40.3349 7.5914Z" fill="white"/>
  <path d="M47.9904 4.89775C48.5956 4.80692 49.11 4.98858 49.5336 5.38218C50.0178 5.83633 50.3506 6.68407 50.5019 7.89513C50.6532 9.1062 50.5624 9.98422 50.2296 10.5898C49.927 11.0742 49.4731 11.3467 48.8679 11.4375C48.2325 11.5283 47.7181 11.3467 47.2642 10.9228C46.8103 10.4989 46.5077 9.65118 46.3564 8.44011C46.2051 7.22905 46.2959 6.35103 46.659 5.77577C46.9313 5.26107 47.3852 4.98858 47.9904 4.89775ZM48.1114 5.92716C47.9602 5.95743 47.8391 6.01799 47.7483 6.10882C47.6575 6.22992 47.5668 6.41158 47.5365 6.65379C47.476 6.98684 47.5062 7.53182 47.6273 8.25845C47.7181 9.01537 47.8391 9.53007 47.9299 9.80256C48.0509 10.075 48.172 10.2567 48.293 10.3173C48.414 10.4081 48.5653 10.4384 48.7166 10.4081C48.8679 10.4081 48.989 10.3173 49.0797 10.2264C49.2008 10.1053 49.2613 9.92367 49.2916 9.68145C49.3218 9.34841 49.3218 8.83371 49.2008 8.07679C49.11 7.31988 48.989 6.80518 48.8982 6.56296C48.7771 6.29048 48.6561 6.10882 48.5351 6.04826C48.414 5.98771 48.2627 5.89688 48.1114 5.92716Z" fill="white"/>
  <path d="M54.4357 4.47363C55.0711 4.50391 55.525 4.71585 55.8881 5.16999C56.2815 5.71497 56.4933 6.59299 56.4328 7.80406C56.4025 9.01512 56.1604 9.89314 55.7368 10.4078C55.3737 10.8317 54.8895 11.0437 54.2541 11.0134C53.6187 10.9831 53.1345 10.7409 52.7714 10.2565C52.4083 9.77204 52.2267 8.89402 52.257 7.68295C52.2872 6.47189 52.5293 5.59387 52.953 5.07916C53.3161 4.65529 53.8002 4.47363 54.4357 4.47363ZM54.4054 5.50304C54.2541 5.50304 54.1331 5.53331 54.012 5.62414C53.891 5.71497 53.8002 5.86636 53.7397 6.13885C53.6489 6.44161 53.5884 6.98659 53.5581 7.74351C53.5279 8.50042 53.5581 9.01512 53.6187 9.31789C53.6792 9.59038 53.7699 9.80231 53.891 9.89314C54.012 9.98397 54.1331 10.0445 54.2844 10.0445C54.4357 10.0445 54.5567 10.0143 54.6777 9.92342C54.7988 9.83259 54.8895 9.65093 54.9803 9.40872C55.0711 9.10595 55.1316 8.56097 55.1619 7.80406C55.1921 7.04714 55.1619 6.53244 55.1014 6.25995C55.0408 5.98746 54.9501 5.77553 54.829 5.6847C54.6777 5.56359 54.5567 5.50304 54.4054 5.50304Z" fill="white"/>
  <path d="M60.6085 11.7088L59.3982 11.4969L60.2454 6.92511C59.731 7.25815 59.1561 7.47009 58.5206 7.56092L58.7324 6.47096C59.0653 6.4104 59.4587 6.2893 59.8823 6.07736C60.3059 5.86543 60.6085 5.56266 60.8203 5.19934L61.8189 5.381L60.6085 11.7088Z" fill="white"/>
  <path d="M66.2972 13.4041L66.7511 12.2536L67.901 12.7078L67.4471 13.8583L66.2972 13.4041ZM67.5984 10.2251L68.0523 9.07458L69.2022 9.52873L68.7483 10.6792L67.5984 10.2251Z" fill="white"/>
  <path d="M76.0407 17.3407L75.4053 18.3095L71.7742 15.9782C72.0465 15.6452 72.3793 15.3727 72.803 15.1608C73.1963 14.9791 73.8621 14.7672 74.8001 14.6158C75.5566 14.4947 76.0105 14.3736 76.2223 14.2827C76.4946 14.1616 76.7064 14.0103 76.8577 13.7983C77.009 13.5561 77.0695 13.3442 77.009 13.1322C76.9788 12.9203 76.8275 12.7689 76.6157 12.6175C76.4038 12.4661 76.192 12.4359 75.9802 12.4661C75.7684 12.5267 75.5566 12.6781 75.3448 12.9809L74.4067 12.1937C74.8303 11.6487 75.2843 11.3762 75.7684 11.3459C76.2525 11.3156 76.7367 11.4367 77.2208 11.7698C77.7655 12.1028 78.0681 12.5267 78.1891 13.0111C78.3102 13.4956 78.2194 13.9497 77.9471 14.3736C77.7958 14.6158 77.584 14.8277 77.3721 14.9791C77.1603 15.1305 76.8577 15.2819 76.5249 15.403C76.3131 15.4938 75.9197 15.5544 75.4053 15.6452C74.8909 15.736 74.558 15.7966 74.4067 15.8268C74.2554 15.8571 74.1344 15.9177 74.0134 15.9782L76.0407 17.3407Z" fill="white"/>
  <path d="M82.1229 15.4036C82.607 15.7972 82.8188 16.2816 82.8188 16.8568C82.7886 17.5229 82.3952 18.3404 81.6085 19.279C80.8217 20.2175 80.0955 20.7322 79.4298 20.8836C78.8851 21.0047 78.3707 20.8534 77.8866 20.4598C77.4024 20.0662 77.1906 19.5515 77.1906 18.9156C77.2209 18.3101 77.6142 17.5229 78.401 16.5843C79.1877 15.6458 79.9139 15.1311 80.5796 14.9797C81.1243 14.8586 81.6387 14.9797 82.1229 15.4036ZM81.4572 16.1908C81.3361 16.0999 81.2151 16.0394 81.0638 16.0394C80.9125 16.0394 80.7309 16.0999 80.5191 16.2513C80.2468 16.433 79.8837 16.8266 79.3995 17.4018C78.9154 17.9771 78.6128 18.4009 78.4918 18.6734C78.3707 18.9459 78.3102 19.1579 78.3405 19.279C78.3707 19.4304 78.4312 19.5515 78.5523 19.6423C78.6733 19.7331 78.7943 19.7937 78.9456 19.7937C79.0969 19.7937 79.2785 19.7331 79.4903 19.5817C79.7626 19.4001 80.1258 19.0065 80.6099 18.4312C81.0941 17.856 81.3967 17.4321 81.5177 17.1596C81.6387 16.8871 81.6992 16.7055 81.669 16.5541C81.669 16.4027 81.5782 16.2816 81.4572 16.1908Z" fill="white"/>
  <path d="M82.6374 24.8187L81.7901 23.9104L85.1792 20.7313C84.574 20.7011 83.9688 20.5194 83.3938 20.2166L84.2109 19.4597C84.5134 19.6111 84.9068 19.7322 85.3607 19.823C85.8448 19.8836 86.2685 19.8533 86.6316 19.6717L87.3276 20.3983L82.6374 24.8187Z" fill="white"/>
  <path d="M85.4816 25.4851L86.3288 26.3631C86.117 26.575 85.996 26.787 85.9657 27.0292C85.9354 27.2714 85.996 27.453 86.1473 27.665C86.2986 27.8769 86.5104 27.9678 86.7827 27.998C87.0248 28.0283 87.2971 27.9375 87.5695 27.7255C87.8115 27.5439 87.9628 27.3319 87.9931 27.0897C88.0233 26.8475 87.9931 26.6356 87.8418 26.4539C87.751 26.3328 87.5997 26.2117 87.4181 26.0603L88.2957 25.5456C88.4772 25.8181 88.689 25.9695 88.9311 26.03C89.1732 26.0906 89.385 26.0301 89.5666 25.8787C89.7481 25.7576 89.8389 25.5759 89.8691 25.4245C89.8994 25.2429 89.8389 25.0612 89.7179 24.9098C89.5968 24.7282 89.4153 24.6373 89.2034 24.6071C88.9916 24.5768 88.7798 24.6373 88.5378 24.7887L87.9931 23.7593C88.3562 23.5776 88.6588 23.4868 88.9614 23.4868C89.2337 23.4868 89.506 23.5474 89.8086 23.6988C90.081 23.8501 90.323 24.0621 90.5349 24.3346C90.898 24.819 91.0493 25.3337 90.9585 25.8484C90.898 26.2723 90.6862 26.6053 90.3836 26.8475C89.9297 27.1806 89.385 27.2108 88.7496 26.9383C88.9009 27.2714 88.9614 27.6347 88.8706 27.9678C88.7798 28.3008 88.5983 28.6036 88.2654 28.8458C87.8115 29.1788 87.2971 29.2999 86.7524 29.2394C86.1775 29.1485 85.7236 28.8761 85.3302 28.3613C84.9671 27.9072 84.8159 27.3925 84.8461 26.9081C84.8764 26.3328 85.0882 25.8787 85.4816 25.4851Z" fill="white"/>
  <path d="M56.2209 42.8641C55.1013 41.4108 53.5278 40.6236 51.4096 40.6236C47.9903 40.6236 45.2065 43.1063 45.2065 46.1945C45.2065 48.98 47.5062 51.3113 50.5019 51.7049L52.0148 53.5215C51.5307 53.6123 51.0465 53.6728 50.5321 53.6728C46.4168 53.6728 43.0883 50.5544 43.0883 46.679C43.0883 42.8338 46.4168 39.6851 50.5321 39.6851C53.0134 39.6851 55.2223 40.8356 56.4629 42.6522C56.7655 43.076 56.3117 43.0458 56.2209 42.8641Z" fill="white"/>
  <path d="M53.5884 55.3984C53.074 55.4892 52.5293 55.5498 51.9847 55.5498C48.5654 55.5498 45.6 53.6726 44.1172 50.9478C45.5092 52.946 47.9299 54.2479 50.6532 54.2479C51.2887 54.2479 51.9241 54.1874 52.4991 54.036L53.5884 55.3984Z" fill="#D6B169"/>
  <path d="M50.744 51.0999C50.744 51.0999 51.1071 51.2513 51.8636 52.2201C51.8636 52.2201 53.891 55.2781 55.7065 56.6405C55.7065 56.6405 57.4918 58.3663 60.6993 58.3057C60.6993 58.3057 57.7339 57.9424 55.8881 56.0047C54.9803 55.2175 53.1043 52.7348 52.4386 52.0385C51.9241 51.4632 51.44 50.9182 51.0466 50.6155L50.744 51.0999Z" fill="#D9B06C"/>
  <path d="M51.2584 50.4945C51.2584 50.4945 52.4385 51.4028 53.3463 52.4928C53.3463 52.4928 55.7065 55.5507 56.6748 56.2471C57.2195 56.6709 58.8232 58.0334 61.6676 58.0334C59.8823 57.3067 59.3982 56.9737 58.1575 55.914C57.1892 55.1268 55.525 52.9166 54.3449 51.7964C54.3449 51.7964 52.8319 50.1917 51.5913 49.9495C51.6215 49.9192 51.3189 50.434 51.2584 50.4945Z" fill="#D9B06C"/>
  <path d="M51.8333 49.7368C51.8333 49.7368 52.8016 50.0396 53.5581 50.6149C54.2843 51.1598 55.0408 51.8865 56.7958 53.7939C57.5826 54.7022 59.0653 56.8518 61.8189 57.5785C60.9111 57.2152 59.7613 56.5491 57.8247 54.2783C57.8247 54.2783 55.7973 51.4929 54.012 50.3424C53.4371 50.0093 52.8621 49.5552 52.0149 49.4644L51.8333 49.7368Z" fill="#D9B06C"/>
  <path d="M60.8808 46.9511C60.8808 48.4649 60.4874 49.8879 59.7612 51.1293C59.2771 51.9467 58.6719 52.7036 57.9456 53.3395L56.4024 51.8559C56.9168 51.3412 57.3404 50.7357 57.6733 50.0999C58.1877 49.1007 58.4903 47.9805 58.4903 46.7997C58.4903 42.6821 54.9802 39.3517 50.6531 39.3517C48.4442 39.3517 46.4471 40.1994 45.0249 41.5921C46.6589 39.5939 49.1704 38.3525 51.9846 38.3525C56.9168 38.3525 60.8808 42.1977 60.8808 46.9511Z" fill="#D6B169"/>
  <path d="M42.4224 57.8513C44.5405 56.7311 46.6284 52.3107 47.1126 51.5538C48.8979 48.8592 51.833 49.4647 51.833 49.4647C50.6226 51.0997 49.6846 53.3098 49.261 53.9759C49.261 53.9759 47.7178 56.9128 45.8417 57.7302C45.8417 57.7302 44.2984 58.5174 43.0881 58.3055L42.6644 58.2752L43.0276 57.9422L42.4224 57.8513Z" fill="white"/>
  <path d="M43.5422 58.5171C43.3909 58.5171 43.2396 58.5171 43.0581 58.4869L42.6344 58.4566C42.5739 58.4566 42.5134 58.396 42.5134 58.3355C42.4832 58.2749 42.5134 58.2144 42.5739 58.1538L42.6647 58.063L42.3924 58.0327C42.3319 58.0327 42.2713 57.9722 42.2411 57.9116C42.2108 57.851 42.2713 57.7602 42.3319 57.7299C44.0264 56.8519 45.7209 53.7334 46.5379 52.2196C46.7195 51.8866 46.8707 51.6141 46.9615 51.4627C48.8073 48.7075 51.803 49.313 51.8333 49.313C51.8938 49.313 51.9241 49.3736 51.9543 49.4039C51.9846 49.4644 51.9543 49.525 51.9241 49.5553C51.0768 50.6755 50.3808 52.0985 49.8967 53.0371C49.6849 53.4609 49.5033 53.8243 49.3823 54.0362C49.3218 54.1573 47.7785 57.0033 45.9025 57.851C45.8722 57.9116 44.6921 58.5171 43.5422 58.5171ZM43.0581 58.1538H43.1186C44.2987 58.3658 45.7512 57.6088 45.7814 57.6088C47.5667 56.7914 49.1099 53.9454 49.1099 53.9151C49.231 53.7032 49.4125 53.3701 49.6244 52.9462C50.0783 52.0379 50.7439 50.7058 51.5307 49.6158C50.8045 49.525 48.6561 49.525 47.2339 51.6746C47.1431 51.7957 46.9918 52.0682 46.8102 52.4013C46.0538 53.794 44.5105 56.6097 42.8765 57.7602H43.0278C43.0883 57.7602 43.1489 57.8208 43.1791 57.851C43.2094 57.9116 43.1791 57.9722 43.1489 58.0327L43.0581 58.1538Z" fill="#131015"/>
  <path d="M42.7858 58.4268H42.695C42.6042 58.4268 42.5437 58.3662 42.5437 58.2754C42.5437 58.1846 42.6042 58.124 42.695 58.124C43.1186 58.1543 43.6028 58.0332 44.1172 57.8212C44.9342 57.4882 45.6604 56.9735 46.2959 56.2468C46.8708 55.611 47.718 54.5211 48.5956 52.8862C48.6561 52.765 50.1691 50.131 51.4399 49.3741C51.5307 49.3438 51.6215 49.3438 51.6518 49.4346C51.682 49.5254 51.682 49.6163 51.5913 49.6466C50.3809 50.3429 48.8982 53.0073 48.8679 53.0375C47.9904 54.7027 47.1129 55.7927 46.5379 56.4588C45.8722 57.2157 45.0855 57.7607 44.2382 58.124C43.7238 58.3057 43.2094 58.4268 42.7858 58.4268Z" fill="#131015"/>
  <path d="M43.0582 58.0629C42.9977 58.0629 42.9372 58.0326 42.9069 57.9721C42.8766 57.8813 42.9069 57.7904 42.9674 57.7602C44.1173 57.1546 44.8737 56.1555 44.904 56.1555C46.0841 54.6417 46.9616 53.0067 47.2945 52.3709C47.4458 52.0984 47.6273 51.7351 47.8694 51.4021C49.2008 49.646 51.0164 49.3433 51.5308 49.3433C51.6216 49.3433 51.6821 49.4341 51.6821 49.5249C51.6821 49.6157 51.5913 49.6763 51.5005 49.6763C51.1072 49.646 49.3824 49.9185 48.1115 51.614C47.8694 51.9168 47.6879 52.2498 47.5668 52.5223C47.234 53.1581 46.3564 54.8233 45.1461 56.3674C45.1158 56.3977 44.3291 57.4574 43.1187 58.0629C43.1187 58.0629 43.0884 58.0629 43.0582 58.0629Z" fill="#131015"/>
  <path d="M43.7238 90.6409C44.7828 91.9428 47.9601 96.2118 49.0494 99.0881C52.3174 92.5181 55.5552 88.1885 60.9413 83.1626C53.3462 86.5233 49.0191 93.1539 49.0191 93.1539L43.7238 90.6409Z" fill="#D7B364"/>
  <path d="M42.8161 74.4724V73.9879C43.6331 73.8668 43.6331 73.7154 43.4515 73.1402C43.3305 72.7466 43.1187 72.1411 42.9371 71.6263H40.4256C40.2743 72.0199 40.0928 72.5346 39.9717 72.9585C39.6994 73.776 40.002 73.8971 41.0308 73.9879V74.4724H37.8536V73.9879C38.6706 73.8971 38.8824 73.776 39.306 72.6558L41.9688 65.8132L42.574 65.6921C43.391 67.9932 44.2685 70.3547 45.1158 72.5649C45.5999 73.8063 45.6907 73.8971 46.538 73.9879V74.4724H42.8161ZM41.6965 68.1445C41.3334 69.0831 40.9703 69.9914 40.6374 70.9603H42.6648L41.6965 68.1445Z" fill="#2B3987"/>
  <path d="M51.6516 65.6921C54.0119 65.6921 55.9485 67.4785 55.9485 70.0822C55.9485 72.898 53.9816 74.6843 51.5609 74.6843C48.9888 74.6843 47.143 72.7466 47.143 70.2034C47.1733 67.9326 48.7165 65.6921 51.6516 65.6921ZM51.4701 66.2674C50.1689 66.2674 49.2006 67.5996 49.2006 69.9309C49.2006 72.1713 50.0479 74.0788 51.8029 74.0788C53.0133 74.0788 53.9816 72.8677 53.9816 70.4456C53.9513 67.8418 52.9528 66.2674 51.4701 66.2674ZM52.4384 73.6246C54.0724 74.9265 55.4038 75.8348 56.3418 76.2284L56.2208 76.622C55.6459 76.6825 54.6776 76.6523 54.1934 76.5009C53.0738 76.1678 51.7424 75.1082 50.6531 74.1999L52.4384 73.6246Z" fill="#2B3987"/>
  <path d="M65.5106 72.2016C65.3291 72.8677 64.9962 73.8668 64.7844 74.321C64.4516 74.4118 63.3925 74.654 62.4242 74.654C58.9746 74.654 57.5524 72.353 57.5524 70.2639C57.5524 67.539 59.5798 65.6921 62.6663 65.6921C63.7859 65.6921 64.7844 65.9646 65.087 65.9949C65.1475 66.6307 65.2383 67.5996 65.3291 68.1748L64.8147 68.2657C64.5423 67.2362 64.149 66.7518 63.4833 66.4793C63.1807 66.3582 62.6965 66.2977 62.3637 66.2977C60.4876 66.2977 59.5496 67.9023 59.5496 69.9914C59.5496 72.4135 60.7599 74.0485 62.515 74.0485C63.6043 74.0485 64.3003 73.4732 64.9962 72.0199L65.5106 72.2016Z" fill="#2B3987"/>
</svg>