<svg xmlns="http://www.w3.org/2000/svg" width="104" height="104" viewBox="0 0 104 104" fill="none">
  <path d="M96.6611 52.2301C96.6611 76.9913 76.5879 97.076 51.8409 97.076C27.0939 97.076 7.02063 76.9913 7.02063 52.2301C7.02063 27.469 27.0939 7.38428 51.8409 7.38428C76.5879 7.38428 96.6611 27.439 96.6611 52.2301Z" fill="white"/>
  <path d="M86.6845 39.5499H16.3683C18.076 34.7835 20.5627 30.4668 23.9482 26.8096H79.1346C82.5201 30.4668 84.9768 34.7835 86.6845 39.5499Z" fill="#231F1F"/>
  <path d="M51.5414 89.4922C30.8689 89.4922 14.0613 72.675 14.0613 52.0207C14.0613 31.3365 30.8689 14.5193 51.5414 14.5193C72.2138 14.5193 89.0214 31.3365 89.0214 52.0207C88.9915 72.675 72.1839 89.4922 51.5414 89.4922ZM51.5414 14.7291C30.9888 14.7291 14.271 31.4564 14.271 51.9908C14.271 72.5251 30.9888 89.2524 51.5414 89.2524C72.094 89.2524 88.7818 72.5251 88.7818 51.9908C88.7818 31.4564 72.064 14.7291 51.5414 14.7291Z" fill="#231F1F"/>
  <path d="M51.5415 0.669922C23.1094 0.669922 0.0401001 23.7524 0.0401001 52.2007C0.0401001 80.679 23.1094 103.731 51.5415 103.731C80.0035 103.731 103.073 80.649 103.073 52.2007C103.043 23.7524 79.9736 0.669922 51.5415 0.669922ZM47.6766 98.7553C46.5981 95.9074 43.4522 92.0404 42.4036 90.3317C43.8717 90.5115 45.6993 91.5008 47.4969 92.49C47.4969 92.49 52.1107 86.2548 59.9004 83.4669C54.5075 88.4731 50.9423 92.1603 47.6766 98.7553ZM62.9862 89.1026V83.287C62.9862 81.2786 61.3684 79.6298 59.3311 79.6298H43.5721C41.5648 79.6298 39.9469 81.2486 39.9469 83.287V89.0726C24.3078 84.1564 12.9529 69.5275 12.9529 52.2607C12.9529 30.9469 30.2099 13.65 51.5115 13.65C72.8131 13.65 90.1001 30.9169 90.1001 52.2607C90.1001 69.5575 78.6853 84.2163 62.9862 89.1026Z" fill="#CE1822"/>
  <path d="M59.9003 83.4368C54.5075 88.4729 50.9422 92.1601 47.6766 98.7251C46.598 95.8773 43.4522 92.0102 42.4036 90.3015C43.8716 90.4814 45.6992 91.4707 47.4968 92.4599C47.4968 92.4899 52.1107 86.2546 59.9003 83.4368Z" fill="white"/>
  <path d="M26.285 49.1731L25.7158 52.8903H31.1985L29.1013 64.1917H33.1458L35.3629 52.8903L40.7257 52.8603L41.6245 49.1731H26.285Z" fill="#020203"/>
  <path d="M42.853 49.1731H47.0474L45.1899 58.0463C45.07 58.7358 44.8603 59.2155 45.3996 59.755C45.819 60.1148 46.8677 60.4145 47.9163 60.4145C48.6653 60.4145 50.3131 60.4445 51.3317 59.6351C51.6613 59.3953 51.9009 59.0356 52.0507 58.0763L53.8783 49.1731H57.9529L55.9455 58.8857C55.7957 59.845 55.4063 62.483 51.9608 63.6821C51.9608 63.6821 46.3284 65.2708 42.6733 63.2324C42.6733 63.2324 40.0368 62.1232 41.2052 57.6267C41.2951 57.3868 42.853 49.1731 42.853 49.1731Z" fill="#020203"/>
  <path d="M43.5721 44.1665L43.0928 46.7745H57.9529L58.4922 44.1665H43.5721Z" fill="#020203"/>
  <path d="M65.353 55.4684L62.9262 49.1133H58.642L63.7352 64.3717L78.2358 44.6167H73.2025L65.353 55.4684Z" fill="#E4292E"/>
  <path d="M31.1087 74.9227H29.311L28.8617 73.8435H26.315L25.8656 74.9227H24.1579L26.7944 69.2271H28.6519L31.1087 74.9227ZM28.5021 72.6744L27.7232 70.606L26.8543 72.6744H28.5021Z" fill="#020203"/>
  <path d="M71.7944 74.9227H69.9968L69.5474 73.8435H67.0008L66.5514 74.9227H64.8436L67.4801 69.2271H69.3376L71.7944 74.9227ZM69.1878 72.6744L68.4089 70.606L67.54 72.6744H69.1878Z" fill="#020203"/>
  <path d="M38.3291 69.2277V72.6451C38.3291 73.4245 38.0894 73.994 37.61 74.3538C37.1307 74.7435 36.4416 74.9233 35.5128 74.9233C34.5841 74.9233 33.895 74.7435 33.4156 74.3838C32.9362 74.024 32.6966 73.4844 32.6966 72.765V69.2277H34.2545V72.4952C34.2545 72.8249 34.4043 73.1547 34.674 73.3645C34.9137 73.5444 35.2132 73.6643 35.5428 73.6643C35.9023 73.6643 36.2019 73.5744 36.4116 73.3645C36.5614 73.2146 36.6813 73.0048 36.7412 72.795C36.7711 72.6751 36.8011 72.5252 36.8011 72.4053V69.1677H38.3291V69.2277Z" fill="#020203"/>
  <path d="M45.1896 73.2144C45.1896 73.754 44.89 74.2636 44.4106 74.5634C43.8414 74.9831 41.7142 75.133 40.6057 74.3835V72.8847C41.7142 73.6641 43.3021 73.9039 43.4818 73.2744C43.5118 73.1245 43.4219 72.9746 43.2721 72.8547C43.1223 72.7348 42.8227 72.5849 42.3733 72.465C41.7741 72.2851 41.3547 72.0753 41.0551 71.8355C40.7555 71.5957 40.4858 71.176 40.4858 70.6964C40.4858 70.1568 40.7256 69.7671 41.175 69.4673C41.6244 69.1675 42.0438 69.0476 43.1223 69.0476C44.0211 69.0476 44.5604 69.3774 44.86 69.5272L44.89 70.9362C44.6803 70.8462 43.6616 70.0668 42.4033 70.3366C42.1936 70.3666 42.1337 70.5165 42.1037 70.6664C42.1037 70.8462 42.1936 70.9661 42.3434 71.0561C42.4932 71.146 42.8827 71.2959 43.422 71.4758C44.0212 71.6556 44.4406 71.8355 44.6803 72.0753C44.9499 72.3751 45.1896 72.7648 45.1896 73.2144Z" fill="#020203"/>
  <path d="M50.1032 74.9227H48.6052V70.2762H46.478V69.2271H52.1105V70.2762H50.1032V74.9227Z" fill="#020203"/>
  <path d="M55.7958 72.4646V74.9227H54.2678V69.2271H56.6946C57.4436 69.2271 58.0128 69.347 58.4023 69.5868C58.7918 69.8266 59.0015 70.2163 59.0015 70.7259C59.0015 71.0257 58.8817 71.3254 58.7019 71.5653C58.4922 71.8351 58.3424 71.955 57.893 72.0449C58.3125 72.0449 58.9116 73.3339 58.9116 73.3339L59.6906 74.8927L57.863 74.8328L57.2339 73.3339C57.144 73.1241 57.0241 72.8843 56.8743 72.7644C56.7545 72.6145 56.5748 72.4346 56.3351 72.4346H55.7958V72.4646ZM55.7958 71.3554L56.425 71.3854C57.144 71.3854 57.3537 71.1456 57.3537 70.8458C57.3537 70.606 57.2339 70.2762 56.365 70.2762H55.7958V71.3554Z" fill="#020203"/>
  <path d="M62.9862 69.2271H61.4283V74.9227H62.9862V69.2271Z" fill="#020203"/>
  <path d="M28.2623 37.6016C27.8429 37.3618 27.5433 37.0321 27.3336 36.5824C27.1239 36.1328 27.004 35.6232 27.004 35.0236V32.8653C27.004 32.2657 27.1239 31.7261 27.3336 31.3064C27.5433 30.8568 27.8729 30.527 28.2623 30.2872C28.6818 30.0474 29.1312 29.9275 29.7005 29.9275C30.1499 29.9275 30.5693 30.0174 30.9288 30.2273C31.2884 30.4371 31.6179 30.7369 31.8576 31.0966C32.0973 31.4863 32.277 31.936 32.3669 32.4456H31.0786C31.0187 32.2058 30.9288 31.9659 30.779 31.7861C30.6292 31.6062 30.4794 31.4563 30.2997 31.3364C30.1199 31.2465 29.9102 31.1865 29.7005 31.1865C29.4009 31.1865 29.1612 31.2465 28.9515 31.3964C28.7417 31.5463 28.5919 31.7261 28.4721 31.9659C28.3522 32.2058 28.2923 32.5055 28.2923 32.8653V35.0236C28.2923 35.3534 28.3522 35.6531 28.4721 35.9229C28.5919 36.1627 28.7417 36.3726 28.9515 36.4925C29.1612 36.6424 29.4009 36.7023 29.7005 36.7023C29.9102 36.7023 30.1199 36.6424 30.2997 36.5524C30.4794 36.4625 30.6592 36.3126 30.779 36.1328C30.9288 35.9529 31.0187 35.7131 31.0786 35.4433H32.3669C32.277 35.9529 32.0973 36.4026 31.8576 36.7923C31.6179 37.182 31.3183 37.4518 30.9288 37.6616C30.5693 37.8714 30.1499 37.9614 29.7005 37.9614C29.1612 37.9614 28.6818 37.8415 28.2623 37.6016Z" fill="white"/>
  <path d="M34.9436 31.2166V33.315H38.0894V34.574H34.9436V36.6125H38.6586V37.8715H33.6853V29.9575H38.6586V31.2166H34.9436Z" fill="white"/>
  <path d="M43.9316 34.5141C44.0814 34.4841 44.2312 34.3941 44.381 34.3342C44.7105 34.1543 44.9502 33.8845 45.13 33.5248C45.3097 33.1651 45.3996 32.7754 45.3996 32.2957C45.3996 31.8461 45.3097 31.4264 45.13 31.0667C44.9502 30.7069 44.7105 30.4372 44.381 30.2573C44.0514 30.0474 43.6919 29.9575 43.2425 29.9575H40.0667V37.8715H41.325V34.604H42.5534L44.2312 37.8715H45.7292L43.9316 34.5141ZM41.325 31.1866H43.2125C43.3923 31.1866 43.5421 31.2465 43.6919 31.3365C43.8117 31.4264 43.9316 31.5463 43.9915 31.7262C44.0514 31.8761 44.1113 32.0859 44.1113 32.2957C44.1113 32.5056 44.0514 32.7154 43.9915 32.8653C43.9316 33.0152 43.8117 33.1651 43.6919 33.225C43.5421 33.315 43.3923 33.3449 43.2425 33.3449H41.355V31.1866H41.325Z" fill="white"/>
  <path d="M51.4813 29.9575V31.2166H49.3542V37.8715H48.1258V31.2166H45.9987V29.9575H51.4813Z" fill="white"/>
  <path d="M53.6384 29.9575H52.3501V37.8715H53.6384V29.9575Z" fill="white"/>
  <path d="M56.6045 31.2166V33.4049H59.6604V34.634H56.6045V37.8715H55.3761V29.9575H60.2596V31.2166H56.6045Z" fill="white"/>
  <path d="M62.6864 29.9575H61.3981V37.8715H62.6864V29.9575Z" fill="white"/>
  <path d="M65.6525 31.2166V33.315H68.7983V34.574H65.6525V36.6125H69.3975V37.8715H64.3942V29.9575H69.3975V31.2166H65.6525Z" fill="white"/>
  <path d="M75.8389 31.2758C75.6292 30.8562 75.2697 30.5264 74.8502 30.3166C74.4008 30.1067 73.8616 29.9868 73.2624 29.9868H70.8057V37.9008H73.2624C73.8915 37.9008 74.4308 37.7809 74.8802 37.5411C75.3296 37.3312 75.6592 37.0015 75.8689 36.5518C76.1086 36.1321 76.1984 35.6225 76.1984 35.053V32.8047C76.1984 32.2051 76.0786 31.6955 75.8389 31.2758ZM74.9102 35.0829C74.9102 35.5626 74.7604 35.9523 74.4907 36.2221C74.2211 36.4919 73.8017 36.6417 73.2924 36.6417H72.034V31.2159H73.2924C73.8017 31.2159 74.2211 31.3358 74.4907 31.6356C74.7903 31.9054 74.9102 32.2951 74.9102 32.7747V35.0829Z" fill="white"/>
  <path d="M17.3227 19.6278L16.2214 20.8137L21.2477 25.4866L22.3489 24.3007L17.3227 19.6278Z" fill="white"/>
  <path d="M25.1166 18.9558C25.566 19.4354 25.7158 20.005 25.5959 20.6045C25.4761 21.2041 25.1166 21.8036 24.4874 22.3732C24.1878 22.643 23.9182 22.8528 23.5886 23.0327C23.289 23.2126 23.0194 23.3624 22.8097 23.4823L21.9708 22.3732C22.0906 22.3432 22.3303 22.2833 22.6899 22.1034C23.0194 21.9535 23.319 21.7437 23.5886 21.5039C23.8583 21.264 24.0081 21.0242 24.068 20.7844C24.1279 20.5446 24.098 20.3347 23.9182 20.1549C23.7984 20.035 23.6186 19.945 23.4089 19.945C23.1692 19.945 22.8397 20.035 22.3603 20.2448C21.7311 20.5146 21.2218 20.6645 20.7724 20.6645C20.323 20.6645 19.9335 20.4547 19.544 20.035C19.0946 19.5553 18.9149 19.0158 19.0347 18.4162C19.1546 17.8167 19.5141 17.2471 20.1732 16.6476C20.4129 16.4377 20.6525 16.2579 20.9222 16.078C21.1918 15.9281 21.4016 15.7782 21.6113 15.7183L22.3902 16.7375C22.1506 16.8274 21.9109 16.9173 21.7012 17.0373C21.4915 17.1572 21.2817 17.3071 21.0421 17.5169C20.7724 17.7567 20.6226 17.9965 20.5627 18.2064C20.5028 18.4462 20.5627 18.656 20.7125 18.8359C20.8323 18.9558 20.9821 19.0158 21.1919 19.0158C21.4016 19.0158 21.7911 18.8659 22.3603 18.626C22.9895 18.3263 23.5287 18.2064 23.9182 18.2663C24.3676 18.3263 24.7571 18.5361 25.1166 18.9558Z" fill="white"/>
  <path d="M30.5391 13.4099C31.1383 14.3392 31.378 15.2085 31.2282 16.0778C31.0784 16.9472 30.5391 17.6666 29.6703 18.2662C28.7715 18.8657 27.9027 19.0756 27.0338 18.8657C26.1949 18.6859 25.4459 18.1163 24.8467 17.187C24.2175 16.2577 23.9779 15.3584 24.1277 14.519C24.2775 13.6797 24.8168 12.9302 25.7156 12.3307C26.6144 11.7312 27.4832 11.5213 28.3221 11.7012C29.1909 11.911 29.91 12.4806 30.5391 13.4099ZM29.161 14.3392C28.7715 13.7396 28.3221 13.3499 27.8427 13.1701C27.3633 12.9902 26.884 13.0501 26.4346 13.3799C25.9553 13.6797 25.7156 14.0993 25.6856 14.609C25.6557 15.1186 25.8354 15.6881 26.2249 16.2877C26.6144 16.8872 27.0638 17.2769 27.5431 17.4268C28.0225 17.6067 28.5018 17.5467 28.9812 17.217C29.4306 16.9172 29.6703 16.4975 29.7003 15.9879C29.7302 15.4783 29.5504 14.9087 29.161 14.3392Z" fill="white"/>
  <path d="M32.8761 10.1127L32.3668 9.00359C32.4867 8.88368 32.6664 8.73379 32.966 8.55393C33.2656 8.37407 33.6251 8.1942 34.0446 8.01434C34.7636 7.74455 35.3928 7.65461 35.9021 7.77452C36.4114 7.89443 36.8009 8.25416 37.0106 8.79375C37.1604 9.15347 37.1604 9.5132 37.0406 9.84295C36.9207 10.1727 36.711 10.4725 36.3815 10.7423C36.8309 10.6523 37.2204 10.6823 37.52 10.8622C37.8196 11.042 38.0592 11.3118 38.209 11.7315C38.4487 12.361 38.4187 12.9306 38.0592 13.4702C37.7297 13.9798 37.1604 14.3995 36.3515 14.7292C35.9321 14.9091 35.5725 14.999 35.243 15.089C34.9134 15.1489 34.6737 15.2089 34.464 15.2089L34.0745 13.9498C34.1944 13.9798 34.4041 13.9798 34.7037 13.9198C35.0033 13.8899 35.3329 13.7999 35.6924 13.6501C36.0819 13.5002 36.3515 13.2903 36.5313 13.0505C36.711 12.8107 36.7709 12.5409 36.6511 12.2711C36.5312 11.9713 36.3215 11.7915 36.0519 11.7615C35.7823 11.7315 35.4227 11.7915 35.0033 11.9414L34.4041 12.1812L33.9846 11.102L34.464 10.9221C34.8835 10.7423 35.213 10.5624 35.3928 10.3226C35.6025 10.0828 35.6325 9.84295 35.5426 9.57315C35.4527 9.33334 35.2729 9.15347 35.0333 9.1235C34.7936 9.06354 34.494 9.1235 34.1345 9.2434C33.8049 9.36331 33.5353 9.5132 33.2956 9.69306C33.1458 9.84295 32.966 9.99284 32.8761 10.1127Z" fill="white"/>
  <path d="M42.8829 5.52637L43.1525 6.75543L42.044 12.7808L41.8643 12.8108L40.5161 13.1106L40.3663 13.1406L41.5347 7.08518L38.5686 7.77466L38.299 6.60555L42.8829 5.52637Z" fill="white"/>
  <path d="M49.8634 8.1343C49.9833 9.27343 49.8634 10.1727 49.5339 10.8322C49.2043 11.4917 48.6051 11.8515 47.7363 11.9414C46.8674 12.0313 46.2083 11.7915 45.7589 11.2219C45.2796 10.6524 44.98 9.81302 44.8601 8.67389C44.7403 7.53475 44.8601 6.63544 45.1897 5.97594C45.5192 5.31644 46.1184 4.95672 46.9873 4.86678C47.8561 4.77685 48.5152 5.01667 48.9646 5.58624C49.444 6.1558 49.7436 6.99516 49.8634 8.1343ZM48.2756 8.31416C48.1857 7.53475 48.0658 6.93521 47.8861 6.54551C47.7063 6.1558 47.4367 5.97594 47.0772 6.00592C46.7177 6.03589 46.478 6.27571 46.4181 6.69539C46.3282 7.11507 46.3282 7.71462 46.4181 8.49402C46.5079 9.27343 46.6277 9.843 46.8075 10.2327C46.9873 10.6224 47.2569 10.8023 47.6164 10.7723C47.976 10.7423 48.2156 10.5025 48.3055 10.0828C48.3654 9.66313 48.3654 9.09357 48.2756 8.31416Z" fill="white"/>
  <path d="M55.9454 8.13422C55.9155 9.27335 55.6758 10.1427 55.2563 10.7422C54.8369 11.3418 54.1778 11.6416 53.3089 11.6116C52.4401 11.5816 51.8409 11.2518 51.4514 10.6523C51.0619 10.0228 50.8822 9.15344 50.9121 8.01431C50.9421 6.87518 51.1818 5.97586 51.6012 5.4063C52.0207 4.80675 52.6798 4.50698 53.5486 4.53696C54.4174 4.56694 55.0167 4.89669 55.4062 5.52621C55.8256 6.09577 55.9754 6.99509 55.9454 8.13422ZM54.3875 8.10424C54.4174 7.32484 54.3576 6.72529 54.2377 6.30561C54.1179 5.88593 53.8782 5.67609 53.5187 5.67609C53.1591 5.67609 52.8895 5.85595 52.7697 6.27564C52.6199 6.69532 52.5599 7.26488 52.53 8.07427C52.5 8.85367 52.5599 9.45322 52.6798 9.8729C52.7996 10.2926 53.0393 10.5024 53.3988 10.5324C53.7584 10.5324 54.028 10.3525 54.1778 9.93285C54.2677 9.45322 54.3575 8.88365 54.3875 8.10424Z" fill="white"/>
  <path d="M60.0201 12.3005L58.4322 12.0008L59.331 6.8447L58.0427 7.5042L57.5034 6.39504L59.8702 5.28589L61.2184 5.52571L60.0201 12.3005Z" fill="white"/>
  <path d="M67.9896 14.849L68.5289 13.7998C68.9483 13.7099 69.3378 13.59 69.7573 13.5001C70.1467 13.3802 70.5662 13.2602 70.9556 13.1403C71.3751 12.9905 71.7346 12.8406 72.1241 12.6607C72.4836 12.4509 72.7533 12.241 72.9031 11.9413C73.0229 11.7014 73.0529 11.4616 72.963 11.2218C72.8731 10.982 72.6933 10.8021 72.4237 10.6822C72.0941 10.5023 71.7346 10.4124 71.3751 10.3525C71.0156 10.3225 70.7759 10.3225 70.6561 10.3525L71.1654 9.18335C71.3451 9.18335 71.6447 9.21333 72.0342 9.30326C72.4237 9.39319 72.8132 9.54308 73.2026 9.75292C73.8618 10.0827 74.2812 10.5323 74.491 11.012C74.7007 11.5216 74.6407 12.0612 74.3411 12.6007C74.1015 13.0204 73.7419 13.3802 73.2626 13.6799C72.7533 13.9497 72.3338 14.1596 72.0043 14.2495C71.7346 14.3394 71.465 14.4294 71.1953 14.5193C70.9257 14.6092 70.656 14.6692 70.3564 14.7591L72.7832 16.0181L72.214 17.0673L67.9896 14.849Z" fill="white"/>
  <path d="M78.745 17.4569C78.0859 18.3862 77.4268 18.9857 76.7377 19.2555C76.0486 19.5253 75.3595 19.4054 74.6405 18.8958C73.9514 18.3862 73.5919 17.7867 73.6218 17.0672C73.6518 16.3478 73.9814 15.5084 74.6405 14.5791C75.2996 13.6498 75.9887 13.0503 76.6478 12.7805C77.3369 12.5107 78.026 12.6306 78.745 13.1402C79.4341 13.6498 79.7936 14.2493 79.7636 14.9688C79.7636 15.6583 79.4041 16.4976 78.745 17.4569ZM77.4567 16.5276C77.9061 15.8981 78.2057 15.3585 78.3256 14.9388C78.4454 14.5191 78.3855 14.2194 78.0559 13.9796C77.7563 13.7697 77.4267 13.7997 77.0972 14.0695C76.7676 14.3393 76.3482 14.7889 75.8988 15.4185C75.4494 16.048 75.1498 16.5576 75.0299 16.9773C74.9101 17.397 74.97 17.6967 75.2996 17.9066C75.5992 18.1164 75.9287 18.0864 76.2583 17.8166C76.6178 17.6068 77.0073 17.1571 77.4567 16.5276Z" fill="white"/>
  <path d="M79.9433 23.0925L78.7449 22.0133L82.2503 18.0863L80.7822 17.9664L80.932 16.7373L83.5086 17.0371L84.5273 17.9664L79.9433 23.0925Z" fill="white"/>
  <path d="M86.1752 26.5096C85.6659 26.9592 85.0967 27.1691 84.4675 27.1391C83.8383 27.1091 83.2991 26.8094 82.8197 26.2698C82.3104 25.7002 82.1006 25.0407 82.1905 24.3812C82.2804 23.6917 82.7897 22.9723 83.6586 22.1929C84.4975 21.4434 85.3363 21.0238 86.1752 20.9638C87.0141 20.8739 87.7631 21.1736 88.3923 21.8631C88.6319 22.1029 88.8117 22.3727 88.9315 22.6126C89.0813 22.8524 89.1712 23.0622 89.2311 23.2421L88.2724 23.8716L88.3024 23.9016C88.2425 23.7217 88.1526 23.5418 88.0627 23.332C87.9728 23.1521 87.853 22.9723 87.7032 22.7924C87.2238 22.3727 86.7145 22.1929 86.2052 22.3128C85.8157 22.4027 85.4262 22.6126 84.9768 22.9723C85.2165 22.9423 85.4562 22.9723 85.6959 23.0322C85.9955 23.1222 86.2352 23.302 86.4449 23.5418C86.8643 24.0215 87.074 24.5311 87.0141 25.0407C86.9542 25.5803 86.6845 26.0599 86.1752 26.5096ZM83.8683 24.0515C83.6586 24.2913 83.5387 24.4711 83.5088 24.621C83.359 24.9508 83.4189 25.2505 83.6586 25.4904C83.8383 25.7002 84.0481 25.7901 84.3177 25.7602C84.5873 25.7302 84.827 25.6103 85.0966 25.4004C85.3663 25.1906 85.5161 24.9208 85.5461 24.681C85.606 24.4112 85.5161 24.2013 85.3363 23.9915C85.1566 23.7817 84.9169 23.6917 84.6173 23.7217C84.4076 23.7217 84.1679 23.8416 83.8683 24.0515Z" fill="white"/>
  <path d="M65.6525 12.6908C65.6525 13.2004 65.233 13.6201 64.7237 13.6201C64.2144 13.6201 63.765 13.2004 63.765 12.6908C63.765 12.1812 64.1844 11.7615 64.7237 11.7615C65.2031 11.7315 65.6525 12.1512 65.6525 12.6908Z" fill="white"/>
  <path d="M66.9706 8.91347C66.9706 9.42308 66.5511 9.84276 66.0418 9.84276C65.5324 9.84276 65.0831 9.42308 65.0831 8.91347C65.0831 8.40386 65.5025 7.98418 66.0418 7.98418C66.5511 7.9542 66.9706 8.37388 66.9706 8.91347Z" fill="white"/>
</svg>