<svg xmlns="http://www.w3.org/2000/svg" width="104" height="104" viewBox="0 0 104 104" fill="none">
  <path d="M95.9389 52.1732C95.9389 76.6278 76.1261 96.446 51.6782 96.446C27.2303 96.446 7.41748 76.6278 7.41748 52.1732C7.41748 27.7187 27.2303 7.90051 51.6782 7.90051C76.1261 7.90051 95.9389 27.7187 95.9389 52.1732Z" fill="white"/>
  <path d="M63.0993 37.3855H40.1056V60.3855H63.0993V37.3855Z" fill="#2B3984"/>
  <path d="M51.7692 0.385498C23.292 0.385498 0.207397 23.4764 0.207397 51.9612C0.207397 80.4461 23.292 103.537 51.7692 103.537C80.2463 103.537 103.331 80.4461 103.331 51.9612C103.331 23.4764 80.2463 0.385498 51.7692 0.385498ZM62.8571 88.0522V80.8097C62.8571 80.4461 62.5541 80.1431 62.1906 80.1431H41.166C40.8024 80.1431 40.4995 80.4461 40.4995 80.8097V87.9916C25.4733 83.1431 14.6277 68.84 14.6277 51.9612C14.6277 45.4461 16.2636 39.2946 19.1114 33.931C21.7167 29.0219 25.3824 24.7794 29.7751 21.4764C35.925 16.8703 43.529 14.1431 51.7692 14.1431C59.9791 14.1431 67.5831 16.8703 73.7632 21.4764C78.1862 24.7794 81.8519 29.0219 84.4573 33.931C87.305 39.2946 88.9409 45.4158 88.9409 51.9612C88.9409 68.9006 77.9742 83.2643 62.8571 88.0522Z" fill="#2B3984"/>
  <path d="M85.9945 33.8172H17.4536C20.1851 28.8887 24.187 24.6295 28.8242 21.3135H74.7193C76.5297 22.5912 78.3718 24.2036 80.1187 25.9073C82.9454 28.9496 84.4382 31.2921 85.9945 33.8172Z" fill="#2B3984"/>
  <path d="M37.652 25.3545V27.2333H39.8332V28.0818H37.652V29.9909H40.1058V30.8696H36.6219V24.4757H40.1058V25.3545H37.652Z" fill="white"/>
  <path d="M44.589 28.2333C44.7708 28.203 45.0132 28.1121 45.1646 28.0212C46.7703 26.9303 45.9826 25.0818 45.0737 24.7484C44.8011 24.5969 44.4073 24.4757 44.0437 24.4757H41.5898V30.8696H42.6805V28.3545H43.4378L44.9526 30.9303H46.1947L44.589 28.2333ZM42.6805 25.3848H44.1346C44.7405 25.506 44.9829 26.0212 44.9829 26.4151C44.9526 26.9606 44.6799 27.4151 44.0134 27.4454H42.6805V25.3848Z" fill="white"/>
  <path d="M51.7385 24.4757V25.3848H50.0117V30.9303H49.012V25.3848H47.2549V24.4757H51.7385Z" fill="white"/>
  <path d="M54.0414 24.4757H52.9205V30.9H54.0414V24.4757Z" fill="white"/>
  <path d="M56.6468 25.3545V27.2333H58.7371V28.0817H56.6468V30.9302H55.5259V24.506H59.3127V25.3545H56.6468Z" fill="white"/>
  <path d="M61.6152 24.4757H60.5245V30.9H61.6152V24.4757Z" fill="white"/>
  <path d="M64.2504 25.3545V27.2333H66.4317V28.0817H64.2504V30.0514H66.7043V30.8999H63.1295V24.506H66.7043V25.3545H64.2504Z" fill="white"/>
  <path d="M73.5207 26.8701C73.2783 25.6277 72.4301 25.0519 71.8545 24.8095C71.4304 24.6277 70.9456 24.5367 70.4003 24.5367H68.2191V30.9307H70.4003C71.8848 30.961 72.4907 30.3549 72.9754 29.8701C73.2178 29.4761 73.8237 28.5974 73.5207 26.8701ZM71.5213 29.6883C71.1274 30.0216 70.0671 29.961 70.0671 29.961H69.1885V25.3549H70.37C71.0365 25.4155 71.3395 25.5367 71.6424 25.8095C72.6422 26.5064 73.0057 28.658 71.5213 29.6883Z" fill="white"/>
  <path d="M35.2282 29.0212C35.0767 29.5667 34.6526 30.0515 34.1981 30.3849C33.6528 30.7788 33.0166 30.9909 32.229 30.9909C31.5928 30.9909 31.0475 30.8394 30.5325 30.5667C30.0477 30.2637 29.6842 29.9 29.4116 29.3849C29.1389 28.8697 28.9874 28.294 28.9874 27.7182C28.9874 27.1121 29.1086 26.5667 29.3813 26.0515C29.9266 24.8394 31.2898 24.3546 32.1684 24.4152C34.1072 24.3546 35.0464 25.7788 35.1373 26.3849L33.8952 26.4152C33.5316 25.6576 32.3804 24.9606 31.0475 25.6576C30.7142 25.8697 30.4719 26.1728 30.3204 26.5364C30.2598 26.7182 30.1689 26.9606 30.1386 27.2334C30.1083 27.3849 30.078 27.5364 30.078 27.7182C30.078 27.8394 30.078 27.9606 30.1083 28.0818C30.1386 28.3849 30.2295 28.6576 30.3507 28.9303C31.2595 30.5667 33.5619 30.0818 33.8952 29.0212H35.2282Z" fill="white"/>
  <path d="M16.2128 20.4523L15.3279 21.4086L20.0636 25.7931L20.9485 24.8368L16.2128 20.4523Z" fill="white"/>
  <path d="M20.5352 22.1123L21.4137 21.1426C21.747 21.4154 22.0802 21.5366 22.3831 21.5366C22.6861 21.5366 22.989 21.3851 23.292 21.1123C23.5949 20.8396 23.7767 20.5669 23.807 20.2942C23.8373 20.0214 23.7767 19.779 23.6252 19.6275C23.5041 19.5063 23.3829 19.4457 23.2617 19.4154C23.1102 19.4154 22.9284 19.4457 22.7164 19.5366C22.5649 19.5972 22.262 19.7487 21.747 20.0214C21.1108 20.3548 20.626 20.5366 20.2322 20.5366C19.7172 20.5366 19.2628 20.3548 18.9295 19.9911C18.7175 19.7487 18.566 19.4457 18.5357 19.1123C18.5054 18.779 18.5357 18.4457 18.6872 18.082C18.8387 17.7487 19.1113 17.3851 19.4748 17.0517C20.0807 16.5063 20.626 16.2336 21.1714 16.2032C21.7167 16.2032 22.2014 16.3851 22.5952 16.8093L21.6561 17.7184C21.4137 17.5669 21.1714 17.476 20.929 17.476C20.6866 17.476 20.4443 17.6275 20.1716 17.8699C19.899 18.1123 19.7172 18.3851 19.6869 18.6275C19.6566 18.8093 19.6869 18.9305 19.8081 19.0517C19.899 19.2032 20.0201 19.2335 20.2019 19.2335C20.414 19.2335 20.8078 19.0517 21.3834 18.7487C21.959 18.4457 22.4134 18.2336 22.7467 18.1426C23.0799 18.0517 23.4132 18.0517 23.7161 18.1426C24.0191 18.2336 24.322 18.4154 24.5947 18.7184C24.837 18.9911 24.9885 19.3245 25.0794 19.6881C25.14 20.0517 25.0794 20.4457 24.9279 20.8093C24.7158 21.2032 24.4129 21.5669 24.0191 21.9608C23.4132 22.5063 22.8376 22.779 22.262 22.8093C21.6561 22.8093 21.1108 22.5669 20.5352 22.1123Z" fill="white"/>
  <path d="M24.9584 16.7186C24.6251 16.1732 24.4131 15.658 24.3222 15.1732C24.2919 14.8095 24.2919 14.4762 24.3828 14.1126C24.4434 13.7489 24.5646 13.4459 24.7766 13.1732C25.019 12.8095 25.3825 12.5065 25.8066 12.2035C26.6246 11.6883 27.4123 11.5368 28.1999 11.7489C28.9876 11.9611 29.6844 12.4762 30.2297 13.3853C30.775 14.2641 30.9871 15.1126 30.8053 15.9004C30.6538 16.6883 30.1691 17.3247 29.3814 17.8398C28.5635 18.355 27.7455 18.5065 26.9578 18.3247C26.1702 18.1126 25.5037 17.5974 24.9584 16.7186ZM26.0793 15.9611C26.4731 16.5671 26.8973 16.9611 27.382 17.1126C27.8667 17.2641 28.3211 17.1732 28.7755 16.9004C29.1997 16.6277 29.4723 16.2338 29.5632 15.7489C29.6541 15.2641 29.5026 14.6883 29.0785 14.052C28.6846 13.4459 28.2605 13.052 27.7758 12.9307C27.3214 12.7792 26.867 12.8701 26.4125 13.1429C25.9581 13.4459 25.6855 13.8095 25.5946 14.2944C25.534 14.7792 25.6855 15.355 26.0793 15.9611Z" fill="white"/>
  <path d="M35.3191 13.0221L36.4097 12.507C36.5006 12.7191 36.6521 12.8706 36.8036 12.9615C36.9551 13.0221 37.1368 13.0525 37.3186 12.9615C37.5609 12.8706 37.7427 12.6888 37.8336 12.4161C37.9245 12.1434 37.8942 11.6282 37.7124 10.9312C37.5307 11.3858 37.2277 11.6585 36.7733 11.81C36.2886 11.9615 35.8039 11.9312 35.3494 11.6585C34.895 11.4161 34.5315 10.9918 34.3497 10.3858C34.1376 9.77972 34.1679 9.20397 34.4103 8.71912C34.6526 8.20397 35.0465 7.87063 35.6221 7.68882C36.228 7.47669 36.8339 7.5676 37.3792 7.90094C37.9245 8.26457 38.4092 8.96154 38.7727 10.0828C39.1363 11.204 39.1969 12.0828 38.9545 12.7191C38.7122 13.3555 38.2577 13.7797 37.5912 13.9918C37.1065 14.1434 36.6824 14.1434 36.3189 13.9918C35.8947 13.8403 35.5918 13.507 35.3191 13.0221ZM37.1368 9.59791C37.0156 9.23427 36.8339 8.96154 36.5915 8.81003C36.3492 8.65851 36.1068 8.62821 35.8947 8.68882C35.6827 8.77973 35.5312 8.90094 35.4403 9.11306C35.3494 9.32518 35.3797 9.62821 35.5009 10.0221C35.6221 10.4161 35.8038 10.6888 36.0159 10.81C36.228 10.9312 36.4703 10.9615 36.6824 10.9009C36.8945 10.81 37.0762 10.6585 37.1671 10.4464C37.258 10.2343 37.2277 9.93124 37.1368 9.59791Z" fill="white"/>
  <path d="M41.6808 6.05208C42.2867 5.93087 42.8017 6.02178 43.2561 6.38541C43.7711 6.80966 44.1649 7.62784 44.4376 8.80966C44.7103 9.99147 44.68 10.9006 44.377 11.5066C44.1347 12.0218 43.7105 12.3248 43.1046 12.446C42.4987 12.5672 41.9534 12.446 41.4687 12.0521C40.984 11.6581 40.6205 10.8703 40.3478 9.65814C40.1054 8.47632 40.1054 7.56723 40.4084 6.96117C40.6205 6.47632 41.0446 6.17329 41.6808 6.05208ZM41.8928 7.05208C41.7414 7.08238 41.6202 7.17329 41.5293 7.2642C41.4384 7.38541 41.3778 7.56723 41.3778 7.80966C41.3475 8.14299 41.4081 8.68844 41.5899 9.41572C41.7414 10.143 41.8928 10.6581 42.0443 10.9309C42.1655 11.1733 42.317 11.3551 42.4381 11.4157C42.5593 11.4763 42.7108 11.5066 42.8623 11.4763C43.0137 11.446 43.1349 11.3551 43.2258 11.2642C43.3167 11.143 43.3773 10.9612 43.3773 10.7187C43.4076 10.3854 43.3167 9.87026 43.1652 9.11268C43.0137 8.38541 42.8623 7.87026 42.7411 7.62784C42.6199 7.35511 42.4684 7.20359 42.3473 7.14299C42.1655 7.02178 42.0443 7.02178 41.8928 7.05208Z" fill="white"/>
  <path d="M47.6492 5.02144C48.2551 4.96084 48.7701 5.11235 49.1942 5.50629C49.6789 5.96084 49.9819 6.80932 50.1636 8.02144C50.3151 9.23357 50.2242 10.1124 49.8607 10.7184C49.5275 11.173 49.073 11.476 48.4671 11.5366C47.831 11.6275 47.3159 11.4457 46.8615 11.0214C46.4374 10.5972 46.1344 9.74872 45.9527 8.5366C45.8012 7.32448 45.8921 6.44569 46.2556 5.86993C46.5586 5.38508 47.013 5.08205 47.6492 5.02144ZM47.7704 6.02144C47.6189 6.05175 47.4977 6.11235 47.4068 6.20326C47.2856 6.32447 47.2251 6.50629 47.1948 6.74872C47.1645 7.08205 47.1645 7.5972 47.2856 8.35478C47.3765 9.11235 47.4977 9.6275 47.5886 9.90023C47.7098 10.173 47.831 10.3548 47.9521 10.4154C48.0733 10.476 48.2248 10.5366 48.3763 10.5063C48.5277 10.5063 48.6489 10.4154 48.7398 10.3245C48.8307 10.2033 48.9216 10.0214 48.9519 9.77902C48.9822 9.44569 48.9822 8.93053 48.861 8.17296C48.7701 7.41538 48.6489 6.93054 48.558 6.65781C48.4368 6.38508 48.3157 6.20326 48.1945 6.14266C48.043 6.05175 47.9218 6.02144 47.7704 6.02144Z" fill="white"/>
  <path d="M54.8893 11.1123L53.6472 11.082L53.7986 6.44562C53.3442 6.83956 52.7989 7.14259 52.1627 7.32441L52.193 6.2032C52.5263 6.11229 52.8898 5.93047 53.2533 5.62744C53.6472 5.35471 53.9198 4.99108 54.0713 4.62744L55.071 4.65774L54.8893 11.1123Z" fill="white"/>
  <path d="M60.7363 12.0219L61.0393 10.8098L62.2511 11.1128L61.9481 12.2946L60.7363 12.0219ZM61.5846 8.68856L61.8875 7.47644L63.069 7.77947L62.7661 8.99159L61.5846 8.68856Z" fill="white"/>
  <path d="M70.9457 14.6276L70.461 15.6579L66.553 13.8094C66.7953 13.4457 67.0983 13.1124 67.4618 12.87C67.8254 12.6276 68.4918 12.3548 69.3704 12.0821C70.0975 11.8397 70.5519 11.6882 70.764 11.567C71.0366 11.4154 71.2184 11.2336 71.3093 10.9912C71.4304 10.7488 71.4607 10.5063 71.3699 10.3245C71.3093 10.1427 71.1578 9.96089 70.9154 9.86998C70.6731 9.74877 70.461 9.74877 70.2489 9.80938C70.0672 9.86998 69.8854 10.0821 69.7036 10.3851L68.6433 9.74877C69.0069 9.17302 69.431 8.80938 69.8854 8.71847C70.3701 8.62756 70.8548 8.68817 71.3699 8.93059C71.9455 9.20332 72.309 9.56696 72.4908 10.0518C72.6725 10.5063 72.6422 10.9912 72.4302 11.4457C72.309 11.7185 72.1272 11.9306 71.9455 12.1124C71.7334 12.2942 71.4607 12.476 71.1578 12.6579C70.9457 12.7791 70.5822 12.9003 70.0672 13.0518C69.5522 13.2033 69.2492 13.3245 69.0977 13.3851C68.9463 13.4457 68.8251 13.5063 68.7342 13.5973L70.9457 14.6276Z" fill="white"/>
  <path d="M77.0652 12.1725C77.5803 12.5058 77.8832 12.9604 77.9135 13.5361C77.9741 14.2028 77.6711 15.0513 77.0046 16.0816C76.3382 17.1119 75.6717 17.7179 75.0355 17.93C74.4902 18.1119 73.9752 18.021 73.4602 17.6876C72.9148 17.2937 72.6422 16.8088 72.5816 16.2028C72.521 15.5967 72.8543 14.7785 73.5207 13.7482C74.1872 12.7482 74.8537 12.1119 75.4899 11.8997C76.0352 11.7179 76.5502 11.8088 77.0652 12.1725ZM76.4896 13.021C76.3685 12.9301 76.217 12.8997 76.0655 12.9301C75.914 12.9604 75.7626 13.0513 75.5505 13.2028C75.3081 13.4149 74.9749 13.8391 74.5508 14.4755C74.1266 15.1119 73.8843 15.5664 73.7934 15.8391C73.7025 16.1119 73.6722 16.324 73.7328 16.4755C73.7631 16.627 73.854 16.7179 73.9752 16.8088C74.0963 16.8997 74.2478 16.93 74.3993 16.8997C74.5508 16.8694 74.7022 16.7785 74.9143 16.627C75.1567 16.4149 75.4899 15.9907 75.914 15.3543C76.3382 14.7179 76.5805 14.2634 76.6714 13.9907C76.7623 13.7179 76.7926 13.5058 76.732 13.3543C76.7017 13.2028 76.6411 13.0816 76.4896 13.021Z" fill="white"/>
  <path d="M78.6102 21.5064L77.671 20.6882L80.7005 17.1428C80.0946 17.1731 79.4887 17.0519 78.8828 16.8095L79.6099 15.961C79.9128 16.0822 80.3067 16.1731 80.7914 16.2034C81.2761 16.2337 81.7002 16.1428 82.0638 15.9307L82.8211 16.5973L78.6102 21.5064Z" fill="white"/>
  <path d="M81.5487 21.9604L82.4878 22.7786C82.3061 22.9907 82.2152 23.2029 82.2152 23.4453C82.2152 23.6877 82.2758 23.8998 82.4272 24.0513C82.609 24.2332 82.8211 24.3241 83.0937 24.3241C83.3664 24.3241 83.6693 24.1726 83.9723 23.8695C84.2449 23.5968 84.4267 23.3241 84.457 23.0816C84.4873 22.8089 84.3964 22.5665 84.2146 22.3847C83.9723 22.1119 83.639 21.9907 83.2149 21.9907L82.6393 21.1422L85.5173 19.3544L87.7288 21.7483L86.8806 22.5362L85.3053 20.8392L84.3661 21.4453C84.6388 21.5665 84.8811 21.718 85.0932 21.9301C85.4567 22.3241 85.6385 22.8089 85.6082 23.3544C85.5779 23.8998 85.3356 24.3847 84.8508 24.8392C84.457 25.2029 84.0026 25.415 83.4876 25.4756C82.7908 25.5665 82.1849 25.3241 81.6699 24.7786C81.276 24.3544 81.064 23.8695 81.0337 23.3847C81.0337 22.8392 81.1852 22.3847 81.5487 21.9604Z" fill="white"/>
  <path d="M55.6769 43.0524C54.556 41.5979 52.9806 40.81 50.86 40.81C47.4367 40.81 44.6496 43.2948 44.6496 46.3857C44.6496 49.2039 46.952 51.5069 49.9512 51.9009L51.4659 53.7191C50.9812 53.81 50.4965 53.8706 49.9815 53.8706C45.8614 53.8706 42.5289 50.7494 42.5289 46.9009C42.5289 43.0524 45.8614 39.9009 49.9815 39.9009C52.4656 39.9009 54.6771 41.0524 55.9192 42.8706C56.2222 43.2342 55.7678 43.2342 55.6769 43.0524Z" fill="white"/>
  <path d="M53.0414 55.5976C52.5263 55.6885 51.981 55.7491 51.4357 55.7491C48.0124 55.7491 45.0435 53.8703 43.5591 51.1431C44.9829 53.1431 47.3762 54.4461 50.1028 54.4461C50.7389 54.4461 51.3751 54.3855 51.9507 54.234L53.0414 55.5976Z" fill="#D6B169"/>
  <path d="M50.1633 51.2942C50.1633 51.2942 50.5269 51.4457 51.2842 52.4154C51.2842 52.4154 53.314 55.476 55.1317 56.8397C55.1317 56.8397 56.9191 58.5669 60.1303 58.5063C60.1303 58.5063 57.1614 58.1427 55.3134 56.2033C54.4046 55.4154 52.5263 52.9306 51.8598 52.2336C51.3448 51.6578 50.8601 51.1124 50.4663 50.7791L50.1633 51.2942Z" fill="#D9B06C"/>
  <path d="M50.7085 50.6582C50.7085 50.6582 51.89 51.5673 52.7988 52.6582C52.7988 52.6582 55.1618 55.7189 56.1313 56.4158C56.6766 56.8401 58.2822 58.2037 61.1299 58.2037C59.3425 57.4764 58.8578 57.1431 57.6157 56.0825C56.6463 55.2946 54.9801 53.0825 53.7986 51.9613C53.7986 51.9613 52.2838 50.3552 51.0417 50.1128C51.0417 50.1128 50.7691 50.6279 50.7085 50.6582Z" fill="#D9B06C"/>
  <path d="M51.2544 49.9307C51.2544 49.9307 52.2238 50.2337 52.9812 50.8095C53.7083 51.3549 54.4656 52.0822 56.2227 53.9913C57.0104 54.9004 58.4949 57.0519 61.2517 57.7792C60.3428 57.4155 59.1916 56.7489 57.2528 54.4761C57.2528 54.4761 55.223 51.6883 53.4356 50.5367C52.86 50.2034 52.2844 49.7489 51.4362 49.658L51.2544 49.9307Z" fill="#D9B06C"/>
  <path d="M60.3427 47.1431C60.3427 48.6582 59.9186 50.0825 59.2218 51.3249C58.7371 52.1431 58.1312 52.9006 57.4041 53.537L55.8591 52.0825C56.3741 51.5673 56.7982 50.9613 57.1315 50.3249C57.6465 49.3249 57.9494 48.2037 57.9494 47.0219C57.9494 42.9006 54.4352 39.5673 50.1031 39.5673C47.8916 39.5673 45.9224 40.4158 44.4985 41.8097C46.1345 39.84 48.6489 38.5673 51.4663 38.5673C56.3438 38.537 60.3427 42.3855 60.3427 47.1431Z" fill="#D6B169"/>
  <path d="M41.8624 58.0516C43.9831 56.9304 46.0734 52.5061 46.5581 51.7485C48.3455 49.0516 51.2841 49.6576 51.2841 49.6576C50.0723 51.2637 49.1332 53.5061 48.7091 54.1728C48.7091 54.1728 47.164 57.1122 45.2857 57.9304C45.2857 57.9304 43.7407 58.7182 42.5289 58.5061L42.1048 58.4455L42.4683 58.1122L41.8624 58.0516Z" fill="white"/>
  <path d="M42.9836 58.6878C42.8321 58.6878 42.6807 58.6878 42.4989 58.6575L42.0748 58.6272C42.0142 58.6272 41.9536 58.5666 41.9536 58.5363C41.9233 58.4757 41.9536 58.4151 41.9839 58.3545L42.0748 58.2635L41.8021 58.2332C41.7415 58.2332 41.6809 58.1726 41.6506 58.112C41.6203 58.0514 41.6809 57.9605 41.7415 57.9302C43.438 57.0514 45.1345 53.9302 45.9525 52.4151C46.1343 52.0817 46.2857 51.809 46.3766 51.6575C48.2246 48.8999 51.2238 49.506 51.2541 49.506C51.3147 49.506 51.345 49.5666 51.3753 49.5969C51.4056 49.6575 51.3753 49.6878 51.345 49.7484C50.4967 50.8696 49.7999 52.2938 49.3152 53.2635C49.1032 53.6878 48.9214 54.0514 48.8002 54.2635C48.7396 54.3848 47.1946 57.2332 45.3163 58.0817C45.3163 58.112 44.1348 58.6878 42.9836 58.6878ZM42.4686 58.3241H42.5292C43.7107 58.5363 45.1648 57.7787 45.1951 57.7787C46.9825 56.9605 48.5276 54.112 48.5276 54.0817C48.6487 53.8696 48.8305 53.5363 49.0426 53.112C49.497 52.2029 50.1635 50.8696 50.9511 49.7787C50.2241 49.6878 48.0731 49.6878 46.6493 51.8393C46.5584 51.9605 46.4069 52.2332 46.2251 52.5666C45.4678 53.9605 43.9227 56.7787 42.2868 57.9302H42.4383C42.4989 57.9302 42.5595 57.9908 42.5898 58.0514C42.6201 58.112 42.5898 58.1726 42.5595 58.2332L42.4686 58.3241Z" fill="#131015"/>
  <path d="M42.196 58.627H42.1051C42.0142 58.627 41.9536 58.5664 41.9536 58.4755C41.9536 58.3846 42.0142 58.324 42.1051 58.324C42.5292 58.324 43.0139 58.2331 43.5289 58.021C44.3469 57.6877 45.074 57.1725 45.7102 56.4452C46.2858 55.8089 47.134 54.718 48.0126 53.0816C48.0732 52.9604 49.5879 50.324 50.8603 49.5664C50.9512 49.5058 51.0421 49.5361 51.0724 49.6271C51.1026 49.718 51.1026 49.8089 51.0118 49.8392C49.8 50.5361 48.2852 53.2028 48.2852 53.2331C47.4067 54.8998 46.5281 56.021 45.9525 56.6574C45.286 57.4149 44.4984 57.9604 43.6501 58.2937C43.1351 58.5058 42.6504 58.627 42.196 58.627Z" fill="#131015"/>
  <path d="M42.4988 58.2635C42.4382 58.2635 42.3776 58.2332 42.3473 58.1726C42.317 58.0817 42.3473 57.9908 42.4079 57.9605C43.5591 57.3847 44.3165 56.3544 44.3468 56.3544C45.5283 54.8393 46.4068 53.2029 46.7401 52.5666C46.8916 52.2938 47.0733 51.9302 47.3157 51.5969C48.6487 49.8393 50.436 49.5059 50.9814 49.5362C51.0722 49.5362 51.1328 49.6272 51.1328 49.7181C51.1328 49.809 51.0419 49.8999 50.9814 49.8696C50.5875 49.8696 48.8607 50.1423 47.5883 51.809C47.346 52.112 47.1642 52.4453 47.043 52.7181C46.7098 53.3544 45.8312 55.0211 44.6194 56.5665C44.5891 56.5969 43.8015 57.6575 42.5897 58.2635C42.5291 58.2635 42.4988 58.2635 42.4988 58.2635Z" fill="#131015"/>
  <path d="M43.1353 90.8696C44.1956 92.1726 47.3765 96.4757 48.4671 99.3242C51.739 92.7484 54.9805 88.4151 60.373 83.3848C52.769 86.7484 48.4368 93.3848 48.4368 93.3848L43.1353 90.8696Z" fill="#D7B364"/>
  <path d="M42.2567 74.688V74.2032C43.0746 74.082 43.0746 73.9305 42.8929 73.3547C42.7717 72.9608 42.5596 72.3547 42.3779 71.8395H39.8634C39.7119 72.2638 39.5604 72.7486 39.409 73.1729C39.1363 73.9911 39.4393 74.1123 40.4693 74.2032V74.688H37.2883V74.2032C38.1063 74.1123 38.3184 73.9911 38.7425 72.8698L41.4084 66.0214L42.0143 65.9001C42.8323 68.2032 43.7108 70.5668 44.5591 72.7789C45.0438 74.0214 45.1347 74.1123 45.9829 74.2032V74.688H42.2567ZM41.1055 68.3547C40.7419 69.2941 40.3784 70.2032 40.0452 71.1729H42.0749L41.1055 68.3547Z" fill="#2B3987"/>
  <path d="M51.1026 65.8696C53.4656 65.8696 55.4347 67.6575 55.4347 70.2636C55.4347 73.0818 53.4656 74.8696 51.042 74.8696C48.4669 74.8696 46.619 72.9302 46.619 70.3848C46.5887 68.1121 48.164 65.8696 51.1026 65.8696ZM50.8905 66.4757C49.5878 66.4757 48.6184 67.809 48.6184 70.1424C48.6184 72.3848 49.4667 74.2939 51.2238 74.2939C52.4356 74.2939 53.405 73.0817 53.405 70.6575C53.405 68.0211 52.4053 66.4757 50.8905 66.4757ZM51.86 73.8393C53.4959 75.1424 54.8289 76.0515 55.768 76.4454L55.6468 76.8393C55.0712 76.8999 54.1018 76.8696 53.6171 76.7181C52.4961 76.3848 51.1632 75.3242 50.0726 74.4151L51.86 73.8393Z" fill="#2B3987"/>
  <path d="M64.9473 72.3853C64.7655 73.052 64.4323 74.052 64.2202 74.5065C63.8869 74.5974 62.8266 74.8398 61.8572 74.8398C58.4036 74.8398 56.9797 72.5368 56.9797 70.4459C56.9797 67.7186 59.0095 65.8398 62.0996 65.8398C63.2205 65.8398 64.2202 66.1126 64.5231 66.1429C64.5837 66.7792 64.6746 67.7489 64.7655 68.3247L64.2505 68.4156C63.9778 67.3853 63.584 66.9004 62.9175 66.6277C62.6146 66.5065 62.1299 66.4459 61.7966 66.4459C59.9183 66.4459 58.9792 68.052 58.9792 70.1429C58.9792 72.5671 60.191 74.2035 61.9481 74.2035C63.0084 74.2035 63.7355 73.6277 64.4323 72.1732L64.9473 72.3853Z" fill="#2B3987"/>
</svg>