<svg xmlns="http://www.w3.org/2000/svg" width="50" height="50" viewBox="0 0 50 50" fill="none">
  <path d="M12.3447 37.4948L12.3444 37.4946C13.3843 38.5345 13.3843 40.2265 12.3445 41.2663C12.1909 41.42 12.0191 41.5546 11.8338 41.6664C11.7216 41.7365 11.5892 41.7941 11.4647 41.8551L3.81227 45.9575C3.88803 45.8101 7.93689 38.4815 8.01489 38.3122C8.14862 38.0062 8.33624 37.731 8.57257 37.4947C9.09251 36.9748 9.77546 36.7147 10.4585 36.7147C11.1416 36.7147 11.8245 36.9748 12.3444 37.4947L12.3442 37.4945L9.51841 34.6686C8.61683 34.847 7.75687 35.2844 7.05962 35.9816C6.64589 36.3953 6.31482 36.8751 6.07508 37.4081L0.195139 48.0922C-0.0334183 48.5074 0.0384555 49.0233 0.371759 49.3603C0.57785 49.5687 0.853577 49.678 1.13271 49.6779C1.30495 49.6779 1.47856 49.6363 1.63787 49.5508L12.4421 43.7589C12.9729 43.5191 13.4461 43.1898 13.8575 42.7794C14.5547 42.0822 14.9921 41.2222 15.1706 40.3206L12.3447 37.4948Z" fill="#E03854"/>
  <path d="M31.4417 24.1764C28.3665 24.2401 25.5995 21.5418 25.6612 18.3986C25.6403 13.2896 31.9229 10.6884 35.5292 14.3113C37.7715 16.4628 37.7718 20.3346 35.5292 22.4861C34.4023 23.613 32.922 24.1764 31.4417 24.1764ZM31.4417 14.7595C29.505 14.7193 27.7619 16.4191 27.8008 18.3986C27.8008 19.3711 28.1796 20.2854 28.8673 20.973C31.1388 23.2547 35.0959 21.6165 35.0826 18.3985C35.1212 16.4192 33.3786 14.7192 31.4417 14.7595Z" fill="#332F30"/>
  <path d="M48.3091 10.3779C49.7947 5.04692 49.7969 1.22555 49.7963 1.06546C49.7951 0.774465 49.6754 0.496306 49.4648 0.295468C49.2541 0.0946298 48.9706 -0.0113817 48.6799 0.000970098C43.168 0.241587 37.89 1.51684 32.9925 3.79141C26.9862 6.63456 21.8939 10.5436 17.8041 15.9716L9.01467 15.5443C8.71288 15.5289 8.41955 15.6431 8.20626 15.8564L0.313366 23.7491C0.0364716 24.026 -0.0670111 24.4319 0.0435715 24.8077C0.154154 25.1833 0.461101 25.4685 0.843812 25.5513L10.5194 27.6435C9.0668 30.349 8.1588 32.2695 8.14674 32.2951C7.95426 32.7034 8.03878 33.1886 8.35798 33.5078L12.3446 37.4944L12.3448 37.4946L12.3451 37.4948L16.4148 41.5645C16.7502 41.9001 17.2659 41.9728 17.6786 41.7498C17.8865 41.6379 19.6641 40.6775 22.115 39.2715L24.1982 48.9056C24.3607 49.7204 25.4199 50.0347 26.0004 49.436L33.8931 41.5433C34.1065 41.3299 34.2198 41.0363 34.2052 40.7349L33.7781 31.9484C41.4998 26.5139 46.0008 18.3763 48.3091 10.3779ZM46.2278 9.87569C45.8621 11.179 45.3788 12.6505 44.7421 14.2237L35.5342 5.0158C39.355 3.45159 43.403 2.50907 47.6047 2.20611C47.4997 3.67928 47.1833 6.47029 46.2278 9.87569ZM9.38396 17.7045L16.309 18.0412C14.8153 20.1916 13.0895 23.0033 11.5924 25.6864L3.2138 23.8747L9.38396 17.7045ZM12.3988 28.673L16.026 32.3003L13.1013 35.2252L10.4092 32.5331C10.7886 31.7609 11.4815 30.3799 12.3988 28.673ZM17.3614 39.4852L14.6143 36.7381L17.5391 33.8134L21.1046 37.379C19.4672 38.3198 18.1268 39.0643 17.3614 39.4852ZM32.0448 40.3654L25.8747 46.5355L24.0599 38.1429C26.4624 36.7327 29.213 35.0554 31.7054 33.3832L32.0448 40.3654ZM36.2076 27.2217C33.6215 29.8079 27.6775 33.5303 23.0187 36.267L19.052 32.3003L24.2079 27.1445C24.6257 26.7267 24.6256 26.0493 24.2079 25.6314C23.79 25.2137 23.1126 25.2137 22.6948 25.6314L17.539 30.7873L13.4707 26.719C15.8767 22.4246 19.2629 16.9864 22.6176 13.6317C25.797 10.4523 29.437 7.87052 33.4407 5.94841L43.8209 16.3285C42.1661 19.8409 39.7447 23.6846 36.2076 27.2217Z" fill="#332F30"/>
</svg>