<svg width="21" height="23" viewBox="0 0 21 23" fill="none" xmlns="http://www.w3.org/2000/svg">
<path d="M16.0727 13.8156C15.443 13.8176 14.8205 13.9491 14.2438 14.2019C13.6671 14.4547 13.1486 14.8234 12.7204 15.2851L8.92036 12.989C9.27269 12.0331 9.27269 10.9829 8.92036 10.027L12.7204 7.73092C13.4521 8.51241 14.4339 9.01368 15.496 9.14808C16.5581 9.28249 17.6338 9.04158 18.5372 8.467C19.4405 7.89242 20.1147 7.02029 20.4432 6.00135C20.7717 4.98242 20.7339 3.88072 20.3363 2.88671C19.9387 1.8927 19.2063 1.06884 18.2657 0.557553C17.3251 0.0462642 16.2354 -0.120321 15.185 0.0865929C14.1346 0.293507 13.1895 0.860916 12.5131 1.69074C11.8367 2.52056 11.4714 3.56063 11.4805 4.63118C11.4794 5.01877 11.5296 5.4048 11.6298 5.77923L7.64602 8.07533C6.80692 7.32513 5.71771 6.91565 4.5922 6.92728C3.37428 6.92728 2.20623 7.4111 1.34503 8.27231C0.48382 9.13351 0 10.3016 0 11.5195C0 12.7374 0.48382 13.9055 1.34503 14.7667C2.20623 15.6279 3.37428 16.1117 4.5922 16.1117C5.71771 16.1233 6.80692 15.7138 7.64602 14.9636L11.6298 17.2597C11.5296 17.6342 11.4794 18.0202 11.4805 18.4078C11.4805 19.316 11.7498 20.2039 12.2544 20.9591C12.759 21.7143 13.4762 22.3029 14.3154 22.6504C15.1545 22.998 16.0778 23.089 16.9686 22.9118C17.8594 22.7346 18.6777 22.2972 19.3199 21.655C19.9621 21.0127 20.3995 20.1945 20.5767 19.3037C20.7539 18.4129 20.6629 17.4895 20.3154 16.6504C19.9678 15.8113 19.3792 15.0941 18.624 14.5895C17.8688 14.0849 16.981 13.8156 16.0727 13.8156ZM16.0727 2.33508C16.5268 2.33508 16.9708 2.46974 17.3484 2.72204C17.726 2.97434 18.0203 3.33294 18.194 3.7525C18.3678 4.17206 18.4133 4.63373 18.3247 5.07913C18.2361 5.52453 18.0174 5.93365 17.6963 6.25477C17.3752 6.57589 16.9661 6.79457 16.5207 6.88316C16.0753 6.97176 15.6136 6.92629 15.194 6.7525C14.7745 6.57872 14.4159 6.28442 14.1636 5.90683C13.9113 5.52923 13.7766 5.08531 13.7766 4.63118C13.7766 4.02222 14.0185 3.43819 14.4491 3.00759C14.8797 2.57699 15.4637 2.33508 16.0727 2.33508ZM4.5922 13.8156C4.13808 13.8156 3.69415 13.6809 3.31656 13.4286C2.93897 13.1763 2.64467 12.8177 2.47088 12.3982C2.2971 11.9786 2.25163 11.5169 2.34022 11.0715C2.42882 10.6261 2.6475 10.217 2.96861 9.8959C3.28973 9.57478 3.69886 9.3561 4.14426 9.2675C4.58966 9.17891 5.05133 9.22438 5.47088 9.39816C5.89044 9.57195 6.24904 9.86625 6.50134 10.2438C6.75364 10.6214 6.88831 11.0654 6.88831 11.5195C6.88831 12.1285 6.6464 12.7125 6.21579 13.1431C5.78519 13.5737 5.20117 13.8156 4.5922 13.8156ZM16.0727 20.7039C15.6186 20.7039 15.1747 20.5692 14.7971 20.3169C14.4195 20.0646 14.1252 19.706 13.9514 19.2865C13.7776 18.8669 13.7321 18.4052 13.8207 17.9598C13.9093 17.5144 14.128 17.1053 14.4491 16.7842C14.7702 16.4631 15.1794 16.2444 15.6248 16.1558C16.0702 16.0672 16.5318 16.1127 16.9514 16.2865C17.371 16.4603 17.7296 16.7546 17.9819 17.1321C18.2342 17.5097 18.3688 17.9537 18.3688 18.4078C18.3688 19.0168 18.1269 19.6008 17.6963 20.0314C17.2657 20.462 16.6817 20.7039 16.0727 20.7039Z" fill="white"/>
</svg>
