<svg xmlns="http://www.w3.org/2000/svg" width="111" height="82" viewBox="0 0 111 82" fill="none">
  <path d="M0 71.9682C0.683571 70.2372 2.27092 70.6423 3.69312 70.5272C3.69312 70.0116 3.69312 69.5835 3.69312 69.1553C3.69312 54.3635 3.69312 39.5716 3.69312 24.7798C3.69312 21.6538 5.17954 19.4993 7.85878 18.7995C8.47812 18.6384 9.14334 18.6061 9.79021 18.6061C30.8158 18.5969 51.8459 18.5969 72.8714 18.6015C73.1926 18.6015 73.5091 18.6292 73.9037 18.6476V22.3122H72.4586C51.7541 22.3122 31.0543 22.3122 10.3499 22.3122C7.84501 22.3122 7.38165 22.7771 7.38165 25.2816C7.38165 39.8939 7.38165 54.5016 7.38165 69.1139C7.38165 69.5467 7.38165 69.9794 7.38165 70.4904H85.0564V63.1336C86.2355 63.1336 87.2769 63.0876 88.3046 63.1751C88.4927 63.1889 88.7771 63.7229 88.7863 64.0268C88.8321 65.767 88.8092 67.5072 88.8092 69.2474C88.8092 69.6387 88.8092 70.0347 88.8092 70.5825C89.4423 70.5825 89.9745 70.5549 90.5067 70.5871C91.7362 70.67 92.4335 71.2546 92.4748 72.4562C92.5436 74.376 92.5712 76.305 92.4519 78.2155C92.3234 80.2458 90.9654 81.498 88.9423 81.6913C88.4743 81.7374 88.0018 81.719 87.5338 81.719C60.0029 81.719 32.4719 81.7052 4.94098 81.7466C2.65629 81.7466 0.931309 81.1343 0 78.9337V71.9728L0 71.9682ZM88.7358 74.4174C88.5706 74.3576 88.5064 74.3115 88.4376 74.3115C77.6748 74.3023 66.912 74.2931 56.1538 74.3115C55.8969 74.3115 55.5253 74.5924 55.406 74.841C55.0252 75.6466 54.4517 76.107 53.5617 76.1116C48.685 76.1162 43.8082 76.1484 38.936 76.0702C38.3717 76.061 37.546 75.5822 37.312 75.0942C36.945 74.3346 36.5 74.2747 35.8164 74.2793C25.5215 74.2931 15.2313 74.2885 4.93639 74.2931C4.55102 74.2931 4.16566 74.3253 3.78029 74.3438V77.9439H88.7358V74.422V74.4174Z" fill="#332F30"/>
  <path d="M111 29.6551C111 37.4815 111 45.3079 111 53.1389C111 57.181 108.807 59.4046 104.788 59.4092C97.8195 59.4184 90.8507 59.4184 83.882 59.4092C79.9274 59.4046 77.6977 57.1856 77.6931 53.2171C77.6794 37.5644 77.684 21.907 77.6931 6.25426C77.6931 2.2582 79.9641 0.0115704 83.9646 0.00696666C90.8966 -0.00224084 97.8333 -0.00224084 104.765 0.00696666C108.761 0.0115704 110.995 2.27201 111 6.28188C111 14.0714 111 21.8656 111 29.6551ZM107.279 11.2493H81.4642V44.4792H107.279V11.2493ZM107.302 48.3187H81.4964C81.4964 50.326 81.4138 52.3056 81.5285 54.276C81.5881 55.2842 82.446 55.6893 83.414 55.6893C90.7039 55.694 97.9892 55.7032 105.279 55.6847C106.536 55.6847 107.252 54.9942 107.289 53.7512C107.339 51.9833 107.302 50.2109 107.302 48.3187ZM81.4046 7.33614H107.238C107.504 4.28385 106.981 3.71299 104.031 3.71299C98.1865 3.71299 92.3417 3.71299 86.497 3.71299C85.4877 3.71299 84.4738 3.67616 83.4691 3.7268C82.1386 3.79125 81.5055 4.43578 81.4138 5.75705C81.3771 6.25426 81.4092 6.75607 81.4092 7.33614H81.4046Z" fill="#E13754"/>
  <path d="M14.8643 63.1152H81.4046C81.3588 63.9991 81.4826 64.8323 81.2303 65.5229C81.0422 66.0339 80.4137 66.4713 79.8815 66.7291C79.464 66.9317 78.8906 66.8396 78.3859 66.8396C56.9658 66.8396 35.5457 66.8396 14.1256 66.8396C11.5427 66.8396 11.0886 66.3838 11.0886 63.8149C11.0886 52.6508 11.0886 41.4867 11.0886 30.3226C11.0886 28.1082 12.0612 26.6074 13.8412 26.1654C14.4605 26.0135 15.1303 26.0227 15.7772 26.0227C32.1049 26.0135 48.4327 26.0181 64.7604 26.0181C67.3983 26.0181 70.0363 26.0181 72.6696 26.0181H73.9129V29.7149H14.8643V63.1105V63.1152Z" fill="#332F30"/>
  <path d="M33.3757 48.199V44.6541H36.9358V48.199H33.3757Z" fill="#332F30"/>
  <path d="M44.5101 44.6082H48.0426V48.2083H44.5101V44.6082Z" fill="#332F30"/>
  <path d="M59.1404 44.6265V48.1898H55.5711V44.6265H59.1404Z" fill="#332F30"/>
</svg>