<svg width="156" height="155" viewBox="0 0 156 155" fill="none" xmlns="http://www.w3.org/2000/svg">
<path fill-rule="evenodd" clip-rule="evenodd" d="M13.9129 25.4452C19.0587 32.6739 25.7622 37.2591 32.715 37.2591C39.6678 37.2591 46.3714 32.6739 51.5172 25.4452H13.9129ZM53.8412 21.8102C55.7956 18.4011 57.3473 14.6808 58.4014 10.9051H33.6238C32.6201 10.9051 31.8063 10.0914 31.8063 9.08758C31.8063 8.0838 32.6201 7.27007 33.6238 7.27007H59.2578C59.7291 4.8121 59.9778 2.36537 59.9778 0H65.4304C65.4304 9.64328 61.8718 20.1791 56.1525 28.3337C52.9993 32.8296 49.067 36.7608 44.5638 39.3709C47.4234 40.5123 50.1012 42.0857 52.54 44.0156C59.6234 38.6381 68.516 35.4416 78.1531 35.4416C101.179 35.4416 119.956 53.6904 119.956 76.3358C119.956 86.9313 115.845 96.5642 109.112 103.816L114.503 109.207L121.397 102.313C122.107 101.604 123.258 101.604 123.967 102.313L151.23 129.576C156.959 135.305 156.959 144.593 151.23 150.322C145.501 156.05 136.213 156.05 130.485 150.322L103.222 123.059C102.512 122.349 102.512 121.198 103.222 120.489L111.933 111.777L106.525 106.369C99.0626 113.115 89.0869 117.23 78.1531 117.23C72.7311 117.23 67.5447 116.218 62.7836 114.375C62.6743 114.34 62.5665 114.298 62.4608 114.249C58.882 112.83 55.5479 110.939 52.5401 108.656C50.1012 110.586 47.4232 112.159 44.5636 113.301C49.0669 115.911 52.9993 119.842 56.1525 124.338C61.8718 132.493 65.4304 143.028 65.4304 152.672H59.9778C59.9778 150.306 59.7291 147.859 59.2578 145.401H52.5051C51.6787 149.044 48.4213 151.763 44.529 151.763C40.6366 151.763 37.3792 149.044 36.5528 145.401H6.3611C6.29797 145.401 6.23558 145.398 6.17411 145.392C5.70157 147.853 5.45225 150.303 5.45225 152.672H-0.000305176C-0.000305176 143.028 3.55823 132.493 9.27753 124.338C12.6078 119.59 16.807 115.471 21.6301 112.874C8.81919 107.21 -0.000305176 92.7423 -0.000305176 76.3357C-0.000305176 59.9293 8.81915 45.4615 21.63 39.7978C16.807 37.2004 12.6078 33.082 9.27753 28.3337C3.55823 20.1791 -0.000305176 9.64328 -0.000305176 0H5.45225C5.45225 2.36537 5.70093 4.8121 6.17228 7.27007H12.925C13.7515 3.62778 17.0088 0.908758 20.9011 0.908758C25.4182 0.908758 29.08 4.57055 29.08 9.08759C29.08 13.6046 25.4182 17.2664 20.9011 17.2664C17.0088 17.2664 13.7515 14.5474 12.925 10.9051H7.02863C8.08277 14.6808 9.63448 18.4011 11.5889 21.8102H53.8412ZM52.5051 141.766H58.4014C57.3473 137.991 55.7956 134.27 53.8412 130.861H11.5889C9.6345 134.27 8.08278 137.991 7.02864 141.766H36.5528C37.3793 138.124 40.6366 135.405 44.529 135.405C48.4213 135.405 51.6786 138.124 52.5051 141.766ZM51.5172 127.226H13.9129C19.0587 119.998 25.7623 115.412 32.715 115.412C39.6678 115.412 46.3713 119.998 51.5172 127.226ZM67.8561 110.337C71.1185 111.274 74.5738 111.777 78.1531 111.777C98.2896 111.777 114.503 95.8495 114.503 76.3358C114.503 56.822 98.2896 40.8942 78.1531 40.8942C58.0165 40.8942 41.8027 56.822 41.8027 76.3358C41.8027 90.4579 50.2945 102.702 62.6196 108.39C66.6282 102.313 69.2929 96.4337 70.9419 90.876H51.7989C50.7951 90.876 49.9814 90.0622 49.9814 89.0584C49.9814 88.0547 50.7951 87.2409 51.7989 87.2409H71.8897C73.389 80.5728 73.4551 74.4361 72.7032 69.0657H65.2278C64.4013 72.708 61.144 75.427 57.2516 75.427C52.7345 75.427 49.0727 71.7653 49.0727 67.2482C49.0727 62.7312 52.7345 59.0694 57.2516 59.0694C61.1439 59.0694 64.4012 61.7884 65.2277 65.4306H72.0501C70.503 58.4028 67.6233 52.9977 65.1191 49.8674C64.1785 48.6917 64.3691 46.9761 65.5449 46.0355C66.7206 45.0949 68.4362 45.2855 69.3768 46.4612C77.0426 56.0434 86.3388 81.3842 67.8561 110.337ZM48.3407 47.6687C44.0271 44.5028 38.9824 42.7116 33.6238 42.7116C25.9146 42.7116 18.7611 46.4927 13.5916 52.708H44.0275C45.3271 50.9157 46.7703 49.2307 48.3407 47.6687ZM41.6754 56.3431H10.9701C8.96247 59.5648 7.4225 63.2425 6.48598 67.2482H31.8063C32.8101 67.2482 33.6238 68.0619 33.6238 69.0657C33.6238 70.0695 32.8101 70.8832 31.8063 70.8832H5.81714C5.57729 72.6522 5.45225 74.4729 5.45225 76.3357C5.45225 78.1986 5.5773 80.0193 5.81715 81.7883H16.56C17.3865 78.146 20.6438 75.427 24.5362 75.427C29.0532 75.427 32.715 79.0888 32.715 83.6059C32.715 88.1229 29.0532 91.7847 24.5362 91.7847C20.6438 91.7847 17.3865 89.0657 16.56 85.4234H6.486C7.42253 89.429 8.96252 93.1068 10.9701 96.3285H41.6754C38.2854 90.423 36.3501 83.606 36.3501 76.3358C36.3501 69.0656 38.2854 62.2486 41.6754 56.3431ZM44.0275 99.9636H13.5917C18.7612 106.179 25.9147 109.96 33.6238 109.96C38.9838 109.96 44.0275 108.168 48.3406 105.003C46.7703 103.441 45.327 101.756 44.0275 99.9636ZM24.5362 80.8796C23.0305 80.8796 21.8099 82.1002 21.8099 83.6059C21.8099 85.1115 23.0305 86.3321 24.5362 86.3321C26.0419 86.3321 27.2625 85.1115 27.2625 83.6059C27.2625 82.1002 26.0419 80.8796 24.5362 80.8796ZM41.8027 143.584C41.8027 142.078 43.0233 140.858 44.529 140.858C46.0346 140.858 47.2552 142.078 47.2552 143.584C47.2552 145.09 46.0346 146.31 44.529 146.31C43.0233 146.31 41.8027 145.09 41.8027 143.584ZM139.04 132.679C137.032 132.679 135.405 134.306 135.405 136.314C135.405 138.322 137.032 139.949 139.04 139.949C141.047 139.949 142.675 138.322 142.675 136.314C142.675 134.306 141.047 132.679 139.04 132.679ZM131.77 136.314C131.77 132.299 135.025 129.044 139.04 129.044C143.055 129.044 146.31 132.299 146.31 136.314C146.31 140.329 143.055 143.584 139.04 143.584C135.025 143.584 131.77 140.329 131.77 136.314ZM18.1749 9.08759C18.1749 7.58191 19.3955 6.36131 20.9011 6.36131C22.4068 6.36131 23.6274 7.58191 23.6274 9.08759C23.6274 10.5933 22.4068 11.8139 20.9011 11.8139C19.3955 11.8139 18.1749 10.5933 18.1749 9.08759ZM57.2516 64.5219C55.7459 64.5219 54.5253 65.7425 54.5253 67.2482C54.5253 68.7539 55.7459 69.9745 57.2516 69.9745C58.7573 69.9745 59.9778 68.7539 59.9778 67.2482C59.9778 65.7425 58.7573 64.5219 57.2516 64.5219ZM107.077 121.774L133.055 147.751C137.364 152.061 144.351 152.061 148.66 147.751C152.969 143.442 152.969 136.456 148.66 132.147L122.682 106.169L107.077 121.774Z" fill="#E03854"/>
</svg>
