<svg width="147" height="148" viewBox="0 0 147 148" fill="none" xmlns="http://www.w3.org/2000/svg">
<path fill-rule="evenodd" clip-rule="evenodd" d="M12.0947 5.58228C8.49785 5.58228 5.58203 8.49809 5.58203 12.0949V110.715C5.58203 114.312 8.49785 117.228 12.0947 117.228H40.0061V93.038C40.0061 87.3858 44.5881 82.8038 50.2403 82.8038H52.101V63.731C52.101 51.6559 61.8898 41.8671 73.9649 41.8671C86.0401 41.8671 95.8289 51.6559 95.8289 63.731V72.5696C95.8289 76.6803 92.4965 80.0126 88.3858 80.0126C84.2752 80.0126 80.9428 76.6803 80.9428 72.5696V66.9873C80.9428 63.3905 78.027 60.4747 74.4301 60.4747C70.8333 60.4747 67.9175 63.3905 67.9175 66.9873V82.8038H98.62C104.272 82.8038 108.854 87.3858 108.854 93.038V117.228H134.905C138.502 117.228 141.417 114.312 141.417 110.715V26.981H81.6496C78.0075 26.981 74.5593 25.3398 72.2626 22.5131L63.0509 11.1756L60.4551 8.5798C58.5358 6.66052 55.9327 5.58228 53.2184 5.58228H12.0947ZM70.9904 12.0949L76.595 18.9929C77.8317 20.515 79.6885 21.3987 81.6496 21.3987H141.417V18.6076C141.417 15.0108 138.502 12.0949 134.905 12.0949H70.9904ZM66.2825 6.51266L64.4023 4.63253C61.4362 1.66637 57.4132 0 53.2184 0H12.0947C5.41484 0 -0.000244141 5.41509 -0.000244141 12.0949V110.715C-0.000244141 117.395 5.41484 122.81 12.0947 122.81H40.0061V135.835C40.0061 142.515 45.4212 147.93 52.101 147.93H96.7592C103.439 147.93 108.854 142.515 108.854 135.835V122.81H134.905C141.585 122.81 147 117.395 147 110.715V18.6076C147 11.9277 141.585 6.51266 134.905 6.51266H66.2825ZM62.3352 82.8038V66.9873C62.3352 60.3075 67.7503 54.8924 74.4301 54.8924C81.11 54.8924 86.5251 60.3075 86.5251 66.9873V72.5696C86.5251 73.5973 87.3582 74.4304 88.3858 74.4304C89.4135 74.4304 90.2466 73.5973 90.2466 72.5696V63.731C90.2466 54.7389 82.9571 47.4494 73.9649 47.4494C64.9728 47.4494 57.6833 54.7389 57.6833 63.731V82.8038H62.3352ZM50.2403 88.3861C47.6711 88.3861 45.5884 90.4688 45.5884 93.038V135.835C45.5884 139.432 48.5042 142.348 52.101 142.348H96.7592C100.356 142.348 103.272 139.432 103.272 135.835V93.038C103.272 90.4688 101.189 88.3861 98.62 88.3861H50.2403Z" fill="#E03854"/>
<path fill-rule="evenodd" clip-rule="evenodd" d="M74.43 98.6204C69.2917 98.6204 65.1262 102.786 65.1262 107.924C65.1262 111.824 67.5269 115.17 70.9417 116.553L72.6856 117.259V129.846C72.6856 131.227 73.805 132.347 75.186 132.347C76.5669 132.347 77.6863 131.227 77.6863 129.846V116.791L79.0799 115.985C81.8681 114.372 83.7338 111.364 83.7338 107.924C83.7338 102.786 79.5684 98.6204 74.43 98.6204ZM59.5439 107.924C59.5439 99.7028 66.2087 93.0381 74.43 93.0381C82.6514 93.0381 89.3161 99.7028 89.3161 107.924C89.3161 112.839 86.933 117.195 83.2686 119.903V129.846C83.2686 134.31 79.6499 137.929 75.186 137.929C70.722 137.929 67.1033 134.31 67.1033 129.846V120.885C62.593 118.33 59.5439 113.486 59.5439 107.924Z" fill="#E03854"/>
</svg>
