<svg width="47" height="54" viewBox="0 0 47 54" fill="none" xmlns="http://www.w3.org/2000/svg">
<path d="M16.2847 26.0411C14.4237 22.4216 13.4167 12.8651 16.0183 9.33303L17.7992 6.91403C19.4824 4.61943 21.8892 2.89807 24.6688 2L36.6215 4.33521L36.079 5.08C34.7058 6.95169 32.8615 8.46147 31.5282 10.3618C30.1083 12.6251 29.5983 15.3041 30.0933 17.8996M32.4825 11.5911C36.102 13.6439 39.1393 16.5358 41.3221 20.0073C43.7348 23.842 45.0076 28.2494 45 32.7414V45.7539C45.0002 46.5742 44.8336 47.3872 44.51 48.1451C44.1863 48.903 43.7119 49.5919 43.1136 50.172C42.5154 50.752 41.8053 51.2121 41.0236 51.5259C40.242 51.8397 39.4041 52.0002 38.5581 52H30.115C22.486 52 15.1694 49.0626 9.77489 43.832C8.11545 42.223 6.67972 40.4375 5.48708 38.5211C0.155072 29.9531 2.12617 19.0859 3.67183 9.08531C3.70718 8.85133 3.82898 8.6376 4.01435 8.48393C4.19972 8.33025 4.43624 8.24756 4.68012 8.25005H15.5361" stroke="#E03854" stroke-width="3.8" stroke-linecap="round" stroke-linejoin="round"/>
</svg>
