<svg xmlns="http://www.w3.org/2000/svg" width="22" height="23" viewBox="0 0 22 23" fill="none">
<path d="M20.2098 0H1.79023C0.803054 0 0 0.910624 0 2.02992V12.9701C0 14.0894 0.803097 15 1.79023 15H6.57844V14.4619C6.57844 14.2493 6.68888 14.0566 6.86023 13.9702C6.8919 13.9543 6.9236 13.9394 6.95527 13.9238H1.96542L9.14256 8.15937L10.7257 9.43089C10.8079 9.49688 10.904 9.52985 11 9.52985C11.096 9.52985 11.1921 9.49683 11.2743 9.43089L12.8574 8.15937L20.0346 13.9238H15.0447C15.0764 13.9394 15.1081 13.9543 15.1398 13.9702C15.3111 14.0566 15.4216 14.2493 15.4216 14.4619V15H20.2098C21.1969 15 22 14.0894 22 12.9701V2.02992C22 0.910624 21.1969 0 20.2098 0ZM1.02389 13.3613C0.976218 13.2417 0.94904 13.1096 0.94904 12.9701V2.02992C0.94904 1.89046 0.976218 1.75829 1.02389 1.63874L8.32152 7.49998L1.02389 13.3613ZM11 8.33248L1.96542 1.07616H20.0346L11 8.33248ZM20.9761 1.63874C21.0238 1.75824 21.051 1.89041 21.051 2.02992V12.9701C21.051 13.1095 21.0238 13.2417 20.9761 13.3613L13.6784 7.49998L20.9761 1.63874Z" fill="#332F30"/>
<path d="M15.9117 12.2661C12.639 10.9614 9.32034 10.9614 6.04763 12.2661C5.84349 12.3475 5.71191 12.5291 5.71191 12.7295V15.7059C5.71191 18.7101 7.68954 21.4396 10.7501 22.6597C10.8232 22.6889 10.9014 22.7034 10.9797 22.7034C11.0579 22.7034 11.1362 22.6889 11.2092 22.6597C14.2698 21.4396 16.2474 18.7101 16.2474 15.7059V12.7295C16.2475 12.5291 16.1159 12.3474 15.9117 12.2661ZM15.1168 15.7059C15.1168 18.2337 13.5012 20.5373 10.9797 21.6371C8.45827 20.5373 6.84263 18.2337 6.84263 15.7059V13.0641C9.58981 12.0524 12.3696 12.0524 15.1167 13.0641L15.1168 15.7059Z" fill="#E03854"/>
<path d="M9.71708 16.6828C9.49628 16.4848 9.13831 16.4848 8.91751 16.6828C8.69677 16.8808 8.69677 17.2019 8.91751 17.3999L10.0259 18.3941C10.1363 18.4931 10.281 18.5426 10.4256 18.5426C10.5703 18.5426 10.715 18.4931 10.8254 18.3941L13.0422 16.4058C13.263 16.2077 13.263 15.8866 13.0422 15.6886C12.8214 15.4905 12.4634 15.4905 12.2426 15.6886L10.4256 17.3183L9.71708 16.6828Z" fill="#E03854"/>
</svg>