<svg xmlns="http://www.w3.org/2000/svg" width="17" height="21" viewBox="0 0 17 21" fill="none">
<path d="M0.10012 9.13721C0.0910592 4.86446 2.85844 1.44082 6.78689 0.5943C11.3353 -0.385545 15.9446 2.70285 16.7562 7.25906C17.1588 9.52035 16.6954 11.6224 15.6327 13.6145C14.4289 15.8706 12.6944 17.6698 10.692 19.2256C10.1471 19.6489 9.56851 20.0281 9.00028 20.4203C8.67927 20.6417 8.34403 20.6417 8.01655 20.4294C5.45109 18.7687 3.23381 16.752 1.6482 14.1076C0.682591 12.4974 0.114358 10.7604 0.10012 9.13721ZM15.2586 8.84597C15.2029 8.39553 15.1796 7.93861 15.0865 7.49594C14.3267 3.88462 10.9975 1.61427 7.34347 2.20322C4.26285 2.69896 1.84494 5.48965 1.78152 8.6091C1.75175 10.0976 2.13489 11.4826 2.83514 12.7809C4.1593 15.2337 6.13581 17.0782 8.38803 18.6561C8.4424 18.6936 8.57443 18.6871 8.63138 18.647C10.6467 17.2336 12.4356 15.5897 13.7571 13.4889C14.6477 12.0729 15.2042 10.5455 15.2573 8.84597H15.2586Z" fill="#E03854"/>
<path d="M4.30078 8.80457C4.30725 6.48763 6.20481 4.61078 8.53211 4.62114C10.8361 4.63149 12.7091 6.52646 12.7039 8.83823C12.6974 11.1539 10.7973 13.0333 8.47257 13.0217C6.16987 13.01 4.2956 11.1163 4.30208 8.80328L4.30078 8.80457ZM8.52175 11.3416C9.90545 11.3325 11.0303 10.1896 11.0225 8.80198C11.0134 7.41829 9.8705 6.29348 8.48292 6.30254C7.09923 6.3116 5.97441 7.45324 5.98218 8.84211C5.98995 10.2245 7.13547 11.3519 8.52175 11.3429V11.3416Z" fill="#E03854"/>
</svg>