<svg width="18" height="22" viewBox="0 0 18 22" fill="none" xmlns="http://www.w3.org/2000/svg">
<path d="M8.39961 7.70823C7.84732 7.70823 7.39961 8.15595 7.39961 8.70823C7.39961 9.26052 7.84732 9.70823 8.39961 9.70823V7.70823ZM9.59961 9.70823C10.1519 9.70823 10.5996 9.26052 10.5996 8.70823C10.5996 8.15595 10.1519 7.70823 9.59961 7.70823V9.70823ZM8.39961 8.95823C7.84732 8.95823 7.39961 9.40595 7.39961 9.95823C7.39961 10.5105 7.84732 10.9582 8.39961 10.9582V8.95823ZM9.59961 10.9582C10.1519 10.9582 10.5996 10.5105 10.5996 9.95823C10.5996 9.40595 10.1519 8.95823 9.59961 8.95823V10.9582ZM16 9C16 9.90329 15.6861 11.057 15.1179 12.3318C14.5567 13.5909 13.7807 14.8946 12.9365 16.0753C12.0912 17.2576 11.1976 18.2886 10.415 19.0119C10.0225 19.3747 9.67809 19.6413 9.39878 19.8109C9.09216 19.9972 8.97235 20 9 20V22C9.52765 22 10.0328 21.7659 10.4372 21.5203C10.8688 21.258 11.3213 20.8977 11.7725 20.4807C12.6774 19.6444 13.6588 18.5038 14.5635 17.2385C15.4693 15.9714 16.3183 14.5512 16.9446 13.1461C17.5639 11.7567 18 10.3059 18 9H16ZM9 20C9.02765 20 8.90784 19.9972 8.60122 19.8109C8.32191 19.6413 7.97753 19.3747 7.58499 19.0119C6.80238 18.2886 5.90881 17.2576 5.06348 16.0753C4.21934 14.8946 3.44332 13.5909 2.88213 12.3318C2.31391 11.057 2 9.90329 2 9H0C0 10.3059 0.436092 11.7567 1.05537 13.1461C1.68168 14.5512 2.53066 15.9714 3.43652 17.2385C4.34119 18.5038 5.32262 19.6444 6.22751 20.4807C6.67872 20.8977 7.13122 21.258 7.56284 21.5203C7.96716 21.7659 8.47235 22 9 22V20ZM2 9C2 5.13401 5.13401 2 9 2V0C4.02944 0 0 4.02944 0 9H2ZM9 2C12.866 2 16 5.13401 16 9H18C18 4.02944 13.9706 0 9 0V2ZM9.6 9.33333C9.6 9.74039 9.29329 10 9 10V12C10.474 12 11.6 10.7672 11.6 9.33333H9.6ZM9 10C8.70671 10 8.4 9.74039 8.4 9.33333H6.4C6.4 10.7672 7.52598 12 9 12V10ZM8.4 9.33333C8.4 8.92628 8.70671 8.66667 9 8.66667V6.66667C7.52598 6.66667 6.4 7.89944 6.4 9.33333H8.4ZM9 8.66667C9.29329 8.66667 9.6 8.92628 9.6 9.33333H11.6C11.6 7.89944 10.474 6.66667 9 6.66667V8.66667ZM8.39961 9.70823H9.59961V7.70823H8.39961V9.70823ZM8.39961 10.9582H9.59961V8.95823H8.39961V10.9582Z" fill="#332F30"/>
</svg>
