<svg width="23" height="21" viewBox="0 0 23 21" fill="none" xmlns="http://www.w3.org/2000/svg">
<g id="Group 34858">
<g id="Group">
<path id="Vector" d="M15.6808 10.4938C12.8094 9.21757 9.8976 9.21757 7.02618 10.4938C6.84707 10.5734 6.73163 10.751 6.73163 10.9471V13.8586C6.73163 16.7971 8.46676 19.4671 11.152 20.6605C11.2162 20.689 11.2848 20.7033 11.3535 20.7033C11.4221 20.7033 11.4908 20.689 11.5549 20.6605C14.2402 19.4671 15.9753 16.7971 15.9753 13.8586V10.9471C15.9754 10.751 15.8599 10.5734 15.6808 10.4938ZM14.9833 13.8586C14.9833 16.3312 13.5658 18.5844 11.3535 19.6602C9.14124 18.5844 7.7237 16.3312 7.7237 13.8586V11.2744C10.134 10.2848 12.5729 10.2848 14.9833 11.2744L14.9833 13.8586Z" fill="#E03854"/>
<path id="Vector_2" d="M10.2456 14.8141C10.0519 14.6204 9.73779 14.6204 9.54406 14.8141C9.35038 15.0078 9.35038 15.3219 9.54406 15.5156L10.5165 16.488C10.6134 16.5849 10.7403 16.6333 10.8673 16.6333C10.9942 16.6333 11.1211 16.5849 11.218 16.488L13.163 14.5431C13.3567 14.3494 13.3567 14.0353 13.163 13.8416C12.9692 13.6478 12.6552 13.6479 12.4615 13.8416L10.8673 15.4358L10.2456 14.8141Z" fill="#E03854"/>
</g>
<path id="Vector_3" d="M21.1284 0H1.8716C0.839556 0 0 0.83528 0 1.86197V11.897C0 12.9236 0.839601 13.7589 1.8716 13.7589H6.87746V13.2654C6.87746 13.0703 6.99292 12.8936 7.17206 12.8143C7.20516 12.7997 7.23831 12.7861 7.27142 12.7718H2.05476L9.55813 7.48427L11.2132 8.6506C11.2992 8.71113 11.3996 8.74137 11.5 8.74137C11.6004 8.74137 11.7009 8.71108 11.7868 8.6506L13.4419 7.48427L20.9452 12.7718H15.7286C15.7617 12.7861 15.7948 12.7997 15.8279 12.8143C16.0071 12.8936 16.1225 13.0703 16.1225 13.2654V13.7589H21.1284C22.1604 13.7589 23 12.9236 23 11.897V1.86197C23 0.83528 22.1604 0 21.1284 0ZM1.07043 12.2558C1.02059 12.1461 0.992178 12.0249 0.992178 11.897V1.86197C0.992178 1.73405 1.02059 1.61281 1.07043 1.50315L8.69977 6.87944L1.07043 12.2558ZM11.5 7.64307L2.05476 0.987117H20.9453L11.5 7.64307ZM21.9296 1.50315C21.9794 1.61277 22.0078 1.73401 22.0078 1.86197V11.897C22.0078 12.0249 21.9794 12.1461 21.9296 12.2558L14.3002 6.87944L21.9296 1.50315Z" fill="#332F30"/>
</g>
</svg>
