<svg xmlns="http://www.w3.org/2000/svg" width="66" height="66" viewBox="0 0 66 66" fill="none">
  <circle cx="33" cy="33" r="33" fill="#E03854"/>
  <path fill-rule="evenodd" clip-rule="evenodd" d="M16.1957 16.7555C16.1957 16.2399 16.6137 15.8219 17.1293 15.8219H48.8714C49.387 15.8219 49.805 16.2399 49.805 16.7555V28.7055C49.805 29.2211 49.387 29.6391 48.8714 29.6391H44.8845L40.8373 32.6304C40.5539 32.8399 40.1766 32.872 39.8619 32.7132C39.5472 32.5545 39.3488 32.2321 39.3488 31.8797V29.6391H27.0254V31.8797C27.0254 32.2225 26.8375 32.5377 26.536 32.7008C26.2344 32.8639 25.8678 32.8487 25.5809 32.6611L20.959 29.6391H17.1293C16.6137 29.6391 16.1957 29.2211 16.1957 28.7055V16.7555ZM34.3074 27.7719H40.2824C40.798 27.7719 41.216 28.1899 41.216 28.7055V30.0287L44.022 27.9547C44.1826 27.8359 44.3771 27.7719 44.5769 27.7719H47.9378V17.6891H34.3074V20.8633C34.3074 21.3789 33.8894 21.7969 33.3738 21.7969H31.4132C30.7429 21.7969 30.1996 22.3403 30.1996 23.0106C30.1996 23.6808 30.7429 24.2242 31.4132 24.2242H33.3738C33.8894 24.2242 34.3074 24.6422 34.3074 25.1578V27.7719ZM32.4402 17.6891H18.0629V27.7719H21.2371C21.4186 27.7719 21.5961 27.8248 21.748 27.9241L25.1582 30.1538V28.7055C25.1582 28.1899 25.5762 27.7719 26.0918 27.7719H32.4402V26.0914H31.4132C29.7117 26.0914 28.3324 24.7121 28.3324 23.0106C28.3324 21.309 29.7117 19.9297 31.4132 19.9297H32.4402V17.6891ZM22.4508 35.0539C21.2039 35.0539 20.0082 35.5492 19.1266 36.4308L18.825 36.7323C18.0979 37.4594 17.6894 38.4456 17.6894 39.4739V39.7573C17.6894 40.4812 17.9432 41.1821 18.4067 41.7382C19.1497 42.6299 19.5566 43.7538 19.5566 44.9145V48.3109H24.0379V45.6968C24.0379 45.1812 24.4559 44.7632 24.9715 44.7632H26.6519V44.3388C26.6519 43.4388 27.3069 42.697 28.1591 42.5493L28.0671 42.4573C27.5197 41.9099 27.2121 41.1673 27.2121 40.3931V39.3484C27.2121 38.4005 26.8355 37.4914 26.1652 36.8211L25.775 36.4308C24.8933 35.5492 23.6976 35.0539 22.4508 35.0539ZM17.8063 35.1105C19.0381 33.8787 20.7087 33.1867 22.4508 33.1867C24.1928 33.1867 25.8635 33.8787 27.0953 35.1105L27.4855 35.5008C28.506 36.5212 29.0793 37.9053 29.0793 39.3484V40.3931C29.0793 40.6721 29.1901 40.9397 29.3874 41.137L29.6941 41.4437C30.0177 41.7674 30.1996 42.2063 30.1996 42.664C30.1996 43.6051 29.4462 44.3637 28.5191 44.3891V44.9074C28.5191 45.859 27.7477 46.6304 26.7961 46.6304H25.9051V49.2445C25.9051 49.7601 25.4871 50.1781 24.9715 50.1781H18.623C18.1074 50.1781 17.6894 49.7601 17.6894 49.2445V44.9145C17.6894 44.1906 17.4357 43.4897 16.9722 42.9336C16.2292 42.0419 15.8223 40.918 15.8223 39.7573V39.4739C15.8223 37.9504 16.4275 36.4893 17.5047 35.4121L17.8063 35.1105ZM38.9054 35.1105C40.1372 33.8787 41.8079 33.1867 43.5499 33.1867C45.292 33.1867 46.9626 33.8787 48.1944 35.1105L48.496 35.4121C49.5732 36.4893 50.1784 37.9504 50.1784 39.4739V39.7573C50.1784 40.918 49.7715 42.0419 49.0285 42.9336C48.565 43.4897 48.3112 44.1906 48.3112 44.9145V49.2445C48.3112 49.7601 47.8933 50.1781 47.3777 50.1781H41.0292C40.5136 50.1781 40.0956 49.7601 40.0956 49.2445V46.6304H39.2046C38.253 46.6304 37.4816 45.859 37.4816 44.9074V44.3891C36.5545 44.3637 35.8011 43.6051 35.8011 42.664C35.8011 42.2063 35.9829 41.7674 36.3066 41.4437L36.9667 42.1039L37.5269 42.664M43.5499 35.0539C42.3031 35.0539 41.1074 35.5492 40.2257 36.4308L39.8355 36.8211C39.1652 37.4914 38.7886 38.4005 38.7886 39.3484V40.3931C38.7886 41.1673 38.481 41.9099 37.9336 42.4573L37.8416 42.5493C38.6938 42.697 39.3488 43.4388 39.3488 44.3388V44.7632H41.0292C41.5448 44.7632 41.9628 45.1812 41.9628 45.6968V48.3109H46.4441V44.9145C46.4441 43.7538 46.851 42.6299 47.594 41.7382C48.0575 41.1821 48.3112 40.4811 48.3112 39.7573V39.4739C48.3112 38.4456 47.9028 37.4594 47.1757 36.7323L46.8741 36.4308C45.9925 35.5492 44.7967 35.0539 43.5499 35.0539ZM38.9054 35.1105L38.5152 35.5008L38.9054 35.1105ZM38.5152 35.5008C37.4947 36.5212 36.9214 37.9053 36.9214 39.3484L38.5152 35.5008ZM36.9214 39.3484V40.3931V39.3484ZM36.9214 40.3931C36.9214 40.6721 36.8106 40.9397 36.6133 41.137L36.9214 40.3931ZM36.6133 41.137L36.3066 41.4437L36.6133 41.137ZM36.9667 42.1039L36.3066 41.4437L36.9667 42.1039Z" fill="white"/>
</svg>