<svg xmlns="http://www.w3.org/2000/svg" width="9" height="18" viewBox="0 0 9 18" fill="none">
  <path d="M7.89919 6.4261L2.14023 0.853071C1.90515 0.626931 1.58715 0.5 1.25568 0.5C0.924211 0.5 0.606211 0.626931 0.371131 0.853071C0.253532 0.965944 0.160192 1.10023 0.0964937 1.24819C0.0327954 1.39615 0 1.55485 0 1.71513C0 1.87541 0.0327954 2.03411 0.0964937 2.18207C0.160192 2.33003 0.253532 2.46432 0.371131 2.57719L6.14265 8.13808C6.26025 8.25095 6.35359 8.38524 6.41728 8.5332C6.48098 8.68116 6.51378 8.83985 6.51378 9.00014C6.51378 9.16042 6.48098 9.31912 6.41728 9.46708C6.35359 9.61504 6.26025 9.74933 6.14265 9.8622L0.371131 15.4231C0.134871 15.6501 0.00148041 15.9587 0.000303925 16.2809C-0.000872564 16.6031 0.130262 16.9125 0.364859 17.1411C0.599456 17.3698 0.918297 17.4989 1.25124 17.5C1.58419 17.5011 1.90397 17.3742 2.14023 17.1472L7.89919 11.5742C8.60407 10.8912 9 9.96541 9 9.00014C9 8.03487 8.60407 7.10907 7.89919 6.4261Z" fill="#E03854"/>
</svg>