<svg xmlns="http://www.w3.org/2000/svg" width="13" height="7" viewBox="0 0 13 7" fill="none">
  <path d="M4.53173 6.14382L0.269995 1.66462C0.0970649 1.48178 0 1.23445 0 0.976639C0 0.718831 0.0970649 0.471497 0.269995 0.288658C0.35631 0.197192 0.459001 0.124594 0.572145 0.0750506C0.685289 0.0255075 0.806647 0 0.929217 0C1.05179 0 1.17315 0.0255075 1.28629 0.0750506C1.39943 0.124594 1.50212 0.197192 1.58844 0.288658L5.84088 4.77761C5.9272 4.86908 6.02989 4.94168 6.14303 4.99122C6.25618 5.04076 6.37754 5.06627 6.50011 5.06627C6.62268 5.06627 6.74403 5.04076 6.85718 4.99122C6.97032 4.94168 7.07301 4.86908 7.15933 4.77761L11.4118 0.288658C11.5854 0.1049 11.8213 0.00115143 12.0677 0.000236386C12.3141 -0.000678661 12.5507 0.101315 12.7256 0.283779C12.9004 0.466243 12.9991 0.714231 13 0.973189C13.0009 1.23215 12.9038 1.48086 12.7302 1.66462L8.46849 6.14382C7.94622 6.69206 7.23825 7 6.50011 7C5.76196 7 5.054 6.69206 4.53173 6.14382Z" fill="#A7A7A7"/>
</svg>