<svg width="50" height="50" viewBox="0 0 50 50" fill="none" xmlns="http://www.w3.org/2000/svg">
<rect width="50" height="50" rx="25" fill="#FFD9DF"/>
<path d="M13 23.0533C12.9871 16.9493 16.9405 12.0584 22.5526 10.8491C29.0503 9.44933 35.635 13.8613 36.7944 20.3702C37.3695 23.6006 36.7075 26.6036 35.1894 29.4493C33.4697 32.6724 30.9919 35.2426 28.1313 37.4653C27.3529 38.0699 26.5263 38.6117 25.7145 39.172C25.256 39.4882 24.777 39.4882 24.3092 39.1849C20.6443 36.8125 17.4767 33.9316 15.2116 30.1539C13.8321 27.8536 13.0204 25.3721 13 23.0533ZM34.655 22.6372C34.5755 21.9937 34.5422 21.341 34.4091 20.7086C33.3236 15.5496 28.5677 12.3062 23.3477 13.1476C18.9468 13.8558 15.4926 17.8425 15.402 22.2988C15.3595 24.4253 15.9068 26.4039 16.9072 28.2585C18.7989 31.7626 21.6225 34.3976 24.8399 36.6516C24.9176 36.7053 25.1062 36.696 25.1875 36.6387C28.0666 34.6195 30.6221 32.2711 32.51 29.27C33.7822 27.2471 34.5773 25.0651 34.6532 22.6372H34.655Z" fill="#E03854"/>
<path d="M19.0004 22.578C19.0097 19.268 21.7205 16.5868 25.0452 16.6016C28.3366 16.6164 31.0123 19.3235 31.0049 22.626C30.9956 25.9341 28.2811 28.619 24.9601 28.6024C21.6705 28.5857 18.993 25.8805 19.0023 22.5761L19.0004 22.578ZM25.0304 26.2022C27.0071 26.1893 28.614 24.5565 28.6029 22.5743C28.5899 20.5976 26.9572 18.9907 24.9749 19.0036C22.9982 19.0166 21.3913 20.6475 21.4024 22.6316C21.4135 24.6064 23.05 26.217 25.0304 26.2041V26.2022Z" fill="#E03854"/>
</svg>
