<svg xmlns="http://www.w3.org/2000/svg" width="66" height="66" viewBox="0 0 66 66" fill="none">
  <circle cx="33" cy="33" r="33" fill="#E03854"/>
  <path fill-rule="evenodd" clip-rule="evenodd" d="M25.9098 18.0126C25.6232 18.0126 25.3909 18.2461 25.3909 18.5342V26.7227C25.722 26.5273 26.0698 26.3667 26.4286 26.242V20.7945C26.4286 20.758 26.4294 20.7217 26.431 20.6856C26.4294 20.6641 26.4286 20.6425 26.4286 20.6206V18.5342C26.4286 18.2461 26.1963 18.0126 25.9098 18.0126ZM28.1569 18.4615C28.1187 17.2468 27.1272 16.2739 25.9098 16.2739C24.6681 16.2739 23.6615 17.2859 23.6615 18.5342V19.1355C23.4685 19.0835 23.2656 19.0558 23.0562 19.0558C21.7668 19.0558 20.7215 20.1067 20.7215 21.403V27.0393L20.3803 26.2847C19.8528 25.1179 18.506 24.5742 17.3224 25.0502C16.206 25.4991 15.5964 26.713 15.8999 27.8826L16.9938 32.0984C17.4494 33.8542 18.2881 35.4861 19.449 36.8755C19.9211 37.4406 20.4674 37.9267 21.0674 38.3243V49.3087C21.0674 49.7888 21.4545 50.178 21.9321 50.178C22.4097 50.178 22.7968 49.7888 22.7968 49.3087V39.1738C23.5642 39.4348 24.3768 39.5721 25.2051 39.5721H27.8704L30.0603 41.8082V49.3087C30.0603 49.7888 30.4475 50.178 30.9251 50.178C31.4026 50.178 31.7898 49.7888 31.7898 49.3087V43.5741L32.3842 44.181C32.5467 44.347 32.7687 44.4404 33.0003 44.4404C33.232 44.4404 33.454 44.347 33.6165 44.181L34.2109 43.5741V49.3087C34.2109 49.7888 34.5981 50.178 35.0756 50.178C35.5532 50.178 35.9403 49.7888 35.9403 49.3087V41.8082L38.1303 39.5721H40.7956C41.6239 39.5721 42.4365 39.4348 43.2039 39.1738V49.3087C43.2039 49.7888 43.591 50.178 44.0686 50.178C44.5462 50.178 44.9333 49.7888 44.9333 49.3087V38.3243C45.5333 37.9267 46.0796 37.4405 46.5517 36.8755C47.7126 35.4861 48.5513 33.8542 49.0069 32.0984L50.1008 27.8826C50.4043 26.713 49.7947 25.4991 48.6783 25.0502C47.4947 24.5742 46.1479 25.1179 45.6204 26.2847L45.2792 27.0393V21.403C45.2792 20.1067 44.2339 19.0558 42.9445 19.0558C42.7351 19.0558 42.5322 19.0835 42.3392 19.1355V18.5342C42.3392 17.2859 41.3326 16.2739 40.0909 16.2739C38.8735 16.2739 37.882 17.2468 37.8438 18.4615C37.6243 18.3957 37.3917 18.3603 37.1509 18.3603C35.9732 18.3603 34.9918 19.2058 34.7746 20.326C34.6211 20.2912 34.4614 20.2729 34.2974 20.2729C33.8107 20.2729 33.3617 20.4345 33.0003 20.7074C32.639 20.4345 32.1899 20.2729 31.7033 20.2729C31.5393 20.2729 31.3796 20.2912 31.2261 20.326C31.0089 19.2058 30.0275 18.3603 28.8498 18.3603C28.609 18.3603 28.3764 18.3957 28.1569 18.4615ZM29.5422 22.3929C29.5417 22.3818 29.5415 22.3706 29.5415 22.3593V20.7945C29.5415 20.4104 29.2318 20.099 28.8498 20.099C28.4677 20.099 28.158 20.4104 28.158 20.7945V25.9232C28.6199 25.9093 29.0846 25.9507 29.5415 26.0488V22.4462C29.5415 22.4284 29.5417 22.4106 29.5422 22.3929ZM31.2709 26.7289C31.4903 26.8595 31.7038 27.0064 31.9099 27.1696L32.1356 27.3484V22.4462C32.1356 22.2062 31.9421 22.0115 31.7033 22.0115C31.4645 22.0115 31.2709 22.2062 31.2709 22.4462V26.7289ZM33.8651 27.3484V22.4462C33.8651 22.2062 34.0586 22.0115 34.2974 22.0115C34.5362 22.0115 34.7298 22.2062 34.7298 22.4462V26.7288C34.5104 26.8595 34.2969 27.0063 34.0908 27.1695L33.8651 27.3484ZM36.4592 26.0488C36.9161 25.9506 37.3808 25.9092 37.8427 25.9231V20.7945C37.8427 20.4104 37.533 20.099 37.1509 20.099C36.7689 20.099 36.4592 20.4104 36.4592 20.7945V22.3593C36.4592 22.3706 36.459 22.3818 36.4585 22.3929C36.459 22.4106 36.4592 22.4284 36.4592 22.4462V26.0488ZM39.5721 26.2419C39.9309 26.3667 40.2787 26.5272 40.6098 26.7227V18.5342C40.6098 18.2461 40.3775 18.0126 40.0909 18.0126C39.8044 18.0126 39.5721 18.2461 39.5721 18.5342V20.6206C39.5721 20.6425 39.5713 20.6641 39.5697 20.6856C39.5713 20.7217 39.5721 20.758 39.5721 20.7945V26.2419ZM42.3392 28.2945C42.362 28.3257 42.3846 28.3573 42.407 28.3892C42.7945 28.9422 43.0741 29.5431 43.248 30.1648C43.3528 30.1467 43.4541 30.1158 43.5498 30.0732V21.403C43.5498 21.0669 43.2788 20.7945 42.9445 20.7945C42.6102 20.7945 42.3392 21.0669 42.3392 21.403V28.2945ZM43.4618 31.8909C43.4249 33.3254 42.8624 34.7403 41.7995 35.8256L39.8331 37.8335H40.7956C41.781 37.8335 42.7374 37.581 43.5815 37.115C43.6216 37.0876 43.664 37.0634 43.7084 37.0429C44.2783 36.7093 44.7935 36.2766 45.2275 35.7572C46.2233 34.5654 46.9427 33.1656 47.3335 31.6595L48.4274 27.4438C48.5109 27.122 48.3432 26.788 48.0361 26.6645C47.7104 26.5336 47.3399 26.6831 47.1948 27.0041L45.7742 30.1461C45.3454 31.0944 44.468 31.745 43.4618 31.8909ZM26.1676 37.8335L24.2012 35.8256C23.1383 34.7404 22.5757 33.3255 22.5389 31.8909C21.5327 31.745 20.6552 31.0944 20.2265 30.1461L18.8059 27.0041C18.6608 26.6831 18.2903 26.5336 17.9646 26.6645C17.6575 26.788 17.4898 27.122 17.5733 27.4438L18.6672 31.6595C19.058 33.1656 19.7774 34.5654 20.7732 35.7572C21.2071 36.2765 21.7224 36.7093 22.2923 37.0429C22.3367 37.0634 22.3791 37.0876 22.4191 37.115C23.2632 37.581 24.2196 37.8335 25.2051 37.8335H26.1676ZM22.7528 30.1648C22.9267 29.5431 23.2062 28.9422 23.5937 28.3893C23.6161 28.3574 23.6387 28.3258 23.6615 28.2945V21.403C23.6615 21.0669 23.3905 20.7945 23.0562 20.7945C22.7219 20.7945 22.4509 21.0669 22.4509 21.403V30.0732C22.5466 30.1158 22.6479 30.1467 22.7528 30.1648ZM35.1611 28.5352C35.1611 28.5353 35.1611 28.5352 35.1611 28.5352L33.5355 29.8229C33.2216 30.0716 32.7791 30.0716 32.4652 29.823L30.8396 28.5353C29.0111 27.087 26.3482 27.4775 25.0075 29.3907C23.8769 31.004 24.0562 33.1995 25.4335 34.6058L33.0003 42.332L40.5672 34.6057C41.9445 33.1994 42.1238 31.0039 40.9932 29.3906C39.6525 27.4775 36.9896 27.0869 35.1611 28.5352Z" fill="white"/>
</svg>