<svg xmlns="http://www.w3.org/2000/svg" width="53" height="53" viewBox="0 0 53 53" fill="none">
  <g clip-path="url(#clip0_1818_870)">
    <path d="M32.6025 51.8504H30.325V38.0601H22.6723V51.8505H20.3949V36.9214C20.3949 36.2925 20.9047 35.7827 21.5336 35.7827H31.4638C32.0926 35.7827 32.6025 36.2925 32.6025 36.9214V51.8504Z" fill="#E03854"/>
    <path d="M30.0878 10.2318H27.3214V7.46537C27.3214 6.83649 26.8115 6.32666 26.1826 6.32666C25.5538 6.32666 25.0439 6.83649 25.0439 7.46537V10.2318H22.2775C21.6486 10.2318 21.1388 10.7416 21.1388 11.3705C21.1388 11.9994 21.6486 12.5092 22.2775 12.5092H25.0439V15.2757C25.0439 15.9045 25.5538 16.4144 26.1826 16.4144C26.8115 16.4144 27.3214 15.9045 27.3214 15.2757V12.5092H30.0878C30.7167 12.5092 31.2265 11.9994 31.2265 11.3705C31.2265 10.7416 30.7168 10.2318 30.0878 10.2318Z" fill="#E03854"/>
    <path d="M13.5854 41.6904H1.13708V43.9678H13.5854V41.6904Z" fill="#E03854"/>
    <path d="M51.833 41.6904H39.3846V43.9678H51.833V41.6904Z" fill="#E03854"/>
    <path d="M52.6667 15.1348C52.453 14.9213 52.1635 14.8012 51.8614 14.8012H40.4943V1.14945C40.4943 0.520573 39.9845 0.0107422 39.3556 0.0107422H13.5855C12.9566 0.0107422 12.4468 0.520573 12.4468 1.14945V14.8012H1.13871C0.50983 14.8012 0 15.311 0 15.9399V51.8503C0 52.4792 0.50983 52.989 1.13871 52.989H51.8516C52.4803 52.989 52.9901 52.4794 52.9903 51.8506L53.0001 15.9402C53.0001 15.6382 52.8801 15.3485 52.6667 15.1348ZM38.2169 2.28816V50.7116H14.7242V2.28816H38.2169ZM2.27741 17.0786H12.4468V50.7116H2.27741V17.0786ZM50.7132 50.7116H40.4943V17.0786H50.7224L50.7132 50.7116Z" fill="#332F30"/>
    <path d="M22.9125 31.9069C22.2836 31.9069 21.7738 31.397 21.7738 30.7682V28.9995C21.7738 28.3707 22.2836 27.8608 22.9125 27.8608C23.5414 27.8608 24.0512 28.3707 24.0512 28.9995V30.7682C24.0512 31.397 23.5415 31.9069 22.9125 31.9069Z" fill="#332F30"/>
    <path d="M30.0837 31.9069C29.4548 31.9069 28.9449 31.397 28.9449 30.7682V28.9995C28.9449 28.3707 29.4548 27.8608 30.0837 27.8608C30.7125 27.8608 31.2224 28.3707 31.2224 28.9995V30.7682C31.2224 31.397 30.7126 31.9069 30.0837 31.9069Z" fill="#332F30"/>
    <path d="M30.0837 24.4162C29.4548 24.4162 28.9449 23.9063 28.9449 23.2774V21.5088C28.9449 20.8799 29.4548 20.3701 30.0837 20.3701C30.7125 20.3701 31.2224 20.8799 31.2224 21.5088V23.2774C31.2224 23.9064 30.7126 24.4162 30.0837 24.4162Z" fill="#332F30"/>
    <path d="M22.9125 24.4162C22.2836 24.4162 21.7738 23.9063 21.7738 23.2774V21.5088C21.7738 20.8799 22.2836 20.3701 22.9125 20.3701C23.5414 20.3701 24.0512 20.8799 24.0512 21.5088V23.2774C24.0512 23.9064 23.5415 24.4162 22.9125 24.4162Z" fill="#332F30"/>
    <path d="M7.2113 23.6236C6.58245 23.6236 6.07263 23.1138 6.07263 22.4849V22.4634C6.07263 21.8345 6.58245 21.3247 7.2113 21.3247C7.84016 21.3247 8.34998 21.8345 8.34998 22.4634V22.4849C8.34998 23.1139 7.84026 23.6236 7.2113 23.6236Z" fill="#332F30"/>
    <path d="M7.2113 30.4068C6.58245 30.4068 6.07263 29.897 6.07263 29.2681V29.2466C6.07263 28.6177 6.58245 28.1079 7.2113 28.1079C7.84016 28.1079 8.34998 28.6177 8.34998 29.2466V29.2681C8.34998 29.8971 7.84026 30.4068 7.2113 30.4068Z" fill="#332F30"/>
    <path d="M7.2113 37.2325C6.58245 37.2325 6.07263 36.7227 6.07263 36.0938V36.0723C6.07263 35.4434 6.58245 34.9336 7.2113 34.9336C7.84016 34.9336 8.34998 35.4434 8.34998 36.0723V36.0938C8.34998 36.7228 7.84026 37.2325 7.2113 37.2325Z" fill="#332F30"/>
    <path d="M45.4729 23.6236C43.9801 23.618 43.9802 21.3301 45.473 21.3247C46.9656 21.3303 46.9655 23.6182 45.4729 23.6236Z" fill="#332F30"/>
    <path d="M45.4735 30.4068C44.8447 30.4068 44.3348 29.897 44.3348 29.2681V29.2466C44.3348 28.6177 44.8447 28.1079 45.4735 28.1079C46.1024 28.1079 46.6122 28.6177 46.6122 29.2466V29.2681C46.6122 29.8971 46.1024 30.4068 45.4735 30.4068Z" fill="#332F30"/>
    <path d="M45.4735 37.2325C44.8447 37.2325 44.3348 36.7227 44.3348 36.0938V36.0723C44.3348 35.4434 44.8447 34.9336 45.4735 34.9336C46.1024 34.9336 46.6122 35.4434 46.6122 36.0723V36.0938C46.6122 36.7228 46.1024 37.2325 45.4735 37.2325Z" fill="#332F30"/>
  </g>
  <defs>
    <clipPath id="clip0_1818_870">
      <rect width="53" height="53" fill="white"/>
    </clipPath>
  </defs>
</svg>