<svg xmlns="http://www.w3.org/2000/svg" width="33" height="33" viewBox="0 0 33 33" fill="none">
  <g clip-path="url(#clip0_1822_596)">
    <path d="M20.2997 32.2843H18.8817V23.6979H14.1167V32.2844H12.6987V22.9889C12.6987 22.5973 13.0162 22.2799 13.4077 22.2799H19.5907C19.9822 22.2799 20.2997 22.5973 20.2997 22.9889V32.2843Z" fill="#E03854"/>
    <path d="M18.7341 6.3709H17.0116V4.6484C17.0116 4.25683 16.6942 3.93939 16.3026 3.93939C15.9111 3.93939 15.5936 4.25683 15.5936 4.6484V6.3709H13.8711C13.4796 6.3709 13.1621 6.68834 13.1621 7.0799C13.1621 7.47147 13.4796 7.78891 13.8711 7.78891H15.5936V9.51141C15.5936 9.90297 15.9111 10.2204 16.3026 10.2204C16.6942 10.2204 17.0116 9.90297 17.0116 9.51141V7.78891H18.7341C19.1257 7.78891 19.4431 7.47147 19.4431 7.0799C19.4431 6.68834 19.1258 6.3709 18.7341 6.3709Z" fill="#E03854"/>
    <path d="M8.45887 25.9584H0.708008V27.3764H8.45887V25.9584Z" fill="#E03854"/>
    <path d="M32.2733 25.9584H24.5225V27.3764H32.2733V25.9584Z" fill="#E03854"/>
    <path d="M32.7925 9.42367C32.6594 9.2907 32.4791 9.21593 32.2911 9.21593H25.2134V0.715782C25.2134 0.324216 24.896 0.0067749 24.5044 0.0067749H8.4589C8.06733 0.0067749 7.74989 0.324216 7.74989 0.715782V9.21593H0.709006C0.317442 9.21593 0 9.53337 0 9.92494V32.2842C0 32.6758 0.317442 32.9932 0.709006 32.9932H32.2849C32.6764 32.9932 32.9938 32.6759 32.9939 32.2844L33.0001 9.92513C33.0001 9.73705 32.9254 9.55671 32.7925 9.42367ZM23.7954 1.42479V31.5752H9.1679V1.42479H23.7954ZM1.41801 10.6339H7.74989V31.5752H1.41801V10.6339ZM31.5761 31.5752H25.2134V10.6339H31.5819L31.5761 31.5752Z" fill="#332F30"/>
    <path d="M14.2661 19.8666C13.8746 19.8666 13.5571 19.5491 13.5571 19.1576V18.0564C13.5571 17.6648 13.8746 17.3474 14.2661 17.3474C14.6577 17.3474 14.9751 17.6648 14.9751 18.0564V19.1576C14.9751 19.5491 14.6578 19.8666 14.2661 19.8666Z" fill="#332F30"/>
    <path d="M18.731 19.8666C18.3394 19.8666 18.022 19.5491 18.022 19.1576V18.0564C18.022 17.6648 18.3394 17.3474 18.731 17.3474C19.1225 17.3474 19.44 17.6648 19.44 18.0564V19.1576C19.44 19.5491 19.1226 19.8666 18.731 19.8666Z" fill="#332F30"/>
    <path d="M18.731 15.2026C18.3394 15.2026 18.022 14.8851 18.022 14.4936V13.3924C18.022 13.0008 18.3394 12.6833 18.731 12.6833C19.1225 12.6833 19.44 13.0008 19.44 13.3924V14.4936C19.44 14.8852 19.1226 15.2026 18.731 15.2026Z" fill="#332F30"/>
    <path d="M14.2661 15.2026C13.8746 15.2026 13.5571 14.8851 13.5571 14.4936V13.3924C13.5571 13.0008 13.8746 12.6833 14.2661 12.6833C14.6577 12.6833 14.9751 13.0008 14.9751 13.3924V14.4936C14.9751 14.8852 14.6578 15.2026 14.2661 15.2026Z" fill="#332F30"/>
    <path d="M4.49023 14.7093C4.09868 14.7093 3.78125 14.3918 3.78125 14.0003V13.9869C3.78125 13.5953 4.09868 13.2779 4.49023 13.2779C4.88179 13.2779 5.19922 13.5953 5.19922 13.9869V14.0003C5.19922 14.3919 4.88185 14.7093 4.49023 14.7093Z" fill="#332F30"/>
    <path d="M4.49023 18.9326C4.09868 18.9326 3.78125 18.6152 3.78125 18.2236V18.2102C3.78125 17.8187 4.09868 17.5012 4.49023 17.5012C4.88179 17.5012 5.19922 17.8187 5.19922 18.2102V18.2236C5.19922 18.6152 4.88185 18.9326 4.49023 18.9326Z" fill="#332F30"/>
    <path d="M4.49023 23.1827C4.09868 23.1827 3.78125 22.8652 3.78125 22.4737V22.4603C3.78125 22.0687 4.09868 21.7513 4.49023 21.7513C4.88179 21.7513 5.19922 22.0687 5.19922 22.4603V22.4737C5.19922 22.8653 4.88185 23.1827 4.49023 23.1827Z" fill="#332F30"/>
    <path d="M28.3133 14.7093C27.3838 14.7058 27.3839 13.2812 28.3134 13.2779C29.2427 13.2814 29.2426 14.7059 28.3133 14.7093Z" fill="#332F30"/>
    <path d="M28.3135 18.9326C27.9219 18.9326 27.6045 18.6152 27.6045 18.2236V18.2102C27.6045 17.8187 27.9219 17.5012 28.3135 17.5012C28.705 17.5012 29.0225 17.8187 29.0225 18.2102V18.2236C29.0225 18.6152 28.705 18.9326 28.3135 18.9326Z" fill="#332F30"/>
    <path d="M28.3135 23.1827C27.9219 23.1827 27.6045 22.8652 27.6045 22.4737V22.4603C27.6045 22.0687 27.9219 21.7513 28.3135 21.7513C28.705 21.7513 29.0225 22.0687 29.0225 22.4603V22.4737C29.0225 22.8653 28.705 23.1827 28.3135 23.1827Z" fill="#332F30"/>
  </g>
  <defs>
    <clipPath id="clip0_1822_596">
      <rect width="33" height="33" fill="white"/>
    </clipPath>
  </defs>
</svg>