<svg width="18" height="18" viewBox="0 0 18 18" fill="none" xmlns="http://www.w3.org/2000/svg">
<path d="M10 1C10 0.447715 9.55229 0 9 0C8.44772 5.96046e-08 8 0.447715 8 1L10 1ZM8 10.7778C8 11.3301 8.44772 11.7778 9 11.7778C9.55229 11.7778 10 11.3301 10 10.7778H8ZM13.2627 9.70711C13.6532 9.31658 13.6532 8.68342 13.2627 8.29289C12.8721 7.90237 12.239 7.90237 11.8484 8.29289L13.2627 9.70711ZM9.62854 11.927L8.92143 11.2199L9.62854 11.927ZM8.37146 11.927L9.07857 11.2199H9.07857L8.37146 11.927ZM6.15155 8.29289C5.76103 7.90237 5.12786 7.90237 4.73734 8.29289C4.34681 8.68342 4.34681 9.31658 4.73734 9.70711L6.15155 8.29289ZM2 12.5556C2 12.0033 1.55228 11.5556 1 11.5556C0.447715 11.5556 0 12.0033 0 12.5556H2ZM18 12.5556C18 12.0033 17.5523 11.5556 17 11.5556C16.4477 11.5556 16 12.0033 16 12.5556H18ZM15.544 16.7094L15.09 15.8183H15.09L15.544 16.7094ZM16.7094 15.544L17.6004 15.998L16.7094 15.544ZM1.29065 15.544L0.399643 15.998L1.29065 15.544ZM2.45603 16.7094L2.00203 17.6004H2.00204L2.45603 16.7094ZM8 1L8 10.7778H10L10 1L8 1ZM11.8484 8.29289L8.92143 11.2199L10.3356 12.6341L13.2627 9.70711L11.8484 8.29289ZM9.07857 11.2199L6.15155 8.29289L4.73734 9.70711L7.66435 12.6341L9.07857 11.2199ZM8.92143 11.2199C8.96482 11.1765 9.03518 11.1765 9.07857 11.2199L7.66435 12.6341C8.40201 13.3718 9.59799 13.3718 10.3356 12.6341L8.92143 11.2199ZM0 12.5556V12.7333H2V12.5556H0ZM5.26667 18H12.7333V16H5.26667V18ZM18 12.7333V12.5556H16V12.7333H18ZM12.7333 18C13.4636 18 14.0714 18.0008 14.5662 17.9603C15.0727 17.919 15.5483 17.8295 15.998 17.6004L15.09 15.8183C14.9692 15.8799 14.7862 15.9357 14.4034 15.967C14.0089 15.9992 13.4966 16 12.7333 16V18ZM16 12.7333C16 13.4966 15.9992 14.0089 15.967 14.4034C15.9357 14.7862 15.8799 14.9692 15.8183 15.09L17.6004 15.998C17.8295 15.5483 17.919 15.0727 17.9603 14.5662C18.0008 14.0714 18 13.4636 18 12.7333H16ZM15.998 17.6004C16.6879 17.2488 17.2488 16.6879 17.6004 15.998L15.8183 15.09C15.6586 15.4036 15.4036 15.6586 15.09 15.8183L15.998 17.6004ZM0 12.7333C0 13.4636 -0.000777721 14.0714 0.0396522 14.5662C0.081036 15.0727 0.170518 15.5483 0.399643 15.998L2.18166 15.09C2.12013 14.9692 2.06429 14.7862 2.03301 14.4034C2.00078 14.0089 2 13.4966 2 12.7333H0ZM5.26667 16C4.50343 16 3.99114 15.9992 3.59664 15.967C3.21381 15.9357 3.03076 15.8799 2.91002 15.8183L2.00204 17.6004C2.45172 17.8295 2.92726 17.919 3.43377 17.9603C3.92861 18.0008 4.53643 18 5.26667 18V16ZM0.399643 15.998C0.751179 16.6879 1.31211 17.2488 2.00203 17.6004L2.91002 15.8183C2.59641 15.6586 2.34144 15.4036 2.18166 15.09L0.399643 15.998Z" fill="#E03854"/>
</svg>
