<svg width="131" height="110" viewBox="0 0 131 110" fill="none" xmlns="http://www.w3.org/2000/svg">
<path fill-rule="evenodd" clip-rule="evenodd" d="M24.7796 5.11342e-06H106.22C109.359 -0.000101193 112.067 -0.000193322 114.298 0.181748C116.652 0.37378 118.993 0.797758 121.246 1.94393C124.608 3.65386 127.34 6.3823 129.053 9.7382C130.201 11.9877 130.626 14.3254 130.818 16.6758C131 18.9026 131 21.6061 131 24.74V70.3811C131 73.515 131 76.2186 130.818 78.4454C130.626 80.7957 130.201 83.1335 129.053 85.3829C127.34 88.7388 124.608 91.4673 121.246 93.1772C118.993 94.3234 116.652 94.7474 114.298 94.9394C112.067 95.1213 109.359 95.1213 106.22 95.1211H59.9424C57.3595 95.1211 56.8536 95.1466 56.4182 95.2316C55.9161 95.3296 55.4287 95.4918 54.9682 95.7142C54.5688 95.907 54.1488 96.1897 52.0824 97.737L38.1091 108.2C32.2209 112.609 23.8182 108.415 23.8182 101.066V95.121C21.0849 95.1193 18.7017 95.1025 16.7023 94.9394C14.3482 94.7474 12.0068 94.3234 9.75373 93.1772C6.39246 91.4673 3.65968 88.7389 1.94703 85.3829C0.79903 83.1335 0.374376 80.7957 0.182038 78.4454C-0.00019363 76.2185 -0.000101354 73.5149 5.12157e-06 70.381V24.7402C-0.000101354 21.6062 -0.00019363 18.9026 0.182038 16.6758C0.374376 14.3254 0.79903 11.9877 1.94703 9.73821C3.65968 6.3823 6.39247 3.65385 9.75372 1.94393C12.0068 0.797758 14.3482 0.37378 16.7023 0.181748C18.9327 -0.000193322 21.6407 -0.000101193 24.7796 5.11342e-06ZM17.6721 12.0324C16.0545 12.1644 15.4548 12.3884 15.1603 12.5381C14.0399 13.1081 13.129 14.0176 12.5581 15.1362C12.4081 15.4302 12.1837 16.0289 12.0516 17.644C11.9137 19.3285 11.9091 21.5417 11.9091 24.9693V70.1518C11.9091 73.5795 11.9137 75.7927 12.0516 77.4771C12.1837 79.0922 12.4081 79.691 12.5581 79.9849C13.129 81.1036 14.0399 82.0131 15.1603 82.583C15.4548 82.7328 16.0545 82.9568 17.6721 83.0888C19.3593 83.2264 21.576 83.231 25.0091 83.231C30.9286 83.231 35.7273 88.022 35.7273 93.9321V95.1211L44.937 88.2249C45.0443 88.1445 45.1506 88.0648 45.2561 87.9856C46.8266 86.8078 48.212 85.7687 49.7833 85.01C51.165 84.3429 52.6271 83.8563 54.1334 83.5623C55.8464 83.228 57.5792 83.2293 59.5434 83.2308C59.6753 83.2309 59.8083 83.231 59.9424 83.231H105.991C109.424 83.231 111.641 83.2264 113.328 83.0888C114.946 82.9568 115.545 82.7328 115.84 82.583C116.96 82.0131 117.871 81.1036 118.442 79.9849C118.592 79.691 118.816 79.0922 118.948 77.4771C119.086 75.7927 119.091 73.5795 119.091 70.1518V24.9693C119.091 21.5417 119.086 19.3285 118.948 17.644C118.816 16.0289 118.592 15.4302 118.442 15.1362C117.871 14.0176 116.96 13.1081 115.84 12.5381C115.545 12.3884 114.946 12.1644 113.328 12.0324C111.641 11.8948 109.424 11.8902 105.991 11.8902H25.0091C21.576 11.8902 19.3593 11.8948 17.6721 12.0324ZM23.8182 47.5606C23.8182 40.9938 29.1501 35.6704 35.7273 35.6704C42.3045 35.6704 47.6364 40.9938 47.6364 47.5606C47.6364 54.1273 42.3045 59.4507 35.7273 59.4507C29.1501 59.4507 23.8182 54.1273 23.8182 47.5606ZM53.5909 47.5606C53.5909 40.9938 58.9228 35.6704 65.5 35.6704C72.0772 35.6704 77.4091 40.9938 77.4091 47.5606C77.4091 54.1273 72.0772 59.4507 65.5 59.4507C58.9228 59.4507 53.5909 54.1273 53.5909 47.5606ZM83.3636 47.5606C83.3636 40.9938 88.6955 35.6704 95.2727 35.6704C101.85 35.6704 107.182 40.9938 107.182 47.5606C107.182 54.1273 101.85 59.4507 95.2727 59.4507C88.6955 59.4507 83.3636 54.1273 83.3636 47.5606Z" fill="#E03854"/>
</svg>
