<svg width="47" height="47" viewBox="0 0 47 47" fill="none" xmlns="http://www.w3.org/2000/svg">
<circle cx="23.2792" cy="23.2795" r="23.2795" fill="white"/>
<path d="M30.1638 13.6948C29.2506 13.6948 28.52 14.4333 28.52 15.3386C28.52 16.2517 29.2585 16.9823 30.1638 16.9823C31.0769 16.9823 31.8075 16.2438 31.8075 15.3386C31.8075 14.4333 31.069 13.6948 30.1638 13.6948Z" fill="#E03854"/>
<path d="M22.8424 15.8066C19.0308 15.8066 15.926 18.9115 15.926 22.723C15.926 26.5346 19.0308 29.6394 22.8424 29.6394C26.6539 29.6394 29.7587 26.5346 29.7587 22.723C29.7587 18.9115 26.6539 15.8066 22.8424 15.8066ZM22.8424 27.1619C20.3966 27.1619 18.4114 25.1767 18.4114 22.731C18.4114 20.2852 20.3966 18.3 22.8424 18.3C25.2881 18.3 27.2733 20.2852 27.2733 22.731C27.2733 25.1688 25.2802 27.1619 22.8424 27.1619Z" fill="#E03854"/>
<path d="M28.3295 36.7786H17.1172C12.4639 36.7786 8.67615 32.9908 8.67615 28.3375V17.1173C8.67615 12.464 12.4639 8.67627 17.1172 8.67627H28.3374C32.9907 8.67627 36.7784 12.464 36.7784 17.1173V28.3375C36.7705 32.9908 32.9828 36.7786 28.3295 36.7786ZM17.1172 11.3205C13.925 11.3205 11.3204 13.9172 11.3204 17.1173V28.3375C11.3204 31.5297 13.917 34.1343 17.1172 34.1343H28.3374C31.5296 34.1343 34.1342 31.5377 34.1342 28.3375V17.1173C34.1342 13.9251 31.5375 11.3205 28.3374 11.3205H17.1172Z" fill="#E03854"/>
</svg>
