<svg width="33" height="33" viewBox="0 0 33 33" fill="none" xmlns="http://www.w3.org/2000/svg">
<circle cx="16.0981" cy="16.0984" r="16.0984" fill="#332F30"/>
<path d="M20.8589 9.47046C20.2274 9.47046 19.7222 9.98114 19.7222 10.6071C19.7222 11.2386 20.2329 11.7438 20.8589 11.7438C21.4904 11.7438 21.9956 11.2331 21.9956 10.6071C21.9956 9.98114 21.4849 9.47046 20.8589 9.47046Z" fill="white"/>
<path d="M15.796 10.9311C13.1603 10.9311 11.0132 13.0782 11.0132 15.714C11.0132 18.3498 13.1603 20.4968 15.796 20.4968C18.4318 20.4968 20.5789 18.3498 20.5789 15.714C20.5789 13.0782 18.4318 10.9311 15.796 10.9311ZM15.796 18.7836C14.1047 18.7836 12.7319 17.4108 12.7319 15.7195C12.7319 14.0282 14.1047 12.6554 15.796 12.6554C17.4873 12.6554 18.8601 14.0282 18.8601 15.7195C18.8601 17.4053 17.4818 18.7836 15.796 18.7836Z" fill="white"/>
<path d="M19.5905 25.4334H11.8369C8.61901 25.4334 5.99969 22.8141 5.99969 19.5963V11.8372C5.99969 8.61931 8.61901 6 11.8369 6H19.596C22.8138 6 25.4331 8.61931 25.4331 11.8372V19.5963C25.4276 22.8141 22.8083 25.4334 19.5905 25.4334ZM11.8369 7.82858C9.62939 7.82858 7.82827 9.62421 7.82827 11.8372V19.5963C7.82827 21.8037 9.6239 23.6049 11.8369 23.6049H19.596C21.8034 23.6049 23.6046 21.8092 23.6046 19.5963V11.8372C23.6046 9.6297 21.8089 7.82858 19.596 7.82858H11.8369Z" fill="white"/>
</svg>
