<svg width="130" height="131" viewBox="0 0 130 131" fill="none" xmlns="http://www.w3.org/2000/svg">
<g id="Group 5">
<path id="Vector" d="M120.765 64.6672C120.765 95.3881 95.8823 120.285 65.1789 120.285C34.4755 120.285 9.59326 95.3881 9.59326 64.6672C9.59326 33.9463 34.4755 9.0498 65.1789 9.0498C95.8823 9.0498 120.765 33.9463 120.765 64.6672Z" fill="white"/>
<path id="Vector_2" d="M79.4842 47.3848H50.6071V76.2784H79.4842V47.3848Z" fill="#2B3984"/>
<path id="Vector_3" d="M65.2167 0.903809C29.4532 0.903809 0.461914 29.9117 0.461914 65.6956C0.461914 101.48 29.4532 130.487 65.2167 130.487C100.98 130.487 129.972 101.48 129.972 65.6956C129.972 29.9117 100.98 0.903809 65.2167 0.903809ZM79.1417 111.035V101.936C79.1417 101.48 78.7612 101.099 78.3046 101.099H51.9005C51.444 101.099 51.0635 101.48 51.0635 101.936V110.958C32.1925 104.868 18.572 86.8995 18.572 65.6956C18.572 57.511 20.6265 49.7832 24.2028 43.0451C27.5129 36.8781 32.1165 31.5105 37.6332 27.3992C45.3566 21.6128 54.9062 18.1867 65.2548 18.1867C75.6034 18.1867 85.153 21.6128 92.8764 27.3992C98.4312 31.5486 103.035 36.8781 106.307 43.0451C109.883 49.7832 111.938 57.4729 111.938 65.6956C111.9 87.0137 98.1268 105.02 79.1417 111.035Z" fill="#2B3984"/>
<path id="Vector_4" d="M107.996 43.2654H22.6205C26.0608 37.1002 31.0039 31.7342 36.7773 27.624H93.9187C96.1727 29.2224 98.4663 31.2394 100.641 33.3706C104.161 37.1383 106.019 40.0686 107.996 43.2654Z" fill="#2B3984"/>
<path id="Vector_5" d="M47.5255 32.3095V34.6317H50.2648V35.7357H47.5255V38.1339H50.6072V39.2379H46.2319V31.2056H50.6072V32.3095H47.5255Z" fill="white"/>
<path id="Vector_6" d="M56.2379 35.926C56.4662 35.8879 56.7705 35.7737 56.9608 35.6595C58.9772 34.2891 57.988 31.9669 56.8466 31.5482C56.5042 31.3578 56.0096 31.2056 55.5531 31.2056H52.4713V39.2379H53.841V36.0402H54.7921L56.6945 39.276H58.2543L56.2379 35.926ZM53.8029 32.3095H55.6291C56.3901 32.4618 56.6945 33.109 56.6945 33.6039C56.6564 34.2891 56.314 34.8601 55.4769 34.8982H53.8029V32.3095Z" fill="white"/>
<path id="Vector_7" d="M65.1785 31.2056V32.3095H63.0479V39.276H61.7543V32.3095H59.5477V31.2056H65.1785Z" fill="white"/>
<path id="Vector_8" d="M68.0703 31.2056H66.6626V39.276H68.0703V31.2056Z" fill="white"/>
<path id="Vector_9" d="M71.3804 32.31V34.6322H74.0056V35.7362H71.3804V39.2765H69.9727V31.2441H74.6904V32.31H71.3804Z" fill="white"/>
<path id="Vector_10" d="M77.5819 31.2056H76.2122V39.276H77.5819V31.2056Z" fill="white"/>
<path id="Vector_11" d="M80.9301 32.31V34.6322H83.6314V35.7362H80.9301V38.1725H83.9738V39.2384H79.4844V31.2441H83.9738V32.31H80.9301Z" fill="white"/>
<path id="Vector_12" d="M92.534 34.1754C92.2296 32.6527 91.1643 31.8913 90.4414 31.5867C89.9468 31.3583 89.3381 31.2441 88.6152 31.2441H85.8759V39.2765H88.6152C90.4795 39.3146 91.2404 38.5532 91.8491 37.9441C92.1915 37.4492 92.9525 36.3453 92.534 34.1754ZM90.0609 37.7157C89.5663 38.1345 88.2347 38.0583 88.2347 38.0583H87.1314V32.31H88.6152C89.4522 32.3862 89.8327 32.5385 90.2131 32.8811C91.4687 33.7566 91.8872 36.4214 90.0609 37.7157Z" fill="white"/>
<path id="Vector_13" d="M44.4437 36.8781C44.2535 37.6014 43.7208 38.1724 43.1501 38.5912C42.4653 39.0861 41.6663 39.3525 40.6771 39.3525C39.8782 39.3525 39.1933 39.1622 38.5465 38.8196C37.9378 38.4389 37.4432 37.944 37.1388 37.3349C36.7964 36.7258 36.6442 36.0406 36.6442 35.2793C36.6442 34.5179 36.7964 33.8327 37.1388 33.1855C37.8237 31.6628 39.5358 31.0537 40.6391 31.1298C43.0741 31.0537 44.2535 32.8429 44.3676 33.6043L42.8077 33.6423C42.3512 32.6906 40.9054 31.8151 39.2314 32.6906C38.8129 32.9571 38.5085 33.3378 38.3183 33.7946C38.1661 34.0611 38.09 34.3656 38.0519 34.7082C38.0139 34.8986 38.0139 35.0889 38.0139 35.3173C38.0139 35.4696 38.0139 35.6219 38.0519 35.7741C38.09 36.1548 38.2041 36.4974 38.3563 36.84C39.4977 38.8957 42.3892 38.2866 42.8077 36.9543H44.4437V36.8781Z" fill="white"/>
<path id="Vector_14" d="M20.5547 26.1413L19.4442 27.3433L25.3948 32.8473L26.5053 31.6453L20.5547 26.1413Z" fill="white"/>
<path id="Vector_15" d="M26.029 28.1991L27.0943 27.019C27.5128 27.3616 27.9313 27.5139 28.3118 27.5139C28.6923 27.5139 29.0727 27.3236 29.4532 26.981C29.8337 26.6384 30.0619 26.2957 30.1 25.9151C30.138 25.5724 30.0619 25.2679 29.8717 25.0776C29.7576 24.9253 29.5673 24.8492 29.4151 24.8111C29.2249 24.773 29.0347 24.8492 28.7303 24.9634C28.5401 25.0395 28.1596 25.2679 27.5128 25.5725C26.7139 25.9912 26.0671 26.2196 25.6105 26.2196C24.9637 26.2196 24.393 25.9912 23.9745 25.5344C23.7082 25.2298 23.518 24.8492 23.4419 24.4304C23.3658 24.0117 23.4419 23.5929 23.6321 23.1361C23.8224 22.7173 24.1648 22.2605 24.6213 21.8418C25.3823 21.1566 26.0671 20.8139 26.7519 20.7759C27.4367 20.7759 28.0455 21.0043 28.5401 21.5372L27.3987 22.6793C27.0563 22.4128 26.7519 22.2986 26.4475 22.3367C26.1432 22.3367 25.8388 22.527 25.4964 22.8316C25.154 23.1361 24.9257 23.4787 24.8496 23.7833C24.8116 24.0117 24.8496 24.1639 25.0018 24.3162C25.1159 24.4685 25.3061 24.5446 25.4964 24.5065C25.7627 24.5065 26.2573 24.2781 26.9802 23.8975C27.7031 23.4787 28.2738 23.2503 28.6923 23.1361C29.1108 23.0219 29.5293 23.0219 29.9098 23.1361C30.2902 23.2503 30.6707 23.4787 31.0131 23.8594C31.3175 24.202 31.5077 24.6207 31.6218 25.0776C31.6979 25.5344 31.6218 26.0293 31.4316 26.4861C31.2033 26.9429 30.8609 27.3997 30.3283 27.8946C29.5674 28.5798 28.8445 28.9224 28.1216 28.9605C27.3987 29.0747 26.7139 28.8082 26.029 28.1991Z" fill="white"/>
<path id="Vector_16" d="M31.5835 21.4608C31.165 20.7756 30.8987 20.1284 30.7846 19.5193C30.7085 19.0625 30.7465 18.6438 30.8226 18.187C30.8987 17.7301 31.0889 17.3495 31.3172 17.0069C31.6216 16.55 32.0782 16.1694 32.6108 15.7887C33.6381 15.1415 34.6273 14.9512 35.6165 15.2177C36.6057 15.4841 37.4807 16.1313 38.1656 17.2733C38.8504 18.3773 39.1167 19.4432 38.8885 20.433C38.6982 21.4227 38.0895 22.2602 37.0622 22.8693C36.035 23.5165 35.0458 23.7068 34.0566 23.4784C33.1054 23.2119 32.2684 22.5267 31.5835 21.4608ZM32.9532 20.5091C33.4478 21.2705 33.9805 21.7654 34.5892 21.9176C35.1979 22.108 35.7686 21.9938 36.3393 21.6512C36.872 21.3085 37.2144 20.8137 37.3285 20.2046C37.4427 19.5955 37.2525 18.8722 36.7198 18.0728C36.2252 17.2733 35.6926 16.8165 35.0838 16.6262C34.5131 16.4739 33.9044 16.55 33.3337 16.8927C32.763 17.2733 32.4206 17.7301 32.3064 18.3392C32.2684 19.0245 32.4586 19.7097 32.9532 20.5091Z" fill="white"/>
<path id="Vector_17" d="M49.656 15.5595L50.1125 16.93L44.9763 18.6431C44.8621 18.1101 44.8621 17.5391 44.9763 17.0061C45.0904 16.4351 45.4328 15.6357 46.0035 14.6078C46.4601 13.7704 46.7264 13.1993 46.8025 12.9329C46.9166 12.5522 46.9166 12.2476 46.8025 11.9431C46.6883 11.6005 46.5362 11.3721 46.2698 11.2579C46.0416 11.1437 45.7752 11.1437 45.4709 11.2198C45.1665 11.2959 44.9382 11.4863 44.8241 11.7527C44.7099 12.0192 44.7099 12.3238 44.8241 12.7806L43.3022 13.1232C43.112 12.2857 43.1881 11.6005 43.5305 11.1056C43.8729 10.6107 44.4056 10.23 45.0904 10.0016C45.8513 9.73514 46.4981 9.73514 47.0688 10.0016C47.6395 10.2681 48.02 10.6868 48.2102 11.2959C48.3243 11.6385 48.3624 11.9812 48.3624 12.3618C48.3624 12.7425 48.2483 13.1232 48.0961 13.5419C47.9819 13.8465 47.7917 14.2652 47.4493 14.8363C47.1449 15.4073 46.9166 15.788 46.8405 15.9783C46.7644 16.1686 46.7264 16.3209 46.6883 16.4732L49.656 15.5595Z" fill="white"/>
<path id="Vector_18" d="M50.1508 10.1536L49.8464 8.74507L55.0207 7.60303L55.2489 8.707C54.9065 9.23995 54.6022 9.92518 54.3358 10.8007C54.0695 11.6763 53.9173 12.5899 53.8793 13.5416C53.8412 14.4933 53.9173 15.2928 54.0695 15.978L52.6237 16.3206C52.3955 15.2166 52.3955 14.0365 52.5857 12.8183C52.7759 11.6002 53.1183 10.4581 53.613 9.39222L50.1508 10.1536Z" fill="white"/>
<path id="Vector_19" d="M59.7763 6.76671C60.5372 6.6525 61.184 6.88091 61.7166 7.3758C62.3254 7.94682 62.7439 9.01272 62.9341 10.5354C63.1244 12.0582 63.0102 13.1621 62.5917 13.9235C62.2112 14.5326 61.6405 14.8752 60.8796 14.9894C60.0806 15.1036 59.4339 14.8752 58.8632 14.3422C58.2925 13.8093 57.912 12.7434 57.7218 11.2207C57.5315 9.69794 57.6457 8.59397 58.1022 7.87068C58.4446 7.22352 59.0153 6.88091 59.7763 6.76671ZM59.9285 8.06102C59.7382 8.09909 59.586 8.17522 59.4719 8.28943C59.3578 8.4417 59.2436 8.67011 59.2056 8.97465C59.1295 9.3934 59.1675 10.0786 59.3197 10.9923C59.4338 11.944 59.586 12.5911 59.7002 12.9337C59.8524 13.2763 60.0045 13.5047 60.1567 13.5809C60.3089 13.6951 60.4991 13.7332 60.6894 13.6951C60.8796 13.6951 61.0318 13.5809 61.1459 13.4667C61.2981 13.3144 61.3742 13.086 61.4123 12.7815C61.4503 12.3627 61.4503 11.7156 61.2981 10.7639C61.184 9.81215 61.0318 9.16499 60.9176 8.86045C60.7655 8.51784 60.6133 8.28943 60.4611 8.21329C60.3089 8.13716 60.1187 8.02295 59.9285 8.06102Z" fill="white"/>
<path id="Vector_20" d="M67.8802 6.2334C68.6792 6.27147 69.2499 6.53794 69.7064 7.10896C70.201 7.79419 70.4674 8.89816 70.3913 10.4209C70.3532 11.9436 70.0488 13.0476 69.5162 13.6947C69.0596 14.2277 68.4509 14.4942 67.6519 14.4561C66.853 14.418 66.2442 14.1135 65.7877 13.5044C65.3311 12.8953 65.1028 11.7913 65.1409 10.2686C65.1789 8.74589 65.4833 7.64192 66.0159 6.99476C66.4725 6.46181 67.0812 6.2334 67.8802 6.2334ZM67.8422 7.52771C67.6519 7.52771 67.4997 7.56578 67.3476 7.67998C67.1954 7.79419 67.0813 7.98453 67.0052 8.32714C66.891 8.70782 66.8149 9.39304 66.7769 10.3447C66.7388 11.2964 66.7769 11.9436 66.853 12.3243C66.9291 12.6669 67.0432 12.9334 67.1954 13.0476C67.3476 13.1618 67.4998 13.2379 67.69 13.2379C67.8802 13.2379 68.0324 13.1998 68.1846 13.0856C68.3368 12.9714 68.4509 12.743 68.565 12.4385C68.6792 12.0578 68.7553 11.3726 68.7933 10.4209C68.8314 9.46918 68.7933 8.82202 68.7172 8.47941C68.6411 8.1368 68.527 7.87032 68.3748 7.75612C68.1846 7.60385 68.0324 7.52771 67.8422 7.52771Z" fill="white"/>
<path id="Vector_21" d="M75.6416 15.3306L74.1197 15.0641L75.185 9.31587C74.5382 9.73462 73.8153 10.0011 73.0164 10.1153L73.2827 8.74485C73.7012 8.66872 74.1958 8.51645 74.7285 8.24997C75.2611 7.98349 75.6416 7.60281 75.9079 7.146L77.1634 7.3744L75.6416 15.3306Z" fill="white"/>
<path id="Vector_22" d="M82.7943 17.4623L83.365 16.0157L84.8107 16.5867L84.24 18.0333L82.7943 17.4623ZM84.4302 13.4651L85.0009 12.0186L86.4467 12.5896L85.876 14.0362L84.4302 13.4651Z" fill="white"/>
<path id="Vector_23" d="M95.0452 22.4118L94.2462 23.6299L89.6807 20.6987C90.0231 20.2799 90.4416 19.9373 90.9742 19.6709C91.4688 19.4425 92.3059 19.176 93.4853 18.9856C94.4365 18.8334 95.0072 18.6811 95.2735 18.5669C95.6159 18.4146 95.8822 18.2243 96.0724 17.9578C96.2627 17.6533 96.3388 17.3868 96.2627 17.1203C96.2246 16.8538 96.0344 16.6635 95.7681 16.4731C95.5017 16.2828 95.2354 16.2447 94.9691 16.2828C94.7028 16.3589 94.4365 16.5493 94.1701 16.93L92.9907 15.9402C93.5233 15.255 94.094 14.9124 94.7028 14.8743C95.3115 14.8362 95.9202 14.9885 96.529 15.4072C97.2138 15.826 97.5943 16.3589 97.7465 16.968C97.8986 17.5771 97.7845 18.1481 97.4421 18.6811C97.2519 18.9856 96.9855 19.2521 96.7192 19.4425C96.4529 19.6328 96.0724 19.8231 95.6539 19.9754C95.3876 20.0896 94.893 20.1657 94.2462 20.2799C93.5994 20.3942 93.1809 20.4703 92.9907 20.5084C92.8004 20.5464 92.6483 20.6226 92.4961 20.6987L95.0452 22.4118Z" fill="white"/>
<path id="Vector_24" d="M102.693 19.9761C103.301 20.471 103.568 21.0801 103.568 21.8034C103.53 22.6409 103.035 23.6687 102.046 24.8488C101.057 26.0289 100.143 26.6761 99.3064 26.8664C98.6216 27.0187 97.9748 26.8284 97.366 26.3335C96.7573 25.8386 96.491 25.1914 96.491 24.392C96.529 23.6307 97.0236 22.6409 98.0128 21.4608C99.002 20.2807 99.9151 19.6335 100.752 19.4432C101.437 19.2909 102.084 19.4432 102.693 19.9761ZM101.855 20.9659C101.703 20.8517 101.551 20.7756 101.361 20.7756C101.171 20.7756 100.942 20.8517 100.676 21.042C100.334 21.2704 99.8771 21.7653 99.2683 22.4886C98.6596 23.2119 98.2791 23.7449 98.127 24.0875C97.9748 24.4301 97.8987 24.6966 97.9367 24.8488C97.9748 25.0392 98.0509 25.1914 98.203 25.3056C98.3552 25.4199 98.5074 25.496 98.6976 25.496C98.8879 25.496 99.1161 25.4199 99.3825 25.2295C99.7249 25.0011 100.181 24.5062 100.79 23.7829C101.399 23.0596 101.779 22.5267 101.932 22.1841C102.084 21.8415 102.16 21.613 102.122 21.4227C102.122 21.2324 102.008 21.0801 101.855 20.9659Z" fill="white"/>
<path id="Vector_25" d="M103.339 31.8142L102.274 30.6722L106.535 26.675C105.774 26.637 105.013 26.4086 104.29 26.0279L105.318 25.0762C105.698 25.2665 106.193 25.4188 106.764 25.533C107.372 25.6091 107.905 25.5711 108.361 25.3426L109.237 26.2563L103.339 31.8142Z" fill="white"/>
<path id="Vector_26" d="M106.916 32.6521L107.981 33.7561C107.714 34.0226 107.562 34.2891 107.524 34.5936C107.486 34.8982 107.562 35.1266 107.753 35.393C107.943 35.6595 108.209 35.7737 108.552 35.8118C108.856 35.8499 109.198 35.7356 109.541 35.4692C109.845 35.2408 110.035 34.9743 110.073 34.6697C110.111 34.3652 110.073 34.0987 109.883 33.8703C109.769 33.718 109.579 33.5658 109.35 33.3754L110.454 32.7283C110.682 33.0709 110.948 33.2612 111.253 33.3374C111.557 33.4135 111.823 33.3374 112.052 33.147C112.28 32.9948 112.394 32.7663 112.432 32.576C112.47 32.3476 112.394 32.1192 112.242 31.9288C112.09 31.7004 111.862 31.5862 111.595 31.5482C111.329 31.5101 111.063 31.5862 110.758 31.7766L110.073 30.4823C110.53 30.2539 110.91 30.1396 111.291 30.1396C111.633 30.1396 111.976 30.2158 112.356 30.4061C112.699 30.5965 113.003 30.8629 113.269 31.2056C113.726 31.8146 113.916 32.4618 113.802 33.109C113.726 33.6419 113.459 34.0607 113.079 34.3652C112.508 34.7839 111.823 34.822 111.025 34.4794C111.215 34.8982 111.291 35.355 111.177 35.7737C111.063 36.1925 110.834 36.5731 110.416 36.8777C109.845 37.2964 109.198 37.4487 108.513 37.3726C107.791 37.2584 107.22 36.9158 106.725 36.2686C106.269 35.6976 106.079 35.0504 106.117 34.4413C106.155 33.718 106.421 33.147 106.916 32.6521Z" fill="white"/>
<path id="Vector_27" d="M70.1248 54.5035C68.7171 52.6762 66.7387 51.6865 64.0755 51.6865C59.7762 51.6865 56.276 54.808 56.276 58.691C56.276 62.1932 59.1675 65.1245 62.9341 65.6194L64.8364 67.9034C64.2277 68.0176 63.6189 68.0938 62.9721 68.0938C57.7978 68.0938 53.6127 64.1728 53.6127 59.3001C53.6127 54.4654 57.7978 50.5063 62.9721 50.5063C66.0919 50.5063 68.8693 51.9529 70.4292 54.237C70.8097 54.77 70.239 54.7319 70.1248 54.5035Z" fill="white"/>
<path id="Vector_28" d="M66.8149 70.2635C66.1681 70.3777 65.4833 70.4538 64.7985 70.4538C60.4992 70.4538 56.7707 68.0936 54.9064 64.6675C56.6566 67.18 59.7003 68.8169 63.1244 68.8169C63.9234 68.8169 64.7224 68.7408 65.4452 68.5504L66.8149 70.2635Z" fill="#D6B169"/>
<path id="Vector_29" d="M63.2385 64.8586C63.2385 64.8586 63.6951 65.0489 64.6462 66.2671C64.6462 66.2671 67.1953 70.112 69.4781 71.825C69.4781 71.825 71.7229 73.9949 75.7558 73.9188C75.7558 73.9188 72.0272 73.462 69.7064 71.0256C68.565 70.0358 66.2062 66.9143 65.3691 66.0387C64.7224 65.3154 64.1136 64.6302 63.619 64.2495L63.2385 64.8586Z" fill="#D9B06C"/>
<path id="Vector_30" d="M63.8854 64.0975C63.8854 64.0975 65.3692 65.2395 66.5106 66.61C66.5106 66.61 69.4782 70.4548 70.6956 71.3304C71.3805 71.8634 73.3969 73.5764 76.9733 73.5764C74.7286 72.6628 74.1198 72.244 72.5599 70.9117C71.3424 69.9219 69.2499 67.1429 67.7661 65.7344C67.7661 65.7344 65.8638 63.7168 64.3039 63.4123C64.3419 63.3742 63.9615 64.0213 63.8854 64.0975Z" fill="#D9B06C"/>
<path id="Vector_31" d="M64.6082 63.1449C64.6082 63.1449 65.8256 63.5255 66.7768 64.2488C67.6899 64.9341 68.6411 65.8477 70.8477 68.246C71.8369 69.388 73.7012 72.0908 77.1634 73.0045C76.0221 72.5477 74.5763 71.7102 72.1413 68.8551C72.1413 68.8551 69.5922 65.3528 67.3475 63.9062C66.6246 63.4875 65.9017 62.9165 64.8365 62.8022L64.6082 63.1449Z" fill="#D9B06C"/>
<path id="Vector_32" d="M75.984 59.6424C75.984 61.5458 75.4893 63.335 74.5762 64.8958C73.9675 65.9236 73.2066 66.8753 72.2935 67.6747L70.3531 65.8094C70.9999 65.1622 71.5325 64.4009 71.951 63.6015C72.5978 62.3452 72.9783 60.9367 72.9783 59.452C72.9783 54.2748 68.5649 50.0873 63.1243 50.0873C60.3469 50.0873 57.8358 51.1532 56.0477 52.9043C58.1022 50.3918 61.26 48.8311 64.7983 48.8311C70.9999 48.8311 75.984 53.6657 75.984 59.6424Z" fill="#D6B169"/>
<path id="Vector_33" d="M52.7755 73.3475C55.4387 71.939 58.0639 66.3811 58.6726 65.4294C60.9174 62.0413 64.6079 62.8027 64.6079 62.8027C63.086 64.8584 61.9066 67.6373 61.3739 68.4748C61.3739 68.4748 59.4336 72.1674 57.0747 73.1953C57.0747 73.1953 55.1343 74.185 53.6125 73.9186L53.0798 73.8805L53.5364 73.4617L52.7755 73.3475Z" fill="white"/>
<path id="Vector_34" d="M54.1835 74.1847C53.9932 74.1847 53.803 74.1847 53.5747 74.1466L53.0421 74.1085C52.966 74.1085 52.8899 74.0324 52.8899 73.9563C52.8519 73.8801 52.8899 73.804 52.966 73.7279L53.0801 73.6137L52.7377 73.5756C52.6616 73.5756 52.5855 73.4995 52.5475 73.4233C52.5094 73.3472 52.5855 73.233 52.6616 73.1949C54.7922 72.0909 56.9228 68.1699 57.95 66.2665C58.1783 65.8478 58.3685 65.5052 58.4827 65.3148C60.8035 61.8506 64.5701 62.612 64.6081 62.612C64.6842 62.612 64.7223 62.6881 64.7603 62.7262C64.7984 62.8023 64.7603 62.8785 64.7223 62.9165C63.657 64.3251 62.7819 66.1143 62.1732 67.2944C61.9069 67.8273 61.6786 68.2841 61.5264 68.5506C61.4503 68.7029 59.5099 72.2813 57.1511 73.3472C57.113 73.4233 55.6292 74.1847 54.1835 74.1847ZM53.5747 73.7279H53.6508C55.1346 73.9943 56.9608 73.0426 56.9989 73.0426C59.2436 72.0148 61.184 68.4364 61.184 68.3983C61.3362 68.1319 61.5645 67.7131 61.8308 67.1802C62.4015 66.0381 63.2385 64.3631 64.2277 62.9927C63.3146 62.8785 60.6133 62.8785 58.8251 65.5813C58.711 65.7336 58.5208 66.0762 58.2925 66.4949C57.3413 68.2461 55.4009 71.7864 53.3464 73.233H53.5367C53.6128 73.233 53.6889 73.3091 53.7269 73.3472C53.7649 73.4233 53.7269 73.4995 53.6889 73.5756L53.5747 73.7279Z" fill="#131015"/>
<path id="Vector_35" d="M53.2324 74.0711H53.1182C53.0041 74.0711 52.928 73.995 52.928 73.8808C52.928 73.7666 53.0041 73.6904 53.1182 73.6904C53.6509 73.7285 54.2596 73.5762 54.9064 73.3098C55.9337 72.891 56.8468 72.2439 57.6457 71.3302C58.3686 70.5308 59.4339 69.1603 60.5372 67.1047C60.6133 66.9524 62.5157 63.6405 64.1136 62.6888C64.2277 62.6507 64.3419 62.6507 64.3799 62.7649C64.418 62.8791 64.418 62.9933 64.3038 63.0314C62.782 63.907 60.9177 67.2569 60.8797 67.295C59.7763 69.3888 58.673 70.7592 57.9501 71.5967C57.1131 72.5484 56.1239 73.2336 55.0586 73.6904C54.4118 73.9189 53.765 74.0711 53.2324 74.0711Z" fill="#131015"/>
<path id="Vector_36" d="M53.5748 73.6135C53.4987 73.6135 53.4227 73.5754 53.3846 73.4993C53.3466 73.3851 53.3846 73.2709 53.4607 73.2328C54.9065 72.4715 55.8576 71.2152 55.8957 71.2152C57.3795 69.3118 58.4828 67.2561 58.9013 66.4567C59.0916 66.1141 59.3198 65.6573 59.6242 65.2385C61.2982 63.0306 63.581 62.6499 64.2278 62.6499C64.3419 62.6499 64.4181 62.7641 64.4181 62.8783C64.4181 62.9925 64.3039 63.0686 64.1898 63.0686C63.6952 63.0306 61.5265 63.3732 59.9286 65.505C59.6242 65.8857 59.3959 66.3044 59.2438 66.647C58.8252 67.4465 57.7219 69.5402 56.2 71.4817C56.162 71.5198 55.1728 72.8521 53.6509 73.6135C53.6509 73.6135 53.6129 73.6135 53.5748 73.6135Z" fill="#131015"/>
<path id="Vector_37" d="M54.4117 114.575C55.7433 116.212 59.7382 121.58 61.1078 125.196C65.2168 116.935 69.2878 111.492 76.06 105.172C66.5104 109.398 61.0698 117.735 61.0698 117.735L54.4117 114.575Z" fill="#D7B364"/>
<path id="Vector_38" d="M53.2705 94.2458V93.6367C54.2977 93.4844 54.2977 93.2941 54.0694 92.5708C53.9173 92.0759 53.6509 91.3145 53.4227 90.6674H50.2648C50.0746 91.1623 49.8463 91.8094 49.6941 92.3424C49.3517 93.3702 49.7322 93.5225 51.0257 93.6367V94.2458H47.0309V93.6367C48.0581 93.5225 48.3244 93.3702 48.8571 91.9617L52.2052 83.3583L52.9661 83.2061C53.9933 86.0992 55.0967 89.0685 56.162 91.8475C56.7707 93.4083 56.8849 93.5225 57.9502 93.6367V94.2458H53.2705ZM51.8628 86.2896C51.4062 87.4697 50.9496 88.6117 50.5311 89.8299H53.0802L51.8628 86.2896Z" fill="#2B3987"/>
<path id="Vector_39" d="M64.3798 83.2061C67.3474 83.2061 69.7823 85.4521 69.7823 88.7259C69.7823 92.2662 67.3093 94.5123 64.2656 94.5123C61.0317 94.5123 58.7109 92.0759 58.7109 88.8782C58.7489 86.0231 60.6893 83.2061 64.3798 83.2061ZM64.1515 83.9293C62.5155 83.9293 61.298 85.6043 61.298 88.5356C61.298 91.3526 62.3633 93.7509 64.57 93.7509C66.0919 93.7509 67.3093 92.2282 67.3093 89.1827C67.2713 85.9089 66.0158 83.9293 64.1515 83.9293ZM65.369 93.1799C67.4235 94.8168 69.0975 95.9588 70.277 96.4537L70.1248 96.9486C69.4019 97.0248 68.1844 96.9867 67.5756 96.7963C66.1679 96.3776 64.4939 95.0452 63.1242 93.9032L65.369 93.1799Z" fill="#2B3987"/>
<path id="Vector_40" d="M81.8052 91.3907C81.5769 92.2282 81.1584 93.4844 80.8921 94.0554C80.4736 94.1696 79.142 94.4742 77.9245 94.4742C73.5872 94.4742 71.799 91.581 71.799 88.9543C71.799 85.5282 74.3481 83.2061 78.2288 83.2061C79.6366 83.2061 80.8921 83.5487 81.2726 83.5867C81.3487 84.3862 81.4628 85.6043 81.5769 86.3276L80.9301 86.4418C80.5877 85.1475 80.0931 84.5384 79.2561 84.1958C78.8756 84.0436 78.2669 83.9674 77.8484 83.9674C75.4895 83.9674 74.3101 85.985 74.3101 88.6117C74.3101 91.6572 75.8319 93.7128 78.0386 93.7128C79.4083 93.7128 80.2833 92.9895 81.1584 91.1623L81.8052 91.3907Z" fill="#2B3987"/>
</g>
</svg>
