<svg width="130" height="131" viewBox="0 0 130 131" fill="none" xmlns="http://www.w3.org/2000/svg">
<g id="Group 7">
<path id="Vector" d="M121.877 65.7328C121.877 96.866 96.6378 122.119 65.5224 122.119C34.4069 122.119 9.16795 96.866 9.16795 65.7328C9.16795 34.5995 34.4069 9.34619 65.5224 9.34619C96.6378 9.34619 121.877 34.5618 121.877 65.7328Z" fill="white"/>
<path id="Vector_2" d="M109.333 49.7894H20.9212C23.0684 43.7965 26.195 38.3689 30.4517 33.7705H99.8399C104.097 38.3689 107.186 43.7965 109.333 49.7894Z" fill="#231F1F"/>
<path id="Vector_3" d="M65.1457 112.584C39.1534 112.584 18.0205 91.439 18.0205 65.4695C18.0205 39.4623 39.1534 18.3174 65.1457 18.3174C91.1381 18.3174 112.271 39.4623 112.271 65.4695C112.233 91.439 91.1004 112.584 65.1457 112.584ZM65.1457 18.5812C39.3041 18.5812 18.2842 39.6131 18.2842 65.4318C18.2842 91.2505 39.3041 112.282 65.1457 112.282C90.9874 112.282 111.97 91.2505 111.97 65.4318C111.97 39.6131 90.9497 18.5812 65.1457 18.5812Z" fill="#231F1F"/>
<path id="Vector_4" d="M65.1459 0.903809C29.3971 0.903809 0.391113 29.9263 0.391113 65.6956C0.391113 101.503 29.3971 130.487 65.1459 130.487C100.932 130.487 129.938 101.465 129.938 65.6956C129.901 29.9263 100.895 0.903809 65.1459 0.903809ZM60.2865 124.231C58.9304 120.65 54.975 115.788 53.6566 113.639C55.5024 113.865 57.8003 115.109 60.0605 116.353C60.0605 116.353 65.8617 108.513 75.6559 105.008C68.8753 111.302 64.3926 115.938 60.2865 124.231ZM79.5359 112.094V104.782C79.5359 102.256 77.5017 100.183 74.9402 100.183H55.1257C52.6018 100.183 50.5676 102.219 50.5676 104.782V112.056C30.9039 105.875 16.627 87.4813 16.627 65.771C16.627 38.9723 38.3249 17.2243 65.1083 17.2243C91.8917 17.2243 113.627 38.9346 113.627 65.771C113.627 87.519 99.275 105.95 79.5359 112.094Z" fill="#CE1822"/>
<path id="Vector_5" d="M75.6558 104.97C68.8752 111.302 64.3924 115.938 60.2864 124.193C58.9303 120.612 54.9749 115.75 53.6564 113.602C55.5023 113.828 57.8002 115.072 60.0604 116.315C60.0604 116.353 65.8616 108.513 75.6558 104.97Z" fill="white"/>
<path id="Vector_6" d="M33.3899 61.8892L32.6741 66.5629H39.5678L36.9309 80.7726H42.0163L44.8039 66.5629L51.5468 66.5252L52.6769 61.8892H33.3899Z" fill="#020203"/>
<path id="Vector_7" d="M54.2215 61.8892H59.4953L57.1597 73.0459C57.0091 73.9128 56.7453 74.5158 57.4234 75.1943C57.9508 75.6466 59.2693 76.0235 60.5877 76.0235C61.5295 76.0235 63.6013 76.0612 64.8821 75.0435C65.2965 74.742 65.5978 74.2897 65.7862 73.0836L68.084 61.8892H73.2072L70.6833 74.1012C70.4949 75.3074 70.0052 78.6242 65.6731 80.1319C65.6731 80.1319 58.5912 82.1295 53.9955 79.5665C53.9955 79.5665 50.6805 78.1719 52.1496 72.5182C52.2626 72.2166 54.2215 61.8892 54.2215 61.8892Z" fill="#020203"/>
<path id="Vector_8" d="M55.1257 55.5942L54.523 58.8734H73.2073L73.8854 55.5942H55.1257Z" fill="#020203"/>
<path id="Vector_9" d="M82.5117 69.8045L79.4604 61.8139H74.0736L80.4775 80.9989L98.7098 56.1602H92.3812L82.5117 69.8045Z" fill="#E4292E"/>
<path id="Vector_10" d="M39.4549 94.2654H37.1946L36.6296 92.9085H33.4276L32.8626 94.2654H30.7154L34.0304 87.104H36.3659L39.4549 94.2654ZM36.1775 91.4385L35.1981 88.8378L34.1057 91.4385H36.1775Z" fill="#020203"/>
<path id="Vector_11" d="M90.6107 94.2654H88.3505L87.7855 92.9085H84.5835L84.0185 94.2654H81.8712L85.1862 87.104H87.5217L90.6107 94.2654ZM87.3334 91.4385L86.354 88.8378L85.2615 91.4385H87.3334Z" fill="#020203"/>
<path id="Vector_12" d="M48.5334 87.1047V91.4015C48.5334 92.3815 48.2321 93.0976 47.6293 93.5499C47.0266 94.0399 46.1602 94.2661 44.9924 94.2661C43.8247 94.2661 42.9582 94.0399 42.3555 93.5876C41.7528 93.1353 41.4514 92.4569 41.4514 91.5523V87.1047H43.4102V91.2131C43.4102 91.6277 43.5987 92.0423 43.9377 92.3061C44.239 92.5323 44.6157 92.683 45.0301 92.683C45.4821 92.683 45.8588 92.57 46.1225 92.3061C46.3108 92.1177 46.4615 91.8538 46.5369 91.59C46.5745 91.4392 46.6122 91.2508 46.6122 91.1V87.0293H48.5334V87.1047Z" fill="#020203"/>
<path id="Vector_13" d="M57.1594 92.1176C57.1594 92.796 56.7828 93.4368 56.18 93.8137C55.4643 94.3413 52.7897 94.5298 51.3959 93.5875V91.7029C52.7897 92.6829 54.7862 92.9845 55.0122 92.1929C55.0499 92.0045 54.9369 91.816 54.7486 91.6652C54.5602 91.5145 54.1835 91.326 53.6185 91.1753C52.8651 90.9491 52.3377 90.6853 51.961 90.3837C51.5843 90.0822 51.2452 89.5545 51.2452 88.9515C51.2452 88.273 51.5466 87.783 52.1117 87.4061C52.6767 87.0292 53.2041 86.8784 54.5602 86.8784C55.6903 86.8784 56.3684 87.293 56.7451 87.4815L56.7827 89.253C56.519 89.1399 55.2382 88.1599 53.6561 88.4992C53.3924 88.5368 53.3171 88.7253 53.2794 88.9138C53.2794 89.1399 53.3925 89.2907 53.5808 89.4038C53.7692 89.5168 54.2589 89.7053 54.9369 89.9314C55.6903 90.1576 56.2177 90.3837 56.5191 90.6853C56.8581 91.0622 57.1594 91.5522 57.1594 92.1176Z" fill="#020203"/>
<path id="Vector_14" d="M63.3375 94.2654H61.454V88.4232H58.7794V87.104H65.8614V88.4232H63.3375V94.2654Z" fill="#020203"/>
<path id="Vector_15" d="M70.495 91.1747V94.2654H68.5739V87.104H71.6251C72.5669 87.104 73.2827 87.2548 73.7724 87.5563C74.2621 87.8578 74.5258 88.3478 74.5258 88.9886C74.5258 89.3655 74.3751 89.7424 74.149 90.0439C73.8853 90.3832 73.697 90.5339 73.132 90.647C73.6594 90.647 74.4128 92.2677 74.4128 92.2677L75.3922 94.2277L73.0943 94.1523L72.3032 92.2677C72.1902 92.0039 72.0395 91.7024 71.8512 91.5516C71.7005 91.3632 71.4745 91.137 71.1731 91.137H70.495V91.1747ZM70.495 89.7801L71.2861 89.8178C72.1902 89.8178 72.4539 89.5163 72.4539 89.1393C72.4539 88.8378 72.3032 88.4232 71.2108 88.4232H70.495V89.7801Z" fill="#020203"/>
<path id="Vector_16" d="M79.5358 87.104H77.577V94.2654H79.5358V87.104Z" fill="#020203"/>
<path id="Vector_17" d="M35.8761 47.34C35.3487 47.0384 34.9721 46.6238 34.7084 46.0584C34.4447 45.4931 34.294 44.8523 34.294 44.0985V41.3847C34.294 40.6309 34.4447 39.9524 34.7084 39.4247C34.9721 38.8594 35.3864 38.4447 35.8761 38.1432C36.4035 37.8417 36.9686 37.6909 37.6843 37.6909C38.2494 37.6909 38.7768 37.804 39.2288 38.0678C39.6809 38.3317 40.0952 38.7086 40.3966 39.1609C40.6979 39.6509 40.924 40.2163 41.037 40.857H39.4171C39.3418 40.5555 39.2288 40.2539 39.0405 40.0278C38.8521 39.8016 38.6637 39.6132 38.4377 39.4624C38.2117 39.3493 37.948 39.274 37.6843 39.274C37.3076 39.274 37.0063 39.3493 36.7426 39.5378C36.4789 39.7263 36.2905 39.9524 36.1398 40.2539C35.9892 40.5555 35.9138 40.9324 35.9138 41.3847V44.0985C35.9138 44.5131 35.9892 44.89 36.1398 45.2292C36.2905 45.5308 36.4789 45.7946 36.7426 45.9454C37.0063 46.1338 37.3076 46.2092 37.6843 46.2092C37.948 46.2092 38.2117 46.1338 38.4377 46.0208C38.6637 45.9077 38.8898 45.7192 39.0405 45.4931C39.2288 45.2669 39.3418 44.9654 39.4171 44.6262H41.037C40.924 45.2669 40.6979 45.8323 40.3966 46.3223C40.0952 46.8123 39.7185 47.1515 39.2288 47.4153C38.7768 47.6792 38.2494 47.7923 37.6843 47.7923C37.0063 47.7923 36.4035 47.6415 35.8761 47.34Z" fill="white"/>
<path id="Vector_18" d="M44.2767 39.3116V41.95H48.2321V43.533H44.2767V46.096H48.9478V47.6791H42.6946V37.7285H48.9478V39.3116H44.2767Z" fill="white"/>
<path id="Vector_19" d="M55.5777 43.4576C55.766 43.4199 55.9543 43.3069 56.1427 43.2315C56.5571 43.0053 56.8584 42.6661 57.0844 42.2138C57.3105 41.7615 57.4234 41.2715 57.4234 40.6685C57.4234 40.1031 57.3105 39.5754 57.0844 39.1231C56.8584 38.6708 56.5571 38.3316 56.1427 38.1054C55.7283 37.8416 55.2763 37.7285 54.7112 37.7285H50.7182V47.6791H52.3003V43.5707H53.8448L55.9543 47.6791H57.8378L55.5777 43.4576ZM52.3003 39.2739H54.6736C54.8996 39.2739 55.0879 39.3493 55.2763 39.4623C55.427 39.5754 55.5776 39.7262 55.653 39.9523C55.7283 40.1408 55.8037 40.4046 55.8037 40.6685C55.8037 40.9323 55.7283 41.1961 55.653 41.3846C55.5776 41.5731 55.427 41.7615 55.2763 41.8369C55.0879 41.95 54.8996 41.9877 54.7112 41.9877H52.338V39.2739H52.3003Z" fill="white"/>
<path id="Vector_20" d="M65.0702 37.7285V39.3116H62.3957V47.6791H60.8512V39.3116H58.1767V37.7285H65.0702Z" fill="white"/>
<path id="Vector_21" d="M67.7824 37.7285H66.1627V47.6791H67.7824V37.7285Z" fill="white"/>
<path id="Vector_22" d="M71.5118 39.3116V42.063H75.3541V43.6084H71.5118V47.6791H69.9673V37.7285H76.1075V39.3116H71.5118Z" fill="white"/>
<path id="Vector_23" d="M79.1589 37.7285H77.5391V47.6791H79.1589V37.7285Z" fill="white"/>
<path id="Vector_24" d="M82.8883 39.3116V41.95H86.8436V43.533H82.8883V46.096H87.597V47.6791H81.3061V37.7285H87.597V39.3116H82.8883Z" fill="white"/>
<path id="Vector_25" d="M95.6961 39.3864C95.4324 38.8587 94.9804 38.4441 94.453 38.1802C93.888 37.9164 93.2099 37.7656 92.4565 37.7656H89.3676V47.7162H92.4565C93.2476 47.7162 93.9257 47.5654 94.4907 47.2639C95.0558 47.0001 95.4701 46.5854 95.7338 46.0201C96.0352 45.4924 96.1481 44.8516 96.1481 44.1355V41.3086C96.1481 40.5548 95.9975 39.914 95.6961 39.3864ZM94.5284 44.1732C94.5284 44.7763 94.34 45.2662 94.001 45.6055C93.662 45.9447 93.1346 46.1331 92.4942 46.1331H90.912V39.311H92.4942C93.1346 39.311 93.662 39.4617 94.001 39.8387C94.3777 40.1779 94.5284 40.6679 94.5284 41.2709V44.1732Z" fill="white"/>
<path id="Vector_26" d="M22.1212 24.7409L20.7366 26.2319L27.0563 32.1073L28.441 30.6162L22.1212 24.7409Z" fill="white"/>
<path id="Vector_27" d="M31.9208 23.8959C32.4859 24.4989 32.6742 25.2151 32.5235 25.9689C32.3728 26.7227 31.9208 27.4766 31.1297 28.1927C30.753 28.5319 30.414 28.7958 29.9996 29.0219C29.6229 29.2481 29.2839 29.4365 29.0202 29.5873L27.9655 28.1927C28.1161 28.155 28.4175 28.0796 28.8696 27.8535C29.2839 27.665 29.6606 27.4012 29.9996 27.0997C30.3386 26.7981 30.527 26.4966 30.6024 26.1951C30.6777 25.8935 30.64 25.6297 30.414 25.4035C30.2633 25.2528 30.0373 25.1397 29.7736 25.1397C29.4722 25.1397 29.0579 25.2528 28.4552 25.5166C27.6641 25.8558 27.0237 26.0443 26.4586 26.0443C25.8936 26.0443 25.4039 25.7805 24.9142 25.2528C24.3491 24.6497 24.1231 23.9713 24.2738 23.2174C24.4245 22.4636 24.8765 21.7475 25.7052 20.9936C26.0066 20.7298 26.308 20.5036 26.647 20.2775C26.986 20.089 27.2497 19.9006 27.5134 19.8252L28.4928 21.1067C28.1915 21.2198 27.8901 21.3329 27.6264 21.4836C27.3628 21.6344 27.0991 21.8228 26.7977 22.0867C26.4587 22.3882 26.2703 22.6898 26.195 22.9536C26.1196 23.2551 26.195 23.519 26.3833 23.7451C26.534 23.8959 26.7224 23.9713 26.9861 23.9713C27.2498 23.9713 27.7395 23.7828 28.4552 23.4813C29.2463 23.1044 29.9243 22.9536 30.414 23.029C30.979 23.1044 31.4688 23.3682 31.9208 23.8959Z" fill="white"/>
<path id="Vector_28" d="M38.7388 16.9225C39.4922 18.0909 39.7936 19.184 39.6052 20.2771C39.4169 21.3701 38.7388 22.2747 37.6464 23.0285C36.5162 23.7824 35.4239 24.0462 34.3314 23.7824C33.2767 23.5562 32.3349 22.8401 31.5815 21.6716C30.7904 20.5032 30.4891 19.3725 30.6774 18.3171C30.8658 17.2617 31.5438 16.3194 32.6739 15.5656C33.804 14.8118 34.8964 14.5479 35.9512 14.7741C37.0436 15.0379 37.9477 15.7541 38.7388 16.9225ZM37.006 18.0909C36.5163 17.3371 35.9512 16.8471 35.3485 16.621C34.7458 16.3948 34.1431 16.4702 33.578 16.8848C32.9753 17.2617 32.674 17.7894 32.6363 18.4302C32.5986 19.0709 32.8246 19.7871 33.3143 20.5409C33.804 21.2947 34.3691 21.7847 34.9718 21.9732C35.5745 22.1993 36.1772 22.1239 36.78 21.7093C37.345 21.3324 37.6464 20.8047 37.6841 20.164C37.7217 19.5232 37.4957 18.8071 37.006 18.0909Z" fill="white"/>
<path id="Vector_29" d="M41.6772 12.7769L41.0368 11.3824C41.1875 11.2316 41.4135 11.0431 41.7902 10.817C42.1669 10.5908 42.619 10.3647 43.1464 10.1385C44.0504 9.79931 44.8415 9.68624 45.4819 9.83701C46.1223 9.98777 46.612 10.4401 46.8757 11.1185C47.0641 11.5708 47.064 12.0231 46.9134 12.4377C46.7627 12.8523 46.499 13.2292 46.0846 13.5685C46.6497 13.4554 47.1394 13.4931 47.5161 13.7192C47.8928 13.9454 48.1941 14.2846 48.3825 14.8123C48.6839 15.6038 48.6462 16.32 48.1941 16.9984C47.7798 17.6392 47.0641 18.1668 46.047 18.5814C45.5196 18.8076 45.0675 18.9207 44.6531 19.0337C44.2388 19.1091 43.9374 19.1845 43.6737 19.1845L43.184 17.6015C43.3347 17.6392 43.5984 17.6392 43.9751 17.5638C44.3518 17.5261 44.7662 17.413 45.2182 17.2246C45.7079 17.0361 46.047 16.7723 46.273 16.4707C46.499 16.1692 46.5743 15.83 46.4236 15.4907C46.273 15.1138 46.0093 14.8877 45.6702 14.85C45.3312 14.8123 44.8792 14.8877 44.3518 15.0761L43.5984 15.3777L43.071 14.0208L43.6737 13.7946C44.2011 13.5685 44.6155 13.3423 44.8415 13.0408C45.1052 12.7393 45.1429 12.4377 45.0299 12.0985C44.9169 11.797 44.6908 11.5708 44.3895 11.5331C44.0881 11.4577 43.7114 11.5331 43.2594 11.6839C42.845 11.8347 42.506 12.0231 42.2046 12.2493C42.0163 12.4377 41.7902 12.6262 41.6772 12.7769Z" fill="white"/>
<path id="Vector_30" d="M54.2591 7.01025L54.5981 8.55561L53.2043 16.1316L52.9783 16.1693L51.2832 16.5462L51.0948 16.5839L52.5639 8.97022L48.8346 9.83712L48.4956 8.36715L54.2591 7.01025Z" fill="white"/>
<path id="Vector_31" d="M63.0361 10.2892C63.1868 11.7215 63.0361 12.8523 62.6217 13.6815C62.2073 14.5107 61.4539 14.963 60.3615 15.0761C59.269 15.1891 58.4404 14.8876 57.8753 14.1715C57.2726 13.4553 56.8959 12.4 56.7452 10.9677C56.5945 9.53539 56.7452 8.40465 57.1596 7.57543C57.5739 6.74622 58.3273 6.29392 59.4197 6.18084C60.5122 6.06777 61.3409 6.3693 61.906 7.08544C62.5087 7.80158 62.8854 8.85694 63.0361 10.2892ZM61.0396 10.5154C60.9266 9.53539 60.7759 8.78156 60.5498 8.29157C60.3238 7.80158 59.9848 7.57543 59.5328 7.61312C59.0808 7.65081 58.7794 7.95235 58.704 8.48003C58.591 9.00771 58.591 9.76154 58.704 10.7415C58.8171 11.7215 58.9677 12.4376 59.1937 12.9276C59.4197 13.4176 59.7588 13.6438 60.2108 13.6061C60.6629 13.5684 60.9642 13.2669 61.0772 12.7392C61.1526 12.2115 61.1526 11.4954 61.0396 10.5154Z" fill="white"/>
<path id="Vector_32" d="M70.6832 10.2892C70.6455 11.7215 70.3442 12.8146 69.8168 13.5684C69.2894 14.3222 68.4606 14.6991 67.3682 14.6615C66.2758 14.6238 65.5224 14.2092 65.0327 13.4553C64.543 12.6638 64.317 11.5707 64.3547 10.1385C64.3923 8.70619 64.6937 7.57544 65.221 6.8593C65.7484 6.10547 66.5771 5.72855 67.6696 5.76625C68.762 5.80394 69.5154 6.21854 70.0052 7.01007C70.5325 7.72621 70.7209 8.85695 70.6832 10.2892ZM68.7243 10.2515C68.762 9.27156 68.6867 8.51773 68.536 7.99005C68.3853 7.46237 68.084 7.19852 67.6319 7.19852C67.1799 7.19852 66.8409 7.42467 66.6902 7.95236C66.5018 8.48004 66.4265 9.19618 66.3888 10.2138C66.3511 11.1938 66.4265 11.9477 66.5772 12.4753C66.7279 13.003 67.0292 13.2669 67.4813 13.3046C67.9333 13.3046 68.2723 13.0784 68.4607 12.5507C68.5737 11.9477 68.6867 11.2315 68.7243 10.2515Z" fill="white"/>
<path id="Vector_33" d="M75.8064 15.5278L73.8099 15.1509L74.94 8.66797L73.3202 9.49718L72.6421 8.1026L75.618 6.70801L77.3132 7.00954L75.8064 15.5278Z" fill="white"/>
<path id="Vector_34" d="M85.8268 18.7321L86.5048 17.4129C87.0322 17.2998 87.522 17.1491 88.0493 17.036C88.539 16.8852 89.0664 16.7345 89.5561 16.5837C90.0835 16.3952 90.5356 16.2068 91.0253 15.9806C91.4773 15.7168 91.8163 15.4529 92.0047 15.076C92.1554 14.7745 92.1931 14.473 92.0801 14.1714C91.967 13.8699 91.741 13.6437 91.402 13.493C90.9876 13.2668 90.5356 13.1538 90.0835 13.0784C89.6315 13.0407 89.3301 13.0407 89.1794 13.0784L89.8198 11.6084C90.0458 11.6084 90.4225 11.6461 90.9122 11.7592C91.4019 11.8722 91.8917 12.0607 92.3814 12.3245C93.2101 12.7391 93.7375 13.3045 94.0012 13.9076C94.2649 14.5483 94.1895 15.2268 93.8128 15.9052C93.5115 16.4329 93.0594 16.8852 92.4567 17.2621C91.8163 17.6014 91.289 17.8652 90.8746 17.9783C90.5356 18.0913 90.1965 18.2044 89.8575 18.3175C89.5184 18.4306 89.1794 18.506 88.8027 18.619L91.854 20.2021L91.1383 21.5213L85.8268 18.7321Z" fill="white"/>
<path id="Vector_35" d="M99.35 22.0111C98.5213 23.1795 97.6926 23.9334 96.8262 24.2726C95.9598 24.6118 95.0934 24.461 94.1893 23.8203C93.3229 23.1795 92.8708 22.4257 92.9085 21.5211C92.9462 20.6165 93.3605 19.5611 94.1893 18.3927C95.018 17.2243 95.8844 16.4704 96.7132 16.1312C97.5796 15.792 98.446 15.9428 99.35 16.5835C100.216 17.2243 100.668 17.9781 100.631 18.8827C100.631 19.7496 100.179 20.805 99.35 22.0111ZM97.7303 20.8427C98.2953 20.0511 98.672 19.3727 98.8227 18.845C98.9734 18.3173 98.898 17.9404 98.4837 17.6389C98.107 17.375 97.6926 17.4127 97.2782 17.752C96.8638 18.0912 96.3365 18.6565 95.7714 19.4481C95.2064 20.2396 94.8296 20.8803 94.6789 21.408C94.5283 21.9357 94.6036 22.3126 95.018 22.5765C95.3947 22.8403 95.8091 22.8026 96.2234 22.4634C96.6755 22.1996 97.1652 21.6342 97.7303 20.8427Z" fill="white"/>
<path id="Vector_36" d="M100.857 29.0971L99.3499 27.7402L103.757 22.8026L101.912 22.6518L102.1 21.1064L105.339 21.4834L106.62 22.6518L100.857 29.0971Z" fill="white"/>
<path id="Vector_37" d="M108.692 33.3934C108.052 33.9588 107.336 34.2226 106.545 34.1849C105.754 34.1472 105.076 33.7703 104.473 33.0919C103.833 32.3757 103.569 31.5465 103.682 30.7173C103.795 29.8504 104.436 28.9458 105.528 27.9658C106.583 27.0235 107.638 26.4958 108.692 26.4204C109.747 26.3074 110.689 26.6843 111.48 27.5512C111.781 27.8527 112.007 28.192 112.158 28.4935C112.346 28.795 112.459 29.0589 112.535 29.285L111.329 30.0765L111.367 30.1142C111.292 29.8881 111.179 29.6619 111.066 29.3981C110.953 29.1719 110.802 28.9458 110.613 28.7196C110.011 28.192 109.37 27.9658 108.73 28.1166C108.24 28.2296 107.751 28.4935 107.186 28.9458C107.487 28.9081 107.788 28.9458 108.09 29.0212C108.466 29.1342 108.768 29.3604 109.031 29.6619C109.559 30.265 109.822 30.9057 109.747 31.5465C109.672 32.2249 109.333 32.828 108.692 33.3934ZM105.792 30.3027C105.528 30.6042 105.377 30.8304 105.34 31.0188C105.151 31.4334 105.227 31.8103 105.528 32.1119C105.754 32.3757 106.018 32.4888 106.357 32.4511C106.696 32.4134 106.997 32.2626 107.336 31.9988C107.675 31.735 107.864 31.3957 107.901 31.0942C107.977 30.755 107.864 30.4911 107.638 30.2273C107.412 29.9635 107.11 29.8504 106.733 29.8881C106.47 29.8881 106.168 30.0388 105.792 30.3027Z" fill="white"/>
<path id="Vector_38" d="M82.8882 16.0185C82.8882 16.6592 82.3608 17.1869 81.7205 17.1869C81.0801 17.1869 80.515 16.6592 80.515 16.0185C80.515 15.3777 81.0424 14.85 81.7205 14.85C82.3232 14.8124 82.8882 15.34 82.8882 16.0185Z" fill="white"/>
<path id="Vector_39" d="M84.5455 11.269C84.5455 11.9097 84.0181 12.4374 83.3777 12.4374C82.7373 12.4374 82.1723 11.9097 82.1723 11.269C82.1723 10.6282 82.6996 10.1005 83.3777 10.1005C84.0181 10.0628 84.5455 10.5905 84.5455 11.269Z" fill="white"/>
</g>
</svg>
