<svg width="169" height="47" viewBox="0 0 169 47" fill="none" xmlns="http://www.w3.org/2000/svg">
<path d="M113.136 23.5921H122.658C124.363 23.5921 125.745 24.9743 125.745 26.6795V29.4597C125.745 31.1649 124.363 32.547 122.658 32.547H113.136C111.431 32.547 110.049 31.1649 110.049 29.4597V26.6795C110.049 24.9743 111.431 23.5921 113.136 23.5921Z" fill="white"/>
<path d="M168.989 28.57C168.989 39.1666 161.167 46.3263 150.184 46.3263C139.201 46.3263 131.379 39.1719 131.379 28.57V6.22769C131.379 3.97704 133.201 2.15533 135.452 2.15533H139.439C141.69 2.15533 143.512 3.97704 143.512 6.22769V28.3476C143.512 32.5576 146.223 35.2796 150.19 35.2796C154.156 35.2796 156.857 32.3882 156.857 28.1781L156.867 6.22769C156.867 3.97704 158.689 2.15533 160.94 2.15533H164.927C167.178 2.15533 169 3.97704 169 6.22769V28.57H168.989Z" fill="white"/>
<path d="M89.046 10.962C86.61 10.962 84.3382 11.481 82.3152 12.4289C81.6056 12.7625 80.7848 12.2594 80.7848 11.4757V4.11472C80.7848 1.84289 78.9419 0 76.6701 0H73.5827C71.3109 0 69.468 1.84289 69.468 4.11472V34.9672C69.468 37.7103 68.107 38.5629 66.9685 38.3723C65.8352 38.1816 64.7019 35.8198 64.7178 33.3997V14.6795C64.7178 13.1809 63.5051 11.9629 62.0011 11.9629H57.2245C56.589 11.9629 56.0118 12.3336 55.747 12.9108C55.3763 13.721 54.3754 14.007 53.634 13.5198C51.1345 11.8834 48.1424 10.962 44.8538 10.962C34.6915 10.962 27.4259 18.2859 27.4259 28.5806C27.4259 29.3379 27.4682 30.074 27.5477 30.7942C27.5477 30.7942 27.5477 30.7995 27.5477 30.8048C27.7012 32.2611 26.5627 33.1613 25.3341 33.638C24.1055 34.1146 21.0181 34.3688 17.8619 34.3582H14.8752C13.2971 34.3582 12.0208 33.0819 12.0208 31.5038V6.57719C12.0208 4.1359 10.0402 2.15533 7.59895 2.15533H4.41627C1.98027 2.15533 -0.000305176 4.1359 -0.000305176 6.57719V40.3846C-0.000305176 43.0907 2.16561 45.2937 4.87169 45.3413C9.9661 45.4314 17.5495 45.5108 19.9007 45.2354C23.5494 44.8065 25.7207 41.7827 26.9757 40.8347C28.2414 39.8815 30.8204 39.5267 32.2873 41.269C32.2979 41.2796 32.3084 41.2902 32.319 41.3008C32.3296 41.3113 32.3349 41.3219 32.3455 41.3272C32.3879 41.3749 32.4355 41.4173 32.4832 41.4596C35.56 44.5152 39.86 46.3157 44.8591 46.3157C48.2272 46.3157 51.2827 45.3466 53.8194 43.6361C54.4337 43.2178 55.2492 43.2866 55.8264 43.7579C56.8855 44.6317 58.8185 45.7862 61.4875 45.6061C65.2633 45.3519 65.7452 43.2866 67.9217 43.3819C70.0982 43.4773 70.5218 45.5108 74.1176 45.5108C76.077 45.5108 77.4168 44.5841 78.1952 43.8056C78.7195 43.2813 79.5403 43.1966 80.1546 43.6203C82.6595 45.3466 85.6939 46.321 89.0513 46.321C99.2825 46.321 106.511 38.9707 106.511 28.6389C106.511 18.3071 99.2825 10.9567 89.0513 10.9567M46.4002 36.1799C42.1107 36.1799 38.9598 32.9389 38.9598 28.6018C38.9598 24.2647 42.0842 21.0502 46.4002 21.0502C50.7161 21.0502 53.8405 24.2911 53.8405 28.6018C53.8405 32.9125 50.6896 36.1799 46.4002 36.1799ZM87.5209 36.1799C83.2314 36.1799 80.0805 32.9389 80.0805 28.6336C80.0805 24.3282 83.2314 21.0555 87.5209 21.0555C91.8103 21.0555 94.9613 24.2964 94.9613 28.6336C94.9613 32.9707 91.7839 36.1799 87.5209 36.1799Z" fill="white"/>
<path d="M103.037 17.5869C104.425 19.6945 106.453 21.7651 108.285 22.6442C110.271 23.5921 113.443 23.5921 115.238 23.5921C117.034 23.5921 118.855 32.5524 115.996 32.5524C113.136 32.5524 110.53 32.9231 108.333 34.2364C106.061 35.5921 105.055 36.9795 103.291 39.3573C102.147 40.8983 93.9551 41.1472 93.9551 41.1472C93.9551 41.1472 99.632 23.7457 99.632 23.6027C99.632 23.4597 100.294 18.4871 100.294 18.4871L103.037 17.5921V17.5869Z" fill="white"/>
</svg>
