<svg width="84" height="24" viewBox="0 0 84 24" fill="none" xmlns="http://www.w3.org/2000/svg">
<path d="M56.2338 11.7266H60.9664C61.8139 11.7266 62.5009 12.4136 62.5009 13.2611V14.643C62.5009 15.4905 61.8139 16.1775 60.9664 16.1775H56.2338C55.3862 16.1775 54.6992 15.4905 54.6992 14.643V13.2611C54.6992 12.4136 55.3862 11.7266 56.2338 11.7266Z" fill="white"/>
<path d="M83.9944 14.2005C83.9944 19.4674 80.1067 23.0261 74.6476 23.0261C69.1885 23.0261 65.3008 19.4701 65.3008 14.2005V3.09542C65.3008 1.97675 66.2062 1.07129 67.3249 1.07129H69.3069C70.4256 1.07129 71.3311 1.97675 71.3311 3.09542V14.0899C71.3311 16.1825 72.6787 17.5354 74.6502 17.5354C76.6217 17.5354 77.9641 16.0983 77.9641 14.0057L77.9694 3.09542C77.9694 1.97675 78.8748 1.07129 79.9935 1.07129H81.9755C83.0942 1.07129 83.9996 1.97675 83.9996 3.09542V14.2005H83.9944Z" fill="white"/>
<path d="M44.2597 5.44856C43.0489 5.44856 41.9197 5.70651 40.9142 6.17767C40.5615 6.3435 40.1535 6.09344 40.1535 5.70388V2.04519C40.1535 0.91599 39.2376 0 38.1084 0H36.5738C35.4446 0 34.5286 0.91599 34.5286 2.04519V17.3801C34.5286 18.7436 33.8522 19.1674 33.2862 19.0726C32.723 18.9778 32.1597 17.8039 32.1676 16.601V7.29634C32.1676 6.55144 31.5648 5.94604 30.8173 5.94604H28.4431C28.1272 5.94604 27.8403 6.13029 27.7087 6.4172C27.5245 6.81992 27.027 6.96205 26.6585 6.7199C25.4161 5.90656 23.9289 5.44856 22.2944 5.44856C17.2433 5.44856 13.6319 9.08884 13.6319 14.2057C13.6319 14.5821 13.653 14.948 13.6925 15.306C13.6925 15.306 13.6925 15.3086 13.6925 15.3113C13.7688 16.0351 13.2029 16.4826 12.5922 16.7195C11.9816 16.9564 10.447 17.0827 8.87826 17.0774H7.39373C6.60934 17.0774 5.975 16.4431 5.975 15.6587V3.26914C5.975 2.05571 4.99057 1.07129 3.77714 1.07129H2.19522C0.984426 1.07129 0 2.05571 0 3.26914V20.0728C0 21.4179 1.07655 22.5128 2.42158 22.5365C4.95372 22.5813 8.72297 22.6208 9.89164 22.4839C11.7052 22.2707 12.7844 20.7677 13.4082 20.2966C14.0373 19.8228 15.3191 19.6464 16.0483 20.5124C16.0535 20.5177 16.0588 20.5229 16.064 20.5282C16.0693 20.5335 16.0719 20.5387 16.0772 20.5413C16.0983 20.565 16.122 20.5861 16.1456 20.6072C17.6749 22.1259 19.8122 23.0208 22.297 23.0208C23.971 23.0208 25.4898 22.5392 26.7506 21.689C27.0559 21.481 27.4613 21.5152 27.7482 21.7495C28.2746 22.1838 29.2354 22.7576 30.562 22.6681C32.4387 22.5418 32.6782 21.5152 33.76 21.5626C34.8419 21.61 35.0524 22.6208 36.8397 22.6208C37.8136 22.6208 38.4795 22.1601 38.8664 21.7732C39.127 21.5126 39.535 21.4705 39.8403 21.6811C41.0853 22.5392 42.5936 23.0235 44.2623 23.0235C49.3477 23.0235 52.9406 19.37 52.9406 14.2347C52.9406 9.09937 49.3477 5.44593 44.2623 5.44593M23.063 17.9829C20.9309 17.9829 19.3648 16.372 19.3648 14.2163C19.3648 12.0605 20.9177 10.4628 23.063 10.4628C25.2082 10.4628 26.7611 12.0737 26.7611 14.2163C26.7611 16.3589 25.195 17.9829 23.063 17.9829ZM43.5016 17.9829C41.3696 17.9829 39.8035 16.372 39.8035 14.2321C39.8035 12.0921 41.3696 10.4655 43.5016 10.4655C45.6337 10.4655 47.1998 12.0763 47.1998 14.2321C47.1998 16.3878 45.6205 17.9829 43.5016 17.9829Z" fill="white"/>
<path d="M51.2134 8.74121C51.903 9.78881 52.9111 10.818 53.8218 11.2549C54.8089 11.7261 56.3856 11.7261 57.2779 11.7261C58.1702 11.7261 59.0756 16.1797 57.6543 16.1797C56.2329 16.1797 54.9379 16.3639 53.8455 17.0167C52.7163 17.6905 52.2162 18.3802 51.3397 19.562C50.7712 20.328 46.6992 20.4517 46.6992 20.4517C46.6992 20.4517 49.5209 11.8024 49.5209 11.7313C49.5209 11.6603 49.8499 9.18868 49.8499 9.18868L51.2134 8.74384V8.74121Z" fill="white"/>
</svg>
