<svg width="198" height="55" viewBox="0 0 198 55" fill="none" xmlns="http://www.w3.org/2000/svg">
<g id="Group 34861">
<path id="Vector" d="M131.929 27.5107H143.032C145.021 27.5107 146.633 29.1225 146.633 31.1109V34.353C146.633 36.3414 145.021 37.9532 143.032 37.9532H131.929C129.941 37.9532 128.329 36.3414 128.329 34.353V31.1109C128.329 29.1225 129.941 27.5107 131.929 27.5107Z" fill="#E03854"/>
<path id="Vector_2" d="M197.06 33.3156C197.06 45.6724 187.939 54.0214 175.132 54.0214C162.324 54.0214 153.203 45.6786 153.203 33.3156V7.26199C153.203 4.63749 155.328 2.51318 157.952 2.51318H162.602C165.227 2.51318 167.351 4.63749 167.351 7.26199V33.0562C167.351 37.9656 170.513 41.1397 175.138 41.1397C179.763 41.1397 182.913 37.768 182.913 32.8586L182.925 7.26199C182.925 4.63749 185.049 2.51318 187.674 2.51318H192.324C194.948 2.51318 197.073 4.63749 197.073 7.26199V33.3156H197.06Z" fill="#E03854"/>
<path id="Vector_3" d="M103.838 12.7829C100.997 12.7829 98.3479 13.3881 95.9889 14.4934C95.1614 14.8825 94.2043 14.2958 94.2043 13.3819V4.79821C94.2043 2.14901 92.0553 0 89.4061 0H85.8058C83.1566 0 81.0076 2.14901 81.0076 4.79821V40.7755C81.0076 43.9743 79.4206 44.9686 78.0929 44.7463C76.7714 44.5239 75.4499 41.7698 75.4684 38.9476V17.1179C75.4684 15.3703 74.0542 13.95 72.3005 13.95H66.7303C65.9893 13.95 65.3162 14.3823 65.0074 15.0554C64.5751 16.0002 63.408 16.3337 62.5435 15.7656C59.6287 13.8574 56.1397 12.7829 52.3048 12.7829C40.4544 12.7829 31.9819 21.3233 31.9819 33.3281C31.9819 34.2112 32.0313 35.0696 32.1239 35.9094C32.1239 35.9094 32.1239 35.9156 32.1239 35.9217C32.303 37.6199 30.9753 38.6698 29.5427 39.2255C28.11 39.7813 24.5098 40.0777 20.8293 40.0654H17.3464C15.5062 40.0654 14.0179 38.5771 14.0179 36.7369V7.66973C14.0179 4.82291 11.7084 2.51335 8.86156 2.51335H5.1502C2.30956 2.51335 0 4.82291 0 7.66973V47.0929C0 50.2485 2.5257 52.8174 5.68128 52.873C11.6219 52.9779 20.465 53.0706 23.2068 52.7494C27.4616 52.2492 29.9935 48.7231 31.457 47.6178C32.9329 46.5062 35.9403 46.0925 37.6508 48.1241C37.6632 48.1365 37.6755 48.1488 37.6879 48.1612C37.7002 48.1735 37.7064 48.1859 37.7188 48.1921C37.7682 48.2477 37.8237 48.2971 37.8793 48.3465C41.4672 51.9096 46.4815 54.0092 52.311 54.0092C56.2385 54.0092 59.8016 52.8791 62.7596 50.8845C63.4759 50.3967 64.4269 50.4769 65.1001 51.0265C66.3351 52.0455 68.5891 53.3917 71.7015 53.1817C76.1044 52.8853 76.6664 50.4769 79.2044 50.5881C81.7425 50.6992 82.2365 53.0706 86.4296 53.0706C88.7144 53.0706 90.2768 51.9899 91.1845 51.0821C91.7959 50.4708 92.7531 50.372 93.4694 50.866C96.3903 52.8791 99.9288 54.0154 103.844 54.0154C115.775 54.0154 124.204 45.4441 124.204 33.396C124.204 21.348 115.775 12.7767 103.844 12.7767M54.108 42.1897C49.106 42.1897 45.4317 38.4104 45.4317 33.3528C45.4317 28.2952 49.0751 24.5468 54.108 24.5468C59.1409 24.5468 62.7843 28.3261 62.7843 33.3528C62.7843 38.3795 59.11 42.1897 54.108 42.1897ZM102.059 42.1897C97.0573 42.1897 93.3829 38.4104 93.3829 33.3899C93.3829 28.3693 97.0573 24.553 102.059 24.553C107.061 24.553 110.736 28.3323 110.736 33.3899C110.736 38.4474 107.03 42.1897 102.059 42.1897Z" fill="#E03854"/>
<path id="Vector_4" d="M120.153 20.5083C121.771 22.9661 124.136 25.3806 126.273 26.4057C128.589 27.5111 132.288 27.5111 134.381 27.5111C136.474 27.5111 138.599 37.9597 135.264 37.9597C131.929 37.9597 128.891 38.392 126.328 39.9235C123.679 41.5043 122.506 43.1223 120.45 45.895C119.116 47.692 109.562 47.9822 109.562 47.9822C109.562 47.9822 116.182 27.6902 116.182 27.5234C116.182 27.3567 116.954 21.5581 116.954 21.5581L120.153 20.5145V20.5083Z" fill="#E03854"/>
</g>
</svg>
