<svg xmlns="http://www.w3.org/2000/svg" width="1480" height="6" viewBox="0 0 1480 6" fill="none">
  <path d="M0.333333 3C0.333333 4.47276 1.52724 5.66667 3 5.66667C4.47276 5.66667 5.66667 4.47276 5.66667 3C5.66667 1.52724 4.47276 0.333333 3 0.333333C1.52724 0.333333 0.333333 1.52724 0.333333 3ZM1473.83 3C1473.83 4.47276 1475.03 5.66667 1476.5 5.66667C1477.97 5.66667 1479.17 4.47276 1479.17 3C1479.17 1.52724 1477.97 0.333333 1476.5 0.333333C1475.03 0.333333 1473.83 1.52724 1473.83 3ZM3 3.5H1476.5V2.5H3V3.5Z" fill="#E03854"/>
</svg>