<svg width="48" height="47" viewBox="0 0 48 47" fill="none" xmlns="http://www.w3.org/2000/svg">
<g clip-path="url(#clip0_20_159)">
<path d="M23.9997 47C37.2545 47 47.9997 36.4787 47.9997 23.5C47.9997 10.5213 37.2545 0 23.9997 0C10.7449 0 -0.000305176 10.5213 -0.000305176 23.5C-0.000305176 36.4787 10.7449 47 23.9997 47Z" fill="white"/>
<path d="M13.9368 19.1277H18.5824V33.7549H13.9368V19.1277ZM16.2678 11.8623C17.7616 11.8623 18.96 13.0357 18.96 14.4984C18.96 15.9451 17.7616 17.1345 16.2678 17.1345C14.774 17.1345 13.5756 15.9451 13.5756 14.4984C13.5592 13.0357 14.774 11.8623 16.2678 11.8623Z" fill="#E03854"/>
<path d="M21.5045 19.128H25.9532V21.1212H26.0189C26.6427 19.9638 28.1529 18.7583 30.4183 18.7583C35.1133 18.7583 35.9833 21.7802 35.9833 25.7183V33.7552H31.3376V26.6506C31.3376 24.9467 31.3048 22.7768 28.9245 22.7768C26.5114 22.7768 26.1338 24.6253 26.1338 26.5381V33.7552H21.5045V19.128Z" fill="#E03854"/>
</g>
<defs>
<clipPath id="clip0_20_159">
<rect width="48" height="47" fill="white" transform="translate(-0.000305176)"/>
</clipPath>
</defs>
</svg>
