<svg width="33" height="33" viewBox="0 0 33 33" fill="none" xmlns="http://www.w3.org/2000/svg">
<g clip-path="url(#clip0_20_103)">
<path d="M16.4997 33C25.6124 33 32.9997 25.6127 32.9997 16.5C32.9997 7.3873 25.6124 0 16.4997 0C7.387 0 -0.000305176 7.3873 -0.000305176 16.5C-0.000305176 25.6127 7.387 33 16.4997 33Z" fill="#332F30"/>
<path d="M9.58141 13.4302H12.7753V23.7004H9.58141V13.4302ZM11.184 8.32901C12.211 8.32901 13.0349 9.15288 13.0349 10.1799C13.0349 11.1956 12.211 12.0308 11.184 12.0308C10.157 12.0308 9.33312 11.1956 9.33312 10.1799C9.32183 9.15288 10.157 8.32901 11.184 8.32901Z" fill="white"/>
<path d="M14.7842 13.4302H17.8427V14.8297H17.8879C18.3167 14.0171 19.355 13.1707 20.9125 13.1707C24.1403 13.1707 24.7384 15.2924 24.7384 18.0575V23.7004H21.5445V18.712C21.5445 17.5157 21.5219 15.9921 19.8855 15.9921C18.2264 15.9921 17.9669 17.29 17.9669 18.633V23.7004H14.7842V13.4302Z" fill="white"/>
</g>
<defs>
<clipPath id="clip0_20_103">
<rect width="33" height="33" fill="white" transform="translate(-0.000305176)"/>
</clipPath>
</defs>
</svg>
