<svg width="44" height="50" viewBox="0 0 44 50" fill="none" xmlns="http://www.w3.org/2000/svg">
<path d="M43.7085 42.0079C42.5091 36.3921 38.466 32.2144 33.1391 30.9208C34.2502 29.424 35.2695 27.8413 36.1761 26.1491C38.2389 22.2957 39.6561 18.2353 39.093 13.6863C37.9442 4.39299 29.0415 -1.87161 20.3397 0.50644C11.4332 2.94115 6.79887 12.4611 10.0161 21.7388C11.2155 25.1955 13.0606 28.277 15.4031 31.4288C13.3384 32.2417 11.4576 33.0937 9.50928 33.7307C3.58542 35.671 -0.376965 41.578 0.0284707 48.0107C0.105428 49.2241 0.749245 49.9745 1.913 49.9979C2.74639 50.0155 3.60419 49.9217 4.41881 49.7283C11.0653 48.1377 17.2032 45.3571 22.7254 41.1599C23.0557 40.9078 23.3842 40.6538 23.7089 40.3978C23.9098 40.7319 24.2213 40.9957 24.6155 41.1872C27.9435 42.8091 31.2339 44.5364 34.6425 45.9472C36.7073 46.8031 38.9503 47.2427 41.1445 47.698C43.0741 48.0986 44.0258 47.2056 43.9995 45.1969C43.9863 44.1339 43.93 43.0455 43.7085 42.0079ZM21.1111 8.24241C22.365 5.22931 24.5404 3.89667 27.3184 4.49264C29.2048 4.89713 30.2653 6.24931 30.7872 8.07437C31.3953 10.2062 31.3934 12.3674 30.8341 14.5246C29.7848 18.5616 27.3822 21.6665 24.6024 24.5292C20.3885 20.5371 18.9094 13.532 21.1111 8.24241ZM12.9011 17.8875C12.0301 13.4069 14.0535 8.45345 17.954 5.87023C14.7724 13.8524 16.3961 20.799 21.6104 27.1769C20.6644 27.8745 19.7052 28.5818 18.641 29.3673C18.0103 28.4822 17.374 27.6498 16.8015 26.7744C15.0202 24.0426 13.5392 21.1702 12.9011 17.8875ZM4.39254 45.6541C4.27804 45.6815 4.15979 45.6873 3.94017 45.7147C4.13538 43.6473 4.93875 41.9376 6.18133 40.4369C7.35071 39.0222 8.8298 38.0999 10.5341 37.5234C16.61 35.4698 22.0966 32.3277 26.8079 27.8061C30.6013 24.1657 33.4882 19.9177 34.6425 14.5754C34.7721 13.9775 34.8715 13.3717 35.0198 12.5921C35.842 15.7556 35.3652 18.6183 34.2578 21.4047C32.5928 25.5941 29.8937 29.0508 26.9017 32.2573C20.6419 38.9636 13.207 43.5731 4.39254 45.6541ZM32.9757 41.1775C30.8172 40.2454 28.7656 39.0378 26.6896 37.9045C28.0448 36.6949 29.3362 35.4229 30.5506 34.0765C30.6933 34.2055 30.8566 34.3169 31.0424 34.399C31.7275 34.7057 32.4896 34.8327 33.1578 35.1688C34.4379 35.8156 35.8025 36.3862 36.9006 37.2929C38.7344 38.8092 39.7612 40.9039 40.1385 43.6767C37.6064 42.8091 35.2282 42.1506 32.9757 41.1775Z" fill="#E03854"/>
</svg>
