<svg width="24" height="26" viewBox="0 0 24 26" fill="none" xmlns="http://www.w3.org/2000/svg">
<path d="M4.48186 21.6671L5.05309 20.5553H5.05309L4.48186 21.6671ZM2.49542 19.6641L3.61108 19.1004H3.61108L2.49542 19.6641ZM21.5046 19.6641L20.3889 19.1004L21.5046 19.6641ZM19.5181 21.6671L18.9469 20.5553L19.5181 21.6671ZM21.5046 6.33588L20.3889 6.89963V6.89963L21.5046 6.33588ZM19.5181 4.33289L18.9469 5.44473V5.44473L19.5181 4.33289ZM4.48186 4.33289L5.05309 5.44473L4.48186 4.33289ZM2.49542 6.33588L3.61108 6.89963L2.49542 6.33588ZM16.5696 2.59369C15.8794 2.58037 15.309 3.12911 15.2957 3.81933C15.2824 4.50956 15.8311 5.0799 16.5213 5.09323L16.5696 2.59369ZM16.5213 20.9068C15.8311 20.9201 15.2824 21.4904 15.2957 22.1807C15.309 22.8709 15.8794 23.4196 16.5696 23.4063L16.5213 20.9068ZM12 5.08333C12.6904 5.08333 13.25 4.52369 13.25 3.83333C13.25 3.14298 12.6904 2.58333 12 2.58333V5.08333ZM12 23.4167C12.6904 23.4167 13.25 22.857 13.25 22.1667C13.25 21.4763 12.6904 20.9167 12 20.9167V23.4167ZM9.36963 9.50805C8.95986 8.95246 8.17728 8.83424 7.62169 9.24401C7.0661 9.65378 6.94788 10.4364 7.35765 10.9919L9.36963 9.50805ZM10.0333 12.5139L11.0393 11.7719V11.7719L10.0333 12.5139ZM10.0333 13.4861L11.0393 14.2281L10.0333 13.4861ZM7.35765 15.0081C6.94788 15.5636 7.0661 16.3462 7.62169 16.756C8.17728 17.1658 8.95986 17.0475 9.36963 16.4919L7.35765 15.0081ZM17.7955 2C17.7955 1.30964 17.2358 0.75 16.5455 0.75C15.8551 0.75 15.2955 1.30964 15.2955 2H17.7955ZM15.2955 24C15.2955 24.6904 15.8551 25.25 16.5455 25.25C17.2358 25.25 17.7955 24.6904 17.7955 24H15.2955ZM20.75 11.1667V14.8333H23.25V11.1667H20.75ZM3.25 14.8333V11.1667H0.75V14.8333H3.25ZM9.27273 20.9167C7.97908 20.9167 7.08465 20.9157 6.38991 20.8584C5.71008 20.8024 5.33276 20.699 5.05309 20.5553L3.91063 22.779C4.60329 23.1348 5.34856 23.2811 6.18465 23.35C7.00584 23.4177 8.02068 23.4167 9.27273 23.4167V20.9167ZM0.75 14.8333C0.75 16.0963 0.749044 17.1181 0.816011 17.9446C0.884137 18.7854 1.02864 19.533 1.37977 20.2279L3.61108 19.1004C3.46679 18.8148 3.36358 18.4305 3.30784 17.7427C3.25096 17.0406 3.25 16.1372 3.25 14.8333H0.75ZM5.05309 20.5553C4.43384 20.2371 3.92844 19.7284 3.61108 19.1004L1.37977 20.2279C1.93398 21.3246 2.81932 22.2183 3.91063 22.779L5.05309 20.5553ZM20.75 14.8333C20.75 16.1372 20.749 17.0406 20.6922 17.7427C20.6364 18.4305 20.5332 18.8148 20.3889 19.1004L22.6202 20.2279C22.9714 19.533 23.1159 18.7854 23.184 17.9446C23.251 17.1181 23.25 16.0963 23.25 14.8333H20.75ZM20.3889 19.1004C20.0716 19.7284 19.5662 20.2371 18.9469 20.5553L20.0894 22.779C21.1807 22.2183 22.066 21.3246 22.6202 20.2279L20.3889 19.1004ZM23.25 11.1667C23.25 9.90367 23.251 8.88186 23.184 8.05539C23.1159 7.21462 22.9714 6.467 22.6202 5.77212L20.3889 6.89963C20.5332 7.18518 20.6364 7.5695 20.6922 8.2573C20.749 8.95938 20.75 9.86276 20.75 11.1667H23.25ZM18.9469 5.44473C19.5662 5.76289 20.0716 6.27158 20.3889 6.89963L22.6202 5.77212C22.066 4.67536 21.1807 3.78173 20.0894 3.22104L18.9469 5.44473ZM9.27273 2.58333C8.02068 2.58333 7.00584 2.58235 6.18465 2.65C5.34856 2.71888 4.60329 2.86518 3.91063 3.22104L5.05309 5.44473C5.33276 5.30104 5.71008 5.19756 6.38991 5.14156C7.08465 5.08432 7.97908 5.08333 9.27273 5.08333V2.58333ZM3.25 11.1667C3.25 9.86276 3.25096 8.95938 3.30784 8.2573C3.36358 7.5695 3.46679 7.18518 3.61108 6.89963L1.37977 5.77212C1.02864 6.467 0.884137 7.21462 0.816011 8.05539C0.749044 8.88186 0.75 9.90367 0.75 11.1667H3.25ZM3.91063 3.22104C2.81932 3.78173 1.93398 4.67536 1.37977 5.77212L3.61108 6.89963C3.92844 6.27158 4.43384 5.76289 5.05309 5.44473L3.91063 3.22104ZM16.5213 5.09323C17.9253 5.12033 18.5238 5.22733 18.9469 5.44473L20.0894 3.22104C19.0981 2.71176 17.9642 2.62062 16.5696 2.59369L16.5213 5.09323ZM16.5696 23.4063C17.9642 23.3794 19.0981 23.2882 20.0894 22.779L18.9469 20.5553C18.5238 20.7727 17.9253 20.8797 16.5213 20.9068L16.5696 23.4063ZM9.27273 5.08333H12V2.58333H9.27273V5.08333ZM12 20.9167H9.27273V23.4167H12V20.9167ZM7.35765 10.9919L9.02732 13.2558L11.0393 11.7719L9.36963 9.50805L7.35765 10.9919ZM9.02732 12.7442L7.35765 15.0081L9.36963 16.4919L11.0393 14.2281L9.02732 12.7442ZM9.02732 13.2558C8.94075 13.1384 8.93182 13.0415 8.93182 13C8.93182 12.9585 8.94075 12.8616 9.02732 12.7442L11.0393 14.2281C11.3239 13.8422 11.4318 13.3934 11.4318 13C11.4318 12.6066 11.3239 12.1578 11.0393 11.7719L9.02732 13.2558ZM15.2955 2V24H17.7955V2H15.2955Z" fill="white"/>
</svg>
