<svg width="254" height="94" viewBox="0 0 254 94" fill="none" xmlns="http://www.w3.org/2000/svg">
<path d="M35.9364 93.1566V93.7915H28.1837V79.8171H35.7172V80.4468H28.8414V86.1827H35.1986V86.8017H28.8414V93.1619H35.9364V93.1566Z" fill="#E13754"/>
<path d="M37.8234 90.8569H38.4543C38.6254 92.4683 39.9139 93.3967 41.9564 93.3967C43.9988 93.3967 45.3836 92.4309 45.3836 90.9369C45.3836 89.0694 43.6245 88.7386 41.8441 88.4398C39.9727 88.1196 38.0426 87.7888 38.0426 85.6705C38.0426 83.9577 39.5931 82.7998 41.8762 82.7998C44.1592 82.7998 45.6296 83.9524 45.7365 85.8146H45.1216C45.0147 84.2939 43.8224 83.3868 41.8655 83.3868C39.9086 83.3868 38.6681 84.2939 38.6681 85.6545C38.6681 87.2712 40.2294 87.5327 41.9884 87.8261C43.8812 88.141 46.0199 88.5251 46.0199 90.9156C46.0199 92.7724 44.3891 93.9996 41.9457 93.9996C39.5022 93.9996 37.9998 92.8097 37.8287 90.8569H37.8234Z" fill="#E13754"/>
<path d="M54.2547 93.1833V93.7916H52.8378C50.8274 93.7916 49.603 92.5537 49.603 90.5101V83.5896H47.1115V83.024H49.603V79.8332H50.2446V83.024H54.1638V83.5896H50.2446V90.4887C50.2446 92.1908 51.2124 93.1833 52.8966 93.1833H54.2547Z" fill="#E13754"/>
<path d="M66.4511 83.0079V93.7862H65.8897L65.8202 90.9742C64.954 92.7991 63.1522 93.9996 60.8905 93.9996C57.752 93.9996 55.3781 91.5825 55.3781 88.3971C55.3781 85.2116 57.7466 82.7945 60.8905 82.7945C63.1575 82.7945 64.9594 83.995 65.8255 85.8199L65.9111 83.0026H66.4564L66.4511 83.0079ZM65.7988 88.3971C65.7988 85.5211 63.7456 83.4188 60.9226 83.4188C58.0995 83.4188 56.025 85.5691 56.025 88.3971C56.025 91.225 58.1316 93.3753 60.9226 93.3753C63.7136 93.3753 65.7988 91.273 65.7988 88.3971Z" fill="#E13754"/>
<path d="M85.7576 86.9884V93.7915H85.132L85.116 87.1325C85.116 84.8754 83.8969 83.3974 82.0363 83.3974C79.8923 83.3974 78.4005 85.0622 78.3845 87.4846V93.7862H77.7536V87.1271C77.7536 84.8434 76.5506 83.3921 74.6685 83.3921C72.5245 83.3921 71.0328 85.0569 71.0167 87.4793V93.7808H70.3751V83.0026H70.8831L70.9846 85.2009C71.6637 83.7069 73.0485 82.7945 74.7701 82.7945C76.4918 82.7945 77.7643 83.8616 78.2081 85.5531C78.8176 83.851 80.2772 82.7945 82.1272 82.7945C84.3086 82.7945 85.7523 84.4806 85.7523 86.9831L85.7576 86.9884Z" fill="#E13754"/>
<path d="M88.5432 88.3971C88.5432 85.1742 90.9599 82.7945 94.1626 82.7945C97.3653 82.7945 99.782 85.1903 99.782 88.3971C99.782 91.6039 97.3813 93.9943 94.1626 93.9943C90.9439 93.9943 88.5432 91.5985 88.5432 88.3971ZM99.135 88.3971C99.135 85.5478 97.0177 83.4188 94.1626 83.4188C91.3075 83.4188 89.1902 85.5317 89.1902 88.3971C89.1902 91.2624 91.3182 93.3753 94.1626 93.3753C97.007 93.3753 99.135 91.2517 99.135 88.3971Z" fill="#E13754"/>
<path d="M101.748 90.8568H102.379C102.55 92.4682 103.839 93.3966 105.881 93.3966C107.923 93.3966 109.308 92.4308 109.308 90.9368C109.308 89.0693 107.549 88.7385 105.769 88.4397C103.897 88.1195 101.967 87.7887 101.967 85.6704C101.967 83.9576 103.518 82.7998 105.801 82.7998C108.084 82.7998 109.554 83.9523 109.661 85.8145H109.046C108.939 84.2938 107.747 83.3867 105.79 83.3867C103.833 83.3867 102.593 84.2938 102.593 85.6544C102.593 87.2712 104.154 87.5326 105.913 87.8261C107.806 88.1409 109.945 88.5251 109.945 90.9155C109.945 92.7723 108.314 93.9996 105.87 93.9996C103.427 93.9996 101.924 92.8097 101.753 90.8568H101.748Z" fill="#E13754"/>
<path d="M129.536 88.397C129.536 91.5825 127.258 93.9942 124.045 93.9942C121.842 93.9942 120.024 92.815 119.131 91.0115L119.041 93.7861H118.506V79.1981H119.147V85.7505C120.046 83.963 121.858 82.7944 124.05 82.7944C127.264 82.7944 129.541 85.2062 129.541 88.397H129.536ZM128.884 88.397C128.884 85.521 126.831 83.4187 124.008 83.4187C121.185 83.4187 119.11 85.553 119.11 88.397C119.11 91.241 121.217 93.3753 124.008 93.3753C126.799 93.3753 128.884 91.273 128.884 88.397Z" fill="#E13754"/>
<path d="M132.374 79.5023H133.315V80.6175H132.374V79.5023ZM132.524 83.0133H133.165V93.7915H132.524V83.0133Z" fill="#E13754"/>
<path d="M146.875 88.5945H136.792C136.888 91.3531 138.898 93.37 141.571 93.37C143.475 93.37 144.999 92.3829 145.865 90.7128H146.544C145.523 92.8418 143.785 93.9943 141.571 93.9943C138.492 93.9943 136.155 91.5772 136.155 88.381C136.155 85.1849 138.492 82.7945 141.571 82.7945C144.651 82.7945 146.881 85.2116 146.881 88.317C146.881 88.4024 146.881 88.5038 146.87 88.5838L146.875 88.5945ZM136.802 87.9915H146.255C146.089 85.2596 144.111 83.4134 141.577 83.4134C139.043 83.4134 136.984 85.3343 136.802 87.9915Z" fill="#E13754"/>
<path d="M158.869 87.4099V93.7861H158.227V87.5166C158.227 84.9448 156.826 83.392 154.511 83.392C152.196 83.392 150.421 85.2809 150.421 87.5059V93.7861H149.779V83.0079H150.287L150.4 85.4943C151.137 83.9043 152.773 82.7998 154.634 82.7998C157.238 82.7998 158.869 84.63 158.869 87.4099Z" fill="#E13754"/>
<path d="M173.122 93.1832V93.7915H171.705C169.694 93.7915 168.47 92.5536 168.47 90.51V83.5895H165.979V83.0239H168.47V79.8331H169.112V83.0239H173.031V83.5895H169.112V90.4887C169.112 92.1908 170.079 93.1832 171.764 93.1832H173.122Z" fill="#E13754"/>
<path d="M174.267 88.3971C174.267 85.1742 176.684 82.7945 179.886 82.7945C183.089 82.7945 185.506 85.1903 185.506 88.3971C185.506 91.6039 183.105 93.9943 179.886 93.9943C176.668 93.9943 174.267 91.5985 174.267 88.3971ZM184.859 88.3971C184.859 85.5478 182.741 83.4188 179.886 83.4188C177.031 83.4188 174.914 85.5317 174.914 88.3971C174.914 91.2624 177.047 93.3753 179.886 93.3753C182.725 93.3753 184.859 91.2517 184.859 88.3971Z" fill="#E13754"/>
<path d="M198.555 79.1982V93.7862H198.02L197.93 91.0383C197.047 92.8257 195.262 93.9943 193.027 93.9943C189.872 93.9943 187.52 91.5772 187.52 88.3971C187.52 85.2169 189.872 82.7945 193.027 82.7945C195.246 82.7945 197.026 83.9523 197.914 85.7185V79.1928H198.555V79.1982ZM197.946 88.3971C197.946 85.5264 195.887 83.4188 193.064 83.4188C190.241 83.4188 188.172 85.5477 188.172 88.3971C188.172 91.2464 190.273 93.3753 193.064 93.3753C195.855 93.3753 197.946 91.2624 197.946 88.3971Z" fill="#E13754"/>
<path d="M201.521 88.3971C201.521 85.1742 203.938 82.7945 207.141 82.7945C210.344 82.7945 212.76 85.1903 212.76 88.3971C212.76 91.6039 210.36 93.9943 207.141 93.9943C203.922 93.9943 201.521 91.5985 201.521 88.3971ZM212.113 88.3971C212.113 85.5478 209.996 83.4188 207.141 83.4188C204.286 83.4188 202.168 85.5317 202.168 88.3971C202.168 91.2624 204.302 93.3753 207.141 93.3753C209.98 93.3753 212.113 91.2517 212.113 88.3971Z" fill="#E13754"/>
<path d="M214.73 90.8568H215.361C215.532 92.4682 216.821 93.3966 218.863 93.3966C220.906 93.3966 222.291 92.4308 222.291 90.9368C222.291 89.0693 220.532 88.7385 218.751 88.4397C216.88 88.1195 214.95 87.7887 214.95 85.6704C214.95 83.9576 216.5 82.7998 218.783 82.7998C221.066 82.7998 222.537 83.9523 222.644 85.8145H222.029C221.922 84.2938 220.729 83.3867 218.773 83.3867C216.816 83.3867 215.575 84.2938 215.575 85.6544C215.575 87.2712 217.136 87.5326 218.896 87.8261C220.788 88.1409 222.927 88.5251 222.927 90.9155C222.927 92.7723 221.296 93.9996 218.853 93.9996C216.409 93.9996 214.907 92.8097 214.736 90.8568H214.73Z" fill="#E13754"/>
<path d="M225.263 92.5429H226.23V93.7915H225.263V92.5429Z" fill="#E13754"/>
<path d="M169.533 35.2802H183.803C186.359 35.2802 188.433 37.3505 188.433 39.901V44.0575C188.433 46.608 186.359 48.6783 183.803 48.6783H169.533C166.977 48.6783 164.902 46.608 164.902 44.0575V39.901C164.902 37.3505 166.977 35.2802 169.533 35.2802Z" fill="#E13754"/>
<path d="M253.225 42.7235C253.225 58.5707 241.5 69.2743 225.043 69.2743C208.586 69.2743 196.86 58.5707 196.86 42.7235V9.31088C196.86 5.94934 199.593 3.22276 202.961 3.22276H208.933C212.302 3.22276 215.034 5.94934 215.034 9.31088V42.3927C215.034 48.6889 219.097 52.7601 225.038 52.7601C230.978 52.7601 235.025 48.4381 235.025 42.1366L235.041 9.31088C235.041 5.94934 237.773 3.22276 241.142 3.22276H247.114C250.482 3.22276 253.215 5.94934 253.215 9.31088V42.7235H253.225Z" fill="#E13754"/>
<path d="M133.432 16.3968C129.781 16.3968 126.375 17.1705 123.349 18.5898C122.285 19.0861 121.06 18.3391 121.06 17.1652V6.15215C121.06 2.75326 118.301 0 114.895 0H110.27C106.865 0 104.106 2.75326 104.106 6.15215V52.2906C104.106 56.3938 102.063 57.669 100.363 57.3862C98.6628 57.1035 96.9625 53.5658 96.9893 49.9482V21.9514C96.9893 19.7103 95.166 17.8908 92.9204 17.8908H85.7665C84.8148 17.8908 83.9486 18.4458 83.553 19.3102C83.0023 20.5214 81.4998 20.9482 80.3824 20.2172C76.6343 17.7735 72.1538 16.3915 67.2295 16.3915C52.0021 16.3915 41.1162 27.3458 41.1162 42.7395C41.1162 43.8707 41.1803 44.9752 41.298 46.0531C41.298 46.0584 41.298 46.0637 41.298 46.0744C41.5279 48.2567 39.8223 49.6014 37.983 50.311C36.1384 51.0207 31.5135 51.3995 26.7817 51.3942H22.3011C19.9379 51.3942 18.0237 49.484 18.0237 47.1256V9.83383C18.0237 6.18416 15.0563 3.22281 11.3992 3.22281H6.62992C2.96742 3.22281 0 6.17883 0 9.83383V60.385C0 64.4295 3.24545 67.727 7.29825 67.8017C14.9334 67.9404 26.2951 68.0578 29.8186 67.6469C35.2829 67.0066 38.5391 62.4819 40.4211 61.0679C42.3192 59.6433 46.1795 59.115 48.3823 61.7189C48.3984 61.7349 48.4144 61.7509 48.4305 61.7669C48.4465 61.7829 48.4572 61.7936 48.4732 61.8096C48.5374 61.879 48.6069 61.9483 48.6818 62.0124C53.2906 66.5798 59.7334 69.2744 67.2295 69.2744C72.2821 69.2744 76.8589 67.8284 80.6551 65.2618C81.5747 64.6376 82.7991 64.7389 83.6599 65.4433C85.2479 66.7452 88.1458 68.474 92.1398 68.2072C97.7966 67.8284 98.5184 64.7389 101.78 64.883C105.041 65.0271 105.678 68.0685 111.067 68.0685C114.008 68.0685 116.013 66.6812 117.173 65.518C117.959 64.7336 119.194 64.6109 120.103 65.2405C123.856 67.8177 128.407 69.2797 133.432 69.2797C148.767 69.2797 159.599 58.2827 159.599 42.8409C159.599 27.3992 148.767 16.4022 133.432 16.4022M69.5179 54.1261C63.0911 54.1261 58.37 49.2812 58.37 42.7929C58.37 36.3046 63.0537 31.4971 69.5179 31.4971C75.982 31.4971 80.6658 36.342 80.6658 42.7929C80.6658 49.2439 75.9446 54.1261 69.5179 54.1261ZM131.139 54.1261C124.712 54.1261 119.991 49.2812 119.991 42.8463C119.991 36.4113 124.712 31.5131 131.139 31.5131C137.565 31.5131 142.287 36.358 142.287 42.8463C142.287 49.3346 137.523 54.1261 131.139 54.1261Z" fill="#E13754"/>
<path d="M154.398 26.2947C156.478 29.4428 159.52 32.5483 162.263 33.8555C165.241 35.2748 169.989 35.2748 172.684 35.2748C175.378 35.2748 178.1 48.673 173.817 48.673C169.534 48.673 165.626 49.2279 162.332 51.1861C158.932 53.2137 157.419 55.2893 154.777 58.8376C153.061 61.1427 140.785 61.5108 140.785 61.5108C140.785 61.5108 149.292 35.4883 149.292 35.2695C149.292 35.0507 150.286 27.6233 150.286 27.6233L154.398 26.2841V26.2947Z" fill="#E13754"/>
</svg>
