<svg width="23" height="24" viewBox="0 0 23 24" fill="none" xmlns="http://www.w3.org/2000/svg">
<path d="M21.0026 23.6583L16.8711 19.3483C16.6497 19.1172 16.5253 18.8038 16.5253 18.477C16.5253 18.1502 16.6497 17.8367 16.8711 17.6056C17.0926 17.3745 17.3929 17.2447 17.7061 17.2447C18.0193 17.2447 18.3196 17.3745 18.5411 17.6056L22.6726 21.917C22.8858 22.1496 23.0033 22.4601 22.9999 22.782C22.9965 23.1039 22.8725 23.4116 22.6543 23.6393C22.4362 23.8669 22.1413 23.9964 21.8328 23.9999C21.5243 24.0035 21.2255 23.8809 21.0026 23.6583ZM0 9.8543C0 7.9053 0.553832 6.00007 1.59146 4.37954C2.62909 2.75902 4.10391 1.49597 5.82943 0.750118C7.55494 0.00426969 9.45365 -0.190878 11.2854 0.189352C13.1172 0.569582 14.7999 1.50811 16.1205 2.88626C17.4412 4.26441 18.3405 6.02027 18.7049 7.93182C19.0693 9.84336 18.8823 11.8247 18.1675 13.6254C17.4528 15.426 16.2424 16.965 14.6895 18.0478C13.1366 19.1306 11.3109 19.7086 9.44317 19.7086C6.93952 19.7058 4.53918 18.6666 2.76883 16.8192C0.99848 14.9718 0.00270775 12.4669 0 9.8543ZM2.36047 9.8543C2.36047 11.3161 2.77587 12.7451 3.55412 13.9605C4.33238 15.176 5.43855 16.1233 6.73274 16.6827C8.02693 17.2421 9.45103 17.3885 10.8249 17.1033C12.1988 16.8181 13.4609 16.1142 14.4514 15.0806C15.4419 14.0469 16.1165 12.7299 16.3898 11.2962C16.6631 9.86249 16.5228 8.3764 15.9867 7.02586C15.4507 5.67532 14.5429 4.521 13.3781 3.70886C12.2134 2.89672 10.844 2.46324 9.44317 2.46324C7.56535 2.46536 5.76501 3.24474 4.43719 4.63037C3.10937 6.01601 2.3625 7.89472 2.36047 9.8543Z" fill="#A7A7A7"/>
</svg>
