<svg width="159" height="133" viewBox="0 0 159 133" fill="none" xmlns="http://www.w3.org/2000/svg">
<path fill-rule="evenodd" clip-rule="evenodd" d="M54.6645 10.1658C54.051 4.74658 58.2906 0 63.7445 0H92.7728C99.7345 0 106.332 3.11186 110.759 8.48412L118.231 17.5496C121.688 21.7436 126.769 24.2635 132.2 24.4765L134.051 24.5491C134.36 21.3261 137.075 18.8056 140.379 18.8056H143.557C144.727 18.8056 145.676 19.7543 145.676 20.9245C145.676 22.0948 144.727 23.0435 143.557 23.0435H140.379C139.208 23.0435 138.26 23.9921 138.26 25.1624V50.8545C138.26 52.0248 139.208 52.9735 140.379 52.9735H152.298V31.5192C152.298 30.349 153.246 29.4003 154.417 29.4003C155.587 29.4003 156.536 30.349 156.536 31.5192V55.0924C156.536 56.2627 155.587 57.2114 154.417 57.2114H140.379C137.397 57.2114 134.895 55.1586 134.208 52.3893L130.899 52.7304C117.487 54.1132 104.193 49.1892 94.918 39.4032L84.5723 28.488C81.2581 24.9913 81.2929 19.5026 84.6513 16.0482C88.0545 12.5478 93.6306 12.4067 97.2064 15.7307L111.097 28.6429C111.954 29.4397 112.003 30.7804 111.206 31.6376C110.409 32.4947 109.069 32.5436 108.211 31.7469L94.3211 18.8347C92.4324 17.079 89.4873 17.1535 87.6898 19.0024C85.916 20.8268 85.8976 23.7259 87.6481 25.5727L97.9938 36.4879C106.364 45.3192 118.361 49.7627 130.465 48.5149L134.022 48.1482V28.7891L132.034 28.7111C125.396 28.4508 119.185 25.3709 114.961 20.2449L107.489 11.1794C103.866 6.78395 98.4687 4.23788 92.7728 4.23788H63.7445C60.8199 4.23788 58.5465 6.78315 58.8755 9.68913C59.1559 12.1662 61.2515 14.038 63.7445 14.038H75.2214C76.3916 14.038 77.3403 14.9867 77.3403 16.1569C77.3403 17.3272 76.3916 18.2759 75.2214 18.2759H63.7445C59.0955 18.2759 55.1875 14.7853 54.6645 10.1658ZM73.3342 56.0092C69.3805 52.3782 63.211 52.7214 59.6843 56.7684C56.0264 60.9659 56.7238 67.3905 61.197 70.7055L79.4234 84.2126L96.6167 70.74C96.6316 70.7283 96.6467 70.7168 96.662 70.7055C101.135 67.3905 101.833 60.9659 98.1747 56.7684C94.648 52.7214 88.4785 52.3782 84.5248 56.0092L80.3628 59.8315C79.5522 60.5758 78.3068 60.5758 77.4962 59.8315L73.3342 56.0092ZM56.4893 53.9842C61.5821 48.14 70.4913 47.6445 76.2007 52.8879L78.9295 55.3939L81.6583 52.8879C87.3677 47.6445 96.2769 48.14 101.37 53.9842C106.645 60.0382 105.647 69.3003 99.2092 74.0925L80.7662 88.5443C80.0154 89.1327 78.964 89.1468 78.1976 88.5789L58.6738 74.1103C52.2141 69.3233 51.2071 60.0457 56.4893 53.9842ZM0.263916 77.3415C0.263916 76.1713 1.2126 75.2226 2.38285 75.2226H16.4208C19.4024 75.2226 21.9045 77.2753 22.5911 80.0446L25.9001 79.7035C39.3122 78.3208 52.6061 83.2447 61.8815 93.0307L72.2272 103.946C75.5415 107.443 75.5066 112.931 72.1483 116.386C68.745 119.886 63.1689 120.027 59.5931 116.703L45.7028 103.791C44.8456 102.994 44.7967 101.654 45.5935 100.796C46.3902 99.9393 47.731 99.8903 48.5881 100.687L62.4785 113.599C64.3671 115.355 67.3122 115.28 69.1097 113.432C70.8835 111.607 70.9019 108.708 69.1514 106.861L58.8057 95.946C50.4352 87.1148 38.4383 82.6712 26.3346 83.919L22.7776 84.2857V103.645L24.7655 103.723C31.403 103.983 37.6141 107.063 41.8389 112.189L49.3104 121.255C52.933 125.65 58.3308 128.196 64.0268 128.196H93.0551C95.9796 128.196 98.253 125.651 97.924 122.745C97.6436 120.268 95.548 118.396 93.0551 118.396H81.5782C80.4079 118.396 79.4592 117.447 79.4592 116.277C79.4592 115.107 80.4079 114.158 81.5782 114.158H93.0551C97.704 114.158 101.612 117.649 102.135 122.268C102.748 127.687 98.5089 132.434 93.0551 132.434H64.0268C57.0651 132.434 50.4678 129.322 46.0401 123.95L38.5686 114.884C35.112 110.69 30.0301 108.17 24.5995 107.957L22.7484 107.885C22.4399 111.108 19.7247 113.628 16.4208 113.628H13.2424C12.0722 113.628 11.1235 112.68 11.1235 111.509C11.1235 110.339 12.0722 109.39 13.2424 109.39H16.4208C17.5911 109.39 18.5398 108.442 18.5398 107.272V105.695C18.5397 105.688 18.5397 105.68 18.5398 105.672V82.3981C18.5395 82.3803 18.5395 82.3625 18.5398 82.3448V81.5794C18.5398 80.4091 17.5911 79.4605 16.4208 79.4605H4.50179V100.915C4.50179 102.085 3.55311 103.034 2.38285 103.034C1.2126 103.034 0.263916 102.085 0.263916 100.915V77.3415Z" fill="#E03854"/>
<path d="M5.82708 111.774C5.82708 113.384 4.52264 114.688 2.91354 114.688C1.30444 114.688 0 113.384 0 111.774C0 110.165 1.30444 108.861 2.91354 108.861C4.52264 108.861 5.82708 110.165 5.82708 111.774Z" fill="#E03854"/>
<path d="M39.2004 73.1038C39.2004 74.7129 37.8959 76.0174 36.2868 76.0174C34.6777 76.0174 33.3733 74.7129 33.3733 73.1038C33.3733 71.4947 34.6777 70.1903 36.2868 70.1903C37.8959 70.1903 39.2004 71.4947 39.2004 73.1038Z" fill="#E03854"/>
<path d="M38.6706 64.6281C38.6706 66.2372 37.3662 67.5416 35.7571 67.5416C34.148 67.5416 32.8435 66.2372 32.8435 64.6281C32.8435 63.019 34.148 61.7145 35.7571 61.7145C37.3662 61.7145 38.6706 63.019 38.6706 64.6281Z" fill="#E03854"/>
<path d="M39.7301 55.3577C39.7301 56.9668 38.4257 58.2713 36.8166 58.2713C35.2075 58.2713 33.903 56.9668 33.903 55.3577C33.903 53.7486 35.2075 52.4442 36.8166 52.4442C38.4257 52.4442 39.7301 53.7486 39.7301 55.3577Z" fill="#E03854"/>
<path d="M43.4382 46.882C43.4382 48.4911 42.1338 49.7955 40.5247 49.7955C38.9156 49.7955 37.6112 48.4911 37.6112 46.882C37.6112 45.2729 38.9156 43.9685 40.5247 43.9685C42.1338 43.9685 43.4382 45.2729 43.4382 46.882Z" fill="#E03854"/>
<path d="M47.941 38.6711C47.941 40.2802 46.6365 41.5846 45.0274 41.5846C43.4183 41.5846 42.1139 40.2802 42.1139 38.6711C42.1139 37.062 43.4183 35.7575 45.0274 35.7575C46.6365 35.7575 47.941 37.062 47.941 38.6711Z" fill="#E03854"/>
<path d="M54.8275 32.3142C54.8275 33.9233 53.5231 35.2277 51.914 35.2277C50.3049 35.2277 49.0005 33.9233 49.0005 32.3142C49.0005 30.7051 50.3049 29.4006 51.914 29.4006C53.5231 29.4006 54.8275 30.7051 54.8275 32.3142Z" fill="#E03854"/>
<path d="M61.979 27.2817C61.979 28.8908 60.6745 30.1952 59.0654 30.1952C57.4563 30.1952 56.1519 28.8908 56.1519 27.2817C56.1519 25.6726 57.4563 24.3682 59.0654 24.3682C60.6745 24.3682 61.979 25.6726 61.979 27.2817Z" fill="#E03854"/>
<path d="M71.2493 24.3681C71.2493 25.9772 69.9449 27.2816 68.3358 27.2816C66.7267 27.2816 65.4222 25.9772 65.4222 24.3681C65.4222 22.759 66.7267 21.4546 68.3358 21.4546C69.9449 21.4546 71.2493 22.759 71.2493 24.3681Z" fill="#E03854"/>
<path d="M90.8495 108.861C90.8495 110.47 89.5451 111.774 87.9359 111.774C86.3268 111.774 85.0224 110.47 85.0224 108.861C85.0224 107.252 86.3268 105.947 87.9359 105.947C89.5451 105.947 90.8495 107.252 90.8495 108.861Z" fill="#E03854"/>
<path d="M99.855 105.947C99.855 107.556 98.5505 108.861 96.9414 108.861C95.3323 108.861 94.0279 107.556 94.0279 105.947C94.0279 104.338 95.3323 103.034 96.9414 103.034C98.5505 103.034 99.855 104.338 99.855 105.947Z" fill="#E03854"/>
<path d="M107.536 101.18C107.536 102.789 106.232 104.093 104.623 104.093C103.013 104.093 101.709 102.789 101.709 101.18C101.709 99.5705 103.013 98.2661 104.623 98.2661C106.232 98.2661 107.536 99.5705 107.536 101.18Z" fill="#E03854"/>
<path d="M114.423 95.3525C114.423 96.9616 113.118 98.2661 111.509 98.2661C109.9 98.2661 108.596 96.9616 108.596 95.3525C108.596 93.7434 109.9 92.439 111.509 92.439C113.118 92.439 114.423 93.7434 114.423 95.3525Z" fill="#E03854"/>
<path d="M119.72 87.6714C119.72 89.2805 118.416 90.5849 116.806 90.5849C115.197 90.5849 113.893 89.2805 113.893 87.6714C113.893 86.0623 115.197 84.7578 116.806 84.7578C118.416 84.7578 119.72 86.0623 119.72 87.6714Z" fill="#E03854"/>
<path d="M123.693 78.9308C123.693 80.5399 122.389 81.8443 120.779 81.8443C119.17 81.8443 117.866 80.5399 117.866 78.9308C117.866 77.3217 119.17 76.0172 120.779 76.0172C122.389 76.0172 123.693 77.3217 123.693 78.9308Z" fill="#E03854"/>
<path d="M125.547 69.6604C125.547 71.2695 124.243 72.5739 122.634 72.5739C121.024 72.5739 119.72 71.2695 119.72 69.6604C119.72 68.0513 121.024 66.7469 122.634 66.7469C124.243 66.7469 125.547 68.0513 125.547 69.6604Z" fill="#E03854"/>
<path d="M125.547 60.39C125.547 61.9991 124.243 63.3036 122.634 63.3036C121.024 63.3036 119.72 61.9991 119.72 60.39C119.72 58.7809 121.024 57.4765 122.634 57.4765C124.243 57.4765 125.547 58.7809 125.547 60.39Z" fill="#E03854"/>
<path d="M158.126 21.4546C158.126 23.0637 156.821 24.3681 155.212 24.3681C153.603 24.3681 152.299 23.0637 152.299 21.4546C152.299 19.8455 153.603 18.541 155.212 18.541C156.821 18.541 158.126 19.8455 158.126 21.4546Z" fill="#E03854"/>
</svg>
