<svg width="49" height="48" viewBox="0 0 49 48" fill="none" xmlns="http://www.w3.org/2000/svg">
<g id="Group 34855">
<g id="Group 34853">
<path id="Ellipse 659" d="M45.0001 21.5C48.4998 9.5 35.9273 1 23.502 1C11.0768 1 -8.70087 14.2049 6.51831 34.5718C12.6288 43.9793 -14.2719 42.3574 18.4998 42.1936" stroke="#332F30" stroke-width="2"/>
<path id="Ellipse 658" d="M43.5683 40.7283L43.5483 40.7547L43.5301 40.7822C42.7652 41.9404 42.4623 43.0448 42.6095 44.0799C42.7557 45.1082 43.3223 45.8996 43.9612 46.4849C44.0614 46.5767 44.1654 46.6651 44.2722 46.7501C41.4995 46.6967 37.0264 46.6195 30.0982 46.6195C20.1116 46.6195 12.2 39.3553 12.2 30.6098C12.2 21.8643 20.1116 14.6001 30.0982 14.6001C35.0451 14.6001 41.5072 17.213 45.1582 21.7817C46.9635 24.0409 48.0678 26.7581 47.9967 29.8793C47.9254 33.0076 46.6706 36.6455 43.5683 40.7283Z" stroke="#332F30" stroke-width="2"/>
<path id="Rectangle 2906" d="M35.2002 25.6001H23.8002" stroke="#332F30" stroke-width="2" stroke-linecap="round" stroke-linejoin="round"/>
<path id="Rectangle 2907" d="M38.8 31L20.8 31" stroke="#332F30" stroke-width="2" stroke-linecap="round" stroke-linejoin="round"/>
<path id="Rectangle 2908" d="M34.6001 36.3999L25.0001 36.3999" stroke="#332F30" stroke-width="2" stroke-linecap="round" stroke-linejoin="round"/>
</g>
</g>
</svg>
