<svg width="216" height="315" viewBox="0 0 216 315" fill="none" xmlns="http://www.w3.org/2000/svg">
<g clip-path="url(#clip0_14_1010)">
<path d="M214.948 270.249L137.967 314.437C136.631 315.201 134.467 315.201 133.131 314.437L1.95043 239.168C0.615155 238.404 0.615155 237.157 1.95043 236.393L78.9312 192.205C80.2665 191.441 82.4313 191.441 83.7666 192.205L214.948 267.464C216.283 268.238 216.283 269.475 214.948 270.249Z" fill="#E0E0E0"/>
<path d="M18.3784 227.206V235.469L135.873 302.888C135.873 302.888 135.873 299.188 135.873 294.615C135.873 290.051 131.28 283.718 125.626 280.472L28.6156 224.814C25.2065 222.863 22.1921 222.471 20.3308 223.457C19.1068 224.11 18.3784 225.387 18.3784 227.206Z" fill="#263238"/>
<path d="M87.378 185.007L87.5196 184.927L87.5297 184.917C89.391 183.861 92.4561 184.223 95.9156 186.214L192.915 241.872C198.57 245.118 203.163 251.451 203.163 256.015C203.163 260.588 203.163 264.288 203.163 264.288L135.873 302.887C135.873 302.887 135.873 299.188 135.873 294.615C135.873 290.051 131.28 283.718 125.626 280.471L28.6156 224.813C25.2066 222.863 22.1921 222.471 20.3308 223.456L87.378 185.007Z" fill="#455A64"/>
<path d="M163.317 231.639C155.164 226.965 144.077 225.014 133.455 225.758L92.7494 202.397L61.3805 220.391L102.066 243.731C100.771 249.833 104.19 256.196 112.344 260.87C126.415 268.942 149.236 268.942 163.307 260.87C177.398 252.798 177.398 239.711 163.317 231.639Z" fill="#37474F"/>
<path d="M53.8544 202.287V216.068L77.8894 229.859C77.8894 229.859 77.8894 223.687 77.8894 216.068C77.8894 208.458 72.5078 199.191 65.8719 195.381C62.5134 193.451 59.4787 193.29 57.3038 194.597C55.1694 195.853 53.8544 198.527 53.8544 202.287Z" fill="#DC8C9A"/>
<path opacity="0.6" d="M53.8544 202.287V216.068L77.8894 229.859C77.8894 229.859 77.8894 223.687 77.8894 216.068C77.8894 208.458 72.5078 199.191 65.8719 195.381C62.5134 193.451 59.4787 193.29 57.3038 194.597C55.1694 195.853 53.8544 198.527 53.8544 202.287Z" fill="white"/>
<path d="M86.0528 178.102L86.245 177.981C88.4098 176.755 91.4041 176.946 94.7018 178.835C101.338 182.645 106.719 191.903 106.719 199.522C106.719 207.142 106.719 213.314 106.719 213.314L77.8793 229.859C77.8793 229.859 77.8793 223.687 77.8793 216.068C77.8793 208.459 72.4977 199.191 65.8618 195.381C62.6754 193.562 59.7924 193.31 57.6478 194.396L86.0528 178.102Z" fill="#DC8C9A"/>
<path opacity="0.7" d="M86.0528 178.102L86.245 177.981C88.4098 176.755 91.4041 176.946 94.7018 178.835C101.338 182.645 106.719 191.903 106.719 199.522C106.719 207.142 106.719 213.314 106.719 213.314L77.8793 229.859C77.8793 229.859 77.8793 223.687 77.8793 216.068C77.8793 208.459 72.4977 199.191 65.8618 195.381C62.6754 193.562 59.7924 193.31 57.6478 194.396L86.0528 178.102Z" fill="white"/>
<path d="M65.8719 207.494C64.1016 206.478 62.6652 207.303 62.6652 209.333C62.6652 211.364 64.1016 213.837 65.8719 214.852C67.6421 215.867 69.0785 215.043 69.0785 213.012C69.0785 210.982 67.6421 208.509 65.8719 207.494Z" fill="#455A64"/>
<path d="M47.7039 149.212C54.1375 170.09 58.6896 178.896 70.7274 194.808L93.073 181.982C82.0469 164.773 75.9572 151.725 73.145 134.606C68.249 104.812 79.2853 78.6469 90.969 67.8711L82.2795 55.9495C77.0598 59.0455 59.9339 68.7758 59.9339 68.7758L67.2273 80.9086C46.3484 92.2473 41.2602 128.334 47.7039 149.212Z" fill="#37474F"/>
<path d="M59.944 68.7759C48.1187 75.7821 30.0216 96.3787 32.7225 135.32C34.0376 154.319 41.7862 177.358 55.4526 196.336C55.8673 195.713 56.4035 195.12 57.3038 194.607C58.1535 194.114 59.4584 193.391 60.3689 192.848C62.5437 191.551 65.5785 191.712 68.9268 193.642C69.5438 193.994 70.1407 194.386 70.7274 194.828C61.0466 177.066 50.8904 161.486 48.4019 144.327C42.9799 106.943 59.4989 85.5024 67.2273 80.9187L59.944 68.7759Z" fill="#263238"/>
<path d="M59.944 68.7757C69.9181 63.0561 79.7708 63.2974 79.7708 63.2974L82.0469 76.3549C82.0469 76.3549 76.1899 75.4 67.2273 80.9085L59.944 68.7757Z" fill="#263238"/>
<path d="M116.268 230.694V219.667L147.637 201.674V212.701L116.268 230.694Z" fill="#DC8C9A"/>
<path opacity="0.15" d="M116.268 230.694V219.667L147.637 201.674V212.701L116.268 230.694Z" fill="black"/>
<path d="M116.268 230.694L61.3905 199.211V188.174L116.268 219.667V230.694Z" fill="#DC8C9A"/>
<path opacity="0.25" d="M116.268 230.694L61.3905 199.211V188.174L116.268 219.667V230.694Z" fill="black"/>
<path d="M147.637 201.674L92.7493 170.181L61.3905 188.174L116.268 219.667L147.637 201.674Z" fill="#DC8C9A"/>
<path d="M173.867 224.17V214.057C173.877 208.76 170.367 203.473 163.327 199.432C149.256 191.36 126.435 191.36 112.364 199.432C105.323 203.473 101.813 208.76 101.823 214.047V224.17H101.833C101.742 229.527 105.242 234.905 112.364 238.996C126.435 247.068 149.256 247.068 163.327 238.996C170.448 234.905 173.948 229.527 173.867 224.17Z" fill="#DC8C9A"/>
<path opacity="0.25" d="M173.867 224.17V214.057C173.877 208.76 170.367 203.473 163.327 199.432C149.256 191.36 126.435 191.36 112.364 199.432C105.323 203.473 101.813 208.76 101.823 214.047V224.17H101.833C101.742 229.527 105.242 234.905 112.364 238.996C126.435 247.068 149.256 247.068 163.327 238.996C170.448 234.905 173.948 229.527 173.867 224.17Z" fill="black"/>
<path d="M137.835 234.725C157.741 234.725 173.878 225.467 173.878 214.048C173.878 202.628 157.741 193.371 137.835 193.371C117.929 193.371 101.793 202.628 101.793 214.048C101.793 225.467 117.929 234.725 137.835 234.725Z" fill="#DC8C9A"/>
<path d="M164.854 213.495V205.906C164.854 201.935 162.224 197.965 156.944 194.939C146.393 188.888 129.277 188.888 118.726 194.939C113.446 197.965 110.816 201.935 110.816 205.906V213.495H110.826C110.755 217.516 113.385 221.547 118.726 224.612C129.277 230.664 146.393 230.664 156.944 224.612C162.295 221.547 164.915 217.516 164.854 213.495Z" fill="#E0E0E0"/>
<path d="M137.835 221.406C152.763 221.406 164.864 214.466 164.864 205.906C164.864 197.345 152.763 190.406 137.835 190.406C122.907 190.406 110.806 197.345 110.806 205.906C110.806 214.466 122.907 221.406 137.835 221.406Z" fill="#FAFAFA"/>
<path d="M137.835 220.521C151.908 220.521 163.317 213.978 163.317 205.906C163.317 197.834 151.908 191.29 137.835 191.29C123.762 191.29 112.354 197.834 112.354 205.906C112.354 213.978 123.762 220.521 137.835 220.521Z" fill="#E6E6E6"/>
<path d="M155.851 202.579C145.897 196.869 129.763 196.869 119.809 202.579C116.4 204.539 114.164 206.901 113.092 209.404C114.164 211.907 116.41 214.279 119.809 216.229C129.763 221.939 145.897 221.939 155.851 216.229C159.26 214.269 161.496 211.907 162.568 209.404C161.506 206.911 159.26 204.539 155.851 202.579Z" fill="#F0F0F0"/>
<path d="M133.263 206.79C135.792 205.343 139.889 205.343 142.408 206.79C144.936 208.238 144.936 210.59 142.408 212.037C139.879 213.485 135.782 213.485 133.263 212.037C130.734 210.59 130.734 208.238 133.263 206.79Z" fill="#DC8C9A"/>
<path d="M146.262 214.068C147.368 214.068 148.265 213.555 148.265 212.922C148.265 212.289 147.368 211.776 146.262 211.776C145.156 211.776 144.259 212.289 144.259 212.922C144.259 213.555 145.156 214.068 146.262 214.068Z" fill="#DC8C9A"/>
<path opacity="0.6" d="M140.051 209.414C141.274 209.414 142.266 208.851 142.266 208.157C142.266 207.463 141.274 206.901 140.051 206.901C138.827 206.901 137.835 207.463 137.835 208.157C137.835 208.851 138.827 209.414 140.051 209.414Z" fill="white"/>
<path opacity="0.6" d="M147.435 212.52C147.435 212.731 147.132 212.912 146.747 212.912C146.373 212.912 146.059 212.741 146.059 212.52C146.059 212.309 146.363 212.128 146.747 212.128C147.132 212.138 147.435 212.309 147.435 212.52Z" fill="white"/>
<path d="M149.58 151.494V123.499L169.184 123.559V151.554C169.184 152.992 168.213 154.429 166.301 155.525C162.467 157.706 156.256 157.686 152.442 155.485C150.53 154.369 149.58 152.931 149.58 151.494Z" fill="#263238"/>
<path d="M169.184 145.714C169.184 147.151 168.213 148.589 166.301 149.684C162.467 151.866 156.256 151.846 152.442 149.644C150.53 148.538 149.58 147.101 149.58 145.654V151.494C149.58 152.931 150.53 154.379 152.442 155.484C156.266 157.696 162.467 157.716 166.301 155.525C168.223 154.429 169.184 152.992 169.184 151.554V145.714Z" fill="#DC8C9A"/>
<path opacity="0.6" d="M169.184 145.714C169.184 147.151 168.213 148.589 166.301 149.684C162.467 151.866 156.256 151.846 152.442 149.644C150.53 148.538 149.58 147.101 149.58 145.654V151.494C149.58 152.931 150.53 154.379 152.442 155.484C156.266 157.696 162.467 157.716 166.301 155.525C168.223 154.429 169.184 152.992 169.184 151.554V145.714Z" fill="white"/>
<path d="M126.131 151.494V123.499L106.527 123.559V151.554C106.527 152.992 107.498 154.429 109.41 155.525C113.244 157.706 119.455 157.686 123.269 155.485C125.191 154.369 126.142 152.931 126.131 151.494Z" fill="#263238"/>
<path d="M106.527 145.714C106.527 147.151 107.498 148.589 109.41 149.684C113.244 151.866 119.455 151.846 123.269 149.644C125.181 148.538 126.131 147.101 126.131 145.654V151.494C126.131 152.931 125.181 154.379 123.269 155.484C119.445 157.696 113.244 157.716 109.41 155.525C107.488 154.429 106.527 152.992 106.527 151.554V145.714Z" fill="#DC8C9A"/>
<path opacity="0.25" d="M106.527 145.714C106.527 147.151 107.498 148.589 109.41 149.684C113.244 151.866 119.455 151.846 123.269 149.644C125.181 148.538 126.131 147.101 126.131 145.654V151.494C126.131 152.931 125.181 154.379 123.269 155.484C119.445 157.696 113.244 157.716 109.41 155.525C107.488 154.429 106.527 152.992 106.527 151.554V145.714Z" fill="black"/>
<path d="M128.033 163.828V135.833L147.637 135.893V163.888C147.637 165.325 146.666 166.763 144.754 167.858C140.921 170.04 134.709 170.02 130.896 167.818C128.974 166.713 128.023 165.265 128.033 163.828Z" fill="#37474F"/>
<path d="M147.637 158.058C147.637 159.495 146.666 160.933 144.754 162.028C140.92 164.21 134.709 164.19 130.896 161.988C128.984 160.882 128.033 159.445 128.033 157.998V163.838C128.033 165.275 128.984 166.723 130.896 167.828C134.719 170.04 140.92 170.06 144.754 167.869C146.676 166.773 147.637 165.336 147.637 163.898V158.058Z" fill="#DC8C9A"/>
<path d="M171.156 99.1228C171.177 95.1824 169.012 91.242 164.662 87.9349C162.083 85.9748 159.817 83.6528 157.753 81.1599L148.386 69.8413C137.046 56.1404 118.554 50.1192 101.459 55.2156C98.6568 56.0499 96.0267 57.1355 93.6698 58.4825C86.7506 62.4229 83.6248 67.7404 84.3127 72.9172L84.252 105.425C83.8575 110.401 86.9731 115.467 93.5888 119.287L116.268 132.325C128.792 139.562 149.134 139.622 161.708 132.465C167.97 128.897 171.126 124.213 171.156 119.508C171.197 114.774 171.136 103.827 171.156 99.1228Z" fill="#37474F"/>
<path d="M92.7493 109.828L100.589 114.332V109.828L92.7493 105.325V109.828Z" fill="#DC8C9A"/>
<path d="M106.992 100.741C118.322 114.442 136.823 120.463 153.919 115.367C156.721 114.533 159.351 113.447 161.708 112.1C173.23 105.536 174.221 95.1824 164.662 87.9349C162.093 85.9848 159.827 83.6628 157.773 81.1799L148.396 69.8513C137.056 56.1504 118.565 50.1292 101.469 55.2256C98.6669 56.0599 96.0368 57.1456 93.6798 58.4925C82.158 65.0565 81.1667 75.4101 90.726 82.6676C93.2954 84.6177 95.5614 86.9397 97.6149 89.4226L106.992 100.741Z" fill="#455A64"/>
<path d="M161.708 128.565C149.134 135.722 128.792 135.662 116.268 128.425L93.599 115.407C87.3373 111.788 84.2116 107.064 84.2318 102.35V106.25C84.2217 110.964 87.3373 115.699 93.599 119.307L116.268 132.325C128.792 139.562 149.134 139.622 161.708 132.465C167.97 128.897 171.126 124.213 171.156 119.508V115.608C171.126 120.303 167.97 124.997 161.708 128.565Z" fill="#DC8C9A"/>
<path d="M84.2117 71.4898L84.2218 49.3452L148.477 49.5463L148.457 71.7009C148.447 76.4153 145.291 81.1297 139.009 84.7082C126.445 91.8652 106.102 91.8049 93.5688 84.5675C87.3172 80.9387 84.2016 76.2143 84.2117 71.4898Z" fill="#37474F"/>
<path d="M148.487 49.5463L84.2319 49.3452C84.2319 49.3452 84.2015 49.5563 84.1914 54.2707C84.1813 58.9851 87.297 63.7196 93.5586 67.3283C106.082 74.5657 126.425 74.626 138.999 67.469C145.28 63.8905 148.437 59.1861 148.447 54.4617C148.457 49.7372 148.487 49.5463 148.487 49.5463Z" fill="#DC8C9A"/>
<path d="M139.11 36.4786C126.586 29.2411 106.244 29.1808 93.6698 36.3378C81.1061 43.4949 81.0656 55.1653 93.5889 62.4027C106.112 69.6402 126.455 69.7005 139.029 62.5434C151.603 55.3864 151.643 43.716 139.11 36.4786Z" fill="#DC8C9A"/>
<path opacity="0.5" d="M139.11 36.4786C126.586 29.2411 106.244 29.1808 93.6698 36.3378C81.1061 43.4949 81.0656 55.1653 93.5889 62.4027C106.112 69.6402 126.455 69.7005 139.029 62.5434C151.603 55.3864 151.643 43.716 139.11 36.4786Z" fill="white"/>
<path d="M102.45 47.5761L102.461 7.9209L130.228 8.00131L130.218 47.6565C130.208 49.6971 128.853 51.7276 126.131 53.2756C120.699 56.3716 111.909 56.3415 106.497 53.2153C103.796 51.6572 102.45 49.6167 102.45 47.5761Z" fill="#37474F"/>
<path d="M130.228 8.01132L102.46 7.93091C102.46 7.93091 102.45 11.7004 102.44 13.741C102.43 15.7815 103.786 17.8221 106.487 19.3902C111.898 22.5164 120.689 22.5465 126.121 19.4505C128.832 17.9025 130.198 15.872 130.208 13.8314C130.218 11.7909 130.228 8.01132 130.228 8.01132Z" fill="#DC8C9A"/>
<path d="M126.182 2.36214C120.77 -0.764038 111.979 -0.794194 106.547 2.30183C101.115 5.39785 101.095 10.444 106.517 13.5701C111.929 16.6963 120.719 16.7265 126.151 13.6304C131.583 10.5344 131.594 5.48832 126.182 2.36214Z" fill="#DC8C9A"/>
<path opacity="0.25" d="M126.182 2.36214C120.77 -0.764038 111.979 -0.794194 106.547 2.30183C101.115 5.39785 101.095 10.444 106.517 13.5701C111.929 16.6963 120.719 16.7265 126.151 13.6304C131.583 10.5344 131.594 5.48832 126.182 2.36214Z" fill="black"/>
<path d="M123.42 3.94039C119.526 1.68874 113.203 1.66864 109.299 3.90019C105.394 6.12168 105.384 9.75046 109.278 12.0021C113.173 14.2538 119.495 14.2739 123.4 12.0423C127.305 9.81077 127.315 6.18199 123.42 3.94039Z" fill="#263238"/>
<path d="M109.299 9.6197C108.661 9.98157 108.135 10.3837 107.71 10.8058C108.135 11.228 108.651 11.6301 109.278 11.992C113.173 14.2436 119.495 14.2637 123.4 12.0322C124.037 11.6703 124.563 11.2682 124.988 10.846C124.563 10.4239 124.047 10.0218 123.43 9.65991C119.526 7.41831 113.203 7.3982 109.299 9.6197Z" fill="#455A64"/>
<path d="M113.203 10.1726C113.325 10.7053 112.809 11.2683 112.071 11.4391C111.322 11.6 110.624 11.2984 110.503 10.7657C110.381 10.2329 110.897 9.66999 111.636 9.49911C112.384 9.32822 113.092 9.63983 113.203 10.1726Z" fill="#FAFAFA"/>
<path d="M114.963 9.57947C115.024 9.87098 114.842 10.1524 114.549 10.2228C114.255 10.2831 113.972 10.1022 113.901 9.81067C113.841 9.51916 114.023 9.2377 114.316 9.16734C114.609 9.10703 114.903 9.28796 114.963 9.57947Z" fill="#FAFAFA"/>
<path d="M76.3518 55.0245C78.2738 53.8384 80.9545 53.9691 83.9386 55.6779C85.5673 56.6027 87.1048 57.9094 88.4705 59.4474C88.8043 59.8193 89.128 60.2013 89.4315 60.5933C89.4416 60.6134 89.4618 60.6235 89.482 60.6537C91.1916 62.855 92.5876 65.4083 93.4575 68.0117C94.1151 69.9618 94.4792 71.932 94.4792 73.8017C94.4792 77.0585 93.3564 79.3705 91.5355 80.4963L88.0254 82.5168C88.5615 82.1951 89.037 81.7528 89.4416 81.2201C90.4127 79.9535 90.9691 78.1241 90.9691 75.8221C90.9691 69.1476 86.245 61.0256 80.4285 57.6883C78.4154 56.5424 76.5339 56.1101 74.9356 56.3212C74.187 56.4117 73.5194 56.6429 72.9125 57.0048L72.9023 56.9947L76.3518 55.0245Z" fill="#DC8C9A"/>
<path opacity="0.7" d="M76.3518 55.0245C78.2738 53.8384 80.9545 53.9691 83.9386 55.6779C85.5673 56.6027 87.1048 57.9094 88.4705 59.4474C88.8043 59.8193 89.128 60.2013 89.4315 60.5933C89.4416 60.6134 89.4618 60.6235 89.482 60.6537C91.1916 62.855 92.5876 65.4083 93.4575 68.0117C94.1151 69.9618 94.4792 71.932 94.4792 73.8017C94.4792 77.0585 93.3564 79.3705 91.5355 80.4963L88.0254 82.5168C88.5615 82.1951 89.037 81.7528 89.4416 81.2201C90.4127 79.9535 90.9691 78.1241 90.9691 75.8221C90.9691 69.1476 86.245 61.0256 80.4285 57.6883C78.4154 56.5424 76.5339 56.1101 74.9356 56.3212C74.187 56.4117 73.5194 56.6429 72.9125 57.0048L72.9023 56.9947L76.3518 55.0245Z" fill="white"/>
<path d="M72.9124 57.0149C73.5194 56.643 74.1971 56.4118 74.9356 56.3314C76.5339 56.1203 78.4154 56.5425 80.4284 57.6984C86.245 61.0357 90.969 69.1577 90.969 75.8323C90.969 78.1241 90.4127 79.9536 89.4416 81.2302C89.0369 81.763 88.5615 82.2053 88.0254 82.5269C87.9748 82.5571 87.9141 82.5973 87.8534 82.6174C87.0138 83.0999 86.0427 83.3311 84.9603 83.3009C83.5947 83.2708 82.0571 82.7983 80.4386 81.8735C74.622 78.5363 69.8979 70.4243 69.8979 63.7498C69.8979 60.4527 71.0511 58.1206 72.9124 57.0149Z" fill="#DC8C9A"/>
<path opacity="0.6" d="M72.9124 57.0149C73.5194 56.643 74.1971 56.4118 74.9356 56.3314C76.5339 56.1203 78.4154 56.5425 80.4284 57.6984C86.245 61.0357 90.969 69.1577 90.969 75.8323C90.969 78.1241 90.4127 79.9536 89.4416 81.2302C89.0369 81.763 88.5615 82.2053 88.0254 82.5269C87.9748 82.5571 87.9141 82.5973 87.8534 82.6174C87.0138 83.0999 86.0427 83.3311 84.9603 83.3009C83.5947 83.2708 82.0571 82.7983 80.4386 81.8735C74.622 78.5363 69.8979 70.4243 69.8979 63.7498C69.8979 60.4527 71.0511 58.1206 72.9124 57.0149Z" fill="white"/>
<path d="M80.4386 64.9158C78.0917 63.5688 76.1899 64.6645 76.1899 67.3484C76.1899 70.0423 78.0917 73.3092 80.4386 74.6562C82.7854 76.0031 84.6872 74.9075 84.6872 72.2236C84.6771 69.5297 82.7753 66.2628 80.4386 64.9158Z" fill="#455A64"/>
</g>
<defs>
<clipPath id="clip0_14_1010">
<rect width="215" height="315" fill="white" transform="translate(0.948975)"/>
</clipPath>
</defs>
</svg>
