<svg width="146" height="41" viewBox="0 0 146 41" fill="none" xmlns="http://www.w3.org/2000/svg">
<g id="Group 65">
<path id="Vector" d="M97.739 20.3813H105.965C107.438 20.3813 108.632 21.5754 108.632 23.0485V25.4504C108.632 26.9235 107.438 28.1176 105.965 28.1176H97.739C96.2658 28.1176 95.0718 26.9235 95.0718 25.4504V23.0485C95.0718 21.5754 96.2658 20.3813 97.739 20.3813Z" fill="#E03854"/>
<path id="Vector_2" d="M145.991 24.6818C145.991 33.8363 139.234 40.0216 129.745 40.0216C120.257 40.0216 113.5 33.8408 113.5 24.6818V5.38014C113.5 3.43579 115.074 1.86201 117.018 1.86201H120.463C122.407 1.86201 123.981 3.43579 123.981 5.38014V24.4897C123.981 28.1267 126.323 30.4783 129.75 30.4783C133.177 30.4783 135.51 27.9803 135.51 24.3433L135.519 5.38014C135.519 3.43579 137.093 1.86201 139.037 1.86201H142.482C144.426 1.86201 146 3.43579 146 5.38014V24.6818H145.991Z" fill="#E03854"/>
<path id="Vector_3" d="M76.9276 9.47012C74.8231 9.47012 72.8605 9.91847 71.1128 10.7374C70.4998 11.0256 69.7907 10.591 69.7907 9.91389V3.55473C69.7907 1.59208 68.1986 0 66.236 0H63.5688C61.6061 0 60.014 1.59208 60.014 3.55473V30.2083C60.014 32.5781 58.8383 33.3147 57.8547 33.15C56.8756 32.9853 55.8966 30.9449 55.9103 28.8541V12.6817C55.9103 11.387 54.8627 10.3348 53.5634 10.3348H49.4368C48.8878 10.3348 48.3891 10.655 48.1604 11.1537C47.8401 11.8537 46.9755 12.1007 46.335 11.6798C44.1756 10.2662 41.5908 9.47012 38.7497 9.47012C29.9704 9.47012 23.6936 15.7973 23.6936 24.6909C23.6936 25.3452 23.7302 25.9811 23.7988 26.6033C23.7988 26.6033 23.7988 26.6078 23.7988 26.6124C23.9315 27.8705 22.9479 28.6483 21.8865 29.06C20.8251 29.4718 18.1579 29.6913 15.4313 29.6822H12.851C11.4877 29.6822 10.3851 28.5796 10.3851 27.2163V5.68207C10.3851 3.57303 8.67408 1.862 6.56504 1.862H3.8155C1.71103 1.862 0 3.57303 0 5.68207V34.8885C0 37.2263 1.87115 39.1294 4.20894 39.1706C8.61003 39.2484 15.1613 39.317 17.1926 39.0791C20.3448 38.7086 22.2205 36.0963 23.3047 35.2774C24.3981 34.4539 26.6261 34.1473 27.8934 35.6525C27.9025 35.6616 27.9117 35.6708 27.9208 35.6799C27.93 35.6891 27.9346 35.6982 27.9437 35.7028C27.9803 35.744 28.0215 35.7806 28.0627 35.8172C30.7207 38.4569 34.4356 40.0124 38.7543 40.0124C41.664 40.0124 44.3037 39.1752 46.4951 37.6975C47.0258 37.3361 47.7303 37.3955 48.229 37.8027C49.144 38.5576 50.8138 39.5549 53.1196 39.3994C56.3815 39.1798 56.7979 37.3955 58.6782 37.4779C60.5585 37.5602 60.9245 39.317 64.0308 39.317C65.7236 39.317 66.881 38.5164 67.5535 37.8439C68.0065 37.391 68.7156 37.3178 69.2463 37.6838C71.4102 39.1752 74.0317 40.017 76.9322 40.017C85.771 40.017 92.0157 33.667 92.0157 24.7413C92.0157 15.8156 85.771 9.46555 76.9322 9.46555M40.0856 31.256C36.3799 31.256 33.6578 28.4561 33.6578 24.7092C33.6578 20.9624 36.357 18.1854 40.0856 18.1854C43.8142 18.1854 46.5134 20.9852 46.5134 24.7092C46.5134 28.4332 43.7913 31.256 40.0856 31.256ZM75.61 31.256C71.9043 31.256 69.1822 28.4561 69.1822 24.7367C69.1822 21.0173 71.9043 18.19 75.61 18.19C79.3157 18.19 82.0378 20.9898 82.0378 24.7367C82.0378 28.4836 79.2928 31.256 75.61 31.256Z" fill="#E03854"/>
<path id="Vector_4" d="M89.0147 15.1934C90.2134 17.0142 91.9656 18.803 93.5485 19.5624C95.2641 20.3813 98.0045 20.3813 99.5554 20.3813C101.106 20.3813 102.68 28.1221 100.21 28.1221C97.7391 28.1221 95.4883 28.4424 93.5897 29.577C91.627 30.7482 90.7578 31.9468 89.2343 34.0009C88.2461 35.3322 81.1687 35.5473 81.1687 35.5473C81.1687 35.5473 86.073 20.514 86.073 20.3905C86.073 20.267 86.6449 15.9711 86.6449 15.9711L89.0147 15.1979V15.1934Z" fill="#E03854"/>
</g>
</svg>
