<svg xmlns="http://www.w3.org/2000/svg" width="51" height="51" viewBox="0 0 51 51" fill="none">
  <g clip-path="url(#clip0_1763_2943)">
    <path d="M34.6251 41.5909C31.101 44.2591 26.8951 45.6694 22.4621 45.6694C11.2848 45.6694 2.19141 36.6214 2.19141 25.5C2.19141 14.3786 11.2848 5.33057 22.4621 5.33057C26.8951 5.33057 31.101 6.74084 34.6251 9.40907C37.6385 11.6905 39.9766 14.8192 41.3177 18.3285H43.6469C42.2194 14.1221 39.5087 10.358 35.9479 7.66192C32.04 4.70313 27.3766 3.13916 22.4621 3.13916C10.0765 3.13916 0 13.1702 0 25.5C0 37.8297 10.0765 47.8608 22.4621 47.8608C27.3766 47.8608 32.04 46.2968 35.9479 43.338C39.5087 40.642 42.2195 36.8779 43.6469 32.6714H41.3177C39.9766 36.1808 37.6384 39.3094 34.6251 41.5909Z" fill="black"/>
    <path d="M22.4621 9.21497C13.4826 9.21497 6.177 16.5204 6.177 25.5C6.177 34.4796 13.4825 41.785 22.4621 41.785C30.1471 41.785 36.6051 36.434 38.3077 29.2623L36.9743 26.5957H36.5134C35.9524 33.8569 29.8646 39.5936 22.462 39.5936C14.6907 39.5936 8.36831 33.2712 8.36831 25.5C8.36831 17.7288 14.6907 11.4064 22.462 11.4064C29.8646 11.4064 35.9524 17.1432 36.5134 24.4043H36.9743L38.3077 21.7377C36.6051 14.566 30.1471 9.21497 22.4621 9.21497Z" fill="black"/>
    <path d="M22.462 15.2906C16.8326 15.2906 12.2527 19.8706 12.2527 25.5C12.2527 31.1294 16.8326 35.7094 22.462 35.7094C27.7213 35.7094 32.0641 31.7119 32.6125 26.5957H30.4033C29.8671 30.5001 26.5115 33.518 22.4621 33.518C18.0411 33.518 14.4442 29.9212 14.4442 25.5C14.4442 21.0789 18.041 17.4821 22.4621 17.4821C26.5115 17.4821 29.8672 20.5 30.4033 24.4043H32.6125C32.0641 19.2882 27.7213 15.2906 22.462 15.2906Z" fill="black"/>
    <path d="M22.4617 21.3665C20.1825 21.3665 18.3281 23.2208 18.3281 25.5C18.3281 27.7793 20.1825 29.6336 22.4617 29.6336C24.3617 29.6336 25.9653 28.3448 26.4468 26.5957H24.0638C23.7135 27.1063 23.1263 27.4422 22.4617 27.4422C21.3908 27.4422 20.5195 26.5709 20.5195 25.5C20.5195 24.4291 21.3908 23.5579 22.4617 23.5579C23.1263 23.5579 23.7136 23.8937 24.0638 24.4043H26.4468C25.9653 22.6553 24.3617 21.3665 22.4617 21.3665Z" fill="black"/>
    <path d="M48.5646 26.5957H49.9043C50.5094 26.5957 51 26.1051 51 25.5C51 24.8948 50.5094 24.4043 49.9043 24.4043H48.5646L50.8777 19.9271C51.0532 19.5876 51.0389 19.1809 50.8401 18.8543C50.6413 18.5278 50.2866 18.3285 49.9043 18.3285H40.6894C40.2744 18.3285 39.8949 18.563 39.7094 18.9342L36.9743 24.4043H22.7109C22.1058 24.4043 21.6152 24.8948 21.6152 25.5C21.6152 26.1051 22.1058 26.5957 22.7109 26.5957H36.9743L39.7094 32.0657C39.8949 32.437 40.2744 32.6714 40.6894 32.6714H49.9043C50.2866 32.6714 50.6413 32.4721 50.8401 32.1456C51.039 31.8191 51.0533 31.4125 50.8777 31.0728L48.5646 26.5957ZM41.3666 20.5199H48.1049L46.098 24.4043H39.4244L41.3666 20.5199ZM41.3666 30.48L39.4244 26.5957H46.098L48.1049 30.48H41.3666Z" fill="#E03854"/>
  </g>
  <defs>
    <clipPath id="clip0_1763_2943">
      <rect width="51" height="51" fill="white"/>
    </clipPath>
  </defs>
</svg>