<svg width="44" height="54" viewBox="0 0 44 54" fill="none" xmlns="http://www.w3.org/2000/svg">
<path d="M2 12.0031C4.22222 14.5039 11.3333 19.5054 22 19.5054C32.6667 19.5054 39.7778 14.5039 42 12.0031M17 19.5054L14.5014 51.9972C14.5014 51.9976 14.5016 51.998 14.502 51.9982L14.5048 51.9995C14.5053 51.9998 14.5059 51.9996 14.5061 51.999C15.7606 48.643 19.0049 37.0108 22 37.0108C24.9951 37.0108 28.2394 48.643 29.4939 51.999C29.4941 51.9996 29.4947 51.9998 29.4952 51.9995L29.498 51.9982C29.4984 51.998 29.4986 51.9976 29.4986 51.9972L27 19.5054M27 7.00154C27 9.76382 24.7614 12.0031 22 12.0031C19.2386 12.0031 17 9.76382 17 7.00154C17 4.23927 19.2386 2 22 2C24.7614 2 27 4.23927 27 7.00154Z" stroke="#E03854" stroke-width="3.8" stroke-linecap="round"/>
</svg>
