<svg width="126" height="148" viewBox="0 0 126 148" fill="none" xmlns="http://www.w3.org/2000/svg">
<path fill-rule="evenodd" clip-rule="evenodd" d="M61.8045 5.21888C50.2753 5.21888 40.929 14.5652 40.929 26.0944C40.929 37.6236 50.2753 46.9699 61.8045 46.9699C73.3337 46.9699 82.68 37.6236 82.68 26.0944C82.68 14.5652 73.3337 5.21888 61.8045 5.21888ZM35.7101 26.0944C35.7101 11.6829 47.393 0 61.8045 0C76.216 0 87.8989 11.6829 87.8989 26.0944C87.8989 40.5059 76.216 52.1888 61.8045 52.1888C47.393 52.1888 35.7101 40.5059 35.7101 26.0944ZM59.998 65.4099C60.5939 65.1807 61.2531 65.1779 61.8509 65.4021L96.6434 78.4493C97.6619 78.8312 98.3366 79.8049 98.3366 80.8926V94.8096C98.3366 96.2507 97.1684 97.419 95.7272 97.419C94.286 97.419 93.1178 96.2507 93.1178 94.8096V82.7009L60.9464 70.6367L29.6215 82.6848V94.8096C29.6215 96.2507 28.4532 97.419 27.012 97.419C25.5709 97.419 24.4026 96.2507 24.4026 94.8096V80.8926C24.4026 79.8129 25.0675 78.8447 26.0753 78.4571L59.998 65.4099ZM86.8111 53.9284H62.6742V59.1473H86.8111C91.9744 59.1473 96.763 61.8433 99.4408 66.2581L118.377 97.477C122.007 103.462 119.797 111.271 113.568 114.465L101.492 120.658C98.8045 122.036 95.6063 121.477 93.5413 119.444C93.4201 119.264 93.2744 119.097 93.1045 118.948C93.0912 118.936 93.0777 118.924 93.0642 118.913C93.0555 118.905 93.0467 118.898 93.0379 118.891C92.8434 118.652 92.6628 118.398 92.498 118.128C90.5089 114.873 91.5536 110.621 94.8247 108.658L106.14 101.869C107.375 101.127 107.776 99.5246 107.035 98.2888C106.293 97.053 104.69 96.6523 103.454 97.3938L92.1396 104.183C86.4131 107.619 84.5635 115.042 87.99 120.759C78.5407 130.936 66.497 139.055 60.6554 142.421C56.6722 140.937 51.9819 137.258 47.486 132.795C43.3908 128.73 39.7162 124.281 37.2425 120.965C37.2629 120.933 37.2832 120.9 37.3033 120.867C40.8041 115.139 38.9654 107.655 33.2086 104.201L21.8937 97.4116C20.6579 96.6702 19.055 97.0709 18.3135 98.3066C17.5721 99.5424 17.9728 101.145 19.2086 101.887L30.5235 108.676C33.7945 110.638 34.8393 114.891 32.8501 118.146C32.6969 118.396 32.5301 118.634 32.3511 118.858C32.1194 119.041 31.9266 119.256 31.7746 119.493C29.7086 121.501 26.5297 122.047 23.8563 120.676L11.7801 114.483C5.55126 111.288 3.34091 103.48 6.97126 97.4949L25.9073 66.2759C28.5851 61.8612 33.3737 59.1651 38.5371 59.1651H62.674V53.9462H38.5371C31.5495 53.9462 25.069 57.5948 21.4452 63.5693L2.50907 94.7883C-2.69209 103.363 0.474653 114.55 9.39863 119.126L21.4749 125.319C25.4321 127.349 30.0188 126.992 33.54 124.725C36.129 128.137 39.7659 132.486 43.8094 136.499C48.7471 141.4 54.6594 146.18 60.2178 147.768C60.8795 147.957 61.5891 147.877 62.1922 147.545C67.8376 144.44 81.1076 135.758 91.5828 124.558C95.1321 126.957 99.8311 127.374 103.873 125.302L115.95 119.109C124.874 114.532 128.04 103.345 122.839 94.7704L103.903 63.5515C100.279 57.577 93.7987 53.9284 86.8111 53.9284ZM77.5667 91.2247C76.5652 90.2232 74.9476 90.2035 73.922 91.1803L57.3245 106.987L49.54 100.618C48.5024 99.7693 46.9904 99.8447 46.0424 100.793L39.9537 106.881C38.9347 107.9 38.9347 109.553 39.9537 110.572L55.6104 126.228C56.6168 127.235 58.2441 127.249 59.268 126.26L84.4926 101.906C84.9962 101.419 85.2833 100.751 85.2894 100.051C85.2955 99.3513 85.0202 98.6782 84.5252 98.1832L77.5667 91.2247ZM59.2551 112.356L75.6771 96.7157L78.9571 99.9957L57.4876 120.725L45.4892 108.727L48.0629 106.153L55.8031 112.486C56.8219 113.319 58.3019 113.264 59.2551 112.356Z" fill="#E03854"/>
</svg>
