<svg xmlns="http://www.w3.org/2000/svg" width="67" height="67" viewBox="0 0 67 67" fill="none">
  <circle cx="33.5" cy="33.5" r="33.5" fill="#E03854"/>
  <path fill-rule="evenodd" clip-rule="evenodd" d="M33.3469 17.4671C31.2939 17.4671 29.6296 19.1364 29.6296 21.1957C29.6296 23.2549 31.2939 24.9243 33.3469 24.9243C35.3999 24.9243 37.0641 23.2549 37.0641 21.1957C37.0641 19.1364 35.3999 17.4671 33.3469 17.4671ZM36.7927 25.5931C38.0898 24.569 38.9228 22.9799 38.9228 21.1957C38.9228 18.1068 36.4264 15.6028 33.3469 15.6028C30.2674 15.6028 27.771 18.1068 27.771 21.1957C27.771 22.9656 28.5906 24.5435 29.8699 25.5683C27.1036 26.7726 25.1689 29.5368 25.1689 32.7543C25.1689 33.2691 25.5849 33.6865 26.0982 33.6865H39.8619C40.575 33.6865 41.1532 33.1066 41.1532 32.3913C41.1532 29.3707 39.3651 26.769 36.7927 25.5931ZM27.0997 31.8222H39.2661C38.9817 28.9952 36.6022 26.7886 33.7088 26.7886H32.9751C30.0065 26.7886 27.5458 28.9701 27.0997 31.8222ZM45.9577 35.3687C47.152 34.334 48.9401 34.3996 50.056 35.5189C51.3044 36.7711 51.2163 38.8269 49.8653 39.9669L39.8928 48.382C39.7253 48.5234 39.5134 48.6009 39.2945 48.6009H28.2794L25.0012 51.1968C24.8372 51.3267 24.6344 51.3973 24.4254 51.3973H16.9908C16.4776 51.3973 16.0615 50.98 16.0615 50.4652V44.1265C16.0615 43.8262 16.2058 43.5442 16.4491 43.3691L24.4739 37.5947C24.9732 37.2354 25.5722 37.0422 26.1866 37.0422H36.4136C38.0047 37.0422 39.2945 38.336 39.2945 39.9319C39.2945 40.293 39.2285 40.6386 39.1079 40.9572H39.5064L45.9577 35.3687ZM36.4136 40.9572C36.9782 40.9572 37.4359 40.4982 37.4359 39.9319C37.4359 39.3656 36.9782 38.9065 36.4136 38.9065H26.1866C25.9609 38.9065 25.7408 38.9775 25.5574 39.1095L17.9202 44.605V49.533H24.1028L27.381 46.9371C27.545 46.8072 27.7478 46.7366 27.9568 46.7366H38.9556L48.6687 38.5403C49.186 38.1038 49.2198 37.3166 48.7418 36.8371C48.3145 36.4086 47.6298 36.3835 47.1725 36.7796L40.4595 42.5949C40.2907 42.7411 40.0751 42.8215 39.8521 42.8215H29.8155C29.3022 42.8215 28.8861 42.4042 28.8861 41.8894C28.8861 41.3746 29.3022 40.9572 29.8155 40.9572H36.4136Z" fill="white"/>
</svg>