<svg xmlns="http://www.w3.org/2000/svg" width="30" height="45" viewBox="0 0 30 45" fill="none">
  <path d="M16.0741 3.03259C17.6878 3.28133 19.0788 3.89221 20.2635 4.93839C20.6121 5.24749 20.9024 5.62243 21.251 5.93153C21.4116 6.07419 21.6471 6.20953 21.8534 6.21319C23.1056 6.2388 24.3579 6.22234 25.6101 6.22782C28.1858 6.23697 29.9874 7.99828 29.9911 10.5735C30.0039 20.5945 30.002 30.6137 29.9911 40.6347C29.9874 43.2373 28.1894 44.9968 25.5845 44.9986C18.5238 45.0005 11.4631 45.0005 4.40244 44.9986C1.80305 44.9986 0.00867071 43.2282 0.0068453 40.6237C-0.00228177 30.6192 -0.00228177 20.6128 0.0068453 10.6082C0.00867071 8.00194 1.79758 6.23697 4.39879 6.22782C5.63642 6.22417 6.87223 6.22051 8.10986 6.23331C8.38914 6.23697 8.57899 6.16198 8.76518 5.93702C10.0302 4.39701 11.6512 3.44411 13.6135 3.0966C13.869 3.05088 13.9329 2.94663 13.9256 2.71069C13.9128 2.19674 13.9147 1.6828 13.9256 1.16885C13.9366 0.470181 14.3601 0.00744854 14.9807 0.0001326C15.6251 -0.00901232 16.0595 0.45555 16.0723 1.17983C16.0814 1.78339 16.0741 2.38696 16.0741 3.03259ZM7.27564 8.35859C6.32643 8.35859 5.34618 8.35493 4.36776 8.35859C2.99322 8.36408 2.14623 9.21821 2.14623 10.6028C2.14623 20.6073 2.14623 30.6118 2.14623 40.6164C2.14623 40.8121 2.15171 41.0114 2.19004 41.2017C2.41457 42.2789 3.23235 42.8697 4.49554 42.8715C11.465 42.8715 18.4344 42.8715 25.4056 42.8715C27.0686 42.8715 27.848 42.0924 27.848 40.4353C27.848 30.5515 27.848 20.6677 27.848 10.7838C27.848 10.632 27.8517 10.482 27.8444 10.3302C27.7951 9.3938 27.1672 8.61831 26.2508 8.43358C25.8565 8.3531 25.4422 8.36591 25.0369 8.36042C24.2465 8.35127 23.4561 8.35676 22.7205 8.35676C22.8409 9.22919 22.9943 10.0449 23.0527 10.8661C23.1129 11.7038 22.6785 12.1245 21.826 12.1245C17.2698 12.13 12.7135 12.13 8.15732 12.1245C7.31032 12.1245 6.87405 11.7001 6.93611 10.8606C6.99635 10.0394 7.15151 9.2237 7.27199 8.35493L7.27564 8.35859ZM9.20875 9.95164H20.7947C20.5446 7.86659 18.4417 5.04813 14.8712 5.10483C12.0692 5.15055 9.31645 7.5264 9.21058 9.95164H9.20875Z" fill="#332F30"/>
  <path d="M14.9918 18.4566C15.8604 17.749 16.812 17.2913 17.8854 17.0949C21.5977 16.4121 25.0851 19.5074 24.9984 23.4019C24.9505 25.5551 24.1243 27.4051 22.9274 29.0987C20.9541 31.8889 18.3999 34.0096 15.5783 35.8119C15.2131 36.0465 14.8111 36.0694 14.4496 35.8367C11.3329 33.8285 8.50761 31.4826 6.50666 28.2328C5.49788 26.5926 4.89667 24.8151 5.0147 22.8317C5.20834 19.5837 7.93407 16.9862 11.1079 17.0148C12.5482 17.0281 13.8207 17.5106 14.99 18.4585L14.9918 18.4566ZM7.14844 23.4343C7.15397 23.5087 7.16688 23.6804 7.18532 23.852C7.35683 25.475 8.08529 26.8425 9.02768 28.1031C10.6192 30.2334 12.6091 31.9117 14.7687 33.3841C14.8793 33.4604 15.1264 33.4527 15.2408 33.3745C17.2233 32.0281 19.0509 30.4928 20.5816 28.6085C21.5 27.4795 22.2598 26.2512 22.6434 24.8094C23.1948 22.7344 22.5585 20.8635 20.967 19.8507C19.3515 18.8228 17.3155 19.1108 16.0043 20.5545C15.2666 21.3669 14.7281 21.3669 13.9793 20.5488C13.9591 20.5259 13.9388 20.503 13.9166 20.4801C12.7972 19.2919 11.1006 18.9181 9.62335 19.5322C8.13324 20.1521 7.14659 21.6683 7.15028 23.4343H7.14844Z" fill="#332F30"/>
  <path d="M16.2334 27.5152C16.0917 28.6245 15.7639 29.0083 14.9869 28.9999C14.2038 28.9931 13.8679 28.5874 13.7849 27.5051C12.8824 27.5051 11.988 27.4209 12.0001 26.4092C12.0082 25.8268 12.4413 25.6163 13.6169 25.48C13.8476 25.0204 14.0014 24.5895 14.2786 24.2259C14.394 24.0744 14.7764 24.0054 15.0415 24.0003C15.7882 23.9869 16.0857 24.3707 16.2172 25.3268C16.7838 25.5339 17.3099 25.6736 17.7551 25.9177C17.9332 26.0153 18.002 26.3385 18 26.559C17.9939 27.1751 17.5163 27.4226 16.2334 27.5152Z" fill="#332F30"/>
</svg>