<svg xmlns="http://www.w3.org/2000/svg" width="42" height="36" viewBox="0 0 42 36" fill="none">
  <path d="M41.1303 30.5612C41.0132 31.0392 40.9402 31.5306 40.7732 31.9894C39.9785 34.1968 38.3028 35.2622 36.0531 35.5252C35.4829 35.5924 34.9032 35.5828 34.3293 35.5828C24.9599 35.5866 15.5925 35.5866 6.22319 35.5828C5.21543 35.5828 4.21918 35.4887 3.2786 35.0837C1.15365 34.17 0.182358 32.4788 0.0191955 30.2464C0.00191955 30.0065 0.00191955 29.7646 0.00191955 29.5246C0 23.528 0.00383911 17.5313 0 11.5365C0 10.2427 0.201553 9.00078 0.936742 7.9028C1.88692 6.48425 3.26516 5.6838 4.92749 5.59934C7.35765 5.47457 9.79548 5.52447 12.2314 5.50144C12.4042 5.50144 12.575 5.50144 12.79 5.50144C12.7996 5.33828 12.813 5.19815 12.813 5.05802C12.8149 4.29596 12.813 3.53198 12.813 2.76992C12.8169 0.984731 13.7747 0.0115173 15.5637 0.00767821C18.9498 -0.00383911 22.3359 0.00383911 25.722 0C26.4207 0 27.0388 0.191955 27.5475 0.685281C27.9871 1.11142 28.2654 1.62394 28.2827 2.24012C28.3096 3.13655 28.3057 4.03298 28.3153 4.92941C28.3153 5.10217 28.3153 5.27493 28.3153 5.50912C28.4958 5.50912 28.6513 5.50912 28.8067 5.50912C30.8818 5.50912 32.9549 5.50144 35.0299 5.51296C36.0108 5.51872 36.9764 5.63005 37.8901 6.0274C39.7156 6.82209 40.7195 8.2368 41.0381 10.1756C41.0592 10.3042 41.0976 10.4309 41.1264 10.5595V30.5612H41.1303ZM20.5431 33.8859C25.1078 33.8859 29.6705 33.8859 34.2352 33.8859C34.7574 33.8859 35.2814 33.9012 35.7997 33.8571C36.9764 33.7553 38.0206 33.3638 38.7289 32.3502C39.3048 31.5248 39.4391 30.5766 39.4391 29.5995C39.4391 23.5625 39.4391 17.5274 39.4391 11.4904C39.4391 11.2889 39.4372 11.0893 39.4199 10.8896C39.2913 9.36742 38.7001 8.11971 37.1817 7.5784C36.5041 7.33653 35.7459 7.22136 35.0242 7.21944C25.388 7.19641 15.7499 7.20408 6.11378 7.20792C5.7529 7.20792 5.39011 7.22712 5.03307 7.27895C3.61452 7.4901 2.48006 8.12931 2.00593 9.55746C1.80438 10.1679 1.70648 10.8397 1.70456 11.4847C1.68345 17.5351 1.68921 23.5836 1.69497 29.6341C1.69497 30.0065 1.71992 30.3846 1.78326 30.7532C2.03665 32.2274 2.83326 33.2639 4.3094 33.6536C4.89678 33.8091 5.52064 33.8763 6.12913 33.8801C10.9338 33.8974 15.7384 33.8897 20.5431 33.8897V33.8859ZM26.6146 5.4784C26.6146 4.40729 26.6338 3.3669 26.605 2.3265C26.5935 1.90036 26.3305 1.69305 25.8986 1.64698C25.7796 1.63354 25.6587 1.63546 25.5377 1.63546C22.2207 1.63546 18.9057 1.63546 15.5887 1.63546C15.4543 1.63546 15.32 1.63162 15.1875 1.65274C14.8151 1.7084 14.5464 1.91571 14.5368 2.29962C14.5157 3.35154 14.5291 4.40346 14.5291 5.4784H26.6127H26.6146Z" fill="#332F30"/>
  <path d="M16.8116 24.0559C15.6886 24.0559 14.6329 24.0559 13.5771 24.0559C12.5943 24.0559 12.1144 23.5856 12.1125 22.6143C12.1087 21.0748 12.1068 19.5353 12.1125 17.9958C12.1164 17.038 12.5867 16.5715 13.5464 16.5677C14.6137 16.5639 15.6829 16.5677 16.7886 16.5677C16.7962 16.3911 16.8097 16.249 16.8097 16.107C16.8097 15.1703 16.8058 14.2335 16.8116 13.2968C16.8193 12.3293 17.3107 11.8494 18.2839 11.8475C19.8099 11.8456 21.336 11.8456 22.862 11.8475C23.8237 11.8475 24.3132 12.3389 24.319 13.3121C24.3247 14.3813 24.319 15.4505 24.319 16.5773C24.4917 16.5773 24.6338 16.5773 24.7758 16.5773C25.7394 16.5773 26.703 16.5715 27.6667 16.5773C28.5036 16.583 29.0084 17.0629 29.0161 17.8845C29.0276 19.5046 29.0276 21.1247 29.0161 22.7429C29.0103 23.5606 28.494 24.0482 27.6647 24.052C26.5687 24.0578 25.4726 24.052 24.3324 24.052C24.3247 24.2152 24.3113 24.3553 24.3113 24.4954C24.3094 25.4322 24.3151 26.3689 24.3094 27.3057C24.3017 28.277 23.8122 28.7684 22.8505 28.7722C21.3245 28.778 19.7984 28.778 18.2724 28.7722C17.3107 28.7684 16.8193 28.2731 16.8135 27.3038C16.8077 26.2365 16.8135 25.1673 16.8135 24.052L16.8116 24.0559ZM22.6144 13.5636H18.5046C18.5046 13.7191 18.5046 13.863 18.5046 14.007C18.5046 15.0781 18.5104 16.1473 18.5027 17.2184C18.4989 17.9536 18.1821 18.2588 17.4431 18.2646C16.7482 18.2684 16.0514 18.2646 15.3566 18.2646C14.8517 18.2646 14.3469 18.2646 13.8305 18.2646V22.3667C15.0187 22.3667 16.1801 22.3667 17.3414 22.3667C18.2417 22.3667 18.5046 22.6316 18.5046 23.5453C18.5046 24.5761 18.5046 25.6069 18.5046 26.6357C18.5046 26.7778 18.52 26.9179 18.5277 27.0619H22.6259C22.6259 26.8949 22.6259 26.7528 22.6259 26.6108C22.6259 25.5531 22.6221 24.4974 22.6259 23.4397C22.6298 22.6642 22.9254 22.3705 23.6932 22.3686C24.4956 22.3667 25.2999 22.3686 26.1022 22.3686C26.4996 22.3686 26.8969 22.3686 27.2981 22.3686V18.2588C26.1214 18.2588 24.9735 18.2588 23.8256 18.2588C22.8774 18.2588 22.6125 17.9939 22.6106 17.0418C22.6106 15.9054 22.6106 14.7691 22.6106 13.5655L22.6144 13.5636Z" fill="#332F30"/>
</svg>