<svg width="40" height="40" viewBox="0 0 40 40" fill="none" xmlns="http://www.w3.org/2000/svg">
<path d="M40 11.4081C39.7712 11.7024 39.5696 12.0221 39.31 12.2837C37.8282 13.7842 36.3319 15.272 34.8392 16.7616C34.171 17.4283 33.5427 17.4283 32.8799 16.767C32.6602 16.5491 32.4459 16.3256 32.1408 16.0132C32.03 16.1748 31.9592 16.3238 31.8503 16.4328C24.6176 23.6737 17.3794 30.9073 10.1485 38.15C8.9809 39.3199 7.59718 39.9757 5.94109 39.9993C3.55319 40.0356 1.40862 38.6351 0.477064 36.4588C-0.458122 34.2753 0.00311546 31.7684 1.67192 30.0572C2.59984 29.1071 3.54774 28.177 4.48656 27.2378C10.8476 20.8743 17.2069 14.5109 23.5716 8.151C23.6806 8.04201 23.8295 7.97116 24.0056 7.85127C23.6479 7.50975 23.3791 7.26814 23.1285 7.00837C22.6092 6.4743 22.6074 5.80579 23.134 5.27535C24.7592 3.64043 26.3881 2.01096 28.0242 0.388748C28.184 0.227073 28.4037 0.127161 28.5944 0C28.776 0 28.9594 0 29.141 0C29.4206 0.203457 29.7348 0.374216 29.9763 0.614005C33.1196 3.74216 36.2556 6.87939 39.3826 10.0221C39.6241 10.2655 39.7948 10.578 39.9982 10.8595V11.4063L40 11.4081ZM22.2914 12.8087C23.074 13.5917 23.8694 14.3801 24.6557 15.1739C25.2295 15.7534 25.2368 16.4201 24.663 16.9959C19.8054 21.8589 14.9461 26.7201 10.085 31.5795C9.51114 32.1535 8.83744 32.1444 8.2618 31.5758C7.54997 30.871 6.84359 30.1589 6.13539 29.4504C6.04823 29.3632 5.95562 29.2797 5.87572 29.2034C4.97322 30.0971 4.07617 30.9309 3.24085 31.8229C2.14769 32.9891 2.05326 34.7966 2.95576 36.1191C4.24323 38.0065 6.7873 38.1882 8.47245 36.5042C15.736 29.2433 22.9978 21.977 30.2614 14.7179C30.3522 14.6271 30.4865 14.5799 30.5483 14.5436C28.8232 12.8178 27.1798 11.1738 25.5509 9.54432C24.4941 10.6034 23.41 11.6897 22.2914 12.8087ZM9.12617 29.0508C13.4662 24.7091 17.8134 20.3621 22.1316 16.044C21.6413 15.5536 21.1111 15.0213 20.6208 14.5308C16.2917 18.8597 11.9444 23.2086 7.61171 27.5412C8.11653 28.0444 8.64677 28.5748 9.12617 29.0526V29.0508ZM30.4992 11.0158C31.5997 9.92035 32.691 8.83404 33.7206 7.80767C33.2122 7.29902 32.6747 6.76313 32.1989 6.28719C31.1421 7.34262 30.0525 8.43075 28.9848 9.49709C29.4823 9.99483 30.0126 10.5271 30.4992 11.0158ZM27.2288 7.72229C28.3056 6.64505 29.397 5.55329 30.4502 4.49967C29.929 3.98013 29.3897 3.44061 28.8904 2.93923C27.8244 4.00193 26.7349 5.09006 25.6617 6.16003C26.1701 6.66685 26.7022 7.1973 27.2288 7.7241V7.72229ZM33.8496 14.3256C34.9155 13.261 36.005 12.1711 37.0746 11.1011C36.5625 10.5907 36.0232 10.0511 35.5057 9.53705C34.4343 10.607 33.3429 11.6988 32.2824 12.7597C32.8054 13.2828 33.3466 13.8224 33.8496 14.3256Z" fill="#332F30"/>
</svg>