<svg xmlns="http://www.w3.org/2000/svg" width="40" height="40" viewBox="0 0 40 40" fill="none">
  <path d="M15.5017 0C24.4529 0.00502029 31.3608 5.96662 32.4979 13.9514C32.5933 14.6266 32.631 15.3119 32.6686 15.9947C32.6812 16.2407 32.7314 16.3913 32.9749 16.5143C36.8656 18.4697 39.1749 21.6099 39.8527 25.8997C40.2819 28.6132 39.7623 31.1961 38.4369 33.6059C38.2813 33.892 38.2487 34.133 38.3365 34.4417C38.6553 35.5537 38.954 36.6758 39.2527 37.7928C39.5439 38.8872 38.8812 39.5599 37.7893 39.2662C36.6422 38.96 35.5001 38.6312 34.3479 38.34C34.1446 38.2898 33.8685 38.3174 33.6877 38.4153C27.3923 41.8693 19.6861 39.462 16.5259 33.0335C16.3928 32.7624 16.2372 32.6846 15.9485 32.6771C13.1573 32.6269 10.5567 31.8789 8.147 30.4732C7.89347 30.3251 7.67258 30.3 7.39897 30.3753C5.75232 30.8296 4.10566 31.2739 2.45649 31.7157C1.32693 32.0194 0.676797 31.3668 0.980525 30.2347C1.42231 28.5856 1.8641 26.9364 2.32596 25.2922C2.40629 25.0086 2.36613 24.7927 2.22305 24.5442C-1.63505 17.8773 -0.379975 9.52099 5.2779 4.32498C8.40052 1.45589 12.1155 0.0552232 15.5017 0ZM3.4731 29.2081C3.62371 29.178 3.70905 29.1629 3.79189 29.1403C5.02437 28.809 6.25937 28.4826 7.48683 28.1362C7.93363 28.0107 8.3202 28.0685 8.71429 28.3145C11.9448 30.3427 15.439 30.9777 19.1816 30.2699C26.5288 28.8818 31.6595 21.5044 30.407 14.1246C29.3577 7.94211 24.7642 3.26319 18.5892 2.31687C13.3179 1.51111 8.8398 3.19793 5.41847 7.28947C1.39972 12.0964 1.05332 18.6002 4.3642 23.9543C4.61773 24.3635 4.68801 24.7576 4.55497 25.222C4.18598 26.5222 3.8446 27.8275 3.4731 29.2031V29.2081ZM36.7451 36.7536C36.5267 35.9378 36.3661 35.2274 36.1402 34.5371C35.9419 33.9347 36.0423 33.4402 36.3711 32.898C38.9641 28.6307 38.0403 23.0482 34.2224 19.8477C33.7078 19.416 33.1305 19.057 32.5933 18.6705C30.9542 26.3741 26.3506 30.9777 18.7047 32.5918C18.7825 32.7273 18.8578 32.8704 18.9406 33.0059C21.8926 37.7853 28.1704 39.2838 32.9573 36.3394C33.4392 36.0432 33.886 35.9528 34.4282 36.126C35.1562 36.357 35.9067 36.5277 36.7451 36.7486V36.7536Z" fill="#332F30"/>
  <path d="M12.9863 12.9674C12.9863 11.7324 12.9863 10.5576 12.9863 9.38286C12.9863 8.3286 13.3477 7.97467 14.4145 7.97467C15.7223 7.97467 17.0326 7.97467 18.3404 7.97467C19.3244 7.97467 19.7059 8.36374 19.7084 9.36027C19.7084 10.5476 19.7084 11.7349 19.7084 12.9648C19.9017 12.9749 20.0573 12.9874 20.2155 12.9899C21.2572 12.9899 22.2964 12.9899 23.3381 12.9899C24.3472 12.9925 24.7187 13.364 24.7187 14.358C24.7187 15.6959 24.7187 17.0338 24.7187 18.3742C24.7187 19.3256 24.3221 19.7171 23.3557 19.7196C22.2989 19.7196 21.2446 19.7196 20.1879 19.7196C20.0423 19.7196 19.8992 19.7322 19.7059 19.7397C19.7059 20.5505 19.7059 21.3337 19.7059 22.1168C19.7059 22.6088 19.7185 23.0983 19.7009 23.5903C19.6758 24.3007 19.2491 24.7224 18.5387 24.7274C17.0954 24.7374 15.6545 24.7349 14.2112 24.7274C13.4105 24.7249 12.9963 24.3207 12.9863 23.5225C12.9737 22.4381 12.9812 21.3512 12.9812 20.2644C12.9812 20.1037 12.9812 19.9405 12.9812 19.7171C12.788 19.7171 12.6298 19.7171 12.4717 19.7171C11.43 19.7171 10.3908 19.7171 9.34905 19.7171C8.35503 19.7171 7.96345 19.3306 7.96094 18.3491C7.96094 17.0263 7.96094 15.7009 7.96094 14.3781C7.96094 13.3564 8.33244 12.9899 9.36913 12.9874C10.3958 12.9849 11.4199 12.9874 12.4466 12.9874C12.6072 12.9874 12.7654 12.9749 12.9812 12.9648L12.9863 12.9674ZM22.5449 17.5785V15.1336C22.3516 15.1336 22.191 15.1336 22.0303 15.1336C20.9459 15.1336 19.8615 15.1411 18.7747 15.1311C17.9589 15.1236 17.5723 14.737 17.5698 13.9237C17.5623 12.8243 17.5698 11.7248 17.5673 10.6229C17.5673 10.4672 17.5547 10.3091 17.5447 10.1384H15.15C15.1425 10.3166 15.1274 10.4748 15.1274 10.6329C15.1274 11.6596 15.1274 12.6837 15.1274 13.7104C15.1274 14.7922 14.7885 15.1311 13.7242 15.1336C12.685 15.1336 11.6433 15.1336 10.6041 15.1336C10.446 15.1336 10.2904 15.1512 10.1473 15.1587V17.5785C11.3722 17.5785 12.562 17.5785 13.7493 17.5785C14.786 17.5785 15.1274 17.9249 15.1299 18.9766C15.1299 20.0184 15.1299 21.0576 15.1299 22.0993C15.1299 22.2574 15.145 22.413 15.1525 22.5561H17.5698C17.5698 21.3487 17.5698 20.1765 17.5698 19.0043C17.5698 17.8948 17.8886 17.581 19.0056 17.5785C20.1778 17.5785 21.3476 17.5785 22.5474 17.5785H22.5449Z" fill="#332F30"/>
</svg>