<svg width="43" height="49" viewBox="0 0 43 49" fill="none" xmlns="http://www.w3.org/2000/svg">
<g id="Group 34851">
<path id="Vector 141" d="M14.8996 42.8842C10.2664 43.5637 1 43.4031 1 37.3243C1 31.2456 1 14.2818 1 6.55984C1.30888 4.70656 3.14981 1 8.04247 1C12.9351 1 23.3012 1 27.8726 1C29.8494 1 33.8031 2.11197 33.8031 6.55984C33.8031 11.0077 33.8031 18.0502 33.8031 21.0154" stroke="#332F30" stroke-width="2" stroke-linecap="round"/>
<path id="Vector 142" d="M8.59863 11.0076H20.645" stroke="#332F30" stroke-width="2" stroke-linecap="round"/>
<path id="Vector 143" d="M8.59863 18.2356H26.3901" stroke="#332F30" stroke-width="2" stroke-linecap="round"/>
<path id="Vector 144" d="M8.59863 25.6487H18.977" stroke="#332F30" stroke-width="2" stroke-linecap="round"/>
<path id="Vector 145" d="M8.59863 33.0618H14.8998" stroke="#332F30" stroke-width="2" stroke-linecap="round"/>
<circle id="Ellipse 657" cx="30.6527" cy="37.3244" r="10.6757" stroke="#332F30" stroke-width="2"/>
<path id="Vector 146" d="M27.3167 37.8802L29.5406 39.9188L33.9885 35.4709" stroke="#332F30" stroke-width="2" stroke-linecap="round" stroke-linejoin="round"/>
</g>
</svg>
