<svg xmlns="http://www.w3.org/2000/svg" width="67" height="67" viewBox="0 0 67 67" fill="none">
  <circle cx="33.5" cy="33.5" r="33.5" fill="#E03854"/>
  <path fill-rule="evenodd" clip-rule="evenodd" d="M28.9294 17.0755C28.9294 16.5156 29.3814 16.0616 29.9389 16.0616H38.8233C39.3809 16.0616 39.8329 16.5156 39.8329 17.0755V18.2921H45.2847C45.68 18.2921 46.0389 18.5238 46.2031 18.8849C46.3673 19.2459 46.3065 19.67 46.0476 19.97L44.0635 22.269L45.9695 24.0358C46.2749 24.319 46.3763 24.7612 46.225 25.15C46.0736 25.5388 45.7004 25.7947 45.2847 25.7947H35.7946C35.237 25.7947 34.785 25.3408 34.785 24.7808V23.3614H30.9485V26.5327L34.8411 33.1839L37.9847 28.4745C38.1822 28.1787 38.5197 28.0086 38.8738 28.0264C39.228 28.0442 39.5469 28.2473 39.7139 28.5615L50.8194 49.4469C50.9865 49.7612 50.9771 50.1404 50.7947 50.4459C50.6122 50.7514 50.2835 50.9384 49.9288 50.9384H16.6124C16.2515 50.9384 15.918 50.7449 15.7377 50.4309C15.5575 50.1169 15.5578 49.7302 15.7386 49.4165L22.7425 37.2678C22.7487 37.2565 22.7552 37.2453 22.7619 37.2342L28.9294 26.5362V17.0755ZM29.9455 28.8207L24.6303 38.0404L24.5385 42.4182C24.5221 43.1993 25.1481 43.8414 25.9261 43.8414C26.6926 43.8414 27.314 43.2173 27.314 42.4476V37.1166C27.314 35.4368 28.67 34.075 30.3428 34.075C32.0155 34.075 33.3716 35.4368 33.3716 37.1166V40.0901C33.3716 40.482 33.688 40.7998 34.0783 40.7998C34.4686 40.7998 34.785 40.482 34.785 40.0901V37.0898L33.9259 35.6219C33.9183 35.6096 33.911 35.5971 33.904 35.5845L29.9455 28.8207ZM36.6746 36.3167C36.6687 36.3062 36.6626 36.2957 36.6563 36.2855L35.9768 35.1243L38.7252 31.0069L48.2452 48.9106H44.0451L36.6746 36.3167ZM36.7752 40.4905C36.5822 41.8125 35.4483 42.8275 34.0783 42.8275C32.5728 42.8275 31.3524 41.6019 31.3524 40.0901V37.1166C31.3524 36.5567 30.9004 36.1027 30.3428 36.1027C29.7852 36.1027 29.3332 36.5567 29.3332 37.1166V42.4476C29.3332 44.3372 27.8078 45.8691 25.9261 45.8691C24.0163 45.8691 22.4796 44.293 22.5197 42.3755L22.5344 41.6758L18.3635 48.9106H41.703L36.7752 40.4905ZM30.9485 21.3337H37.208V19.306C37.208 18.8902 37.4572 18.5329 37.8137 18.3765V18.0894H30.9485V21.3337ZM39.2272 20.3198V22.3476C39.2272 22.9075 38.7752 23.3614 38.2176 23.3614H36.8042V23.767H42.7025L41.975 23.0926C41.5743 22.7211 41.5397 22.0974 41.8968 21.6836L43.0737 20.3198H39.2272Z" fill="white"/>
</svg>