<svg width="57" height="57" viewBox="0 0 57 57" fill="none" xmlns="http://www.w3.org/2000/svg">
<circle cx="28.4998" cy="28.5" r="28.5" fill="white"/>
<path fill-rule="evenodd" clip-rule="evenodd" d="M21.5297 12.5265C20.1891 11.1649 18.0196 11.1516 16.663 12.4967C10.7944 18.3154 10.8757 27.9263 16.8418 33.6417L25.2563 41.7026C30.7623 46.9772 39.4323 46.7326 44.6415 41.1556C45.8406 39.8719 45.834 37.8575 44.6265 36.5819L42.0127 33.821C40.567 32.2939 38.1883 32.2098 36.6416 33.6312L36.2189 34.0196C33.8884 36.1612 30.3215 36.0986 28.0653 33.8764L23.3713 29.2532C20.9807 26.8987 20.9513 23.0122 23.3059 20.6206L23.6734 20.2473C25.1806 18.7165 25.1806 16.2346 23.6734 14.7038L21.5297 12.5265ZM15.1925 10.9667C17.374 8.80377 20.8625 8.82512 23.0182 11.0146L25.1619 13.192C27.4912 15.5577 27.4912 19.3934 25.1619 21.7592L24.7944 22.1325C23.2708 23.6799 23.2899 26.1948 24.8367 27.7183L29.5307 32.3414C30.9907 33.7793 33.2986 33.8199 34.8066 32.4341L35.2292 32.0457C37.6196 29.8491 41.2959 29.979 43.5301 32.3391L46.1439 35.1C48.1312 37.1992 48.1421 40.5145 46.1687 42.6272C40.1609 49.0591 30.162 49.3412 23.8119 43.258L15.3975 35.1971C8.56073 28.6477 8.46756 17.6345 15.1925 10.9667ZM38.4805 15.377C35.3998 13.3308 31.4647 13.0936 28.7622 13.5418C28.1885 13.6369 27.6474 13.2417 27.5538 12.6589C27.4601 12.0762 27.8493 11.5267 28.423 11.4316C31.4509 10.9295 35.9712 11.1556 39.6326 13.5875C43.3868 16.0811 46.0143 20.7415 45.4302 28.6028C45.3864 29.1916 44.8811 29.6328 44.3014 29.5884C43.7218 29.544 43.2873 29.0307 43.3311 28.4419C43.8696 21.1941 41.4684 17.3615 38.4805 15.377ZM31.411 16.6043C31.4972 16.0204 32.0331 15.6181 32.608 15.7057C33.9228 15.906 35.8807 16.5517 37.6063 17.8564C39.3541 19.1779 40.897 21.2068 41.2166 24.1281C41.2808 24.715 40.8645 25.2435 40.2867 25.3087C39.709 25.3739 39.1886 24.9511 39.1244 24.3643C38.8826 22.1542 37.7356 20.6196 36.3493 19.5714C34.9406 18.5064 33.3199 17.9761 32.2957 17.8201C31.7209 17.7325 31.3247 17.1882 31.411 16.6043Z" fill="#332F30"/>
</svg>
