<svg width="34" height="35" viewBox="0 0 34 35" fill="none" xmlns="http://www.w3.org/2000/svg">
<g id="Group">
<g id="Group_2">
<path id="Vector" d="M23.8967 34.0352C12.0686 33.8978 -2.74461 18.706 0.437865 6.74481C1.08255 3.2382 7.29942 -2.81138 11.3417 1.48346C12.9489 3.18616 15.0187 4.51214 14.9655 7.14511C14.9771 8.80613 14.1838 10.0904 12.9824 11.1661C11.622 12.5265 11.4962 14.6903 12.6896 16.1992C14.1591 18.0589 15.9169 19.8165 17.7768 21.2865C19.2858 22.4798 21.4495 22.354 22.8099 20.9936L23.3606 20.4431C24.2843 19.5194 25.5168 19.0106 26.831 19.0106C29.4608 18.9556 30.7949 21.0312 32.4928 22.6344C36.7812 26.713 30.753 32.8699 27.2314 33.5382C26.2041 33.8701 25.0859 34.0352 23.8967 34.0352ZM7.99009 1.46147C5.53843 1.36523 2.2687 4.92341 1.87318 7.02767C-0.702891 16.8334 9.55201 28.1163 18.3743 31.4548C22.6693 32.9906 26.6083 33.2082 29.8513 30.4807C32.0132 28.6299 33.6818 25.886 31.4589 23.6683L29.2676 21.4771C27.9925 20.1468 25.6693 20.1472 24.3945 21.4772L23.8438 22.0277C21.9589 23.9127 18.9606 24.0871 16.8697 22.4335C15.8958 21.6631 14.948 20.8186 14.0528 19.9233C13.1572 19.0277 12.3127 18.0799 11.5427 17.1063C9.88905 15.0156 10.0635 12.0174 11.9484 10.1322L12.499 9.58168C13.8294 8.30766 13.829 5.98275 12.499 4.70861L10.3077 2.51728C9.60213 1.81165 8.83682 1.46147 7.99009 1.46147Z" fill="#332F30"/>
</g>
<g id="Group_3">
<path id="Vector_2" d="M27.3619 13.5457C27.0246 13.5457 26.7214 13.3109 26.6477 12.9678C26.3503 11.5812 25.6631 10.3183 24.6604 9.31563C23.6426 8.29777 22.3593 7.60623 20.9495 7.31579C20.554 7.2343 20.2995 6.84769 20.3809 6.45225C20.4624 6.0568 20.849 5.80225 21.2444 5.88373C22.9351 6.23192 24.4738 7.06117 25.6943 8.28168C26.8966 9.48405 27.7208 10.9984 28.0774 12.6612C28.1621 13.0559 27.9107 13.4447 27.5159 13.5293C27.4643 13.5404 27.4126 13.5457 27.3619 13.5457Z" fill="#E03854"/>
</g>
<g id="Group_4">
<path id="Vector_3" d="M31.4923 17.6532C31.4445 17.6532 31.3962 17.6486 31.3476 17.6388C30.9517 17.5593 30.6952 17.174 30.7747 16.7781C31.5363 12.9857 30.3579 9.08866 27.6228 6.35341C24.8826 3.61325 20.9791 2.43614 17.1809 3.2049C16.7851 3.28539 16.3994 3.02911 16.3194 2.63333C16.2393 2.23761 16.4951 1.85187 16.8909 1.77178C21.1708 0.905513 25.5691 2.23183 28.6567 5.31946C31.7386 8.40151 33.0664 12.7927 32.2083 17.0658C32.1385 17.4132 31.8333 17.6532 31.4923 17.6532Z" fill="#E03854"/>
</g>
</g>
</svg>
