<svg xmlns="http://www.w3.org/2000/svg" width="79" height="79" viewBox="0 0 79 79" fill="none">
  <g clip-path="url(#clip0_1229_194)">
    <path d="M72.9697 23.5359C72.9697 21.0278 71.9745 18.6906 70.2078 16.9698C70.7943 15.068 70.7766 12.9654 70.0136 10.9663C69.5891 9.85402 68.9718 8.85754 68.175 7.99591C68.08 7.36334 67.9173 6.7428 67.6887 6.14388C66.8417 3.92473 65.1808 2.16844 63.0128 1.19828C60.8446 0.227977 58.4287 0.16055 56.2094 1.00742C54.5717 1.63252 53.1921 2.69461 52.1912 4.07693C50.3681 3.06249 48.2165 2.70389 46.1383 3.11287C44.4497 3.44544 42.9218 4.24588 41.7044 5.41649C40.3017 4.53614 38.6762 4.06369 36.9902 4.06369C35.3042 4.06369 33.6787 4.53614 32.2758 5.41649C31.0585 4.24603 29.5306 3.44544 27.8422 3.11287C25.7642 2.70405 23.6126 3.06264 21.7892 4.07693C20.7883 2.69461 19.4088 1.63268 17.7714 1.00772C15.5524 0.160398 13.1362 0.228129 10.9679 1.19844C8.79971 2.16859 7.13915 3.92488 6.29198 6.14403C6.06352 6.74265 5.90066 7.36334 5.80568 7.99606C5.00874 8.85754 4.39155 9.85402 3.9669 10.9665C2.7555 14.14 3.41881 17.5749 5.40569 20.0505C3.49567 21.7718 2.36692 24.242 2.36692 26.8757C2.36692 28.1608 2.63495 29.4222 3.1494 30.5855C1.77804 32.2275 1.01077 34.312 1.01077 36.4748C1.01077 38.6378 1.77789 40.7221 3.1494 42.3641C2.63495 43.5274 2.36692 44.7888 2.36692 46.0739C2.36692 48.473 3.28639 50.7426 4.95592 52.4645C6.33688 53.8889 8.10763 54.8128 10.0339 55.1322C10.7284 57.1018 11.7612 58.9208 13.1123 60.5515C14.01 61.6352 15.3326 62.2568 16.741 62.2568C17.8532 62.2568 18.934 61.8603 19.784 61.1402C21.7348 59.488 21.9845 56.5138 20.3406 54.5103C20.1577 54.2875 19.9871 54.0565 19.8291 53.8178C23.2394 52.4518 25.6074 49.1049 25.6074 45.2888C25.6074 43.7307 25.2211 42.2274 24.4818 40.8818C25.2211 39.536 25.6074 38.0326 25.6074 36.4745C25.6074 34.9164 25.2211 33.4131 24.4818 32.0674C25.2211 30.7218 25.6074 29.2184 25.6074 27.6603C25.6074 27.4815 25.6007 27.3032 25.5905 27.1255C27.288 26.9722 28.9241 26.3788 30.3302 25.3893C32.1974 26.9159 34.5506 27.7687 36.9902 27.7687C39.4297 27.7687 41.7831 26.9159 43.6502 25.3893C45.0849 26.3988 46.7593 26.9964 48.4944 27.1341C48.6833 28.028 49.0031 28.8877 49.4489 29.688C48.6103 31.2489 47.8529 33.5755 48.634 35.5281C48.896 36.1827 49.5244 36.5809 50.1891 36.5809C50.3959 36.5809 50.6064 36.5422 50.8104 36.4607C51.669 36.1171 52.0865 35.1429 51.7429 34.2843C51.4256 33.4911 52.0335 31.7029 52.789 30.6339C53.2046 30.0457 53.1977 29.2576 52.7714 28.677C52.3553 28.1101 52.0507 27.4797 51.8629 26.8138C54.2207 26.1667 56.2175 24.6821 57.5071 22.6441C59.7441 23.6849 62.3127 23.7919 64.6787 22.8884C66.2336 22.2948 67.5337 21.3224 68.5191 20.1181C69.2305 21.0992 69.6209 22.2841 69.6209 23.5357C69.6209 24.9092 69.1334 26.2441 68.2482 27.294C67.7225 27.9174 67.7225 28.829 68.248 29.4524C69.1334 30.5026 69.6209 31.8374 69.6209 33.2109C69.6209 34.5896 69.1316 35.9273 68.2429 36.9777C67.6458 37.6838 67.7339 38.7401 68.4398 39.3373C68.7543 39.6034 69.1383 39.7334 69.5203 39.7334C69.9958 39.7334 70.4684 39.5318 70.7995 39.1404C72.1987 37.4862 72.9694 35.3805 72.9694 33.2109C72.9694 31.4956 72.4863 29.8186 71.5908 28.3732C72.4866 26.9282 72.9697 25.2514 72.9697 23.5359ZM21.1479 33.0514C21.8747 34.0523 22.2589 35.2363 22.2589 36.4748C22.2589 37.7133 21.8747 38.8973 21.1479 39.8985C20.7221 40.4851 20.7221 41.2792 21.1479 41.8658C21.8747 42.8667 22.2589 44.0505 22.2589 45.2891C22.2589 48.2083 20.0795 50.695 17.1892 51.0735C16.6825 51.1401 16.234 51.434 15.9711 51.8722C15.7081 52.3102 15.6597 52.8444 15.8395 53.3225C16.2908 54.5239 16.9343 55.638 17.7519 56.6346C18.2344 57.2226 18.174 58.1159 17.62 58.5853C17.3045 58.8524 16.9679 58.9084 16.741 58.9084C16.3331 58.9084 15.9504 58.7287 15.6908 58.4154C14.3917 56.8474 13.4557 55.0674 12.9088 53.1247C12.7112 52.4228 12.0819 51.9295 11.3531 51.905C8.1918 51.7996 5.71543 49.2381 5.71543 46.0739C5.71543 44.9726 6.02516 43.8989 6.61085 42.9691C7.04646 42.2776 6.91921 41.3728 6.30979 40.8282C5.07008 39.7207 4.35913 38.1338 4.35913 36.4748C4.35913 34.8158 5.07008 33.2292 6.30979 32.1214C6.91921 31.5769 7.04646 30.6718 6.61085 29.9804C6.02501 29.0507 5.71543 27.9771 5.71543 26.8757C5.71543 25.054 6.56686 23.3572 7.98206 22.2609C8.39865 22.5007 8.83852 22.7118 9.30153 22.8887C10.7708 23.4496 12.3176 23.6203 13.8149 23.4207C12.1121 28.8312 11.2475 34.4622 11.2475 40.2064C11.2475 42.2268 11.3566 44.2639 11.5718 46.2613C11.6642 47.1197 12.3901 47.7562 13.2343 47.7562C13.2943 47.7562 13.3549 47.753 13.4158 47.7465C14.3351 47.6476 15.0001 46.822 14.901 45.9025C14.6986 44.0239 14.596 42.1075 14.596 40.2064C14.596 34.5448 15.4853 29.0011 17.2422 23.6925C18.5166 25.2126 20.2343 26.3159 22.2003 26.837C22.2386 27.1087 22.2589 27.3836 22.2589 27.6608C22.2589 28.8994 21.8747 30.0833 21.1479 31.0842C20.7221 31.6708 20.7221 32.4647 21.1479 33.0514ZM63.4846 19.7604C61.5783 20.488 59.4652 20.1866 57.8321 18.9534C57.4123 18.6365 56.8675 18.5358 56.3619 18.6802C55.8561 18.8253 55.4478 19.1996 55.2598 19.691C54.4635 21.7711 52.6868 23.2692 50.5075 23.6984C48.4189 24.1095 46.2686 23.4604 44.7528 21.9616C44.4271 21.6396 43.9852 21.4662 43.5254 21.4787C43.0673 21.4925 42.635 21.6933 42.3292 22.0344C40.9694 23.5508 39.0235 24.4205 36.99 24.4205C34.9566 24.4205 33.0106 23.5508 31.651 22.0344C31.3451 21.6933 30.9128 21.4924 30.4548 21.4787C30.4381 21.4782 30.4212 21.4779 30.4044 21.4779C29.9644 21.4779 29.5413 21.6513 29.2274 21.9616C27.7116 23.4602 25.5602 24.1095 23.473 23.6984C21.2936 23.2692 19.5169 21.7711 18.7206 19.691C18.5324 19.1996 18.1241 18.8253 17.6185 18.6802C17.1128 18.5353 16.5682 18.6365 16.1482 18.9536C14.5152 20.1865 12.4019 20.4878 10.4957 19.7604C7.46304 18.6025 5.93749 15.1932 7.09531 12.1605C7.4151 11.323 7.90489 10.5892 8.55146 9.97959C8.85435 9.6939 9.03989 9.30563 9.072 8.89057C9.11325 8.35815 9.23044 7.83579 9.4204 7.33823C9.94855 5.95469 10.9838 4.85972 12.3356 4.25486C13.6873 3.65 15.1935 3.60753 16.5774 4.13614C18.002 4.67982 19.1137 5.7553 19.7075 7.16395C19.9187 7.66532 20.3604 8.03259 20.8919 8.14918C21.4228 8.26531 21.9782 8.1166 22.3797 7.74964C23.6955 6.54737 25.4509 6.05453 27.1952 6.39836C28.6083 6.67659 29.8414 7.48145 30.6673 8.66469C30.946 9.06393 31.3846 9.32191 31.8689 9.37184C32.3534 9.42206 32.8353 9.25814 33.1893 8.9239C34.2219 7.94933 35.5718 7.41235 36.9902 7.41235C38.4086 7.41235 39.7583 7.94903 40.7909 8.9239C41.1449 9.25814 41.6266 9.42206 42.1113 9.37184C42.5956 9.32207 43.0342 9.06408 43.3131 8.66469C44.1391 7.48161 45.3723 6.67659 46.7855 6.39836C48.5301 6.05408 50.285 6.54722 51.6009 7.74964C52.0026 8.1166 52.5577 8.26531 53.0887 8.14918C53.6201 8.03259 54.0618 7.66532 54.2732 7.16395C54.8669 5.75515 55.9787 4.67982 57.4033 4.13599C60.2594 3.04635 63.4699 4.4821 64.5601 7.33808C64.7502 7.83594 64.8674 8.35831 64.9084 8.89041C64.9405 9.30563 65.1262 9.6939 65.4291 9.97959C66.0755 10.5892 66.5654 11.323 66.8852 12.1605C68.0426 15.1932 66.5172 18.6026 63.4846 19.7604Z" fill="#332F30"/>
    <path d="M58.2505 10.283C51.4879 12.9821 44.3348 14.3509 36.9902 14.3509C29.6456 14.3509 22.4927 12.9822 15.7299 10.283C14.8712 9.93996 13.8971 10.3584 13.5543 11.2174C13.2115 12.0762 13.6298 13.0501 14.4887 13.393C21.6481 16.2505 29.2186 17.6994 36.9902 17.6994C44.7618 17.6994 52.3323 16.2504 59.4917 13.393C60.3505 13.0501 60.7689 12.0762 60.426 11.2173C60.0833 10.3584 59.1091 9.93981 58.2505 10.283Z" fill="#332F30"/>
    <path d="M53.9954 47.9526C51.3982 47.9526 49.2854 45.8397 49.2854 43.2426C49.2854 40.6454 51.3983 38.5325 53.9954 38.5325C56.5925 38.5325 58.7055 40.6455 58.7055 43.2426C58.7057 45.8397 56.5926 47.9526 53.9954 47.9526ZM53.9954 41.881C53.2446 41.881 52.6339 42.4919 52.6339 43.2426C52.6339 43.9934 53.2447 44.6041 53.9954 44.6041C54.7462 44.6041 55.357 43.9933 55.357 43.2426C55.3572 42.4918 54.7462 41.881 53.9954 41.881Z" fill="#E03854"/>
    <path d="M57.861 70.7102C55.2639 70.7102 53.151 68.5971 53.151 66C53.151 63.4028 55.2639 61.29 57.861 61.29C60.4581 61.29 62.5711 63.4029 62.5711 66C62.5711 68.5971 60.4581 70.7102 57.861 70.7102ZM57.861 64.6384C57.1102 64.6384 56.4995 65.2492 56.4995 65.9999C56.4995 66.7507 57.1103 67.3615 57.861 67.3615C58.6118 67.3615 59.2226 66.7505 59.2226 65.9999C59.2226 65.2492 58.6118 64.6384 57.861 64.6384Z" fill="#E03854"/>
    <path d="M48.6548 60.4719C46.4798 60.4719 44.3051 59.9665 42.3659 59.01C41.0041 58.3386 40.0435 57.0441 39.7963 55.5476C39.5463 54.0331 40.0254 52.5416 41.1112 51.4558C42.5534 50.0141 44.7241 49.6546 46.5147 50.5599C47.342 50.9788 48.262 51.1358 49.1749 51.0151C51.1913 50.7483 53.1456 51.7893 54.0388 53.6052C54.7123 54.9741 54.6806 56.593 53.9541 57.9354C53.2301 59.2732 51.898 60.182 50.3906 60.3663C49.8175 60.4365 49.2333 60.4719 48.6548 60.4719ZM44.4483 53.418C44.0984 53.418 43.7433 53.5589 43.4788 53.8235C43.1662 54.1361 43.0279 54.5658 43.1001 55.002C43.1728 55.4425 43.445 55.8085 43.8468 56.0067C45.7224 56.9318 47.8985 57.298 49.9839 57.0425C50.4237 56.9887 50.7972 56.7335 51.0091 56.3419C51.2234 55.9457 51.2327 55.4868 51.0341 55.0831C50.7755 54.5572 50.2035 54.2559 49.6143 54.3347C48.0296 54.5443 46.4344 54.2723 45.0025 53.5475C44.8301 53.4605 44.64 53.418 44.4483 53.418Z" fill="#E03854"/>
    <path d="M64.5603 59.6664C63.3255 59.6664 62.1518 59.1833 61.2549 58.2865C59.8131 56.845 59.4531 54.6736 60.3592 52.8832C60.7779 52.0555 60.9354 51.1354 60.8146 50.2228L60.8144 50.2225C60.5478 48.2067 61.5885 46.2521 63.4043 45.3588C64.7731 44.6855 66.3921 44.7168 67.7347 45.4436C69.0724 46.1675 69.9813 47.4997 70.1656 49.007C70.2357 49.5814 70.2712 50.1654 70.2712 50.7427C70.2712 52.9175 69.7657 55.0922 68.8094 57.0319C68.1379 58.3936 66.8434 59.3542 65.3469 59.6014C65.0833 59.6449 64.8204 59.6664 64.5603 59.6664ZM64.1342 49.7833C64.3439 51.3679 64.0718 52.9627 63.347 54.3952C63.0999 54.883 63.2133 55.5095 63.6226 55.9188C63.9355 56.2317 64.3651 56.3695 64.8014 56.2978C65.2418 56.225 65.608 55.9529 65.8061 55.5511C66.5367 54.0696 66.9229 52.407 66.9229 50.7429C66.9229 50.3007 66.8956 49.8533 66.8419 49.4132C66.7882 48.974 66.5329 48.6005 66.1411 48.3887C65.7451 48.1744 65.2863 48.1652 64.8824 48.3636C64.3568 48.6222 64.0559 49.1929 64.134 49.7834H64.1342V49.7833Z" fill="#E03854"/>
    <path d="M47.738 67.8686C47.4682 67.8686 47.1949 67.8033 46.941 67.6657L45.7444 67.0164C44.9316 66.5754 44.6304 65.559 45.0712 64.7462C45.5121 63.9336 46.5281 63.6321 47.3413 64.073L48.5379 64.7223C49.3507 65.1633 49.6519 66.1797 49.2111 66.9925C48.9078 67.5514 48.3322 67.8686 47.738 67.8686Z" fill="#E03854"/>
    <path d="M44.8329 46.9637C42.8667 47.0105 42.5663 43.9843 44.5058 43.6487C46.8743 43.219 47.2388 46.9196 44.8329 46.9637Z" fill="#E03854"/>
    <path d="M68.8097 64.9194C66.4037 64.875 66.7693 61.1741 69.1371 61.6044C71.0764 61.9403 70.7762 64.9666 68.8097 64.9194Z" fill="#E03854"/>
    <path d="M55.7408 78.3498C43.4567 78.3498 33.4628 68.3559 33.4628 56.0718C33.4628 43.7876 43.4567 33.7937 55.7408 33.7937C68.025 33.7937 78.0189 43.7876 78.0189 56.0718C78.0189 68.3559 68.025 78.3498 55.7408 78.3498ZM55.7408 37.1422C45.3031 37.1422 36.8113 45.634 36.8113 56.0718C36.8113 66.5095 45.3031 75.0014 55.7408 75.0014C66.1786 75.0014 74.6704 66.5095 74.6704 56.0718C74.6704 45.634 66.1786 37.1422 55.7408 37.1422Z" fill="#E03854"/>
  </g>
  <defs>
    <clipPath id="clip0_1229_194">
      <rect width="77.9318" height="77.9318" fill="white" transform="translate(0.548828 0.417969)"/>
    </clipPath>
  </defs>
</svg>