<svg xmlns="http://www.w3.org/2000/svg" width="72" height="72" viewBox="0 0 72 72" fill="none">
  <g clip-path="url(#clip0_1229_277)">
    <path d="M13.0014 69.6143C13.0415 70.4238 13.7112 71.0603 14.5221 71.0603H58.129C58.9399 71.0603 59.6096 70.4238 59.6497 69.6143L62.4629 13.0639L59.4228 12.9131L59.0561 20.2939C58.1996 20.489 57.3666 20.7907 56.564 21.1961C55.4529 21.7565 54.2753 22.0416 53.0659 22.0416C51.8552 22.0416 50.6776 21.7565 49.5665 21.1961C48.025 20.4184 46.3867 20.0241 44.6957 20.0241C43.0034 20.0241 41.3651 20.4184 39.825 21.1961C38.7139 21.7565 37.5363 22.0416 36.3256 22.0416C35.1148 22.0416 33.9372 21.7565 32.8261 21.1961C31.286 20.4184 29.6477 20.0241 27.9554 20.0241C26.2644 20.0241 24.6261 20.4184 23.0846 21.1961C21.9735 21.7565 20.7959 22.0416 19.5852 22.0416C18.3758 22.0416 17.1982 21.7565 16.0871 21.1961C15.2845 20.7907 14.4515 20.489 13.595 20.2939L13.2283 12.9131L10.1882 13.0639L13.0014 69.6143ZM14.2592 33.6414H58.3919L57.1023 59.5753H15.5488L14.2592 33.6414ZM14.7144 23.9138C16.2559 24.6914 17.8942 25.0858 19.5852 25.0858C21.2775 25.0858 22.9158 24.6914 24.4573 23.9138C25.5684 23.352 26.7446 23.0683 27.9554 23.0683C29.1661 23.0683 30.3437 23.352 31.4548 23.9138C32.9949 24.6914 34.6346 25.0858 36.3256 25.0858C38.0165 25.0858 39.6562 24.6914 41.1963 23.9138C42.3074 23.352 43.485 23.0683 44.6957 23.0683C45.9065 23.0683 47.0827 23.352 48.1938 23.9138C49.7353 24.6914 51.3736 25.0858 53.0659 25.0858C54.7569 25.0858 56.3952 24.6914 57.9353 23.9138C58.2494 23.7546 58.5704 23.6176 58.8956 23.5042L58.5428 30.5972H14.1083L13.7555 23.5042C14.0807 23.6176 14.4017 23.7546 14.7144 23.9138ZM56.6816 68.0161H15.9695L15.701 62.6195H56.9501L56.6816 68.0161Z" fill="#332F30"/>
    <path d="M48.5637 43.9109H24.0872C23.2466 43.9109 22.5651 43.2294 22.5651 42.3888C22.5651 41.5482 23.2466 40.8667 24.0872 40.8667H48.5639C49.4045 40.8667 50.086 41.5482 50.086 42.3888C50.086 43.2294 49.4045 43.9109 48.5637 43.9109Z" fill="#332F30"/>
    <path d="M48.5637 52.3509H40.5455C39.7049 52.3509 39.0234 51.6694 39.0234 50.8287C39.0234 49.9881 39.7049 49.3066 40.5455 49.3066H48.5637C49.4043 49.3066 50.0858 49.9881 50.0858 50.8287C50.0858 51.6694 49.4044 52.3509 48.5637 52.3509Z" fill="#332F30"/>
    <path d="M32.1052 52.3509H24.087C23.2464 52.3509 22.5649 51.6694 22.5649 50.8287C22.5649 49.9881 23.2464 49.3066 24.087 49.3066H32.1052C32.9458 49.3066 33.6273 49.9881 33.6273 50.8287C33.6273 51.6694 32.9458 52.3509 32.1052 52.3509Z" fill="#332F30"/>
    <path d="M63.7566 0.213379H8.89442C8.05449 0.213379 7.37231 0.894175 7.37231 1.73548V12.9894C7.37231 13.8293 8.05449 14.5115 8.89442 14.5115H63.7566C64.5966 14.5115 65.2787 13.8293 65.2787 12.9894V1.73548C65.2787 0.894175 64.5966 0.213379 63.7566 0.213379ZM10.4165 3.25759H25.5186V11.4673H10.4165V3.25759ZM28.5628 3.25759H44.0883V11.4673H28.5628V3.25759ZM62.2345 11.4673H47.1325V3.25759H62.2345V11.4673Z" fill="#E03854"/>
  </g>
  <defs>
    <clipPath id="clip0_1229_277">
      <rect width="70.8471" height="70.8471" fill="white" transform="translate(0.9021 0.213379)"/>
    </clipPath>
  </defs>
</svg>