<svg xmlns="http://www.w3.org/2000/svg" width="82" height="82" viewBox="0 0 82 82" fill="none">
  <g clip-path="url(#clip0_1229_324)">
    <path d="M51.4243 7.15374V2.17378C51.4243 1.21758 50.6491 0.442383 49.6929 0.442383C48.7367 0.442383 47.9616 1.21758 47.9616 2.17378V7.15374C47.9616 7.16035 47.9612 7.16696 47.9612 7.17357H34.183C34.183 7.16696 34.1826 7.16035 34.1826 7.15374V2.17378C34.1826 1.21758 33.4074 0.442383 32.4512 0.442383C31.495 0.442383 30.7198 1.21758 30.7198 2.17378V7.15374C30.7198 11.4286 32.8466 15.5368 36.4089 18.1434L38.1401 19.41L36.4089 20.6767C32.8466 23.2833 30.7198 27.3915 30.7198 31.6664V36.9646C30.7198 37.9208 31.495 38.696 32.4512 38.696C33.4074 38.696 34.1826 37.9208 34.1826 36.9646V31.9648H47.9616V36.6148C47.9616 37.571 48.7367 38.3462 49.6929 38.3462C50.6491 38.3462 51.4243 37.571 51.4243 36.6148V31.6664C51.4243 27.3915 49.2976 23.2833 45.7354 20.6767L44.0042 19.41L45.7354 18.1434C49.2976 15.5368 51.4243 11.4286 51.4243 7.15374ZM47.4402 28.502H34.7036C35.3708 26.5351 36.6588 24.7844 38.4535 23.4712L41.072 21.5553L43.6905 23.4712C45.485 24.7844 46.773 26.5353 47.4402 28.502ZM43.6905 15.3487L41.072 17.2646L38.4535 15.3487C36.7563 14.1069 35.5117 12.4737 34.8173 10.6364H47.3268C46.6323 12.4737 45.3878 14.1069 43.6905 15.3487Z" fill="#E03854"/>
    <path d="M79.343 81.0308C80.2992 81.0308 81.0744 80.2556 81.0744 79.2994V69.2468C81.0744 65.7242 78.9574 62.6118 75.6809 61.3175L70.1081 59.1164C71.9071 57.6931 73.0648 55.4929 73.0648 53.0262V51.2383C73.0648 46.9567 69.5816 43.4734 65.3 43.4734H59.2665C58.3103 43.4734 57.5351 44.2486 57.5351 45.2048V53.0262C57.5351 55.4929 58.6928 57.6931 60.4919 59.1164L54.919 61.3175C53.0696 62.0481 51.52 63.4742 50.5617 65.2446L45.6367 63.3417C46.9077 62.1349 47.7027 60.4313 47.7027 58.5446V56.9523C47.7027 53.303 44.7337 50.3342 41.0844 50.3342C37.4351 50.3342 34.4662 53.303 34.4662 56.9523V58.5446C34.4662 60.4285 35.2587 62.1298 36.5264 63.3361L31.614 65.2423C30.6686 63.4723 29.1278 62.0691 27.2253 61.3175C27.2145 61.3132 27.2036 61.309 27.1926 61.3051L21.3983 59.1509C23.342 57.7382 24.6092 55.4485 24.6092 52.8673V51.0793C24.6092 46.7977 21.126 43.3145 16.8444 43.3145C12.7819 43.3145 9.4403 46.4511 9.10881 50.4292C4.61852 50.7749 1.06995 54.5363 1.06995 59.1136V79.2994C1.06995 80.2556 1.84514 81.0308 2.80134 81.0308H79.343ZM37.929 56.9522C37.929 55.2123 39.3445 53.7968 41.0844 53.7968C42.8243 53.7968 44.2399 55.2123 44.2399 56.9522V58.5444C44.2399 60.2634 42.8576 61.6631 41.1467 61.6967C41.099 61.6949 41.0512 61.6935 41.0032 61.6957C39.301 61.652 37.929 60.2568 37.929 58.5444V56.9522ZM12.5423 51.0793C12.5423 48.7071 14.4722 46.7772 16.8444 46.7772C19.2165 46.7772 21.1464 48.7071 21.1464 51.0793V52.8672C21.1464 55.2394 19.2165 57.1692 16.8444 57.1692C14.4722 57.1692 12.5423 55.2394 12.5423 52.8672V51.0793ZM4.53274 59.1137C4.53274 56.4329 6.55296 54.2164 9.15068 53.903C9.32807 55.2271 9.83899 56.4468 10.598 57.4735V60.6589C10.598 63.6443 8.16914 66.073 5.1839 66.073H4.53274V59.1137ZM4.53274 69.5356H5.1839C10.0786 69.5356 14.0608 65.5534 14.0608 60.6588V60.1142C14.1006 60.1294 14.1398 60.1463 14.1799 60.1611C14.1832 60.1623 14.1864 60.1641 14.1897 60.1653L25.9683 64.5442C27.2236 65.0449 28.2412 66.0689 28.7702 67.3185C27.8397 68.4825 27.3059 69.9499 27.3059 71.5211V77.5681H4.53274V69.5356ZM51.4005 77.5681H30.7686C30.7686 77.5681 30.7686 71.5231 30.7686 71.5211C30.7686 70.2206 31.5966 68.9717 32.8258 68.4863L41.0677 65.2884C41.0677 65.2884 49.3272 68.48 49.3338 68.4825C50.5521 68.9533 51.4007 70.2066 51.4007 71.5211V77.5681H51.4005ZM60.9978 46.9361H65.2998C67.672 46.9361 69.6019 48.8659 69.6019 51.2381V53.026C69.6019 55.3982 67.672 57.328 65.2998 57.328C62.9277 57.328 60.9978 55.3982 60.9978 53.026V46.9361ZM77.6116 77.5681H54.8633V71.5211C54.8633 69.9496 54.3292 68.4817 53.3962 67.3169C53.9351 66.0549 54.9513 65.0279 56.1909 64.5382L65.2998 60.9404L74.4087 64.5382C76.3543 65.3066 77.6115 67.155 77.6115 69.2468L77.6116 77.5681Z" fill="#332F30"/>
  </g>
  <defs>
    <clipPath id="clip0_1229_324">
      <rect width="80.5886" height="80.5886" fill="white" transform="translate(0.777832 0.442383)"/>
    </clipPath>
  </defs>
</svg>