<svg xmlns="http://www.w3.org/2000/svg" width="83" height="83" viewBox="0 0 83 83" fill="none">
  <g clip-path="url(#clip0_1229_44)">
    <path d="M58.9222 47.0106C58.895 43.6314 57.868 39.6714 55.9436 35.5449L52.7707 37.0245C54.4793 40.6884 55.3929 44.1367 55.4212 47.0111C46.5372 47.8935 39.5753 55.4101 39.5753 64.5226C39.5753 64.5522 39.5762 64.5815 39.5764 64.6109C39.1014 64.6523 38.6359 64.6743 38.1996 64.6743C38.1617 64.6743 38.124 64.6744 38.0863 64.6744C33.6463 64.6744 29.4071 62.8863 26.1435 59.6353C22.8042 56.3087 20.889 51.7576 20.889 47.1489C20.889 38.6092 27.1684 30.1592 30.9113 25.8826C34.8055 21.4354 37.4741 19.9967 38.1565 19.9967C39.004 19.9967 42.2789 22.0523 46.355 27.0047L49.0579 24.7801C47.4585 22.8367 41.9452 16.4958 38.1565 16.4958C34.8361 16.4958 30.1418 21.4473 28.2774 23.5766C24.2107 28.2232 17.3884 37.4643 17.3884 47.1489C17.3884 52.6817 19.679 58.1366 23.673 62.1155C27.5976 66.0251 32.7135 68.1753 38.0729 68.1753C38.0986 68.1753 38.1242 68.1751 38.1498 68.1751C38.7137 68.1778 39.321 68.1493 39.9398 68.0935C41.5945 76.0912 48.6931 82.1212 57.1738 82.1212C66.8777 82.1212 74.7724 74.2265 74.7724 64.5226C74.7724 55.4087 67.8084 47.8911 58.9222 47.0106ZM57.1738 78.6204C49.4004 78.6204 43.0761 72.2961 43.0761 64.5226C43.0761 56.7492 49.4004 50.4249 57.1738 50.4249C64.9475 50.4249 71.2716 56.7492 71.2716 64.5226C71.2716 72.2961 64.9475 78.6204 57.1738 78.6204Z" fill="#332F30"/>
    <path d="M17.5828 24.2221C17.5586 24.2221 17.5349 24.2221 17.5108 24.2221C12.2858 24.2221 7.87891 19.6088 7.87891 14.44C7.87891 10.816 10.1397 7.22808 11.4872 5.41194C12.3165 4.29405 15.2054 0.646973 17.5533 0.646973C19.9014 0.646973 22.7901 4.29405 23.6195 5.41194C24.9672 7.22808 27.2277 10.816 27.2279 14.44C27.2281 19.5487 22.6965 24.222 17.5828 24.2221ZM17.5466 20.7213C17.5541 20.7213 17.5616 20.7213 17.5691 20.7213C20.9296 20.7213 23.7271 17.7669 23.7271 14.44C23.7271 12.6401 22.7594 10.2425 21.0722 7.86189C19.6094 5.79814 18.1698 4.55455 17.5535 4.21099C16.9372 4.55455 15.4975 5.79814 14.0348 7.86189C12.3476 10.2425 11.3799 12.6401 11.3797 14.4398C11.3797 17.7567 14.1702 20.7211 17.5244 20.7211C17.5318 20.7213 17.5392 20.7213 17.5466 20.7213Z" fill="#E03854"/>
    <path d="M52.8904 38.2256C52.8702 38.2256 52.8501 38.2256 52.8301 38.2256C50.7413 38.2256 48.7439 37.3881 47.2153 35.8654C45.6659 34.3217 44.7772 32.2021 44.7772 30.0499C44.7772 27.05 46.6289 24.1064 47.7328 22.6187C48.6149 21.43 50.8807 18.6653 52.867 18.6653C54.8532 18.6653 57.1191 21.4302 58.0011 22.6187C59.1048 24.1064 60.9566 27.05 60.9566 30.0499C60.9566 32.2021 60.0679 34.3218 58.5184 35.8654C56.9897 37.3881 54.992 38.2256 52.8904 38.2256ZM52.8601 34.7248C52.8655 34.7248 52.8709 34.7248 52.8764 34.7248C55.3561 34.7267 57.4556 32.4923 57.4556 30.0499C57.4556 27.0726 54.2135 23.1379 52.8668 22.2692C51.5201 23.1379 48.278 27.0726 48.278 30.0497C48.278 32.5148 50.3489 34.7248 52.8437 34.7248C52.8491 34.7248 52.8546 34.7248 52.8601 34.7248Z" fill="#E03854"/>
    <path d="M55.0109 73.3844C53.0657 73.3845 51.3373 72.7106 50.0632 71.4365C48.5532 69.9266 47.8862 67.7781 48.185 65.3873C48.4718 63.094 49.6238 60.8367 51.4291 59.0314C53.2344 57.2261 55.4916 56.074 57.7849 55.7873C60.1753 55.4885 62.3241 56.1557 63.8341 57.6656C63.834 57.6655 63.8342 57.6657 63.8341 57.6656C65.3441 59.1755 66.0112 61.3239 65.7123 63.7148C65.4256 66.0082 64.2735 68.2653 62.4683 70.0706C60.663 71.8759 58.4059 73.028 56.1125 73.3146C55.739 73.3614 55.3712 73.3844 55.0109 73.3844ZM58.8763 57.8085C58.6052 57.8085 58.3275 57.8261 58.0442 57.8614C56.2098 58.0908 54.3854 59.0311 52.9071 60.5095C49.9253 63.4913 49.3127 67.7301 51.5412 69.9586C52.4457 70.8631 53.6815 71.2994 55.0297 71.2995C57.0037 71.2997 59.2187 70.3644 60.9904 68.5927C62.4687 67.1144 63.4091 65.29 63.6384 63.4557C63.8555 61.7189 63.4001 60.1875 62.3562 59.1436C61.4826 58.2699 60.2675 57.8085 58.8763 57.8085Z" fill="#E03854"/>
    <path d="M55.0115 68.5565C54.3656 68.5565 53.8308 68.3747 53.4779 68.0218C53.0698 67.6136 53.0699 66.9519 53.4779 66.5439C53.8539 66.1678 54.445 66.1382 54.855 66.455C55.1738 66.5177 56.3791 66.3744 57.5756 65.178C58.7721 63.9816 58.9152 62.7762 58.8526 62.4573C58.5359 62.0474 58.5655 61.4562 58.9416 61.0803C59.3497 60.6721 60.0113 60.6721 60.4195 61.0804C61.413 62.0739 61.0399 64.6695 59.0536 66.6559C58.1866 67.5228 57.128 68.1473 56.0725 68.4143C55.6962 68.5096 55.3395 68.5565 55.0115 68.5565Z" fill="#E03854"/>
  </g>
  <defs>
    <clipPath id="clip0_1229_44">
      <rect width="81.4741" height="81.4741" fill="white" transform="translate(0.588623 0.646973)"/>
    </clipPath>
  </defs>
</svg>