<svg xmlns="http://www.w3.org/2000/svg" width="81" height="80" viewBox="0 0 81 80" fill="none">
  <g clip-path="url(#clip0_1229_259)">
    <path d="M47.2217 48.1883C46.7676 48.1883 46.3321 48.0078 46.0109 47.6867L39.2958 40.9714C38.627 40.3026 38.627 39.2184 39.2958 38.5496C39.9647 37.8809 41.0489 37.881 41.7174 38.5496L47.2217 44.0541L51.5153 39.7606L46.0109 34.2563C45.3422 33.5875 45.3422 32.5033 46.0109 31.8345C46.6798 31.1659 47.7638 31.1658 48.4327 31.8345L55.148 38.5496C55.469 38.8708 55.6495 39.3064 55.6495 39.7604C55.6495 40.2145 55.4691 40.6501 55.148 40.9712L48.4327 47.6865C48.1112 48.008 47.6758 48.1883 47.2217 48.1883Z" fill="#E03854"/>
    <path d="M16.9178 68.4841H13.4931V44.5841C13.4931 37.9179 16.7337 31.619 22.1617 27.7349L24.1548 30.5201C19.6234 33.7627 16.918 39.0203 16.918 44.5841L16.9178 68.4841Z" fill="#E03854"/>
    <path d="M26.4144 68.4841H22.9896V44.5841C22.9896 40.3153 25.4732 36.3538 29.3167 34.4917L30.8099 37.5738C28.0987 38.8874 26.4144 41.5736 26.4144 44.5841V68.4841Z" fill="#E03854"/>
    <path d="M51.79 28.4774L32.1987 8.88583C31.8775 8.56484 31.442 8.38427 30.9879 8.38427C30.5336 8.38427 30.0982 8.56469 29.7771 8.88583L27.6304 11.0325L23.3369 6.73899L27.1623 2.91356C27.8309 2.2448 27.8309 1.16056 27.1623 0.491803C26.4935 -0.176955 25.4093 -0.176955 24.7405 0.491803L7.95262 17.2797C7.28402 17.9485 7.28402 19.0327 7.95262 19.7015C8.287 20.0358 8.72521 20.203 9.16342 20.203C9.60163 20.203 10.0398 20.0358 10.3742 19.7015L14.1998 15.8759L18.4933 20.1694L16.3467 22.3161C15.6781 22.9849 15.6781 24.0691 16.3467 24.7379L35.9382 44.3294C36.2593 44.6505 36.6949 44.8309 37.149 44.8309C37.6031 44.8309 38.0386 44.6505 38.3598 44.3294L51.79 30.8991C52.4588 30.2304 52.4588 29.1461 51.79 28.4774ZM16.6216 13.4541L20.9151 9.16059L25.2086 13.4541L20.9151 17.7477L16.6216 13.4541ZM37.149 40.6968L19.9791 23.5271L30.9877 12.5184L48.1575 29.6882L37.149 40.6968Z" fill="#332F30"/>
    <path d="M72.1855 79.6932H15.2055C14.2598 79.6932 13.4931 78.9266 13.4931 77.9809V68.4842C13.4931 67.5385 14.2598 66.7719 15.2055 66.7719H37.8654L66.0401 38.597C66.709 37.9283 67.7929 37.9283 68.4619 38.597C69.1306 39.2658 69.1306 40.35 68.4619 41.0188L52.4778 57.0028C53.4794 57.3073 54.3968 57.8551 55.158 58.6162L63.3139 66.772H72.1855C73.1312 66.772 73.8978 67.5387 73.8978 68.4844V77.9809C73.8978 78.9266 73.1312 79.6932 72.1855 79.6932ZM16.9178 76.2685H70.4731V70.1966H62.6045C62.1504 70.1966 61.7148 70.0162 61.3937 69.695L52.7364 61.0378C52.1629 60.4643 51.4006 60.1486 50.5897 60.1486C49.7787 60.1486 49.0165 60.4643 48.443 61.0378C48.4399 61.0409 48.4369 61.0438 48.4338 61.0468L39.7856 69.6952C39.4644 70.0162 39.0289 70.1968 38.5748 70.1968H16.9178V76.2685Z" fill="#332F30"/>
    <path d="M50.8173 70.1962C48.3573 70.1514 48.7318 66.3666 51.1522 66.8057C53.136 67.1493 52.8303 70.2457 50.8173 70.1962Z" fill="#332F30"/>
  </g>
  <defs>
    <clipPath id="clip0_1229_259">
      <rect width="79.703" height="79.703" fill="white" transform="translate(0.822754 -0.00976562)"/>
    </clipPath>
  </defs>
</svg>