<svg xmlns="http://www.w3.org/2000/svg" width="80" height="80" viewBox="0 0 80 80" fill="none">
  <g clip-path="url(#clip0_1229_18)">
    <path d="M54.7867 41.1996L54.44 40.9992C54.5302 40.6328 54.5792 40.2501 54.5792 39.8562C54.5792 39.268 54.4717 38.7047 54.2767 38.1838L54.7967 37.6637C55.458 37.0024 55.458 35.9302 54.7967 35.2689C54.1352 34.6076 53.0633 34.6076 52.4018 35.2689L52.037 35.6337C51.3687 35.278 50.6069 35.0754 49.7984 35.0754C49.4257 35.0754 49.0756 34.9305 48.8126 34.6675C48.5495 34.4044 48.4046 34.0543 48.4046 33.6816C48.4046 33.1695 48.3227 32.6761 48.1729 32.2132L48.7596 31.6265C49.4209 30.9653 49.4209 29.8932 48.7596 29.2318C48.0983 28.5705 47.0264 28.5705 46.3648 29.2317L46.0384 29.558C45.3292 29.1412 44.5042 28.901 43.6238 28.901C43.5161 28.901 43.4096 28.9059 43.3035 28.9129L42.9516 28.3046C42.4832 27.4952 41.4473 27.2188 40.6379 27.6873C39.8285 28.1558 39.552 29.1916 40.0204 30.0012L40.2139 30.3354C39.8346 30.722 39.5206 31.1726 39.289 31.6692H38.608C37.6728 31.6692 36.9147 32.4273 36.9147 33.3625C36.9147 34.2977 37.6728 35.0558 38.608 35.0558H38.9314C39.0266 35.8197 39.1993 36.5655 39.4485 37.2834L39.058 37.5087C38.2479 37.9761 37.9702 39.0116 38.4376 39.8217C38.7512 40.3651 39.3204 40.669 39.9059 40.669C40.193 40.669 40.4841 40.5958 40.7506 40.4421L41.0469 40.271C41.3529 40.6756 41.6873 41.0629 42.0523 41.4279C42.2296 41.6052 42.4137 41.7732 42.6006 41.9367L42.3671 42.3411C41.8993 43.1508 42.1765 44.1865 42.9861 44.6543C43.2529 44.8086 43.5441 44.8819 43.8315 44.8819C44.4166 44.8819 44.9856 44.5783 45.2993 44.0353L45.4659 43.7472C46.1657 44.0486 46.8958 44.2781 47.6488 44.4273V44.8723C47.6488 45.8075 48.4069 46.5656 49.3421 46.5656C50.2773 46.5656 51.0355 45.8075 51.0355 44.8723V44.4739C51.5679 44.3311 52.0639 44.0986 52.5064 43.7933L53.0921 44.1319C53.3589 44.2861 53.6504 44.3594 53.938 44.3594C54.5228 44.3594 55.0918 44.056 55.4055 43.5132C55.8732 42.7033 55.5964 41.6676 54.7867 41.1996ZM49.7984 38.4621C50.567 38.4621 51.1925 39.0874 51.1925 39.8562C51.1925 40.6248 50.5672 41.2501 49.7984 41.2501C47.777 41.2501 45.8765 40.4627 44.4468 39.0332C43.0172 37.6034 42.2298 35.7029 42.2298 33.6816C42.2298 33.1067 42.5798 32.612 43.0778 32.3991C43.0872 32.3955 43.0968 32.3922 43.1061 32.3884C43.2664 32.324 43.4408 32.2877 43.6237 32.2877C44.3923 32.2877 45.0178 32.913 45.0178 33.6818C45.0178 34.959 45.515 36.1597 46.4179 37.0625C47.3206 37.965 48.5211 38.4621 49.7984 38.4621Z" fill="#E03854"/>
    <path d="M61.3958 23.3672H60.9507C60.8017 22.6142 60.572 21.8839 60.2706 21.1841L60.5585 21.0179C61.3685 20.5502 61.6459 19.5146 61.1783 18.7048C60.7106 17.8949 59.6746 17.6173 58.8652 18.0852L58.4601 18.319C58.2967 18.132 58.1289 17.948 57.9515 17.7707C57.5867 17.4058 57.1997 17.0715 56.7951 16.7656L56.9669 16.4666C57.4331 15.6558 57.1538 14.6207 56.343 14.1546C55.5317 13.6883 54.497 13.9679 54.0308 14.7785L53.8075 15.1671C53.0895 14.9178 52.3435 14.745 51.5792 14.6498V14.3264C51.5792 13.3912 50.821 12.6331 49.8858 12.6331C48.9506 12.6331 48.1925 13.3912 48.1925 14.3264V15.0074C47.696 15.2388 47.2456 15.5528 46.8592 15.932L46.5225 15.7377C45.7119 15.2701 44.677 15.5484 44.2097 16.3584C43.7425 17.1686 44.0204 18.204 44.8304 18.6714L45.4363 19.021C45.4293 19.1273 45.4243 19.2343 45.4243 19.3424C45.4243 20.2228 45.6646 21.0477 46.0814 21.7569L45.755 22.0833C45.0937 22.7446 45.0937 23.8168 45.755 24.4781C46.0857 24.8088 46.519 24.9741 46.9523 24.9741C47.3857 24.9741 47.819 24.8088 48.1497 24.4781L48.7364 23.8915C49.1994 24.0413 49.6926 24.1232 50.2049 24.1232C50.5776 24.1232 50.9277 24.268 51.1906 24.5309C51.4539 24.7942 51.5987 25.1444 51.5987 25.5169C51.5987 26.3254 51.8012 27.0873 52.1571 27.7557L51.7924 28.1202C51.1311 28.7814 51.1309 29.8536 51.7921 30.5149C52.1227 30.8457 52.5562 31.0111 52.9896 31.0111C53.4228 31.0111 53.8561 30.8457 54.1868 30.5152L54.7071 29.995C55.2279 30.1902 55.7913 30.2975 56.3793 30.2975C56.7733 30.2975 57.156 30.2487 57.5225 30.1584L57.7225 30.5046C58.0362 31.0477 58.6052 31.3514 59.1904 31.3514C59.4777 31.3514 59.7689 31.2781 60.0356 31.124C60.8454 30.6564 61.1227 29.6207 60.6552 28.8108L60.3165 28.2244C60.6216 27.7822 60.8541 27.2862 60.9968 26.7538H61.3952C62.3304 26.7538 63.0885 25.9957 63.0885 25.0605C63.0885 24.1253 62.331 23.3672 61.3958 23.3672ZM54.9859 25.5168C54.9859 24.2397 54.4888 23.0391 53.5859 22.1361C52.6832 21.2334 51.4825 20.7362 50.2053 20.7362C49.4366 20.7362 48.8112 20.1109 48.8112 19.3421C48.8112 18.5735 49.4365 17.9482 50.2053 17.9482C52.2266 17.9482 54.1273 18.7356 55.5568 20.1652C56.9865 21.5948 57.7737 23.4954 57.7737 25.5168C57.7737 26.2854 57.1484 26.9109 56.3798 26.9109C55.6112 26.9109 54.9859 26.2856 54.9859 25.5168Z" fill="#E03854"/>
    <path d="M37.5447 23.1103C36.6095 23.1103 35.8507 22.3522 35.8507 21.417C35.8507 20.4818 36.6082 19.7236 37.5436 19.7236H37.5447C38.4799 19.7236 39.238 20.4818 39.238 21.417C39.238 22.3522 38.48 23.1103 37.5447 23.1103Z" fill="#332F30"/>
    <path d="M61.4618 39.5149C60.5267 39.5149 59.7679 38.7567 59.7679 37.8215C59.7679 36.8863 60.5254 36.1282 61.4606 36.1282H61.4618C62.397 36.1282 63.1552 36.8863 63.1552 37.8215C63.1552 38.7567 62.397 39.5149 61.4618 39.5149Z" fill="#332F30"/>
    <path d="M50.0017 0.309082C33.8513 0.309082 20.712 13.4485 20.712 29.599C20.712 34.2671 21.8116 38.6824 23.7622 42.6026L21.702 44.6631C20.0756 46.2896 19.8747 48.8101 21.0993 50.6575L2.36602 68.3365C1.17083 69.4646 0.499192 71.0086 0.475023 72.6839C0.450239 74.394 1.12681 76.0657 2.33108 77.2698C3.51396 78.4528 5.14772 79.1265 6.82629 79.1265C6.85646 79.1265 6.88663 79.1263 6.91681 79.1258C8.59229 79.1017 10.1363 78.43 11.2639 77.2352L28.9517 58.5069C29.7215 59.0156 30.6248 59.289 31.572 59.289C32.8457 59.289 34.0411 58.7953 34.9347 57.9015L37.0046 55.8416C40.9233 57.7904 45.3363 58.8887 50.0017 58.8887C66.1522 58.8887 79.2916 45.7493 79.2916 29.5988C79.2916 13.4483 66.1522 0.309082 50.0017 0.309082ZM8.8015 74.9103C7.731 76.0437 5.79566 75.945 4.72593 74.8754C3.64003 73.7897 3.54798 71.8777 4.69052 70.7995L23.426 53.1184L26.4895 56.1818C26.4895 56.1818 8.86184 74.8463 8.8015 74.9103ZM32.5429 55.504C32.286 55.761 31.9412 55.9024 31.5722 55.9024C31.203 55.9024 30.8584 55.761 30.6014 55.504L24.0968 48.9994C23.5616 48.464 23.5616 47.593 24.097 47.0576L25.5105 45.644C27.7194 49.0044 30.6 51.8846 33.9609 54.093L32.5429 55.504ZM50.0017 55.5022C35.7187 55.5022 24.0987 43.882 24.0987 29.599C24.0987 15.3159 35.7187 3.69577 50.0017 3.69577C64.2848 3.69577 75.905 15.3158 75.905 29.599C75.905 43.8822 64.2848 55.5022 50.0017 55.5022Z" fill="#332F30"/>
    <path d="M50.0017 7.76685C37.9311 7.76685 28.111 17.587 28.111 29.6576C28.111 41.7282 37.9311 51.5484 50.0017 51.5484C62.0722 51.5484 71.8923 41.7282 71.8923 29.6576C71.8923 17.587 62.0722 7.76685 50.0017 7.76685ZM50.0017 48.1615C39.7986 48.1615 31.4976 39.8606 31.4976 29.6574C31.4976 19.4543 39.7986 11.1534 50.0017 11.1534C60.2047 11.1534 68.5056 19.4543 68.5056 29.6574C68.5056 39.8606 60.2047 48.1615 50.0017 48.1615Z" fill="#332F30"/>
  </g>
  <defs>
    <clipPath id="clip0_1229_18">
      <rect width="78.8174" height="78.8174" fill="white" transform="translate(0.474121 0.309082)"/>
    </clipPath>
  </defs>
</svg>