<svg xmlns="http://www.w3.org/2000/svg" width="73" height="74" viewBox="0 0 73 74" fill="none">
  <g clip-path="url(#clip0_1229_91)">
    <path d="M22.009 19.3124C21.1473 19.3124 20.4488 18.6139 20.4488 17.7522V6.32082C20.4488 3.17881 23.0051 0.622559 26.1471 0.622559H48.7765C51.9185 0.622559 54.4747 3.17881 54.4747 6.32082V14.6021C54.4747 15.4638 53.7762 16.1623 52.9146 16.1623C52.0529 16.1623 51.3544 15.4638 51.3544 14.6021V6.32082C51.3544 4.89938 50.198 3.74287 48.7765 3.74287H26.1471C24.7256 3.74287 23.569 4.89938 23.569 6.32082V17.7524C23.5691 18.614 22.8706 19.3124 22.009 19.3124Z" fill="#E03854"/>
    <path d="M61.7191 38.4919H44.0239C43.1623 38.4919 42.4638 37.7934 42.4638 36.9317C42.4638 36.0701 43.1623 35.3716 44.0239 35.3716H61.7191C62.5807 35.3716 63.2793 36.0701 63.2793 36.9317C63.2793 37.7934 62.5807 38.4919 61.7191 38.4919Z" fill="#E03854"/>
    <path d="M34.2674 49.3049H9.75105C8.88941 49.3049 8.19089 48.6064 8.19089 47.7447C8.19089 46.8831 8.88941 46.1846 9.75105 46.1846H34.2674C35.129 46.1846 35.8275 46.8831 35.8275 47.7447C35.8275 48.6064 35.1291 49.3049 34.2674 49.3049Z" fill="#E03854"/>
    <path d="M72.9835 59.2971C72.9835 58.4355 72.285 57.737 71.4233 57.737H61.9672L60.4957 53.3334C62.0923 52.8367 63.2548 51.3453 63.2548 49.5874V48.0169C64.8104 47.713 66.1438 46.6895 66.8604 45.1919C67.7222 43.3913 67.4933 41.3238 66.2629 39.7966C66.2513 39.7821 66.2394 39.7679 66.2272 39.7539L58.7923 31.1696C58.6308 30.9832 58.5418 30.7447 58.5418 30.4983V21.6324C60.104 20.928 61.1947 19.3571 61.1947 17.5351C61.1947 15.0576 59.1791 13.042 56.7015 13.042H48.9825C46.5049 13.042 44.4893 15.0576 44.4893 17.5351C44.4893 19.4114 45.646 21.0221 47.2833 21.6935V30.4857C47.2833 30.7355 47.1922 30.9761 47.0271 31.1635L39.4655 39.7438C39.4503 39.7611 39.4354 39.7787 39.4211 39.7967C38.192 41.3225 37.9642 43.3895 38.8262 45.1909C39.5431 46.6888 40.8754 47.7125 42.4294 48.0168V49.5874C42.4294 51.3453 43.5918 52.8367 45.1883 53.3334L43.7166 57.737H32.2134C34.516 55.2297 35.8445 51.9206 35.8445 48.3865C35.8445 43.2371 33.0124 38.545 28.4535 36.1414C28.098 35.954 27.8773 35.6007 27.8773 35.2194V24.8983C29.588 24.2629 30.8103 22.6141 30.8103 20.6851C30.8103 18.2077 28.7947 16.1921 26.3172 16.1921H17.7006C15.2232 16.1921 13.2076 18.2077 13.2076 20.6851C13.2076 22.6141 14.4298 24.2628 16.1404 24.8983V35.2195C16.1404 35.6009 15.9197 35.9542 15.5644 36.1415C11.0052 38.545 8.17326 43.2371 8.17326 48.3867C8.17326 51.9207 9.5018 55.2298 11.8042 57.7371H1.92539C1.06376 57.7371 0.365234 58.4356 0.365234 59.2973V71.6805C0.365234 72.5422 1.06376 73.2407 1.92539 73.2407C2.78702 73.2407 3.48555 72.5422 3.48555 71.6805V66.9783H7.14554V71.6805C7.14554 72.5422 7.84406 73.2407 8.7057 73.2407C9.56733 73.2407 10.2659 72.5422 10.2659 71.6805V66.9783H63.083V71.6805C63.083 72.5422 63.7815 73.2407 64.6432 73.2407C65.5048 73.2407 66.2033 72.5422 66.2033 71.6805V66.9783H69.8632V71.6805C69.8632 72.5422 70.5617 73.2407 71.4233 73.2407C72.285 73.2407 72.9835 72.5422 72.9835 71.6805V59.2971ZM45.5497 48.1131H60.1343V49.5873C60.1343 50.0294 59.7746 50.389 59.3325 50.389H58.358C58.3569 50.389 58.3557 50.389 58.3546 50.389H47.3298C47.3281 50.389 47.3264 50.389 47.3247 50.389H46.3513C45.9092 50.389 45.5497 50.0294 45.5497 49.5873V48.1131ZM57.2646 53.5094L58.6773 57.7368H54.4022V53.5094H57.2646ZM48.9825 16.162H56.7015C57.4585 16.162 58.0743 16.7779 58.0743 17.5348C58.0743 18.2916 57.4585 18.9075 56.7015 18.9075H48.9825C48.2255 18.9075 47.6097 18.2916 47.6097 17.5348C47.6098 16.7779 48.2255 16.162 48.9825 16.162ZM43.4015 44.9927C42.6434 44.9927 41.9853 44.5631 41.6408 43.8436C41.3015 43.1347 41.3737 42.3644 41.8328 41.777L49.3685 33.2262C50.0361 32.4685 50.4039 31.4951 50.4039 30.4853V22.0278H55.4216V30.498C55.4216 31.4947 55.7811 32.4586 56.4338 33.2121L63.8478 41.7723C64.3113 42.3619 64.3856 43.1346 64.0458 43.8446C63.7018 44.5634 63.0427 44.9926 62.2827 44.9926H43.4015V44.9927ZM48.4194 53.5094H51.2818V57.7368H47.0066L48.4194 53.5094ZM17.7006 19.3123H26.3172C27.0741 19.3123 27.69 19.9281 27.69 20.6849C27.69 21.4417 27.0741 22.0576 26.3172 22.0576H17.7006C16.9438 22.0576 16.3279 21.4417 16.3279 20.6849C16.3279 19.9281 16.9438 19.3123 17.7006 19.3123ZM11.2936 48.3864C11.2936 44.3979 13.4877 40.7636 17.0196 38.9015C18.4019 38.1726 19.2607 36.7618 19.2607 35.2194V25.178H24.757V35.2194C24.757 36.7616 25.6158 38.1726 26.9983 38.9015C30.5302 40.7636 32.7243 44.398 32.7243 48.3864C32.7243 52.2883 30.6346 55.8378 27.2459 57.7368H16.7719C13.3832 55.8378 11.2936 52.2882 11.2936 48.3864ZM69.8632 60.8573V63.8582H3.48555V60.8573H69.8632Z" fill="#332F30"/>
  </g>
  <defs>
    <clipPath id="clip0_1229_91">
      <rect width="72.6183" height="72.6183" fill="white" transform="translate(0.365234 0.622559)"/>
    </clipPath>
  </defs>
</svg>