<svg xmlns="http://www.w3.org/2000/svg" width="78" height="78" viewBox="0 0 78 78" fill="none">
  <g clip-path="url(#clip0_1229_66)">
    <path d="M16.1801 37.7837H8.76634C7.1594 37.7837 5.66207 36.9192 4.85845 35.5276L1.15143 29.1069C0.34796 27.7153 0.34796 25.9861 1.15143 24.5945L4.8583 18.1738C5.66177 16.7822 7.15925 15.9177 8.76619 15.9177H16.1799C17.7869 15.9177 19.2842 16.7822 20.0878 18.1738L23.7948 24.5943C24.5985 25.9861 24.5985 27.7153 23.7947 29.1069L20.0878 35.5276C19.2843 36.9192 17.787 37.7837 16.1801 37.7837ZM8.76634 19.1836C8.32244 19.1836 7.90881 19.4224 7.68686 19.8068L3.97999 26.2275C3.75805 26.6119 3.75805 27.0895 3.97999 27.4738L7.68701 33.8945C7.90896 34.2789 8.32259 34.5179 8.76649 34.5179H16.1802C16.6241 34.5179 17.0378 34.2789 17.2599 33.8945L20.9667 27.4738C21.1887 27.0894 21.1887 26.6117 20.9667 26.2273L17.2599 19.8069C17.0379 19.4225 16.6243 19.1836 16.1804 19.1836H8.76634Z" fill="#E03854"/>
    <path d="M16.1801 62.3733H8.76634C7.1594 62.3733 5.66207 61.5088 4.85845 60.1172L1.15143 53.6967C0.34796 52.3049 0.34796 50.5757 1.15143 49.1841L4.8583 42.7634C5.66192 41.3718 7.15925 40.5073 8.76619 40.5073H16.1799C17.7869 40.5073 19.2842 41.3718 20.0878 42.7634L23.7948 49.1841C24.5985 50.5757 24.5985 52.3049 23.7948 53.6965L20.088 60.1172C20.088 60.1172 20.088 60.1172 20.0878 60.1172C19.2843 61.5087 17.787 62.3733 16.1801 62.3733ZM8.76634 43.7732C8.32244 43.7732 7.90881 44.0121 7.68686 44.3965L3.97999 50.8172C3.75805 51.2017 3.75805 51.6793 3.97999 52.0637L7.68686 58.4841C7.90881 58.8685 8.32244 59.1075 8.76634 59.1075H16.1801C16.624 59.1075 17.0375 58.8687 17.2596 58.4841L20.9664 52.0635C21.1884 51.6791 21.1884 51.2015 20.9666 50.8172L17.2596 44.3965C17.0376 44.0121 16.624 43.7732 16.1801 43.7732H8.76634Z" fill="#E03854"/>
    <path d="M67.0554 37.5127H45.2787C45.1948 37.2937 45.0956 37.0793 44.9765 36.873L41.2696 30.4526C41.185 30.306 41.091 30.1665 40.9916 30.0319L48.256 20.8373C48.8151 20.1296 48.6946 19.1027 47.9869 18.5436C47.2789 17.9845 46.2523 18.105 45.6932 18.8125L38.214 28.2792C37.9356 28.2253 37.6505 28.1964 37.3616 28.1964H29.9478C28.3407 28.1964 26.8433 29.0609 26.0398 30.4525L22.3329 36.8732C21.5294 38.2648 21.5294 39.9938 22.3329 41.3856L26.0398 47.806C26.8433 49.1978 28.3407 50.0622 29.9478 50.0622H37.3616C37.6696 50.0622 37.9737 50.0299 38.2697 49.9687L45.3293 59.7165C45.6486 60.1576 46.1473 60.3917 46.6533 60.3917C46.9853 60.3917 47.3203 60.2908 47.6099 60.0812C48.3403 59.5523 48.5037 58.5313 47.9746 57.8008L41.0162 48.1925C41.1062 48.0683 41.1921 47.9405 41.2698 47.806L44.9766 41.3853C45.0899 41.1893 45.1853 40.986 45.2666 40.7785H67.0555C67.9575 40.7785 68.6885 40.0474 68.6885 39.1455C68.6885 38.2436 67.9573 37.5127 67.0554 37.5127ZM42.1481 39.7525L38.4412 46.173V46.1732C38.2192 46.5576 37.8058 46.7964 37.3617 46.7964H29.948C29.5041 46.7964 29.0905 46.5576 28.8685 46.173L25.1616 39.7526C24.9397 39.3681 24.9397 38.8904 25.1616 38.5062L28.8685 32.0855C29.0905 31.701 29.5041 31.4622 29.948 31.4622H37.3617C37.8056 31.4622 38.2192 31.701 38.4412 32.0856L42.1481 38.506C42.37 38.8904 42.37 39.368 42.1481 39.7525Z" fill="#E03854"/>
    <path d="M71.5082 45.2322C68.152 45.2322 65.4217 42.5018 65.4217 39.1456C65.4217 35.7895 68.152 33.0591 71.5082 33.0591C74.8644 33.0591 77.5949 35.7895 77.5949 39.1456C77.5949 42.5018 74.8644 45.2322 71.5082 45.2322ZM71.5082 36.3249C69.9529 36.3249 68.6876 37.5902 68.6876 39.1455C68.6876 40.7008 69.9529 41.9661 71.5082 41.9661C73.0635 41.9661 74.3288 40.7008 74.3288 39.1455C74.3288 37.5904 73.0635 36.3249 71.5082 36.3249Z" fill="#332F30"/>
    <path d="M49.7668 68.0201C46.4107 68.0201 43.6801 65.2897 43.6801 61.9335C43.6801 58.5773 46.4107 55.8469 49.7668 55.8469C53.123 55.8469 55.8535 58.5773 55.8535 61.9335C55.8535 65.2897 53.123 68.0201 49.7668 68.0201ZM49.7668 59.1128C48.2115 59.1128 46.9463 60.378 46.9463 61.9333C46.9463 63.4886 48.2115 64.7539 49.7668 64.7539C51.3221 64.7539 52.5874 63.4886 52.5874 61.9333C52.5874 60.378 51.3221 59.1128 49.7668 59.1128Z" fill="#332F30"/>
    <path d="M49.7669 22.4444C46.4107 22.4444 43.6802 19.714 43.6802 16.3578C43.6802 13.0016 46.4107 10.2712 49.7669 10.2712C53.1231 10.2712 55.8536 13.0016 55.8536 16.3578C55.8536 19.714 53.1231 22.4444 49.7669 22.4444ZM49.7669 13.5371C48.2116 13.5371 46.9463 14.8024 46.9463 16.3577C46.9463 17.9129 48.2116 19.1782 49.7669 19.1782C51.3222 19.1782 52.5875 17.9129 52.5875 16.3577C52.5875 14.8024 51.3222 13.5371 49.7669 13.5371Z" fill="#332F30"/>
  </g>
  <defs>
    <clipPath id="clip0_1229_66">
      <rect width="77.0462" height="77.0462" fill="white" transform="translate(0.548828 0.622559)"/>
    </clipPath>
  </defs>
</svg>