<svg xmlns="http://www.w3.org/2000/svg" width="73" height="72" viewBox="0 0 73 72" fill="none">
  <g clip-path="url(#clip0_1229_115)">
    <path d="M36.2316 71.8313C26.6513 71.8313 17.6445 68.1005 10.8703 61.3264C4.09589 54.552 0.365234 45.5452 0.365234 35.965C0.365234 26.3847 4.09589 17.3779 10.8703 10.6035C17.6445 3.82943 26.6513 0.0986328 36.2316 0.0986328C45.8118 0.0986328 54.8186 3.82943 61.5929 10.6035C68.3672 17.3779 72.0979 26.3847 72.0979 35.965C72.0979 45.5452 68.3672 54.552 61.5929 61.3264C54.8186 68.1005 45.8118 71.8313 36.2316 71.8313ZM36.2316 3.1809C18.1544 3.1809 3.4475 17.8878 3.4475 35.965C3.4475 54.0422 18.1544 68.749 36.2316 68.749C54.3088 68.749 69.0156 54.0422 69.0156 35.965C69.0156 17.8878 54.3088 3.1809 36.2316 3.1809Z" fill="#332F30"/>
    <path d="M26.2507 57.5671C25.7108 57.5671 25.154 57.5202 24.5839 57.425C21.9871 56.9922 19.3959 55.5928 17.2877 53.4845C15.1794 51.3762 13.7799 48.785 13.3471 46.1884C12.8827 43.4012 13.5667 40.9262 15.2733 39.2196C16.98 37.5128 19.4548 36.8288 22.242 37.2934C24.8388 37.7261 27.43 39.1256 29.5382 41.2339C31.6465 43.3422 33.046 45.9334 33.4788 48.5302C33.9432 51.3172 33.2591 53.7922 31.5525 55.4987C31.5524 55.4989 31.5528 55.4986 31.5525 55.4987C30.1951 56.8563 28.351 57.5671 26.2507 57.5671ZM20.5914 40.2351C19.3078 40.2351 18.2179 40.634 17.4528 41.3991C15.314 43.538 16.2363 48.0743 19.4671 51.3049C21.1249 52.9629 23.1221 54.0567 25.0905 54.3847C26.8689 54.681 28.3895 54.3026 29.3729 53.3192C30.3563 52.3358 30.7347 50.815 30.4384 49.0368C30.1103 47.0683 29.0166 45.0712 27.3587 43.4133C25.7008 41.7554 23.7037 40.6616 21.7352 40.3336C21.3404 40.2677 20.9579 40.2351 20.5914 40.2351Z" fill="#E03854"/>
    <path d="M43.3439 41.8698C40.4753 41.87 37.9266 40.8761 36.0477 38.9973C33.8209 36.7707 32.8373 33.6024 33.278 30.0767C33.7008 26.6947 35.3997 23.366 38.0619 20.7038C40.7241 18.0416 44.0527 16.3425 47.4347 15.9198C50.9596 15.4791 54.1285 16.463 56.3553 18.6897C56.3551 18.6895 56.3554 18.6898 56.3553 18.6897C58.5821 20.9163 59.5657 24.0845 59.125 27.6103C58.7021 30.9923 57.0033 34.3208 54.3412 36.9831C51.6789 39.6453 48.3504 41.3442 44.9684 41.7669C44.4175 41.8358 43.8752 41.8698 43.3439 41.8698ZM49.0442 18.9004C48.6443 18.9004 48.2348 18.9263 47.817 18.9784C45.1119 19.3166 42.4215 20.7034 40.2415 22.8835C35.8444 27.2807 34.9408 33.5315 38.2272 36.8179C39.561 38.1517 41.3835 38.7951 43.3717 38.7953C46.2826 38.7956 49.5491 37.4163 52.1617 34.8036C54.3417 32.6236 55.7285 29.9332 56.0667 27.2281C56.3868 24.667 55.7153 22.4087 54.1758 20.8693C52.8876 19.5809 51.0957 18.9004 49.0442 18.9004Z" fill="#E03854"/>
    <path d="M43.3449 34.7498C42.3924 34.7498 41.6037 34.4818 41.0834 33.9613C40.4815 33.3594 40.4817 32.3836 41.0834 31.7819C41.6378 31.2273 42.5095 31.1836 43.1141 31.6509C43.5842 31.7433 45.3616 31.5319 47.126 29.7676C48.8905 28.0033 49.1016 26.2258 49.0093 25.7555C48.5422 25.1511 48.5859 24.2792 49.1404 23.7248C49.7423 23.1229 50.718 23.1229 51.3199 23.725C52.7851 25.1902 52.2349 29.0178 49.3056 31.9471C48.0272 33.2255 46.466 34.1464 44.9095 34.5402C44.3547 34.6807 43.8286 34.7498 43.3449 34.7498Z" fill="#E03854"/>
    <path d="M46.2016 58.8705C42.9958 58.8705 40.3877 56.2625 40.3877 53.0567C40.3877 49.8508 42.9959 47.2427 46.2016 47.2427C49.4074 47.2427 52.0156 49.8508 52.0156 53.0567C52.0156 56.2625 49.4074 58.8705 46.2016 58.8705ZM46.2016 50.3249C44.6953 50.3249 43.47 51.5504 43.47 53.0567C43.47 54.5629 44.6955 55.7883 46.2016 55.7883C47.7078 55.7883 48.9333 54.5629 48.9333 53.0567C48.9333 51.5504 47.7078 50.3249 46.2016 50.3249Z" fill="#E03854"/>
    <path d="M22.1017 25.55C22.0546 25.55 22.008 25.5496 21.9612 25.5489C19.861 25.5134 18.175 24.6591 17.3354 23.2048C16.4958 21.7504 16.5989 19.8631 17.6184 18.0267C18.5134 16.4147 20.0447 14.9272 21.9305 13.8385C23.8161 12.7498 25.8684 12.171 27.7137 12.1982C29.8138 12.2336 31.4998 13.088 32.3394 14.5424C33.9694 17.3657 31.9511 21.4799 27.7445 23.9087C25.9065 24.9697 23.9087 25.55 22.1017 25.55ZM27.5737 15.2793C26.3174 15.2793 24.8284 15.7244 23.4716 16.5079C22.0831 17.3096 20.932 18.4085 20.3133 19.5229C19.832 20.3896 19.7197 21.1699 20.0048 21.6637C20.2899 22.1575 21.0219 22.4503 22.0131 22.467C23.2854 22.4827 24.8148 22.041 26.2033 21.2392C28.9693 19.6423 30.3148 17.2001 29.6702 16.0834C29.3851 15.5895 28.653 15.2967 27.6618 15.28C27.6325 15.2796 27.6031 15.2793 27.5737 15.2793Z" fill="#E03854"/>
    <path d="M58.648 44.5114C56.8376 44.5554 56.5611 41.7683 58.3468 41.46C60.5296 41.0692 60.8612 44.4698 58.648 44.5114Z" fill="#332F30"/>
    <path d="M26.2617 33.2329C24.0467 33.1936 24.3838 29.7854 26.5631 30.1814C28.3476 30.4913 28.0722 33.2771 26.2617 33.2329Z" fill="#332F30"/>
    <path d="M12.0191 33.2329C9.80406 33.1935 10.141 29.7854 12.3204 30.1814C14.1049 30.4915 13.8294 33.2771 12.0191 33.2329Z" fill="#332F30"/>
  </g>
  <defs>
    <clipPath id="clip0_1229_115">
      <rect width="71.7327" height="71.7327" fill="white" transform="translate(0.365234 0.0986328)"/>
    </clipPath>
  </defs>
</svg>