<svg width="43" height="52" viewBox="0 0 43 52" fill="none" xmlns="http://www.w3.org/2000/svg">
<path d="M24.7608 24.1206C26.1939 20.0128 30.8048 11.1809 34.2442 8.71624L37.315 12.4133L34.2442 18.8831L41 17.3427V22.8882L32.0945 24.1206L27.7953 34.9036M25.0316 3.78695C23.189 12.1053 22.452 31.9461 34.2442 44.7625C33.5276 46.5083 30.9276 50 26.2598 50C23.9055 46.611 19.0126 38.7856 18.2756 34.5957C17.07 37.0147 14.0677 42.4283 10.512 47.3145C9.49071 48.718 7.43069 48.7 6.36045 47.3334V47.3334C5.60088 46.3635 5.59196 45.0031 6.33875 44.0234L9.06299 40.4493L2 41.6817V36.7523L10.5984 34.5957L15.8189 24.7369C15 19.6021 13.9764 8.03855 16.4331 2.86269C17.7638 2.04112 21.3466 1.07578 25.0316 3.78695Z" stroke="#E03854" stroke-width="3" stroke-linejoin="round"/>
</svg>
