<svg width="19" height="19" viewBox="0 0 19 19" fill="none" xmlns="http://www.w3.org/2000/svg">
<path d="M1.54601 17.891L2 17L1.54601 17.891ZM1.10899 17.454L2 17L1.10899 17.454ZM10.891 17.454L10 17L10.891 17.454ZM10.454 17.891L10 17L10.454 17.891ZM10.454 8.10899L10 9L10.454 8.10899ZM10.891 8.54601L10 9L10.891 8.54601ZM1.54601 8.10899L2 9L1.54601 8.10899ZM1.10899 8.54601L2 9L1.10899 8.54601ZM17 6C17 6.55228 17.4477 7 18 7C18.5523 7 19 6.55228 19 6H17ZM13 0C12.4477 0 12 0.447715 12 1C12 1.55228 12.4477 2 13 2V0ZM17.891 1.54601L18.782 1.09202V1.09202L17.891 1.54601ZM17.454 1.10899L17.908 0.217987V0.217987L17.454 1.10899ZM17.7071 2.70711C18.0976 2.31658 18.0976 1.68342 17.7071 1.29289C17.3166 0.902369 16.6834 0.902369 16.2929 1.29289L17.7071 2.70711ZM12.2929 5.29289C11.9024 5.68342 11.9024 6.31658 12.2929 6.70711C12.6834 7.09763 13.3166 7.09763 13.7071 6.70711L12.2929 5.29289ZM2.6 9H9.4V7H2.6V9ZM10 9.6V16.4H12V9.6H10ZM9.4 17H2.6V19H9.4V17ZM2 16.4V9.6H0V16.4H2ZM2.6 17C2.30347 17 2.14122 16.9992 2.02463 16.9897C1.91972 16.9811 1.94249 16.9707 2 17L1.09202 18.782C1.36344 18.9203 1.63318 18.9644 1.86177 18.9831C2.07869 19.0008 2.33647 19 2.6 19V17ZM0 16.4C0 16.6635 -0.000777721 16.9213 0.0169452 17.1382C0.035622 17.3668 0.0796895 17.6366 0.217987 17.908L2 17C2.0293 17.0575 2.01887 17.0803 2.0103 16.9754C2.00078 16.8588 2 16.6965 2 16.4H0ZM2 17L0.217987 17.908C0.409734 18.2843 0.715696 18.5903 1.09202 18.782L2 17ZM10 16.4C10 16.6965 9.99922 16.8588 9.9897 16.9754C9.98112 17.0803 9.9707 17.0575 10 17L11.782 17.908C11.9203 17.6366 11.9644 17.3668 11.9831 17.1382C12.0008 16.9213 12 16.6635 12 16.4H10ZM9.4 19C9.66352 19 9.92131 19.0008 10.1382 18.9831C10.3668 18.9644 10.6366 18.9203 10.908 18.782L10 17C10.0575 16.9707 10.0803 16.9811 9.97537 16.9897C9.85878 16.9992 9.69653 17 9.4 17V19ZM10 17L10.908 18.782C11.2843 18.5903 11.5903 18.2843 11.782 17.908L10 17ZM9.4 9C9.69653 9 9.85878 9.00078 9.97537 9.0103C10.0803 9.01888 10.0575 9.0293 10 9L10.908 7.21799C10.6366 7.07969 10.3668 7.03562 10.1382 7.01695C9.92131 6.99922 9.66353 7 9.4 7V9ZM12 9.6C12 9.33648 12.0008 9.07869 11.9831 8.86177C11.9644 8.63318 11.9203 8.36344 11.782 8.09202L10 9C9.9707 8.94249 9.98112 8.91972 9.9897 9.02463C9.99922 9.14122 10 9.30347 10 9.6H12ZM10 9L11.782 8.09202C11.5903 7.7157 11.2843 7.40973 10.908 7.21799L10 9ZM2.6 7C2.33647 7 2.07869 6.99922 1.86177 7.01695C1.63318 7.03562 1.36344 7.07969 1.09202 7.21799L2 9C1.94249 9.0293 1.91972 9.01888 2.02463 9.0103C2.14122 9.00078 2.30347 9 2.6 9V7ZM2 9.6C2 9.30347 2.00078 9.14122 2.0103 9.02463C2.01887 8.91972 2.0293 8.94249 2 9L0.217987 8.09202C0.0796896 8.36344 0.0356221 8.63318 0.0169453 8.86177C-0.000777721 9.07869 0 9.33648 0 9.6H2ZM1.09202 7.21799C0.715695 7.40973 0.409734 7.71569 0.217987 8.09202L2 9L1.09202 7.21799ZM19 6V2.6H17V6H19ZM16.4 0H13V2H16.4V0ZM19 2.6C19 2.33647 19.0008 2.07869 18.9831 1.86177C18.9644 1.63318 18.9203 1.36344 18.782 1.09202L17 2C16.9707 1.94249 16.9811 1.91972 16.9897 2.02463C16.9992 2.14122 17 2.30347 17 2.6H19ZM16.4 2C16.6965 2 16.8588 2.00078 16.9754 2.0103C17.0803 2.01887 17.0575 2.0293 17 2L17.908 0.217987C17.6366 0.0796896 17.3668 0.0356221 17.1382 0.0169452C16.9213 -0.000777721 16.6635 0 16.4 0V2ZM18.782 1.09202C18.5903 0.715696 18.2843 0.409734 17.908 0.217987L17 2L18.782 1.09202ZM16.2929 1.29289L12.2929 5.29289L13.7071 6.70711L17.7071 2.70711L16.2929 1.29289Z" fill="#E03854"/>
</svg>
