<svg width="57" height="57" viewBox="0 0 57 57" fill="none" xmlns="http://www.w3.org/2000/svg">
<circle cx="28.4998" cy="28.5" r="28.5" fill="white"/>
<path d="M10.6218 45.0166L13.0911 35.8201C11.6912 33.3023 10.9621 30.483 10.9621 27.6152C10.9621 18.2437 18.5837 10.6221 27.9552 10.6221C37.3267 10.6221 44.9483 18.2437 44.9483 27.6152C44.9483 36.9867 37.3267 44.6083 27.9552 44.6083C25.1457 44.6083 22.3654 43.8986 19.8767 42.5474L10.6218 45.0166ZM20.3336 39.0962L20.9169 39.4462C23.0556 40.7197 25.4859 41.3905 27.9455 41.3905C35.5379 41.3905 41.7208 35.2077 41.7208 27.6152C41.7208 20.0227 35.5379 13.8399 27.9455 13.8399C20.353 13.8399 14.1702 20.0227 14.1702 27.6152C14.1702 30.1233 14.8701 32.5926 16.1825 34.7605L16.5422 35.3437L15.1618 40.4767L20.3336 39.0962Z" fill="#332F30"/>
<path fill-rule="evenodd" clip-rule="evenodd" d="M34.2645 29.9774C33.5646 29.5594 32.6508 29.0928 31.8342 29.433C31.2023 29.6955 30.794 30.6773 30.3857 31.1829C30.1718 31.4453 29.9288 31.4842 29.5982 31.3481C27.2262 30.4052 25.4083 28.8206 24.0959 26.6332C23.8723 26.293 23.9112 26.0305 24.1834 25.7097C24.5819 25.243 25.0777 24.7181 25.1847 24.0862C25.2916 23.4543 25 22.7252 24.7375 22.1711C24.407 21.4614 24.0375 20.4406 23.3182 20.0323C22.6571 19.6629 21.7919 19.8671 21.2086 20.3434C20.1976 21.1698 19.7115 22.453 19.7212 23.7362C19.7212 24.0959 19.7698 24.4653 19.8573 24.8153C20.0615 25.6611 20.4503 26.4485 20.8878 27.1971C21.2183 27.7609 21.578 28.3053 21.9669 28.84C23.2404 30.5607 24.8153 32.0578 26.6429 33.1855C27.5567 33.7493 28.5386 34.2354 29.5593 34.5756C30.6967 34.9548 31.7175 35.3437 32.9521 35.1103C34.2451 34.8673 35.5186 34.0701 36.0338 32.8258C36.1894 32.4564 36.2574 32.0481 36.1797 31.6592C36.0047 30.8426 34.9159 30.3663 34.2645 29.9774Z" fill="#332F30"/>
</svg>
