<svg width="33" height="33" viewBox="0 0 33 33" fill="none" xmlns="http://www.w3.org/2000/svg">
<circle cx="16.0981" cy="16.0984" r="16.0984" fill="#332F30"/>
<path d="M5.99969 25.428L7.39447 20.2333C6.60373 18.811 6.19189 17.2186 6.19189 15.5987C6.19189 10.3051 10.497 6 15.7905 6C21.0841 6 25.3892 10.3051 25.3892 15.5987C25.3892 20.8922 21.0841 25.1973 15.7905 25.1973C14.2036 25.1973 12.6331 24.7965 11.2273 24.0332L5.99969 25.428ZM11.4854 22.0838L11.8149 22.2815C13.023 23.0008 14.3958 23.3797 15.7851 23.3797C20.0737 23.3797 23.5661 19.8873 23.5661 15.5987C23.5661 11.31 20.0737 7.81759 15.7851 7.81759C11.4964 7.81759 8.00399 11.31 8.00399 15.5987C8.00399 17.0154 8.39936 18.4102 9.14068 19.6347L9.34385 19.9642L8.5641 22.8635L11.4854 22.0838Z" fill="white"/>
<path fill-rule="evenodd" clip-rule="evenodd" d="M19.3544 16.933C18.959 16.6969 18.4428 16.4333 17.9816 16.6255C17.6246 16.7738 17.394 17.3284 17.1634 17.614C17.0426 17.7622 16.9053 17.7842 16.7186 17.7073C15.3787 17.1747 14.3519 16.2796 13.6105 15.0441C13.4842 14.8519 13.5062 14.7036 13.66 14.5224C13.8851 14.2588 14.1652 13.9623 14.2256 13.6054C14.286 13.2484 14.1212 12.8366 13.973 12.5236C13.7863 12.1227 13.5776 11.5461 13.1712 11.3155C12.7978 11.1068 12.3091 11.2222 11.9796 11.4912C11.4086 11.958 11.134 12.6828 11.1395 13.4077C11.1395 13.6108 11.1669 13.8195 11.2164 14.0172C11.3317 14.4949 11.5513 14.9397 11.7984 15.3625C11.9851 15.681 12.1883 15.9885 12.408 16.2906C13.1273 17.2625 14.0169 18.1082 15.0492 18.7451C15.5654 19.0636 16.12 19.3382 16.6966 19.5304C17.3391 19.7445 17.9157 19.9642 18.613 19.8324C19.3434 19.6951 20.0627 19.2448 20.3538 18.542C20.4416 18.3333 20.4801 18.1027 20.4361 17.883C20.3373 17.4218 19.7223 17.1527 19.3544 16.933Z" fill="white"/>
</svg>
