<svg width="47" height="47" viewBox="0 0 47 47" fill="none" xmlns="http://www.w3.org/2000/svg">
<circle cx="23.2792" cy="23.2795" r="23.2795" fill="white"/>
<path d="M8.67615 36.7706L10.6931 29.2587C9.54963 27.202 8.95407 24.8992 8.95407 22.5567C8.95407 14.9018 15.1796 8.67627 22.8345 8.67627C30.4894 8.67627 36.7149 14.9018 36.7149 22.5567C36.7149 30.2116 30.4894 36.4371 22.8345 36.4371C20.5396 36.4371 18.2686 35.8574 16.2357 34.7537L8.67615 36.7706ZM16.6089 31.9347L17.0854 32.2206C18.8324 33.2608 20.8175 33.8087 22.8265 33.8087C29.0283 33.8087 34.0786 28.7584 34.0786 22.5567C34.0786 16.355 29.0283 11.3047 22.8265 11.3047C16.6248 11.3047 11.5745 16.355 11.5745 22.5567C11.5745 24.6054 12.1463 26.6223 13.2183 28.3931L13.5121 28.8696L12.3845 33.0623L16.6089 31.9347Z" fill="#E03854"/>
<path fill-rule="evenodd" clip-rule="evenodd" d="M27.9881 24.4857C27.4164 24.1442 26.6699 23.7631 26.0029 24.041C25.4868 24.2554 25.1533 25.0574 24.8198 25.4703C24.6451 25.6847 24.4465 25.7165 24.1766 25.6053C22.239 24.8351 20.7541 23.5407 19.6821 21.754C19.4995 21.4761 19.5312 21.2617 19.7536 20.9997C20.0791 20.6185 20.4841 20.1897 20.5715 19.6736C20.6588 19.1574 20.4206 18.5619 20.2062 18.1092C19.9362 17.5296 19.6344 16.6958 19.0468 16.3623C18.5069 16.0605 17.8001 16.2273 17.3237 16.6164C16.4979 17.2913 16.1008 18.3395 16.1088 19.3877C16.1088 19.6815 16.1485 19.9833 16.2199 20.2691C16.3867 20.96 16.7043 21.6032 17.0616 22.2146C17.3316 22.6752 17.6254 23.1198 17.9431 23.5566C18.9833 24.9621 20.2697 26.185 21.7626 27.1061C22.509 27.5667 23.311 27.9637 24.1448 28.2416C25.0739 28.5513 25.9076 28.869 26.9161 28.6784C27.9722 28.4799 29.0125 27.8287 29.4333 26.8123C29.5604 26.5105 29.616 26.177 29.5524 25.8594C29.4095 25.1924 28.5201 24.8033 27.9881 24.4857Z" fill="#E03854"/>
</svg>
